<svg width="469" height="248" xmlns="http://www.w3.org/2000/svg" xmlns:xlink="http://www.w3.org/1999/xlink" xml:space="preserve" overflow="hidden"><defs><clipPath id="clip0"><rect x="905" y="0" width="469" height="248"/></clipPath></defs><g clip-path="url(#clip0)" transform="translate(-905 0)"><path d="M-0.46949-1.45842 391.685 1.62823 392.454 112.648-1.44843 113.477" fill="#E9ECEF" transform="matrix(0.797348 -0.603519 0.602969 0.798076 840.214 194.085)"/><path d="M0 0C146.251-2.70706 295.18-1.52834 391.805 0M0 0C120.879-0.439523 242.557-0.799133 391.805 0M391.805 0C389.118 38.3284 389.118 77.5658 391.805 114.036M391.805 0C392.704 36.9299 392.074 73.0607 391.805 114.036M391.805 114.036C265.552 116.553 138.16 115.305 0 114.036M391.805 114.036C241.248 115.455 90.322 115.774 0 114.036M0 114.036C-0.259718 90.0822-0.0499458 65.5688 0 0M0 114.036C-0.609339 82.1608-0.789143 51.1145 0 0" stroke="#1E1E1E" stroke-width="0.998916" stroke-linecap="round" fill="none" transform="matrix(0.797348 -0.603519 0.602969 0.798076 840.214 194.085)"/><path d="M23.3546 2.23757C29.9775 0.00998916 40.0465-0.399566 46.989 1.33855 53.9414 3.07666 61.4133 7.97135 65.0294 12.6862 68.6455 17.4011 69.8142 24.3036 68.6755 29.6278 67.5367 34.9521 63.7208 41.1853 58.1968 44.6515 52.6728 48.1078 42.9833 50.4552 35.5314 50.3953 28.0795 50.3354 19.329 47.8281 13.4854 44.2919 7.63172 40.7558 1.82802 34.3227 0.429534 29.1683-0.958959 24.0139 1.18871 18.2002 5.12444 13.3655 9.06017 8.53074 20.3979 2.06776 24.0439 0.189794 27.6899-1.69816 26.5911 1.36851 27.0007 2.06776M51.1645 3.7759C57.7973 6.09339 65.2292 10.6285 68.2359 15.683 71.2327 20.7275 71.5523 28.7788 69.1649 34.083 66.7775 39.3872 60.2246 44.9812 53.9015 47.4984 47.5883 50.0057 38.7979 49.9758 31.2461 49.1766 23.7043 48.3775 13.6851 46.3497 8.63063 42.6937 3.58611 39.0376 1.24864 32.6146 0.978937 27.2504 0.70923 21.8862 2.63714 14.784 7.0024 10.5186 11.3677 6.24322 19.6287 2.69707 27.1705 1.63822 34.7023 0.579371 48.4174 3.71597 52.2233 4.16548 56.0392 4.61499 50.645 4.26537 50.0357 4.31532" fill="#FFFFFF" transform="matrix(0.797348 -0.603519 0.602969 0.798076 987.153 118.42)"/><path d="M41.9245-0.529425C49.1167-0.0998916 58.1569 4.26537 62.8518 8.69057 67.5567 13.1058 70.5235 20.4078 70.1439 26.0118 69.7743 31.6157 65.6487 38.3584 60.6042 42.3141 55.5497 46.2698 47.2487 49.0268 39.8767 49.736 32.4947 50.4353 22.6254 49.1067 16.3323 46.5295 10.0491 43.9523 4.56504 39.2973 2.13768 34.2728-0.279696 29.2582-0.919002 21.6765 1.80804 16.4222 4.54507 11.1579 10.9581 5.15441 18.5499 2.70706 26.1416 0.259718 41.9644 1.43844 47.3586 1.72812 52.7627 2.0278 51.1145 4.0556 50.9447 4.47514M40.1165 1.33855C47.4785 1.69816 57.4177 4.86472 62.4222 8.98025 67.4368 13.0958 70.5035 20.8374 70.1738 26.0317 69.8442 31.2261 65.2392 36.2806 60.4244 40.1264 55.6096 43.9823 48.5074 48.1178 41.2952 49.1367 34.093 50.1656 23.8741 48.8869 17.1714 46.2798 10.4686 43.6626 3.52617 38.2984 1.07883 33.4737-1.35853 28.6389-0.139848 22.4456 2.53725 17.2812 5.20435 12.1168 10.7983 5.39415 17.1114 2.50728 23.4346-0.389577 36.5104 0.379588 40.4361-0.0799133 44.3718-0.529425 40.6758-0.909013 40.6858-0.209772" stroke="#1E1E1E" stroke-width="0.998916" stroke-linecap="round" fill="none" transform="matrix(0.797348 -0.603519 0.602969 0.798076 987.153 118.42)"/><text fill="#E03131" font-family="Excalifont,Excalifont_MSFontService,sans-serif" font-weight="400" font-size="28" transform="matrix(0.998584 0 0 0.999495 1101.92 184)">Taking advantage </text><text fill="#E03131" font-family="Excalifont,Excalifont_MSFontService,sans-serif" font-weight="400" font-size="28" transform="matrix(0.998584 0 0 0.999495 1133.34 219)">of symmetries</text><path d="M0 0C161.341-2.27677 322.643-1.93725 477.104 0M0 0C148.09 1.66764 295.471 1.66764 477.104 0M477.104 0C476.734 65.6269 478.522 130.066 477.104 254M477.104 0C478.332 89.1736 477.912 177.548 477.104 254M477.104 254C367.499 252.861 256.746 252.622 0 254M477.104 254C310.39 251.783 143.457 251.833 0 254M0 254C1.27819 194.464-0.399434 135.108 0 0M0 254C0.439377 186.376 0.748938 116.884 0 0" stroke="#E03131" stroke-width="0.499292" stroke-linecap="round" fill="none" transform="matrix(1 0 0 1.00091 900.38 -2.2235)"/><path d="M0 0C87.6058-65.9365 173.584-130.795 281.301-210.621" stroke="#1E1E1E" stroke-width="0.998584" stroke-linecap="round" stroke-dasharray="7.98867 8.48796" fill="none" transform="matrix(1 0 0 1.00091 901.349 216.696)"/><path d="M0 0C24.9147 33.3028 52.4856 62.4814 73.5357 88.5345" stroke="#1E1E1E" stroke-width="0.998584" stroke-linecap="round" stroke-dasharray="7.98867 8.48796" fill="none" transform="matrix(1 0 0 1.00091 997.019 75.2033)"/><path d="M-0.569265-0.569265C-0.569265-0.569265-0.422788-0.699098-0.129832-0.958763 0.149807-1.21843 0.506014-1.49474 0.938789-1.78769 1.36491-2.08065 1.83763-2.29704 2.35696-2.43686 2.86963-2.57668 3.44555-2.67322 4.08473-2.72648 4.71725-2.77975 5.3764-2.8197 6.06218-2.84633 6.7413-2.8663 7.53694-2.7398 8.4491-2.46682 9.36791-2.19384 10.3034-1.78436 11.2555-1.2384 12.2076-0.69244 13.143-0.176439 14.0619 0.309601 14.9873 0.802298 15.9428 1.44147 16.9282 2.22713 17.9136 3.00612 18.8257 3.84504 19.6646 4.74388 20.5035 5.64272 21.2493 6.64143 21.9017 7.74001 22.5542 8.8386 23.2167 9.95382 23.8892 11.0857 24.5616 12.2176 25.3073 13.3561 26.1263 14.5013 26.9519 15.6465 27.8174 16.8816 28.7229 18.2065 29.6284 19.5248 30.5406 20.8032 31.4594 22.0416 32.3849 23.2733 33.3237 24.5683 34.2758 25.9265 35.2212 27.2781 36.2898 28.5665 37.4816 29.7916 38.6801 31.0166 40.065 32.1518 41.6363 33.1972 43.2076 34.2425 44.7955 35.118 46.4001 35.8238 48.0047 36.5362 49.8157 37.1055 51.8331 37.5316 53.8439 37.9577 55.9478 38.1941 58.145 38.2407 60.3355 38.2806 62.4994 38.1108 64.6366 37.7313 66.7672 37.3518 68.9743 36.8824 71.2581 36.3231 73.5418 35.7639 75.7123 35.1713 77.7697 34.5454 79.8337 33.9196 81.648 33.337 83.2126 32.7977 84.7773 32.265 86.0257 31.8189 86.9578 31.4594 87.8899 31.0932 88.3893 30.9035 88.4559 30.8901 88.5291 30.8768 88.599 30.8735 88.6656 30.8802 88.7388 30.8868 88.8087 30.9068 88.8753 30.9401 88.9353 30.9667 88.9918 31.0033 89.0451 31.0499 89.0984 31.1032 89.1417 31.1598 89.1749 31.2197 89.2016 31.2863 89.2215 31.3529 89.2349 31.4195 89.2482 31.4927 89.2482 31.5626 89.2349 31.6292 89.2215 31.6958 89.1982 31.7624 89.165 31.8289 89.1317 31.8889 89.0917 31.9454 89.0451 31.9987 88.9918 32.0453 88.9319 32.0819 88.8653 32.1086 88.8054 32.1419 88.7388 32.1618 88.6656 32.1685 88.5924 32.1752 88.5224 32.1718 88.4559 32.1585 88.3893 32.1385 88.326 32.1119 88.2661 32.0786 88.2062 32.0387 88.1529 31.9921 88.1063 31.9388 88.0597 31.8855 88.0231 31.8256 87.9965 31.759 87.9698 31.6924 87.9532 31.6259 87.9465 31.5593 87.9465 31.486 87.9565 31.4161 87.9765 31.3496 87.9965 31.283 88.0264 31.2197 88.0664 31.1598 88.1063 31.0999 88.1529 31.0499 88.2062 31.01 88.2661 30.9634 88.3294 30.9301 88.396 30.9101 88.4625 30.8901 88.5291 30.8802 88.5957 30.8802 88.6689 30.8802 88.7388 30.8901 88.8054 30.9101 88.872 30.9301 88.9353 30.9634 88.9952 31.01 89.0484 31.0499 89.095 31.0999 89.135 31.1598 89.1749 31.2197 89.2049 31.283 89.2249 31.3496 89.2449 31.4161 89.2515 31.486 89.2449 31.5593 89.2382 31.6325 89.2215 31.6991 89.1949 31.759 89.1683 31.8256 89.1317 31.8855 89.0851 31.9388 89.0451 31.9987 88.9918 32.0453 88.9253 32.0786 88.8653 32.1119 88.8354 32.1285 88.8354 32.1285 88.8354 32.1285 88.366 32.3216 87.4272 32.7078 86.4818 33.0873 85.2234 33.56 83.6521 34.126 82.0874 34.6986 80.2664 35.3244 78.1891 36.0035 76.1051 36.6893 73.908 37.3285 71.5976 37.9211 69.2806 38.5136 67.0035 39.0063 64.7664 39.3992 62.5227 39.792 60.2523 39.9584 57.9552 39.8985 55.6515 39.8319 53.441 39.5656 51.3238 39.0996 49.2065 38.6268 47.3056 38.011 45.6211 37.2519 43.9366 36.4929 42.2655 35.5541 40.6076 34.4356 38.9497 33.317 37.4983 32.1119 36.2532 30.8202 35.0015 29.5286 33.9063 28.2103 32.9675 26.8653 32.0287 25.5204 31.0899 24.2221 30.1511 22.9704 29.219 21.7186 28.3035 20.437 27.4046 19.1253 26.5058 17.8137 25.6336 16.5653 24.788 15.3802 23.9424 14.195 23.1801 13.0365 22.501 11.9046 21.8285 10.7728 21.1993 9.70082 20.6134 8.68879 20.0342 7.68342 19.3517 6.75795 18.566 5.91237 17.7871 5.07345 16.9448 4.2878 16.0393 3.55541 15.1405 2.82302 14.2217 2.20715 13.2829 1.7078 12.3441 1.20178 11.4519 0.699098 10.6063 0.199742 9.76074-0.292955 8.9651-0.669137 8.21939-0.928802 7.47369-1.18181 6.77792-1.30165 6.13209-1.28834 5.4796-1.26836 4.87704-1.24173 4.32442-1.20844 3.76514-1.16849 3.30241-1.1119 2.93621-1.03866 2.57002-0.965421 2.21381-0.818943 1.86759-0.599227 1.52137-0.386168 1.21843-0.13982 0.958763 0.13982 0.699098 0.426117 0.542633 0.58924 0.489369 0.629188 0.436104 0.669137 0.37951 0.702427 0.319588 0.729059 0.266323 0.755692 0.2064 0.772337 0.13982 0.778995 0.0732388 0.792311 0.0133162 0.79564-0.0399485 0.788982-0.106529 0.788982-0.169781 0.778995-0.229704 0.759021-0.296284 0.739046-0.356207 0.712414-0.409472 0.679124-0.462736 0.645833-0.512672 0.605885-0.559278 0.559278-0.605885 0.512672-0.645833 0.462736-0.679124 0.409472-0.712414 0.356207-0.739046 0.296284-0.759021 0.229704-0.778995 0.169781-0.788982 0.106529-0.788982 0.0399485-0.79564-0.0133162-0.792311-0.0732388-0.778995-0.13982-0.772337-0.2064-0.755692-0.266323-0.729059-0.319588-0.702427-0.37951-0.669137-0.436104-0.629188-0.489369-0.58924-0.542633-0.569265-0.569265-0.569265-0.569265Z" fill="#1971C2" transform="matrix(0.927425 0.37401 -0.373669 0.928271 1146.07 42.5942)"/><path d="M-0.0998584 0.798867C-0.0998584 0.798867-0.396105 0.765581-0.988598 0.699009-1.58109 0.625779-2.15028 0.64908-2.69618 0.76891-3.23541 0.882083-3.79462 1.06849-4.3738 1.32812-4.95963 1.58775-5.50886 1.9073-6.02146 2.28676-6.54073 2.66622-6.97345 3.06898-7.31962 3.49504-7.65914 3.92111-7.75567 4.29724-7.60921 4.62344-7.45609 4.94965-7.16318 5.13605-6.73046 5.18265-6.29774 5.22925-5.74519 5.30914-5.07281 5.42231-4.40708 5.54214-3.68145 5.74186-2.89589 6.02146-2.117 6.30772-1.39469 6.67387-0.728966 7.1199-0.0632437 7.56594 0.472663 8.05857 0.878754 8.59781 1.28484 9.1437 1.54781 9.73619 1.66764 10.3753 1.79412 11.0144 1.75085 11.5902 1.53782 12.1028 1.33145 12.6154 1.04186 13.0715 0.669051 13.4709 0.302904 13.8637-0.233003 14.1666-0.938669 14.3796-1.64434 14.5926-2.40659 14.7324-3.22543 14.799-4.04427 14.8656-5.18265 14.7557-6.64058 14.4695-8.10517 14.1766-8.86743 14.0101-8.92734 13.9702-8.9806 13.9236-9.0272 13.8737-9.06714 13.8204-9.10709 13.7605-9.13704 13.6972-9.15702 13.6307-9.17033 13.5574-9.17699 13.4875-9.17699 13.421-9.17033 13.3477-9.15369 13.2778-9.12706 13.2113-9.10043 13.1447-9.06382 13.0848-9.01721 13.0315-8.97061 12.9783-8.91736 12.935-8.85744 12.9017-8.79753 12.8618-8.73428 12.8351-8.66771 12.8218-8.59448 12.8085-8.52458 12.8052-8.45801 12.8118-8.38478 12.8185-8.31488 12.8385-8.2483 12.8717-8.18839 12.8984-8.1318 12.9383-8.07855 12.9916-8.02529 13.0382-7.98534 13.0948-7.95871 13.1613-7.92543 13.2213-7.90213 13.2878-7.88881 13.3611-7.8755 13.4276-7.8755 13.4942-7.88881 13.5608-7.90213 13.634-7.92543 13.7006-7.95871 13.7605-7.992 13.8271-8.03527 13.8836-8.08853 13.9302-8.13513 13.9768-8.19172 14.0168-8.25829 14.0501-8.32486 14.0767-8.39144 14.0934-8.45801 14.1-8.53124 14.1067-8.60114 14.1033-8.66771 14.09-8.74094 14.0701-8.80751 14.0434-8.86743 14.0101-8.92734 13.9702-8.9806 13.9236-9.0272 13.8703-9.06714 13.8171-9.10043 13.7572-9.12706 13.6906-9.15369 13.624-9.17033 13.5574-9.17699 13.4909-9.17699 13.4176-9.167 13.3477-9.14703 13.2812-9.12706 13.2146-9.0971 13.1514-9.05716 13.0914-9.01721 13.0315-8.97061 12.9816-8.91736 12.9416-8.85744 12.895-8.7942 12.8618-8.72762 12.8418-8.66105 12.8218-8.59448 12.8118-8.52791 12.8118-8.45468 12.8118-8.38478 12.8218-8.31821 12.8418-8.25163 12.8684-8.21835 12.8817-8.21835 12.8817-8.21835 12.8817-7.61254 12.8817-6.40092 12.8817-5.19597 12.8817-4.234 12.8584-3.51502 12.8118-2.79604 12.7652-2.2102 12.7186-1.75751 12.672-1.31147 12.6321-0.875425 12.4024-0.449363 11.983-0.0299575 11.5636 0.169759 11.1742 0.149788 10.8147 0.136473 10.4552 0.00332861 10.0724-0.249646 9.66629-0.502621 9.2602-0.905383 8.86743-1.45793 8.48796-2.00383 8.1085-2.61962 7.79228-3.30531 7.53931-3.98435 7.28633-4.6534 7.11325-5.31247 7.02005-5.97819 6.92019-6.6073 6.82366-7.19979 6.73046-7.79894 6.6306-8.31488 6.44087-8.7476 6.16126-9.18032 5.875-9.44993 5.5255-9.55645 5.11275-9.66296 4.7-9.61636 4.26063-9.41665 3.79462-9.21027 3.32861-8.8874 2.83265-8.44802 2.30673-8.00865 1.78081-7.47607 1.29483-6.85029 0.848796-6.23116 0.396105-5.5721 0.0299575-4.87309-0.249646-4.17408-0.542564-3.46842-0.745609-2.75609-0.858782-2.05043-0.978612-1.39802-0.998584-0.798867-0.918697-0.199717-0.838811 0.129816-0.788881 0.189731-0.76891 0.249646-0.755595 0.309561-0.732295 0.369476-0.699009 0.429391-0.67238 0.482649-0.635765 0.52925-0.589165 0.57585-0.549221 0.619122-0.502621 0.659066-0.449363 0.692352-0.396105 0.722309-0.339519 0.748938-0.279604 0.76891-0.219689 0.782224-0.156445 0.788881-0.0898726 0.795539-0.0299575 0.795539 0.0299575 0.788881 0.0898726 0.782224 0.156445 0.765581 0.219689 0.738952 0.279604 0.718981 0.339519 0.689023 0.396105 0.64908 0.449363 0.615794 0.502621 0.572522 0.55255 0.519264 0.59915 0.472663 0.639094 0.419405 0.675709 0.35949 0.708995 0.306232 0.735624 0.246317 0.755595 0.179745 0.76891 0.11983 0.788881 0.059915 0.798867 0 0.798867-0.0665723 0.798867-0.0998584 0.798867-0.0998584 0.798867Z" fill="#1971C2" transform="matrix(1 0 0 1.00091 1233 96.4775)"/><path d="M0.798867 0C0.798867 0 0.79221 0.332861 0.778896 0.998584 0.758924 1.66431 0.825496 2.21686 0.978612 2.65623 1.13173 3.08895 1.42798 3.525 1.86735 3.96438 2.30673 4.40376 2.73612 4.47698 3.15553 4.18407 3.58159 3.89781 3.91778 3.51834 4.1641 3.04568 4.40376 2.57302 4.61346 2.0937 4.7932 1.60772 4.96629 1.12174 5.13605 0.692352 5.30248 0.319547 5.46226-0.0399434 5.53881-0.302904 5.53216-0.469335 5.5255-0.635765 5.53881-0.748938 5.5721-0.808853 5.59873-0.862111 5.63534-0.91204 5.68194-0.958641 5.72189-1.00524 5.76849-1.04518 5.82175-1.07847 5.875-1.11176 5.93159-1.13839 5.9915-1.15836 6.05142-1.17833 6.11133-1.19164 6.17125-1.1983 6.23782-1.20496 6.30107-1.20163 6.36098-1.18832 6.4209-1.18166 6.48081-1.16501 6.54073-1.13839 6.60064-1.11841 6.6539-1.08846 6.7005-1.04851 6.75376-1.00857 6.80036-0.965298 6.8403-0.918697 6.88024-0.872097 6.91353-0.818839 6.94016-0.758924 6.96679-0.705666 6.98676-0.64908 7.00007-0.589165 7.01339-0.52925 7.02005-0.466006 7.02005-0.399434 7.01339-0.339519 7.0034-0.279604 6.99009-0.219689 6.97012-0.159773 6.82366 0.0798867 6.55071 0.499292 6.27777 0.925355 6.00482 1.44462 5.73187 2.05708 5.45893 2.66289 5.19264 3.30531 4.93301 3.98435 4.67337 4.66339 4.36714 5.41233 4.01431 6.23116 3.66148 7.05 3.22543 8.31155 2.70616 10.0158 2.1869 11.7134 1.91728 12.5955 1.89731 12.662 1.87734 12.7286 1.84405 12.7919 1.79745 12.8518 1.75751 12.905 1.70758 12.955 1.64766 13.0016 1.58775 13.0415 1.52451 13.0715 1.45793 13.0914 1.39136 13.1048 1.32146 13.1114 1.24823 13.1114 1.18166 13.1114 1.11509 13.0981 1.04851 13.0715 0.981941 13.0448 0.922026 13.0082 0.868768 12.9616 0.81551 12.915 0.76891 12.8618 0.728966 12.8018 0.689023 12.7419 0.662394 12.6787 0.64908 12.6121 0.635765 12.5455 0.632437 12.4756 0.639094 12.4024 0.645751 12.3292 0.662394 12.2626 0.689023 12.2027 0.715652 12.1361 0.755595 12.0762 0.808853 12.023 0.855454 11.9697 0.908712 11.9264 0.968627 11.8931 1.0352 11.8599 1.10177 11.8366 1.16834 11.8232 1.24157 11.8166 1.31147 11.8166 1.37805 11.8232 1.45128 11.8366 1.51785 11.8599 1.57776 11.8931 1.63768 11.9264 1.69426 11.9664 1.74752 12.013 1.79412 12.0662 1.83407 12.1228 1.86735 12.1827 1.89398 12.2493 1.91395 12.3192 1.92727 12.3924 1.93392 12.459 1.9306 12.5289 1.91728 12.6021 1.89731 12.6687 1.87068 12.7319 1.83739 12.7919 1.80411 12.8518 1.76084 12.905 1.70758 12.9516 1.65432 12.9982 1.59441 13.0349 1.52783 13.0615 1.46126 13.0881 1.39136 13.1048 1.31813 13.1114 1.25156 13.1181 1.18166 13.1114 1.10843 13.0914 1.04186 13.0715 0.978612 13.0415 0.918697 13.0016 0.86544 12.9616 0.81551 12.915 0.76891 12.8618 0.722309 12.8085 0.689023 12.7486 0.669051 12.682 0.64908 12.6154 0.635765 12.5455 0.629108 12.4723 0.629108 12.3991 0.629108 12.3625 0.629108 12.3625 0.629108 12.3625 0.842139 11.4371 1.2682 9.58641 1.68761 7.72904 2.06041 6.39427 2.38662 5.58209 2.70616 4.76325 3.00574 3.99434 3.28534 3.27536 3.5716 2.55638 3.85786 1.91062 4.14412 1.3381 4.43704 0.772238 4.73995 0.289589 5.05284-0.109844 5.36573-0.515935 5.53881-0.748938 5.5721-0.808853 5.59873-0.862111 5.63534-0.91204 5.68194-0.958641 5.72189-1.00524 5.76849-1.04518 5.82175-1.07847 5.875-1.11176 5.93159-1.13839 5.9915-1.15836 6.05142-1.17833 6.11133-1.19164 6.17125-1.1983 6.23782-1.20496 6.30107-1.20163 6.36098-1.18832 6.4209-1.18166 6.48081-1.16501 6.54073-1.13839 6.60064-1.11841 6.6539-1.08846 6.7005-1.04851 6.75376-1.00857 6.80036-0.965298 6.8403-0.918697 6.88024-0.872097 6.91353-0.818839 6.94016-0.758924 6.96679-0.705666 6.98676-0.64908 7.00007-0.589165 7.01339-0.52925 7.02005-0.466006 7.02005-0.399434 7.01339-0.339519 7.0034-0.279604 6.99009-0.219689 6.97012-0.159773 6.96679-0.059915 6.9801 0.0798867 7.00007 0.226346 6.93683 0.485978 6.79037 0.858782 6.64391 1.23159 6.47415 1.69426 6.28109 2.24681 6.08138 2.79936 5.84172 3.35857 5.56211 3.92444 5.28251 4.4903 4.96296 4.98959 4.60347 5.42231 4.23733 5.85503 3.83456 6.13131 3.39519 6.25114 2.95581 6.37762 2.53307 6.37097 2.12698 6.23116 1.72755 6.09136 1.33477 5.86502 0.948655 5.55213 0.562536 5.23924 0.252975 4.8631 0.0199717 4.42373-0.199717 3.98435-0.382791 3.47507-0.52925 2.89589-0.675709 2.31006-0.758924 1.68095-0.778896 1.00857-0.79221 0.33619-0.795539-0.0299575-0.788881-0.0898726-0.782224-0.156445-0.765581-0.219689-0.738952-0.279604-0.718981-0.339519-0.689023-0.396105-0.64908-0.449363-0.615794-0.502621-0.57585-0.549221-0.52925-0.589165-0.475992-0.635765-0.422734-0.67238-0.369476-0.699009-0.309561-0.732295-0.249646-0.755595-0.189731-0.76891-0.123159-0.788881-0.059915-0.798867 0-0.798867 0.059915-0.798867 0.123159-0.788881 0.189731-0.76891 0.249646-0.755595 0.309561-0.732295 0.369476-0.699009 0.422734-0.67238 0.475992-0.635765 0.52925-0.589165 0.57585-0.549221 0.615794-0.502621 0.64908-0.449363 0.689023-0.396105 0.718981-0.339519 0.738952-0.279604 0.765581-0.219689 0.782224-0.156445 0.788881-0.0898726 0.795539-0.0299575 0.798867 0 0.798867 0Z" fill="#1971C2" transform="matrix(1 0 0 1.00091 1237.67 103.881)"/><path d="M0.748938-0.279604C0.748938-0.279604 0.852125 0.0199717 1.0585 0.619122 1.27153 1.21827 1.47458 1.84072 1.66764 2.48647 1.85404 3.13223 2.02713 3.78131 2.1869 4.43371 2.34002 5.07946 2.45319 5.74186 2.52642 6.4209 2.59965 7.09993 2.63626 7.72904 2.63626 8.30822 2.63626 8.89406 2.62295 9.18032 2.59632 9.167 2.57635 9.16034 2.56303 9.1903 2.55638 9.25688 2.54972 9.3301 2.5364 9.4 2.51643 9.46658 2.49646 9.53315 2.4665 9.59639 2.42656 9.65631 2.39327 9.70957 2.35 9.76282 2.29674 9.81608 2.25014 9.86268 2.19689 9.90595 2.13697 9.9459 2.07705 9.97918 2.01381 10.0058 1.94724 10.0258 1.88067 10.0458 1.81077 10.0591 1.73754 10.0657 1.67096 10.0657 1.60106 10.0591 1.52783 10.0458 1.46126 10.0324 1.39469 10.0125 1.32812 9.98584 1.2682 9.95255 1.21162 9.91594 1.15836 9.876 1.09844 9.8294 1.04851 9.77947 1.00857 9.72621 0.968627 9.67295 0.932012 9.61304 0.898726 9.54646 0.872097 9.48655 0.852125 9.41998 0.838811 9.34675 0.825496 9.28017 0.845468 8.89406 0.898726 8.18839 0.945326 7.47607 1.02521 6.83364 1.13839 6.26112 1.25156 5.68194 1.408 5.06948 1.60772 4.42373 1.81409 3.77798 2.0471 3.1522 2.30673 2.54639 2.57302 1.94058 3.05234 1.4779 3.74469 1.15836 4.4437 0.832153 5.00291 0.812182 5.42231 1.09844 5.84172 1.37805 6.22451 1.79412 6.57068 2.34667 6.91686 2.89257 7.20312 3.48173 7.42947 4.11417 7.65581 4.73995 7.81559 5.30914 7.90879 5.82175 8.00865 6.34101 8.04193 6.82033 8.00865 7.25971 7.9687 7.69908 7.90546 7.98534 7.81891 8.11849 7.73237 8.25829 7.67911 8.36148 7.65914 8.42805 7.64583 8.50128 7.62253 8.56785 7.58924 8.62777 7.55595 8.68768 7.51601 8.74427 7.46941 8.79753 7.42281 8.85078 7.37288 8.89738 7.31962 8.93733 7.25971 8.97727 7.19646 9.01056 7.12989 9.03719 7.06332 9.06382 6.99675 9.08379 6.93017 9.0971 6.85694 9.10376 6.78704 9.10376 6.72047 9.0971 6.64724 9.09044 6.57734 9.0738 6.51077 9.04717 6.4442 9.02054 6.38428 8.98726 6.33102 8.94731 6.27111 8.90737 6.21785 8.86077 6.17125 8.80751 6.12465 8.76091 6.08471 8.70432 6.05142 8.63775 6.01813 8.57784 5.9915 8.51459 5.97153 8.44802 5.95822 8.37479 5.94823 8.30489 5.94158 8.23832 5.94158 8.16509 5.96155 7.94207 6.00149 7.56927 6.04143 7.19646 6.11466 6.80369 6.22118 6.39094 6.32769 5.97153 6.52408 5.46226 6.81034 4.8631 7.0966 4.26395 7.45942 3.67479 7.8988 3.09561 8.34483 2.51643 8.77423 2.05043 9.18697 1.69759 9.60638 1.3381 10.0591 1.15836 10.545 1.15836 11.031 1.1517 11.4504 1.30149 11.8033 1.60772 12.1494 1.91395 12.3991 2.32337 12.5522 2.83598 12.6987 3.34193 12.7952 3.81126 12.8418 4.24398 12.8884 4.67004 12.8152 5.55213 12.6221 6.89023 12.4357 8.22168 12.3358 8.92401 12.3225 8.99724 12.3092 9.06382 12.2859 9.12706 12.2526 9.18697 12.2127 9.25355 12.1694 9.31013 12.1228 9.35673 12.0696 9.40333 12.0096 9.43995 11.9431 9.46658 11.8765 9.49321 11.8099 9.50985 11.7433 9.51651 11.6701 9.52316 11.6002 9.51984 11.5336 9.50652 11.4604 9.48655 11.3938 9.45992 11.3339 9.42663 11.274 9.38669 11.2241 9.34009 11.1841 9.28683 11.1375 9.22692 11.1009 9.16367 11.0743 9.0971 11.0543 9.03719 11.041 8.97061 11.0344 8.89738 11.0344 8.82415 11.0443 8.75425 11.0643 8.68768 11.0843 8.62111 11.1142 8.55787 11.1542 8.49795 11.1941 8.44469 11.2441 8.39476 11.304 8.34816 11.3639 8.30822 11.4271 8.27826 11.4937 8.25829 11.5603 8.23832 11.6268 8.22833 11.6934 8.22833 11.7666 8.22833 11.8366 8.24165 11.9031 8.26828 11.9697 8.28825 12.0296 8.32153 12.0829 8.36813 12.1428 8.41473 12.1894 8.46799 12.2227 8.52791 12.2626 8.58782 12.2926 8.65107 12.3125 8.71764 12.3259 8.78421 12.3325 8.85411 12.3325 8.92734 12.3259 8.99391 12.3092 9.06049 12.2826 9.12706 12.256 9.19363 12.216 9.25355 12.1628 9.3068 12.1162 9.36006 12.0629 9.40333 12.003 9.43662 11.9431 9.46991 11.8798 9.49321 11.8132 9.50652 11.74 9.51984 11.6701 9.52316 11.6035 9.51651 11.5303 9.50985 11.4637 9.48988 11.4038 9.45659 11.3373 9.4233 11.2773 9.38336 11.2241 9.33676 11.1775 9.2835 11.1375 9.22692 11.1043 9.167 11.071 9.10043 11.051 9.03386 11.0443 8.96729 11.031 8.89406 11.0244 8.85744 11.0244 8.85744 11.0244 8.85744 11.031 8.22168 11.0443 6.95015 11.0577 5.67861 11.051 4.8631 11.0244 4.50361 10.9977 4.15078 10.9545 3.75135 10.8946 3.30531 10.8346 2.85928 10.6449 2.73612 10.3254 2.93584 10.0058 3.1289 9.65298 3.46842 9.26686 3.95439 8.8874 4.44037 8.57451 4.92968 8.32819 5.42231 8.08853 5.91495 7.9221 6.52075 7.8289 7.23973 7.7357 7.96537 7.67911 8.36148 7.65914 8.42805 7.64583 8.50128 7.62253 8.56785 7.58924 8.62777 7.55595 8.68768 7.51601 8.74427 7.46941 8.79753 7.42281 8.85078 7.37288 8.89738 7.31962 8.93733 7.25971 8.97727 7.19646 9.01056 7.12989 9.03719 7.06332 9.06382 6.99675 9.08379 6.93017 9.0971 6.85694 9.10376 6.78704 9.10376 6.72047 9.0971 6.64724 9.09044 6.57734 9.0738 6.51077 9.04717 6.4442 9.02054 6.38428 8.98726 6.33102 8.94731 6.27111 8.90737 6.21785 8.86077 6.17125 8.80751 6.12465 8.76091 6.08471 8.70432 6.05142 8.63775 6.01813 8.57784 5.9915 8.51459 5.97153 8.44802 5.95822 8.38145 5.94823 8.31155 5.94158 8.23832 5.94158 8.16509 6.01148 7.9221 6.15128 7.50935 6.28442 7.08995 6.31771 6.66721 6.25114 6.24115 6.18456 5.80843 6.06806 5.32578 5.90163 4.7932 5.7352 4.26063 5.3857 3.72805 4.85312 3.19547 4.31388 2.66289 3.94441 2.65291 3.74469 3.16551 3.55163 3.67812 3.3619 4.22401 3.1755 4.80319 2.99575 5.38903 2.85928 5.95822 2.76608 6.51077 2.67288 7.06998 2.61629 7.64915 2.59632 8.2483 2.57635 8.85411 2.56303 9.1903 2.55638 9.25688 2.54972 9.3301 2.5364 9.4 2.51643 9.46658 2.49646 9.53315 2.4665 9.59639 2.42656 9.65631 2.39327 9.70957 2.35 9.76282 2.29674 9.81608 2.25014 9.86268 2.19689 9.90595 2.13697 9.9459 2.07705 9.97918 2.01381 10.0058 1.94724 10.0258 1.88067 10.0458 1.81077 10.0591 1.73754 10.0657 1.67096 10.0657 1.60106 10.0591 1.52783 10.0458 1.46126 10.0324 1.39469 10.0125 1.32812 9.98584 1.2682 9.95255 1.21162 9.91594 1.15836 9.876 1.09844 9.8294 1.04851 9.77947 1.00857 9.72621 0.968627 9.67295 0.932012 9.61304 0.898726 9.54646 0.872097 9.48655 0.852125 9.41998 0.838811 9.34675 0.825496 9.28017 0.872097 9.18032 0.978612 9.04717 1.07847 8.90737 1.10177 8.63109 1.04851 8.21835 0.995255 7.8056 0.945326 7.29299 0.898726 6.68053 0.845468 6.07472 0.748938 5.4556 0.609136 4.82316 0.469335 4.19072 0.326204 3.5716 0.179745 2.96579 0.0399434 2.35333-0.149788 1.75418-0.389448 1.16834-0.629108 0.57585-0.755595 0.246317-0.76891 0.179745-0.788881 0.11983-0.798867 0.059915-0.798867 0-0.798867-0.0665723-0.788881-0.129816-0.76891-0.189731-0.755595-0.249646-0.732295-0.309561-0.699009-0.369476-0.67238-0.429391-0.635765-0.482649-0.589165-0.52925-0.549221-0.57585-0.502621-0.619122-0.449363-0.659066-0.396105-0.692352-0.339519-0.722309-0.279604-0.748938-0.219689-0.76891-0.156445-0.782224-0.0898726-0.788881-0.0299575-0.795539 0.0299575-0.795539 0.0898726-0.788881 0.156445-0.782224 0.219689-0.765581 0.279604-0.738952 0.339519-0.718981 0.396105-0.689023 0.449363-0.64908 0.502621-0.615794 0.55255-0.572522 0.59915-0.519264 0.639094-0.472663 0.675709-0.419405 0.708995-0.35949 0.735624-0.306232 0.748938-0.279604 0.748938-0.279604Z" fill="#1971C2" transform="matrix(1 0 0 1.00091 1247.79 100.764)"/><path d="M0.748938-0.279604C0.748938-0.279604 0.848796 0.0199717 1.04851 0.619122 1.25489 1.22493 1.41133 1.78414 1.51785 2.29674 1.62436 2.81601 1.74752 3.3619 1.88732 3.93442 2.02713 4.50029 2.12366 5.02954 2.17691 5.52217 2.23683 6.0148 2.27011 6.47415 2.27677 6.90022 2.29009 7.31962 2.27344 7.53598 2.22684 7.5493 2.1869 7.56261 2.16693 7.60255 2.16693 7.66913 2.16027 7.7357 2.14696 7.80227 2.12698 7.86884 2.10701 7.93541 2.07705 7.99866 2.03711 8.05857 2.00383 8.11849 1.96388 8.17175 1.91728 8.21835 1.86402 8.2716 1.80744 8.31488 1.74752 8.34816 1.68761 8.38811 1.62436 8.41806 1.55779 8.43804 1.49788 8.45801 1.4313 8.46799 1.35807 8.46799 1.2915 8.47465 1.22493 8.47132 1.15836 8.45801 1.08513 8.44469 1.01856 8.42472 0.958641 8.39809 0.892068 8.37146 0.832153 8.33485 0.778896 8.28825 0.725638 8.2483 0.679037 8.2017 0.639094 8.14845 0.592493 8.08853 0.555878 8.02862 0.52925 7.9687 0.502621 7.90213 0.482649 7.83556 0.469335 7.76898 0.45602 7.70241 0.475992 7.29965 0.52925 6.5607 0.582507 5.82175 0.712323 5.18931 0.918697 4.66339 1.11841 4.14412 1.42798 3.60489 1.84738 3.04568 2.27344 2.48647 2.80269 2.03045 3.43513 1.67762 4.07422 1.33145 4.64009 1.25489 5.13272 1.44795 5.62536 1.63435 6.03145 1.99717 6.351 2.5364 6.6772 3.07564 6.87359 3.6415 6.94016 4.234 7.00673 4.81983 7.01006 5.35907 6.95015 5.8517 6.89023 6.34434 6.81034 6.68053 6.71048 6.86027 6.61728 7.03336 6.5607 7.15652 6.54073 7.22975 6.52075 7.29632 6.4908 7.36289 6.45085 7.42947 6.41757 7.48938 6.37762 7.54597 6.33102 7.59923 6.27777 7.65248 6.22118 7.69908 6.16126 7.73903 6.10135 7.77897 6.03478 7.81226 5.96155 7.83888 5.89497 7.85886 5.82507 7.87217 5.75184 7.87883 5.67862 7.88549 5.60539 7.88216 5.53216 7.86884 5.46558 7.86219 5.39568 7.84554 5.32245 7.81891 5.25588 7.78563 5.19597 7.74901 5.14271 7.70907 5.08279 7.66247 5.02954 7.61254 4.98293 7.55928 4.93633 7.50602 4.89639 7.44611 4.8631 7.37954 4.82982 7.31296 4.80652 7.24306 4.7932 7.16983 4.77989 7.0966 4.77323 7.0267 4.77323 6.96013 4.77323 6.8869 4.83648 6.57068 4.96296 6.01148 5.08945 5.45893 5.26587 4.94965 5.49221 4.48364 5.71856 4.01098 6.04143 3.50503 6.46084 2.96579 6.88024 2.4199 7.34958 1.94391 7.86884 1.53782 8.38811 1.13173 8.99059 0.898726 9.67628 0.838811 10.3553 0.772238 10.848 0.898726 11.1542 1.21827 11.4604 1.53116 11.6801 1.98053 11.8132 2.56636 11.9531 3.15885 12.003 3.74136 11.963 4.31388 11.9298 4.89306 11.8898 5.77182 11.8432 6.95015 11.7966 8.13513 11.7733 8.76424 11.7733 8.83747 11.7733 8.90404 11.7633 8.97061 11.7433 9.03719 11.7234 9.11042 11.6901 9.17366 11.6435 9.22692 11.6035 9.28683 11.5536 9.33676 11.4937 9.37671 11.4404 9.41665 11.3772 9.44661 11.304 9.46658 11.2374 9.48655 11.1708 9.49321 11.1043 9.48655 11.031 9.48655 10.9611 9.47323 10.8946 9.44661 10.828 9.41998 10.7681 9.38669 10.7148 9.34675 10.6615 9.30015 10.6149 9.24689 10.575 9.18697 10.5417 9.12706 10.5151 9.06382 10.4951 8.99724 10.4818 8.92401 10.4785 8.85411 10.4851 8.78754 10.4918 8.71431 10.5084 8.64441 10.5351 8.57784 10.5617 8.51792 10.5983 8.46134 10.6449 8.40808 10.6982 8.35482 10.7548 8.31155 10.8147 8.27826 10.8746 8.24498 10.9412 8.22168 11.0144 8.20836 11.081 8.19505 11.1509 8.19505 11.2241 8.20836 11.2907 8.21502 11.3572 8.23499 11.4238 8.26828 11.4837 8.30156 11.5403 8.34151 11.5936 8.38811 11.6402 8.44136 11.6801 8.50128 11.7134 8.56785 11.74 8.62777 11.7567 8.69434 11.7633 8.76757 11.7766 8.83414 11.7766 8.90404 11.7633 8.97727 11.75 9.04384 11.7234 9.10709 11.6834 9.167 11.6501 9.22692 11.6069 9.28017 11.5536 9.32678 11.5004 9.37338 11.4404 9.41332 11.3739 9.44661 11.3073 9.47323 11.2407 9.48655 11.1742 9.48655 11.1009 9.49321 11.031 9.48655 10.9645 9.46658 10.8912 9.45326 10.828 9.42663 10.7747 9.38669 10.7148 9.34675 10.6615 9.30015 10.6149 9.24689 10.575 9.18697 10.5417 9.12373 10.5151 9.05716 10.4951 8.99059 10.4851 8.9573 10.4851 8.9573 10.4851 8.9573 10.4152 8.30156 10.2754 6.99009 10.1356 5.67861 10.089 4.80652 10.1356 4.3738 10.1889 3.94108 10.1023 3.47174 9.876 2.96579 9.64965 2.45985 9.33343 2.35999 8.92734 2.66622 8.52125 2.97911 8.14512 3.35191 7.79894 3.78463 7.44611 4.22401 7.17649 4.66006 6.99009 5.09278 6.81034 5.53216 6.69384 5.98152 6.64058 6.44087 6.59398 6.89356 6.5607 7.15652 6.54073 7.22975 6.52075 7.29632 6.4908 7.36289 6.45085 7.42947 6.41757 7.48938 6.37762 7.54597 6.33102 7.59923 6.27777 7.65248 6.22118 7.69908 6.16126 7.73903 6.10135 7.77897 6.03478 7.81226 5.96155 7.83888 5.89497 7.85886 5.82507 7.87217 5.75184 7.87883 5.67862 7.88549 5.60539 7.88216 5.53216 7.86884 5.46558 7.86219 5.39568 7.84554 5.32245 7.81891 5.25588 7.78563 5.19597 7.74901 5.14271 7.70907 5.08279 7.66247 5.02954 7.61254 4.98293 7.55928 4.93633 7.50602 4.89639 7.44611 4.8631 7.37954 4.82982 7.31296 4.80652 7.24306 4.7932 7.16983 4.77989 7.10326 4.77323 7.03336 4.77323 6.96013 4.77323 6.8869 4.82982 6.75376 4.94299 6.5607 5.04951 6.37429 5.13938 6.09469 5.21261 5.72189 5.28584 5.35574 5.33577 4.97628 5.3624 4.5835 5.38903 4.19072 5.2459 3.7347 4.93301 3.21544 4.62012 2.69618 4.3272 2.54972 4.05425 2.77606 3.77465 3.00241 3.47174 3.33527 3.14554 3.77465 2.81934 4.21402 2.583 4.64674 2.43655 5.07281 2.29009 5.49221 2.2102 6.0148 2.19689 6.64058 2.17691 7.25971 2.16693 7.60255 2.16693 7.66913 2.16027 7.7357 2.14696 7.80227 2.12698 7.86884 2.10701 7.93541 2.07705 7.99866 2.03711 8.05857 2.00383 8.11849 1.96388 8.17175 1.91728 8.21835 1.86402 8.2716 1.80744 8.31488 1.74752 8.34816 1.68761 8.38811 1.62436 8.41806 1.55779 8.43804 1.49788 8.45801 1.4313 8.46799 1.35807 8.46799 1.2915 8.47465 1.22493 8.47132 1.15836 8.45801 1.08513 8.44469 1.01856 8.42472 0.958641 8.39809 0.892068 8.37146 0.832153 8.33485 0.778896 8.28825 0.725638 8.2483 0.679037 8.2017 0.639094 8.14845 0.592493 8.08853 0.555878 8.02862 0.52925 7.9687 0.502621 7.90213 0.482649 7.83556 0.469335 7.76898 0.45602 7.70241 0.475992 7.46275 0.52925 7.05 0.589165 6.64391 0.59915 6.21785 0.559207 5.77182 0.519264 5.32578 0.452691 4.81318 0.35949 4.234 0.272946 3.65482 0.186402 3.14554 0.0998584 2.70616 0.0266289 2.26013-0.133145 1.74419-0.379462 1.15836-0.625779 0.572522-0.755595 0.246317-0.76891 0.179745-0.788881 0.11983-0.798867 0.059915-0.798867 0-0.798867-0.0665723-0.788881-0.129816-0.76891-0.189731-0.755595-0.249646-0.732295-0.309561-0.699009-0.369476-0.67238-0.429391-0.635765-0.482649-0.589165-0.52925-0.549221-0.57585-0.502621-0.619122-0.449363-0.659066-0.396105-0.692352-0.339519-0.722309-0.279604-0.748938-0.219689-0.76891-0.156445-0.782224-0.0898726-0.788881-0.0299575-0.795539 0.0299575-0.795539 0.0898726-0.788881 0.156445-0.782224 0.219689-0.765581 0.279604-0.738952 0.339519-0.718981 0.396105-0.689023 0.449363-0.64908 0.502621-0.615794 0.55255-0.572522 0.59915-0.519264 0.639094-0.472663 0.675709-0.419405 0.708995-0.35949 0.735624-0.306232 0.748938-0.279604 0.748938-0.279604Z" fill="#1971C2" transform="matrix(1 0 0 1.00091 1263.36 100.374)"/><path d="M0-0.798867C0-0.798867 0.296247-0.798867 0.88874-0.798867 1.48789-0.798867 2.08038-0.842139 2.66622-0.928683 3.25871-1.01523 3.79462-1.18166 4.27394-1.42798 4.7466-1.66764 5.17599-1.97054 5.56211-2.33669 5.94823-2.69618 6.25114-3.07231 6.47082-3.46509 6.69051-3.85786 6.84696-4.2573 6.94016-4.66339 7.0267-5.06948 6.94682-5.56544 6.7005-6.15128 6.45418-6.73046 6.15794-7.17316 5.81176-7.47939 5.45893-7.78563 5.17599-7.79561 4.96296-7.50935 4.75659-7.21643 4.5835-6.73046 4.4437-6.05142 4.31055-5.37238 4.26063-4.8398 4.29391-4.45369 4.3272-4.06091 4.45036-3.6648 4.66339-3.26537 4.86976-2.86594 5.10609-2.47316 5.37238-2.08704 5.64533-1.70092 5.98152-1.40135 6.38095-1.18832 6.78704-0.975284 7.53598-0.822168 8.62777-0.728966 9.71955-0.635765 10.2987-0.585836 10.3653-0.579179 10.4385-0.565864 10.5051-0.545893 10.565-0.519264 10.6316-0.485978 10.6915-0.446034 10.7448-0.399434 10.7914-0.352833 10.8313-0.296247 10.8646-0.229674 10.8979-0.169759 10.9212-0.103187 10.9345-0.0299575 10.9412 0.0299575 10.9378 0.0965298 10.9245 0.169759 10.9112 0.236332 10.8879 0.302904 10.8546 0.369476 10.8213 0.429391 10.7814 0.482649 10.7348 0.52925 10.6815 0.57585 10.6216 0.615794 10.555 0.64908 10.4885 0.675709 10.4219 0.692352 10.3553 0.699009 10.2821 0.705666 10.2122 0.702337 10.1456 0.689023 10.079 0.669051 10.0125 0.642422 9.9459 0.609136 9.88598 0.569193 9.83605 0.522592 9.79611 0.469335 9.74951 0.416077 9.71289 0.356162 9.68627 0.289589 9.65964 0.223017 9.64632 0.153116 9.64632 0.0798867 9.63967 0.0199717 9.64632-0.043272 9.66629-0.109844 9.68627-0.183074 9.71622-0.246317 9.75617-0.299575 9.79611-0.35949 9.84604-0.409419 9.90595-0.449363 9.95921-0.495963 10.0191-0.52925 10.0857-0.549221 10.1589-0.569193 10.2288-0.579179 10.2954-0.579179 10.3686-0.579179 10.4385-0.569193 10.5051-0.549221 10.5717-0.522592 10.6316-0.489306 10.6848-0.449363 10.7448-0.402762 10.7914-0.349504 10.8247-0.289589 10.8646-0.229674 10.8946-0.166431 10.9145-0.0998584 10.9345-0.0332861 10.9412 0.0332861 10.9345 0.0998584 10.9278 0.166431 10.9112 0.233003 10.8846 0.299575 10.8579 0.366148 10.8213 0.426063 10.7747 0.47932 10.7281 0.532578 10.6749 0.57585 10.6149 0.609136 10.555 0.64908 10.4918 0.675709 10.4252 0.689023 10.352 0.702337 10.3154 0.708995 10.3154 0.708995 10.3154 0.708995 9.64632 0.67238 8.30822 0.59915 6.97677 0.532578 6.00149 0.342847 5.38237 0.0299575 4.76325-0.276275 4.26395-0.67238 3.88449-1.15836 3.50503-1.65099 3.18881-2.20021 2.93584-2.80602 2.67621-3.41849 2.5364-4.01764 2.51643-4.60347 2.50312-5.18265 2.56303-5.69859 2.69618-6.15128 2.83598-6.60397 2.98909-7.04335 3.15553-7.46941 3.32196-7.89547 3.56827-8.27493 3.89448-8.60779 4.22734-8.934 4.57351-9.15036 4.93301-9.25688 5.29915-9.35673 5.72189-9.31013 6.20121-9.11707 6.68053-8.92401 7.05666-8.66105 7.32961-8.32819 7.60255-7.99533 7.8522-7.62918 8.07855-7.22975 8.31155-6.82366 8.48131-6.34434 8.58782-5.79179 8.701-5.23924 8.68768-4.66672 8.54788-4.07422 8.40808-3.48839 8.17507-2.91919 7.84887-2.36664 7.52267-1.81409 7.08995-1.31147 6.55071-0.858782 6.00482-0.406091 5.40567-0.0499292 4.75326 0.209703 4.10085 0.475992 3.44512 0.639094 2.78605 0.699009 2.12033 0.765581 1.48789 0.798867 0.88874 0.798867 0.296247 0.798867-0.0299575 0.795539-0.0898726 0.788881-0.156445 0.782224-0.219689 0.765581-0.279604 0.738952-0.339519 0.718981-0.396105 0.689023-0.449363 0.64908-0.502621 0.615794-0.549221 0.57585-0.589165 0.52925-0.635765 0.475992-0.67238 0.422734-0.699009 0.369476-0.732295 0.309561-0.755595 0.249646-0.76891 0.189731-0.788881 0.123159-0.798867 0.059915-0.798867 0-0.798867-0.059915-0.788881-0.123159-0.76891-0.189731-0.755595-0.249646-0.732295-0.309561-0.699009-0.369476-0.67238-0.422734-0.635765-0.475992-0.589165-0.52925-0.549221-0.57585-0.502621-0.615794-0.449363-0.64908-0.396105-0.689023-0.339519-0.718981-0.279604-0.738952-0.219689-0.765581-0.156445-0.782224-0.0898726-0.788881-0.0299575-0.795539 0-0.798867 0-0.798867Z" fill="#1971C2" transform="matrix(1 0 0 1.00091 1276.6 108.556)"/><path d="M0.788881 0.129816C0.788881 0.129816 0.738952 0.349504 0.639094 0.788881 0.539235 1.23492 0.522592 1.78414 0.589165 2.43655 0.662394 3.09561 0.712323 3.69143 0.738952 4.22401 0.772238 4.75659 0.802196 5.43895 0.828825 6.27111 0.855454 7.0966 0.91204 7.89547 0.998584 8.66771 1.07847 9.43329 1.13839 10.1789 1.17833 10.9045 1.21162 11.6368 1.1983 12.5921 1.13839 13.7705 1.07181 14.9555 1.0352 15.5746 1.02854 15.6278 1.02854 15.6811 1.01856 15.7344 0.998584 15.7876 0.98527 15.8342 0.965298 15.8808 0.938669 15.9274 0.91204 15.9674 0.878754 16.0073 0.838811 16.0472 0.798867 16.0872 0.755595 16.1205 0.708995 16.1471 0.662394 16.1737 0.615794 16.1937 0.569193 16.207 0.515935 16.2203 0.462677 16.227 0.409419 16.227 0.362819 16.2336 0.31289 16.2303 0.259632 16.217 0.206374 16.2103 0.156445 16.1937 0.109844 16.1671 0.0632437 16.1471 0.0199717 16.1205-0.0199717 16.0872-0.059915 16.0539-0.0932012 16.0173-0.11983 15.9773-0.153116 15.9307-0.179745 15.8841-0.199717 15.8375-0.226346 15.7909-0.242989 15.741-0.249646 15.6878-0.256303 15.6345-0.252975 15.5613-0.23966 15.4681-0.219689 15.3749-0.19306 15.2983-0.159773 15.2384-0.11983 15.1785-0.0732295 15.1252-0.0199717 15.0786 0.0266289 15.032 0.0832153 14.9987 0.149788 14.9788 0.21636 14.9521 0.286261 14.9388 0.35949 14.9388 0.43272 14.9322 0.502621 14.9388 0.569193 14.9588 0.635765 14.9788 0.699009 15.0087 0.758924 15.0487 0.812182 15.0886 0.862111 15.1385 0.908712 15.1985 0.948655 15.2517 0.978612 15.315 0.998584 15.3882 1.01856 15.4548 1.02854 15.5213 1.02854 15.5879 1.02854 15.6611 1.01523 15.731 0.988598 15.7976 0.968627 15.8642 0.93534 15.9241 0.88874 15.9773 0.848796 16.0373 0.798867 16.0839 0.738952 16.1171 0.679037 16.1571 0.615794 16.187 0.549221 16.207 0.475992 16.227 0.406091 16.2336 0.339519 16.227 0.266289 16.2203 0.196388 16.2037 0.129816 16.1771 0.0699009 16.1504 0.0166431 16.1138-0.0299575 16.0672-0.0832153 16.0206-0.129816 15.9674-0.169759 15.9074-0.203045 15.8475-0.226346 15.781-0.23966 15.7077-0.252975 15.6412-0.256303 15.5713-0.249646 15.498-0.242989 15.4315-0.223017 15.3649-0.189731 15.2983-0.156445 15.2384-0.116501 15.1818-0.0699009 15.1285-0.0233003 15.0753 0.0299575 15.0353 0.0898726 15.0087 0.149788 14.9754 0.21636 14.9521 0.289589 14.9388 0.356162 14.9322 0.426063 14.9355 0.499292 14.9488 0.565864 14.9555 0.632437 14.9788 0.699009 15.0187 0.758924 15.052 0.812182 15.0919 0.858782 15.1385 0.905383 15.1918 0.945326 15.2517 0.978612 15.3183 1.00524 15.3849 1.02188 15.4514 1.02854 15.518 1.0352 15.5912 1.03853 15.6145 1.03853 15.5879 1.03853 15.5613 1.0352 15.5746 1.02854 15.6278 1.02854 15.6811 1.01856 15.7344 0.998584 15.7876 0.98527 15.8342 0.965298 15.8808 0.938669 15.9274 0.91204 15.9674 0.878754 16.0073 0.838811 16.0472 0.798867 16.0872 0.755595 16.1205 0.708995 16.1471 0.662394 16.1737 0.615794 16.1937 0.569193 16.207 0.515935 16.2203 0.462677 16.227 0.409419 16.227 0.362819 16.2336 0.31289 16.2303 0.259632 16.217 0.206374 16.2103 0.156445 16.1937 0.109844 16.1671 0.0632437 16.1471 0.0199717 16.1205-0.0199717 16.0872-0.059915 16.0539-0.0932012 16.0173-0.11983 15.9773-0.153116 15.9307-0.179745 15.8841-0.199717 15.8375-0.226346 15.7909-0.242989 15.741-0.249646 15.6878-0.256303 15.6345-0.316218 15.022-0.429391 13.8504-0.542564 12.672-0.612465 11.7367-0.639094 11.0443-0.67238 10.3453-0.725638 9.58308-0.798867 8.75758-0.872097 7.93874-0.902054 7.1199-0.88874 6.30107-0.875425 5.48888-0.872097 4.82316-0.878754 4.3039-0.885411 3.78463-0.895397 3.14221-0.908712 2.37663-0.928683 1.60439-0.91204 0.991927-0.858782 0.539235-0.812182 0.0932012-0.778896-0.159773-0.758924-0.219689-0.745609-0.279604-0.722309-0.339519-0.689023-0.399434-0.655737-0.452691-0.615794-0.502621-0.569193-0.549221-0.522592-0.595822-0.472663-0.635765-0.419405-0.669051-0.366148-0.708995-0.309561-0.738952-0.249646-0.758924-0.183074-0.778896-0.11983-0.788881-0.059915-0.788881 4.46402e-10-0.795539 0.0632437-0.795539 0.129816-0.788881 0.189731-0.775567 0.249646-0.755595 0.309561-0.728966 0.369476-0.702337 0.426063-0.669051 0.47932-0.629108 0.532578-0.589165 0.579179-0.545893 0.619122-0.499292 0.659066-0.446034 0.692352-0.392776 0.718981-0.339519 0.745609-0.279604 0.765581-0.21636 0.778896-0.149788 0.79221-0.0898726 0.798867-0.0299575 0.798867 0.0299575 0.79221 0.0965298 0.788881 0.129816 0.788881 0.129816Z" fill="#1971C2" transform="matrix(1 0 0 1.00091 1292.56 92.5812)"/><path d="M-0.499292-0.629108C-0.499292-0.629108-0.31289-0.775567 0.059915-1.06849 0.439377-1.3614 0.81551-1.59108 1.18832-1.75751 1.56112-1.92394 1.99384-2.03711 2.48647-2.09703 2.97911-2.1636 3.82458-2.19356 5.02288-2.1869 6.21452-2.1869 6.84363-2.18024 6.9102-2.16693 6.98343-2.16027 7.05-2.1403 7.10992-2.10701 7.17649-2.07373 7.23308-2.03378 7.27968-1.98718 7.33294-1.93392 7.37288-1.87401 7.39951-1.80744 7.43279-1.74752 7.45277-1.68095 7.45942-1.60772 7.47274-1.54115 7.46941-1.47125 7.44944-1.39802 7.43612-1.33145 7.41282-1.2682 7.37954-1.20829 7.34625-1.14837 7.30298-1.09511 7.24972-1.04851 7.19646-1.00191 7.13655-0.961969 7.06998-0.928683 7.0034-0.902054 6.9335-0.88874 6.86027-0.88874 6.7937-0.882083 6.72713-0.88874 6.66056-0.908712 6.58733-0.922026 6.52075-0.948655 6.46084-0.988598 6.40092-1.02854 6.351-1.07514 6.31105-1.1284 6.26445-1.18832 6.23116-1.25156 6.21119-1.31813 6.18456-1.3847 6.17125-1.45128 6.17125-1.51785 6.17125-1.59108 6.18124-1.66098 6.20121-1.72755 6.22118-1.79412 6.25447-1.85737 6.30107-1.91728 6.34101-1.97054 6.39094-2.01714 6.45085-2.05708 6.50411-2.09703 6.56735-2.12698 6.64058-2.14696 6.70716-2.16693 6.77373-2.17691 6.8403-2.17691 6.91353-2.17691 6.98343-2.1636 7.05-2.13697 7.11658-2.11034 7.17649-2.07373 7.22975-2.02713 7.28301-1.98718 7.32961-1.93725 7.36955-1.87734 7.40284-1.81742 7.42947-1.75085 7.44944-1.67762 7.46275-1.61105 7.46608-1.54115 7.45942-1.46792 7.45277-1.40135 7.43612-1.33477 7.40949-1.2682 7.38286-1.20163 7.34625-1.14171 7.29965-1.08846 7.24639-1.04186 7.18981-1.00191 7.12989-0.968627 7.06998-0.928683 7.0034-0.902054 6.93017-0.88874 6.8636-0.882083 6.83032-0.878754 6.83032-0.878754 6.83032-0.878754 6.26112-0.842139 5.12274-0.76891 3.99101-0.702337 3.11891-0.602479 2.50645-0.469335 1.90064-0.342847 1.41466-0.129816 1.04851 0.169759 0.682366 0.475992 0.472663 0.645751 0.419405 0.679037 0.35949 0.712323 0.299575 0.738952 0.23966 0.758924 0.179745 0.778896 0.116501 0.788881 0.0499292 0.788881-0.00998584 0.795539-0.0699009 0.79221-0.129816 0.778896-0.196388 0.772238-0.259632 0.755595-0.319547 0.728966-0.379462 0.702337-0.43272 0.669051-0.47932 0.629108-0.532578 0.589165-0.579179 0.545893-0.619122 0.499292-0.659066 0.446034-0.692352 0.389448-0.718981 0.329533-0.745609 0.269618-0.765581 0.209703-0.778896 0.149788-0.79221 0.0832153-0.798867 0.0199717-0.798867-0.0399434-0.79221-0.0998584-0.778896-0.163102-0.758924-0.229674-0.738952-0.289589-0.712323-0.346176-0.679037-0.399434-0.652408-0.459349-0.615794-0.512607-0.569193-0.559207-0.522592-0.605808-0.499292-0.629108-0.499292-0.629108Z" fill="#1971C2" transform="matrix(1 0 0 1.00091 1287.88 99.205)"/><path d="M0.569193-0.569193C0.569193-0.569193 0.745609-0.376133 1.09844 0.00998584 1.45128 0.402762 1.75751 0.765581 2.01714 1.09844 2.27011 1.4313 2.53973 1.86735 2.82599 2.40659 3.11225 2.93917 3.35857 3.51834 3.56495 4.14412 3.76466 4.76325 3.91445 5.28584 4.01431 5.7119 4.10751 6.13796 4.15744 6.53074 4.1641 6.89023 4.1641 7.24972 4.1641 7.46608 4.1641 7.53931 4.17075 7.61254 4.1641 7.68577 4.14412 7.759 4.13081 7.83223 4.10418 7.90213 4.06424 7.9687 4.03095 8.03527 3.99101 8.09852 3.94441 8.15843 3.89781 8.21169 3.84122 8.26162 3.77465 8.30822 3.71473 8.34816 3.65149 8.38145 3.58492 8.40808 3.51169 8.43471 3.43846 8.45468 3.36523 8.46799 3.292 8.47465 3.21877 8.47465 3.14554 8.46799 3.07231 8.46134 2.99908 8.44469 2.92585 8.41806 2.85262 8.39144 2.78605 8.35815 2.72613 8.31821 2.66622 8.27826 2.60963 8.22833 2.55638 8.16842 2.50977 8.11516 2.4665 8.05525 2.42656 7.98867 2.39327 7.9221 2.36664 7.8522 2.34667 7.77897 2.3267 7.70574 2.29341 7.46941 2.24681 7.06998 2.19356 6.67054 2.1636 6.25447 2.15694 5.82175 2.15028 5.39568 2.2335 4.92968 2.40659 4.42373 2.57968 3.91778 2.78605 3.41849 3.02571 2.92585 3.27203 2.43322 3.97769 2.0704 5.14271 1.83739 6.31438 1.59773 6.91353 1.45793 6.94016 1.41799 6.96679 1.37139 7.00007 1.32812 7.04002 1.28817 7.0733 1.25489 7.11325 1.22493 7.15985 1.1983 7.20645 1.17167 7.25305 1.14837 7.29965 1.1284 7.35291 1.11509 7.40617 1.1051 7.45942 1.09844 7.51268 1.09844 7.56594 1.10177 7.6192 1.10843 7.6658 1.12174 7.71573 1.13839 7.76898 1.15836 7.81559 1.17833 7.85886 1.20496 7.8988 1.23824 7.93874 1.27153 7.97536 1.30815 8.00865 1.34809 8.04193 1.39469 8.06856 1.44129 8.08853 1.48789 8.1085 1.53449 8.12515 1.58442 8.13846 1.63768 8.14512 1.69094 8.14845 1.74419 8.14845 1.79745 8.14179 1.84405 8.1318 1.89398 8.11849 1.94724 8.10517 2.0005 8.0852 1.91395 8.05857 1.68761 8.03194 1.46126 8.03527 1.38137 8.06856 1.44795 8.10185 1.50786 8.12515 1.57111 8.13846 1.63768 8.14512 1.71091 8.14512 1.78081 8.13846 1.84738 8.12515 1.92061 8.10185 1.98718 8.06856 2.0471 8.03527 2.11367 7.99533 2.17026 7.94873 2.21686 7.89547 2.27011 7.83556 2.31006 7.76898 2.33669 7.70907 2.36997 7.6425 2.38994 7.56927 2.3966 7.5027 2.40326 7.43279 2.39993 7.35956 2.38662 7.29299 2.3733 7.22975 2.34667 7.16983 2.30673 7.10992 2.27344 7.05666 2.23017 7.01006 2.17691 6.96346 2.12366 6.92684 2.06374 6.90022 1.99717 6.87359 1.9306 6.85694 1.8607 6.85029 1.78747 6.84363 1.72089 6.85029 1.65432 6.87026 1.58775 6.89023 1.51452 6.92019 1.45128 6.96013 1.39802 7.00007 1.3381 7.04668 1.28484 7.09993 1.23824 7.15985 1.1983 7.22309 1.16501 7.28966 1.13839 7.35624 1.11841 7.42281 1.10843 7.48938 1.10843 7.56261 1.10843 7.63251 1.11841 7.69908 1.13839 7.76566 1.15836 7.8289 1.19164 7.88881 1.23824 7.94207 1.27819 7.98867 1.32812 8.02862 1.38803 8.06856 1.44129 8.09852 1.50453 8.11849 1.57776 8.13846 1.64434 8.14512 1.71091 8.13846 1.77748 8.13846 1.85071 8.12515 1.92061 8.09852 1.98718 8.07189 2.05375 8.03527 2.11367 7.98867 2.16693 7.94873 2.22019 7.8988 2.26679 7.83888 2.30673 7.77897 2.34002 7.7124 2.36664 7.63917 2.38662 7.5726 2.39993 7.5027 2.40326 7.42947 2.3966 7.36289 2.38994 7.29632 2.36997 7.22975 2.33669 7.16318 2.31006 7.09328 2.16027 7.02005 1.88732 6.94016 1.61438 6.91353 1.45793 6.94016 1.41799 6.96679 1.37139 7.00007 1.32812 7.04002 1.28817 7.0733 1.25489 7.11325 1.22493 7.15985 1.1983 7.20645 1.17167 7.25305 1.14837 7.29965 1.1284 7.35291 1.11509 7.40617 1.1051 7.45942 1.09844 7.51268 1.09844 7.56594 1.10177 7.6192 1.10843 7.6658 1.12174 7.71573 1.13839 7.76898 1.15836 7.81559 1.17833 7.85886 1.20496 7.8988 1.23824 7.93874 1.27153 7.97536 1.30815 8.00865 1.34809 8.04193 1.39469 8.06856 1.44129 8.08853 1.48789 8.1085 1.53449 8.12515 1.58442 8.13846 1.63768 8.14512 1.69094 8.14845 1.74419 8.14845 1.79745 8.14179 1.84405 8.1318 1.89398 8.11849 1.94724 8.10517 2.0005 7.58258 2.1869 6.55071 2.50645 5.51884 2.83265 4.84979 3.3619 4.54356 4.09419 4.23733 4.83315 4.09752 5.5721 4.12415 6.31105 4.15078 7.05666 4.1641 7.46608 4.1641 7.53931 4.17075 7.61254 4.1641 7.68577 4.14412 7.759 4.13081 7.83223 4.10418 7.90213 4.06424 7.9687 4.03095 8.03527 3.99101 8.09852 3.94441 8.15843 3.89781 8.21169 3.84122 8.26162 3.77465 8.30822 3.71473 8.34816 3.65149 8.38145 3.58492 8.40808 3.51169 8.43471 3.43846 8.45468 3.36523 8.46799 3.292 8.47465 3.21877 8.47465 3.14554 8.46799 3.07231 8.46134 2.99908 8.44469 2.92585 8.41806 2.85262 8.39144 2.78605 8.35815 2.72613 8.31821 2.66622 8.27826 2.60963 8.22833 2.55638 8.16842 2.50977 8.11516 2.4665 8.05525 2.42656 7.98867 2.39327 7.9221 2.36664 7.8522 2.34667 7.77897 2.3267 7.70574 2.35 7.5027 2.41657 7.16983 2.47649 6.83032 2.47649 6.47415 2.41657 6.10135 2.35666 5.72854 2.25014 5.26587 2.09703 4.71332 1.94391 4.16077 1.65432 3.50836 1.22826 2.75609 0.808853 2.00383 0.402762 1.45128 0.00998584 1.09844-0.376133 0.745609-0.589165 0.542564-0.629108 0.489306-0.669051 0.436048-0.702337 0.379462-0.728966 0.319547-0.755595 0.266289-0.772238 0.206374-0.778896 0.139802-0.79221 0.0732295-0.795539 0.0133145-0.788881-0.0399434-0.788881-0.106516-0.778896-0.169759-0.758924-0.229674-0.738952-0.296247-0.712323-0.356162-0.679037-0.409419-0.645751-0.462677-0.605808-0.512607-0.559207-0.559207-0.512607-0.605808-0.462677-0.645751-0.409419-0.679037-0.356162-0.712323-0.296247-0.738952-0.229674-0.758924-0.169759-0.778896-0.106516-0.788881-0.0399434-0.788881 0.0133145-0.795539 0.0732295-0.79221 0.139802-0.778896 0.206374-0.772238 0.266289-0.755595 0.319547-0.728966 0.379462-0.702337 0.436048-0.669051 0.489306-0.629108 0.542564-0.589165 0.569193-0.569193 0.569193-0.569193Z" fill="#1971C2" transform="matrix(1 0 0 1.00091 1296.84 99.9843)"/><path d="M0.798867 0.0998584C0.798867 0.0998584 0.765581 0.396105 0.699009 0.988598 0.632437 1.58775 0.625779 2.0937 0.679037 2.50645 0.732295 2.91919 0.925355 3.30531 1.25822 3.6648 1.59108 4.01764 1.92727 4.12415 2.26679 3.98435 2.59965 3.83789 2.90588 3.61487 3.18548 3.3153 3.47174 3.01572 3.80793 2.68619 4.19405 2.3267 4.58017 1.96055 4.90305 1.57776 5.16268 1.17833 5.41565 0.785553 5.56544 0.565864 5.61204 0.519264 5.65199 0.472663 5.69859 0.43272 5.75184 0.399434 5.8051 0.366148 5.86169 0.342847 5.9216 0.329533 5.98152 0.309561 6.04476 0.296247 6.11133 0.289589 6.17125 0.282932 6.23449 0.286261 6.30107 0.299575 6.36098 0.306232 6.4209 0.322875 6.48081 0.349504 6.53407 0.376133 6.58733 0.409419 6.64058 0.449363 6.68718 0.482649 6.73046 0.525921 6.7704 0.579179 6.81034 0.625779 6.84363 0.679037 6.87026 0.738952 6.89689 0.79221 6.91686 0.852125 6.93017 0.918697 6.94349 0.978612 6.94682 1.03853 6.94016 1.09844 6.94016 1.16501 6.93017 1.22826 6.9102 1.28817 6.89023 1.34809 6.86693 1.40467 6.8403 1.45793 6.80701 1.51119 6.5374 1.79745 6.03145 2.31672 5.51884 2.83598 5.02621 3.48173 4.55354 4.25397 4.08088 5.02621 3.525 5.98485 2.88591 7.12989 2.24681 8.26828 1.52451 9.49654 0.718981 10.8147-0.0798867 12.1328-0.845468 13.3977-1.57776 14.6093-2.31006 15.8142-3.12557 17.1057-4.02429 18.4838-4.92968 19.8618-5.40234 20.5808-5.44228 20.6407-5.48888 20.694-5.54214 20.7406-5.60206 20.7805-5.66197 20.8138-5.72522 20.8405-5.79179 20.8604-5.85836 20.8737-5.92826 20.8804-6.00149 20.8804-6.07472 20.8737-6.14129 20.8571-6.20121 20.8305-6.26778 20.7972-6.32769 20.7572-6.38095 20.7106-6.43421 20.664-6.47748 20.6108-6.51077 20.5509-6.54405 20.4909-6.56735 20.4244-6.58067 20.3511-6.59398 20.2846-6.59731 20.2147-6.59065 20.1414-6.584 20.0749-6.56403 20.0083-6.53074 19.9417-6.49745 19.8818-6.45751 19.8252-6.41091 19.772-6.35765 19.7254-6.30107 19.6854-6.24115 19.6521-6.17458 19.6188-6.10801 19.5989-6.04143 19.5922-5.9682 19.5789-5.8983 19.5789-5.83173 19.5922-5.7585 19.6055-5.69193 19.6322-5.63201 19.6721-5.5721 19.7054-5.51884 19.7487-5.47224 19.8019-5.42564 19.8552-5.3857 19.9118-5.35241 19.9717-5.32578 20.0383-5.30914 20.1082-5.30248 20.1814-5.29582 20.248-5.30248 20.3179-5.32245 20.3911-5.34242 20.4577-5.36905 20.5209-5.40234 20.5808-5.44228 20.6407-5.48888 20.6907-5.54214 20.7306-5.60206 20.7772-5.66197 20.8138-5.72189 20.8405-5.78846 20.8604-5.85836 20.8737-5.93159 20.8804-6.00482 20.8804-6.07472 20.8704-6.14129 20.8504-6.20786 20.8305-6.27111 20.8005-6.33102 20.7606-6.38428 20.714-6.43088 20.664-6.47082 20.6108-6.51743 20.5509-6.55071 20.4876-6.57068 20.421-6.59065 20.3545-6.60064 20.2846-6.60064 20.2113-6.59398 20.1448-6.58067 20.0782-6.5607 20.0116-6.53407 19.9451-6.52075 19.9118-6.52075 19.9118-6.52075 19.9118-6.14462 19.1761-5.39235 17.7049-4.64009 16.2336-3.91445 14.8722-3.21544 13.6207-2.52309 12.3758-1.77415 11.1043-0.968627 9.8061-0.176417 8.50794 0.565864 7.27968 1.25822 6.12132 1.94391 4.96296 2.55638 3.99767 3.09561 3.22543 3.63485 2.45319 4.17741 1.82075 4.7233 1.32812 5.2692 0.835482 5.56544 0.565864 5.61204 0.519264 5.65199 0.472663 5.69859 0.43272 5.75184 0.399434 5.8051 0.366148 5.86169 0.342847 5.9216 0.329533 5.98152 0.309561 6.04476 0.296247 6.11133 0.289589 6.17125 0.282932 6.23449 0.286261 6.30107 0.299575 6.36098 0.306232 6.4209 0.322875 6.48081 0.349504 6.53407 0.376133 6.58733 0.409419 6.64058 0.449363 6.68718 0.482649 6.73046 0.525921 6.7704 0.579179 6.81034 0.625779 6.84363 0.679037 6.87026 0.738952 6.89689 0.79221 6.91686 0.852125 6.93017 0.918697 6.94349 0.978612 6.94682 1.03853 6.94016 1.09844 6.94016 1.16501 6.93017 1.22826 6.9102 1.28817 6.89023 1.34809 6.86693 1.40467 6.8403 1.45793 6.80701 1.51119 6.78371 1.60106 6.7704 1.72755 6.75043 1.85404 6.61396 2.09703 6.36098 2.45652 6.11466 2.81601 5.80177 3.18881 5.42231 3.57493 5.04951 3.96105 4.63676 4.36381 4.18407 4.78322 3.72472 5.20262 3.26204 5.49554 2.79604 5.66197 2.32337 5.8284 1.87401 5.87833 1.44795 5.81176 1.02854 5.73853 0.622451 5.53216 0.229674 5.19264-0.163102 4.85978-0.45602 4.46367-0.64908 4.00432-0.848796 3.54497-0.965298 3.04235-0.998584 2.49646-1.03187 1.95722-1.00524 1.38803-0.918697 0.788881-0.838811 0.196388-0.788881-0.129816-0.76891-0.189731-0.755595-0.249646-0.732295-0.309561-0.699009-0.369476-0.67238-0.429391-0.635765-0.482649-0.589165-0.52925-0.549221-0.57585-0.502621-0.619122-0.449363-0.659066-0.396105-0.692352-0.339519-0.722309-0.279604-0.748938-0.219689-0.76891-0.156445-0.782224-0.0898726-0.788881-0.0299575-0.795539 0.0299575-0.795539 0.0898726-0.788881 0.156445-0.782224 0.219689-0.765581 0.279604-0.738952 0.339519-0.718981 0.396105-0.689023 0.449363-0.64908 0.502621-0.615794 0.55255-0.572522 0.59915-0.519264 0.639094-0.472663 0.675709-0.419405 0.708995-0.35949 0.735624-0.306232 0.755595-0.246317 0.76891-0.179745 0.788881-0.11983 0.798867-0.059915 0.798867 1.10865e-16 0.798867 0.0665723 0.798867 0.0998584 0.798867 0.0998584Z" fill="#1971C2" transform="matrix(1 0 0 1.00091 1307.35 101.153)"/><path d="M0.798867 0.0699009C0.798867 0.0699009 0.735624 0.555878 0.609136 1.52783 0.475992 2.50645 0.389448 3.41849 0.349504 4.26395 0.302904 5.11608 0.229674 6.21785 0.129816 7.56927 0.0299575 8.92068-0.0898726 10.1556-0.229674 11.274-0.362819 12.3858-0.499292 13.8404-0.639094 15.6378-0.785553 17.4353-0.93534 19.4258-1.08846 21.6094-1.23492 23.7996-1.4313 26.0331-1.67762 28.3099-1.91728 30.58-2.18024 32.8201-2.4665 35.0303-2.74611 37.2472-2.98909 39.4441-3.19547 41.621-3.40184 43.7979-3.63817 45.845-3.90446 47.7623-4.17741 49.6796-4.39377 51.8665-4.55354 54.323-4.71997 56.7728-4.80985 58.0344-4.82316 58.1076-4.84313 58.1742-4.86976 58.2374-4.90305 58.2973-4.94299 58.3573-4.98959 58.4105-5.04285 58.4571-5.09611 58.5037-5.15602 58.5403-5.22259 58.567-5.28917 58.5936-5.35574 58.6102-5.42231 58.6169-5.49554 58.6169-5.56544 58.6069-5.63201 58.5869-5.69859 58.567-5.76183 58.537-5.82175 58.4971-5.88166 58.4571-5.93159 58.4105-5.97153 58.3573-6.01813 58.2973-6.05142 58.2341-6.07139 58.1675-6.09136 58.101-6.10135 58.0344-6.10135 57.9678-6.10135 57.8946-6.09136 57.8247-6.07139 57.7581-6.05142 57.6915-6.01813 57.6316-5.97153 57.5784-5.93159 57.5184-5.88166 57.4685-5.82175 57.4286-5.76183 57.3886-5.69859 57.3587-5.63201 57.3387-5.56544 57.3254-5.49554 57.3187-5.42231 57.3187-5.34908 57.3254-5.28251 57.342-5.22259 57.3687-5.15602 57.3953-5.09611 57.4319-5.04285 57.4785-4.98959 57.5184-4.94299 57.5717-4.90305 57.6383-4.86976 57.6982-4.84313 57.7614-4.82316 57.828-4.80985 57.8946-4.80652 57.9645-4.81318 58.0377-4.81983 58.1043-4.8398 58.1709-4.87309 58.2374-4.89972 58.304-4.93966 58.3606-4.99292 58.4072-5.03952 58.4604-5.09278 58.5037-5.15269 58.537-5.21927 58.5703-5.28584 58.5936-5.35241 58.6069-5.42564 58.6136-5.49554 58.6136-5.56211 58.6069-5.63534 58.5936-5.70192 58.5703-5.76183 58.537-5.82175 58.5037-5.87833 58.4604-5.93159 58.4072-5.97819 58.3606-6.01813 58.304-6.05142 58.2374-6.07805 58.1709-6.09469 58.1043-6.10135 58.0377-6.10801 57.9645-6.11133 57.9279-6.11133 57.9279-6.11133 57.9279-6.03145 56.683-5.87167 54.1932-5.71856 51.6967-5.50886 49.4998-5.24257 47.6025-4.97628 45.7052-4.73995 43.6614-4.53357 41.4712-4.32054 39.281-4.07422 37.0841-3.79462 34.8805-3.51502 32.677-3.25538 30.4468-3.01572 28.19-2.77606 25.9332-2.57968 23.7064-2.42656 21.5095-2.27344 19.3193-2.12366 17.3154-1.9772 15.498-1.83074 13.6873-1.69094 12.2327-1.55779 11.1342-1.42465 10.0424-1.30482 8.82748-1.1983 7.48938-1.09844 6.15128-1.03187 5.04618-0.998584 4.17408-0.965298 3.30198-0.922026 2.37663-0.868768 1.39802-0.822168 0.419405-0.79221-0.0998584-0.778896-0.159773-0.765581-0.226346-0.745609-0.289589-0.718981-0.349504-0.685694-0.402762-0.64908-0.45602-0.609136-0.509278-0.569193-0.555878-0.522592-0.59915-0.469335-0.639094-0.416077-0.679037-0.35949-0.712323-0.299575-0.738952-0.23966-0.758924-0.179745-0.775567-0.11983-0.788881-0.0532578-0.795539 0.00998584-0.795539 0.0699009-0.788881 0.129816-0.782224 0.19306-0.76891 0.259632-0.748938 0.319547-0.728966 0.376133-0.702337 0.429391-0.669051 0.482649-0.629108 0.532578-0.585836 0.579179-0.539235 0.625779-0.492635 0.662394-0.442706 0.689023-0.389448 0.722309-0.329533 0.748938-0.269618 0.76891-0.209703 0.782224-0.149788 0.79221-0.086544 0.798867-0.0199717 0.798867 0.0399434 0.798867 0.0699009 0.798867 0.0699009Z" fill="#343A40" transform="matrix(1 0 0 1.00091 1069.35 94.5713)"/><path d="M0.788881 0.11983C0.788881 0.11983 0.679037 0.692352 0.459349 1.83739 0.233003 2.98909 0.043272 4.07755-0.109844 5.10276-0.276275 6.13463-0.392776 7.47607-0.459349 9.12706-0.525921 10.7847-0.619122 12.6387-0.738952 14.6892-0.858782 16.7463-1.03187 18.9698-1.25822 21.3597-1.48456 23.7497-1.69094 26.2494-1.87734 28.8591-2.06374 31.4687-2.28676 34.0451-2.54639 36.5881-2.79936 39.1312-3.02571 41.6043-3.22543 44.0076-3.42514 46.4175-3.56495 48.6643-3.64483 50.748-3.73138 52.8318-3.79129 54.7158-3.82458 56.4-3.86452 58.0843-3.89781 59.9084-3.92444 61.8723-3.95106 63.8295-3.97104 64.8447-3.98435 64.918-3.99767 64.9845-4.02097 65.0478-4.05425 65.1077-4.08754 65.1742-4.13081 65.2308-4.18407 65.2774-4.23733 65.324-4.29391 65.364-4.35383 65.3973-4.4204 65.4239-4.4903 65.4405-4.56353 65.4472-4.6301 65.4539-4.69667 65.4505-4.76325 65.4372-4.83648 65.4172-4.90305 65.3906-4.96296 65.3573-5.02288 65.3174-5.07614 65.2708-5.12274 65.2175-5.16934 65.1643-5.20262 65.1043-5.22259 65.0378-5.24922 64.9712-5.26587 64.9013-5.27252 64.8281-5.27252 64.7615-5.26254 64.6949-5.24257 64.6284-5.22259 64.5551-5.19264 64.4919-5.15269 64.4386-5.11275 64.3787-5.06615 64.3288-5.01289 64.2888-4.95298 64.2422-4.88973 64.209-4.82316 64.189-4.75659 64.169-4.68669 64.159-4.61346 64.159-4.54689 64.159-4.48031 64.169-4.41374 64.189-4.34717 64.2156-4.28393 64.2489-4.22401 64.2888-4.17075 64.3354-4.12415 64.3887-4.08421 64.4486-4.04427 64.5085-4.01431 64.5718-3.99434 64.6384-3.98102 64.7049-3.97436 64.7748-3.97436 64.8481-3.98102 64.9146-3.99767 64.9812-4.02429 65.0478-4.05092 65.1143-4.08754 65.1743-4.13414 65.2275-4.18074 65.2808-4.234 65.324-4.29391 65.3573-4.35383 65.3973-4.4204 65.4239-4.49363 65.4372-4.5602 65.4505-4.6301 65.4539-4.70333 65.4472-4.7699 65.4405-4.83648 65.4206-4.90305 65.3873-4.96296 65.3607-5.01955 65.3207-5.07281 65.2675-5.12606 65.2209-5.16601 65.1643-5.19264 65.0977-5.22592 65.0378-5.24922 64.9712-5.26254 64.898-5.27585 64.8314-5.28251 64.7981-5.28251 64.7981-5.28251 64.7981-5.27252 63.8162-5.25255 61.8523-5.23924 59.8884-5.21594 58.0577-5.18265 56.3601-5.14937 54.6625-5.08945 52.7652-5.00291 50.6682-4.91636 48.5645-4.77323 46.3043-4.57351 43.8878-4.3738 41.4712-4.14745 38.998-3.89448 36.4683-3.63485 33.9452-3.41183 31.3722-3.22543 28.7492-3.03902 26.1263-2.83265 23.6298-2.6063 21.2599-2.37996 18.8832-2.20687 16.673-2.08704 14.6293-1.96721 12.5788-1.87068 10.7015-1.79745 8.99724-1.72422 7.28633-1.60439 5.9216-1.43796 4.90305-1.27153 3.87783-1.12174 2.78272-0.988598 1.61771-0.855454 0.459349-0.782224-0.149788-0.76891-0.209703-0.748938-0.276275-0.722309-0.33619-0.689023-0.389448-0.655737-0.442706-0.619122-0.495963-0.579179-0.549221-0.532578-0.595822-0.482649-0.635765-0.429391-0.669051-0.376133-0.702337-0.319547-0.728966-0.259632-0.748938-0.19306-0.76891-0.129816-0.782224-0.0699009-0.788881-0.00998584-0.795539 0.0532578-0.795539 0.11983-0.788881 0.179745-0.775567 0.23966-0.755595 0.299575-0.728966 0.35949-0.708995 0.416077-0.679037 0.469335-0.639094 0.522592-0.59915 0.569193-0.555878 0.609136-0.509278 0.64908-0.45602 0.685694-0.399434 0.718981-0.339519 0.745609-0.286261 0.765581-0.226346 0.778896-0.159773 0.79221-0.0998584 0.798867-0.0399434 0.798867 0.0199717 0.79221 0.086544 0.788881 0.11983 0.788881 0.11983Z" fill="#343A40" transform="matrix(1 0 0 1.00091 1090.71 76.9149)"/><path d="M0.778896 0.189731C0.778896 0.189731 0.665723 0.539235 0.439377 1.23824 0.219689 1.94391 0.0732295 2.60963 0 3.23541-0.059915 3.86785-0.149788 4.89972-0.269618 6.33102-0.389448 7.75567-0.519264 9.48322-0.659066 11.5137-0.798867 13.5441-0.945326 15.7943-1.09844 18.2641-1.2449 20.7273-1.48456 23.2903-1.81742 25.9532-2.14363 28.6161-2.42323 31.2623-2.65623 33.8919-2.88258 36.5215-3.08895 39.1079-3.27536 41.6509-3.46176 44.194-3.63817 46.584-3.80461 48.8208-3.97769 51.0576-4.09752 53.0947-4.1641 54.9321-4.23733 56.7628-4.24398 58.4172-4.18407 59.8951-4.12415 61.373-4.04094 62.6911-3.93442 63.8495-3.82791 65.0012-3.77798 65.6136-3.78463 65.6869-3.78463 65.7534-3.79795 65.82-3.82458 65.8866-3.85121 65.9532-3.88782 66.0131-3.93442 66.0663-3.98102 66.1196-4.03428 66.1662-4.09419 66.2061-4.16077 66.2394-4.22734 66.2627-4.29391 66.276-4.36048 66.2893-4.43038 66.2927-4.50361 66.286-4.57019 66.2794-4.63676 66.2594-4.70333 66.2261-4.7699 66.1995-4.82649 66.1595-4.87309 66.1063-4.92635 66.0597-4.96962 66.0031-5.00291 65.9365-5.03619 65.8766-5.05616 65.81-5.06282 65.7368-5.07614 65.6702-5.07614 65.6003-5.06282 65.5271-5.04951 65.4605-5.02621 65.3973-4.99292 65.3374-4.95963 65.2708-4.91636 65.2142-4.8631 65.1676-4.80985 65.121-4.75326 65.0811-4.69335 65.0478-4.62677 65.0211-4.55687 65.0045-4.48364 64.9978-4.41707 64.9912-4.3505 64.9945-4.28393 65.0078-4.2107 65.0278-4.14412 65.0544-4.08421 65.0877-4.02429 65.1277-3.97104 65.1743-3.92444 65.2275-3.88449 65.2808-3.85121 65.3407-3.82458 65.4073-3.79795 65.4738-3.78131 65.5437-3.77465 65.617-3.77465 65.6835-3.78463 65.7534-3.80461 65.8267-3.82458 65.8932-3.85453 65.9565-3.89448 66.0164-3.93442 66.0696-3.98435 66.1196-4.04427 66.1662-4.09752 66.2061-4.15744 66.2361-4.22401 66.2561-4.29058 66.2827-4.36048 66.2927-4.43371 66.286-4.50694 66.286-4.57684 66.276-4.64342 66.2561-4.70999 66.2294-4.7699 66.1961-4.82316 66.1562-4.87642 66.1096-4.92302 66.0563-4.96296 65.9964-5.00291 65.9365-5.03286 65.8733-5.05284 65.8067-5.07281 65.7401-5.08279 65.7068-5.08279 65.7068-5.08279 65.7068-5.13938 65.1177-5.25255 63.9393-5.37238 62.7544-5.46226 61.4063-5.52217 59.8951-5.58209 58.3839-5.57543 56.7029-5.5022 54.8522-5.42897 53.0015-5.30914 50.9577-5.14271 48.7209-4.97628 46.4841-4.79986 44.0908-4.61346 41.5411-4.42706 38.998-4.21735 36.4017-3.98435 33.7521-3.758 31.1026-3.4784 28.463-3.14554 25.8334-2.81934 23.1971-2.583 20.6441-2.43655 18.1742-2.28343 15.7044-2.13697 13.4509-1.99717 11.4138-1.85737 9.37671-1.72422 7.63584-1.59773 6.19122-1.4779 4.75326-1.37805 3.6881-1.29816 2.99575-1.21827 2.31006-1.11176 1.60772-0.978612 0.88874-0.845468 0.169759-0.765581-0.219689-0.738952-0.279604-0.718981-0.339519-0.689023-0.396105-0.64908-0.449363-0.615794-0.502621-0.572522-0.55255-0.519264-0.59915-0.472663-0.639094-0.419405-0.675709-0.35949-0.708995-0.306232-0.735624-0.246317-0.755595-0.179745-0.76891-0.11983-0.788881-0.059915-0.798867 4.4346e-16-0.798867 0.059915-0.798867 0.123159-0.788881 0.189731-0.76891 0.249646-0.755595 0.309561-0.732295 0.369476-0.699009 0.429391-0.67238 0.482649-0.635765 0.52925-0.589165 0.57585-0.549221 0.619122-0.502621 0.659066-0.449363 0.692352-0.396105 0.722309-0.339519 0.748938-0.279604 0.76891-0.219689 0.782224-0.156445 0.788881-0.0898726 0.795539-0.0299575 0.795539 0.0299575 0.788881 0.0898726 0.782224 0.156445 0.778896 0.189731 0.778896 0.189731Z" fill="#343A40" transform="matrix(1 0 0 1.00091 1115.31 56.4708)"/><path d="M0.689023 0.409419C0.689023 0.409419 0.535907 0.615794 0.229674 1.02854-0.0632437 1.44129-0.252975 2.2335-0.339519 3.40517-0.426063 4.57684-0.535907 6.27111-0.669051 8.48796-0.802196 10.7048-0.941998 13.2645-1.08846 16.1671-1.23492 19.0696-1.42798 22.1619-1.66764 25.4439-1.9073 28.7326-2.16693 32.0079-2.44653 35.27-2.72613 38.5387-2.92585 41.5711-3.04568 44.3671-3.16551 47.1698-3.25206 49.6995-3.30531 51.9563-3.35857 54.2131-3.35191 56.3068-3.28534 58.2374-3.21877 60.1614-3.04235 62.1086-2.75609 64.0791-2.46983 66.043-2.3267 67.0616-2.3267 67.1348-2.33336 67.208-2.34667 67.2779-2.36664 67.3445-2.39327 67.4044-2.42989 67.4643-2.47649 67.5243-2.52309 67.5775-2.57635 67.6208-2.63626 67.6541-2.69618 67.694-2.75942 67.7206-2.82599 67.734-2.89257 67.7539-2.96247 67.7606-3.0357 67.7539-3.10893 67.7473-3.1755 67.7306-3.23541 67.704-3.30198 67.6707-3.3619 67.6308-3.41516 67.5842-3.46842 67.5376-3.51169 67.481-3.54497 67.4144-3.57826 67.3545-3.60156 67.2913-3.61487 67.2247-3.62819 67.1515-3.62819 67.0816-3.61487 67.015-3.60156 66.9417-3.58159 66.8752-3.55496 66.8153-3.52167 66.7487-3.4784 66.6921-3.42514 66.6455-3.37189 66.5922-3.3153 66.5523-3.25538 66.5257-3.18881 66.4924-3.12224 66.4724-3.05567 66.4658-2.98244 66.4591-2.91254 66.4624-2.84596 66.4757-2.77274 66.4891-2.70616 66.5124-2.64625 66.5456-2.58633 66.5856-2.53307 66.6322-2.48647 66.6854-2.43987 66.7387-2.40326 66.7986-2.37663 66.8652-2.35 66.9251-2.33336 66.9917-2.3267 67.0649-2.3267 67.1381-2.33336 67.208-2.34667 67.2746-2.36664 67.3412-2.3966 67.4044-2.43655 67.4643-2.47649 67.5243-2.52309 67.5742-2.57635 67.6141-2.6296 67.6607-2.68952 67.694-2.75609 67.714-2.82266 67.7406-2.89257 67.7539-2.96579 67.7539-3.03902 67.7539-3.10893 67.7439-3.1755 67.724-3.24207 67.704-3.30198 67.6707-3.35524 67.6241-3.41516 67.5842-3.46509 67.5342-3.50503 67.4743-3.54497 67.4211-3.57493 67.3578-3.5949 67.2846-3.61487 67.218-3.62486 67.1847-3.62486 67.1847-3.62486 67.1847-3.77465 66.1828-4.07422 64.179-4.38046 62.1752-4.56686 60.1946-4.63343 58.2374-4.7 56.2869-4.70999 54.1798-4.66339 51.9164-4.61679 49.6463-4.53357 47.1032-4.41374 44.2872-4.29391 41.4645-4.09419 38.4222-3.81459 35.1601-3.53499 31.9048-3.27536 28.6394-3.0357 25.364-2.78938 22.0887-2.59299 18.9964-2.44653 16.0872-2.30007 13.1846-2.15694 10.6183-2.01714 8.38811-1.87734 6.15794-1.73421 4.37047-1.58775 3.02571-1.44795 1.68761-1.26154 0.778896-1.02854 0.299575-0.802196-0.173088-0.669051-0.436048-0.629108-0.489306-0.589165-0.535907-0.542564-0.579179-0.489306-0.619122-0.436048-0.659066-0.382791-0.692352-0.329533-0.718981-0.269618-0.745609-0.206374-0.765581-0.139802-0.778896-0.0798867-0.79221-0.0199717-0.795539 0.0399434-0.788881 0.106516-0.788881 0.169759-0.778896 0.229674-0.758924 0.289589-0.738952 0.349504-0.712323 0.409419-0.679037 0.462677-0.645751 0.512607-0.605808 0.559207-0.559207 0.605808-0.512607 0.645751-0.462677 0.679037-0.409419 0.712323-0.356162 0.738952-0.299575 0.758924-0.23966 0.778896-0.173088 0.788881-0.109844 0.788881-0.0499292 0.795539 0.00998584 0.79221 0.0732295 0.778896 0.139802 0.772238 0.199717 0.755595 0.259632 0.728966 0.319547 0.702337 0.379462 0.689023 0.409419 0.689023 0.409419Z" fill="#343A40" transform="matrix(1 0 0 1.00091 1138.06 39.2791)"/><path d="M0.778896 0.189731C0.778896 0.189731 0.665723 0.539235 0.439377 1.23824 0.219689 1.93725 0.0732295 2.5597 0 3.1056-0.059915 3.65149-0.106516 4.17075-0.139802 4.66339-0.166431 5.16268-0.229674 5.79512-0.329533 6.5607-0.429391 7.32628-0.499292 8.25829-0.539235 9.35673-0.579179 10.4552-0.609136 11.6402-0.629108 12.9117-0.64908 14.1832-0.662394 15.488-0.669051 16.8261-0.675709 18.1709-0.682366 19.4824-0.689023 20.7606-0.69568 22.0454-0.655737 23.3536-0.569193 24.685-0.482649 26.0098-0.419405 27.3645-0.379462 28.7492-0.339519 30.1273-0.31289 31.4654-0.299575 32.7635-0.286261 34.0684-0.276275 35.3499-0.269618 36.6081-0.26296 37.873-0.256303 39.0413-0.249646 40.1131-0.249646 41.1849-0.246317 42.2601-0.23966 43.3386-0.23966 44.417-0.23966 45.4955-0.23966 46.574-0.23966 47.6591-0.286261 48.6211-0.379462 49.4599-0.466006 50.2987-0.446034 51.274-0.319547 52.3857-0.199717 53.4975-0.106516 54.07-0.0399434 54.1033 0.0199717 54.1299 0.0732295 54.1665 0.11983 54.2131 0.173088 54.2597 0.21636 54.3163 0.249646 54.3829 0.282932 54.4428 0.306232 54.5094 0.319547 54.5826 0.332861 54.6492 0.332861 54.7191 0.319547 54.7923 0.31289 54.8589 0.292918 54.9255 0.259632 54.992 0.226346 55.0519 0.183074 55.1052 0.129816 55.1518 0.0832153 55.2051 0.0299575 55.245-0.0299575 55.2716-0.0898726 55.3049-0.156445 55.3249-0.229674 55.3315-0.296247 55.3382-0.366148 55.3349-0.439377 55.3216-0.505949 55.3082-0.569193 55.2849-0.629108 55.2517-0.69568 55.2117-0.752267 55.1651-0.798867 55.1119-0.838811 55.0586-0.875425 54.9987-0.908712 54.9321-0.93534 54.8722-0.948655 54.8056-0.948655 54.7324-0.955312 54.6592-0.948655 54.5893-0.928683 54.5227-0.908712 54.4561-0.882083 54.3929-0.848796 54.333-0.808853 54.273-0.758924 54.2231-0.699009 54.1832-0.645751 54.1366-0.585836 54.1033-0.519264 54.0833-0.452691 54.0567-0.382791 54.0434-0.309561 54.0434-0.242989 54.0434-0.176417 54.0534-0.109844 54.0733-0.0366147 54.0933 0.0233003 54.1266 0.0699009 54.1732 0.129816 54.2131 0.179745 54.2631 0.219689 54.323 0.259632 54.3829 0.289589 54.4461 0.309561 54.5127 0.329533 54.5793 0.33619 54.6492 0.329533 54.7224 0.329533 54.789 0.316218 54.8556 0.289589 54.9221 0.26296 54.9887 0.226346 55.0486 0.179745 55.1019 0.133145 55.1551 0.0798867 55.2017 0.0199717 55.2417-0.0332861 55.275-0.0932012 55.3016-0.159773 55.3216-0.226346 55.3349-0.296247 55.3382-0.369476 55.3315-0.442706 55.3249-0.47932 55.3216-0.47932 55.3216-0.472663 55.3216-0.702337 54.5294-1.16834 52.9449-1.63435 51.3605-1.82408 50.1722-1.73754 49.38-1.65099 48.5944-1.60772 47.6591-1.60772 46.574-1.60772 45.4955-1.60772 44.417-1.60772 43.3386-1.61438 42.2601-1.61771 41.1883-1.61771 40.1231-1.61771 39.0513-1.62103 37.8863-1.62769 36.6281-1.63435 35.3632-1.64766 34.085-1.66764 32.7935-1.68095 31.502-1.70758 30.1739-1.74752 28.8092-1.78081 27.4444-1.84405 26.083-1.93725 24.7249-2.0238 23.3602-2.06374 22.0387-2.05708 20.7606-2.05708 19.4757-2.05375 18.1609-2.0471 16.8162-2.04044 15.4714-2.02713 14.1566-2.00715 12.8717-1.98718 11.5869-1.9539 10.3753-1.9073 9.2369-1.8607 8.09186-1.78414 7.15319-1.67762 6.4209-1.57776 5.6886-1.50786 5.05949-1.46792 4.53357-1.43463 4.01431-1.37805 3.4551-1.29816 2.85595-1.21827 2.26346-1.11176 1.60772-0.978612 0.88874-0.845468 0.169759-0.765581-0.219689-0.738952-0.279604-0.718981-0.339519-0.689023-0.396105-0.64908-0.449363-0.615794-0.502621-0.572522-0.55255-0.519264-0.59915-0.472663-0.639094-0.419405-0.675709-0.35949-0.708995-0.306232-0.735624-0.246317-0.755595-0.179745-0.76891-0.11983-0.788881-0.059915-0.798867 -2.2173e-16-0.798867 0.059915-0.798867 0.123159-0.788881 0.189731-0.76891 0.249646-0.755595 0.309561-0.732295 0.369476-0.699009 0.429391-0.67238 0.482649-0.635765 0.52925-0.589165 0.57585-0.549221 0.619122-0.502621 0.659066-0.449363 0.692352-0.396105 0.722309-0.339519 0.748938-0.279604 0.76891-0.219689 0.782224-0.156445 0.788881-0.0898726 0.795539-0.0299575 0.795539 0.0299575 0.788881 0.0898726 0.782224 0.156445 0.778896 0.189731 0.778896 0.189731Z" fill="#343A40" transform="matrix(1 0 0 1.00091 1191.91 16.047)"/><path d="M-0.788881-0.109844C-0.788881-0.109844-0.755595-0.342847-0.689023-0.808853-0.615794-1.27486-0.532578-1.74752-0.439377-2.22684-0.346176-2.70616-0.246317-3.18215-0.139802-3.65482-0.0399434-4.12748 0.0332861-4.54689 0.0798867-4.91303 0.11983-5.28584 0.186402-5.64533 0.279604-5.9915 0.379462-6.33768 0.442706-6.54073 0.469335-6.60064 0.495963-6.66056 0.522592-6.72047 0.549221-6.78039 0.57585-6.8403 0.609136-6.89689 0.64908-6.95015 0.689023-7.0034 0.735624-7.05333 0.788881-7.09993 0.835482-7.13988 0.88874-7.17316 0.948655-7.19979 1.00857-7.23308 1.07181-7.25638 1.13839-7.26969 1.20496-7.28301 1.27153-7.28633 1.3381-7.27968 1.40467-7.27968 1.46792-7.26969 1.52783-7.24972 1.59441-7.23641 1.65432-7.21311 1.70758-7.17982 1.76749-7.14653 1.82075-7.10659 1.86735-7.05999 1.91395-7.01339 1.95722-6.96346 1.99717-6.9102 2.03045-6.85029 2.05708-6.79037 2.07705-6.73046 2.09703-6.66388 2.11034-6.60064 2.117-6.54073 2.12366-6.47415 2.12366-6.40758 2.117-6.34101 2.10368-6.27444 1.88732-6.06806 1.46792-5.72189 1.04851-5.38237 0.665723-5.14937 0.319547-5.02288-0.0133145-4.90305-0.482649-4.78322-1.08846-4.66339-1.69426-4.5369-2.31339-4.46034-2.94582-4.43371-3.57826-4.40708-4.08088-4.42706-4.45369-4.49363-4.83315-4.5602-5.19264-4.6068-5.53216-4.63343-5.86502-4.66006-6.06473-4.68336-6.13131-4.70333-6.20454-4.71665-6.27111-4.73995-6.33102-4.77323-6.39094-4.80652-6.44752-4.84646-6.50078-4.89306-6.55404-4.93966-6.59731-4.99292-6.6306-5.05284-6.67054-5.11275-6.70383-5.17599-6.73046-5.24257-6.75043-5.30914-6.76707-5.37571-6.78039-5.44228-6.78704-5.50886-6.78371-5.57876-6.7704-5.65199-6.76374-5.71856-6.7471-5.78513-6.72047-5.8517-6.69384-5.91828-6.66056-5.97819-6.62061-6.03145-6.58067-6.09136-6.53407-6.14462-6.48081-6.19122-6.42755-6.23116-6.37097-6.26778-6.31105-6.30107-6.24448-6.33435-6.17791-6.35765-6.11133-6.37097-6.04476-6.39094-5.97486-6.40092-5.90163-6.40092-5.83506-6.39427-5.67196-6.22118-5.41233-5.88166-5.15269-5.5488-4.82316-5.20928-4.42373-4.8631-4.01764-4.52359-3.62486-4.21402-3.2454-3.93442-2.86594-3.65482-2.45985-3.35524-2.02713-3.0357-1.60106-2.71615-0.961969-2.13364-0.109844-1.28817 0.728966-0.436048 1.17167 0.00998584 1.21827 0.0499292 1.27153 0.0965298 1.3148 0.149788 1.34809 0.209703 1.38803 0.276275 1.41466 0.342847 1.42798 0.409419 1.44129 0.475992 1.44129 0.545893 1.42798 0.619122 1.42132 0.692352 1.40135 0.758924 1.36806 0.818839 1.33477 0.885411 1.2915 0.941998 1.23824 0.988598 1.19164 1.0352 1.13506 1.07514 1.06849 1.10843 1.00857 1.14171 0.941998 1.16169 0.868768 1.16834 0.802196 1.18166 0.732295 1.17833 0.659066 1.15836 0.592493 1.14504 0.52925 1.12174 0.469335 1.08846 0.402762 1.05517 0.346176 1.0119 0.299575 0.958641 0.252975 0.905383 0.21636 0.845468 0.189731 0.778896 0.163102 0.712323 0.146459 0.645751 0.139802 0.579179 0.133145 0.505949 0.139802 0.436048 0.159773 0.369476 0.179745 0.302904 0.206374 0.23966 0.23966 0.179745 0.279604 0.11983 0.329533 0.0665723 0.389448 0.0199717 0.442706-0.0133145 0.502621-0.043272 0.569193-0.0699009 0.635765-0.0965298 0.702337-0.109844 0.76891-0.109844 0.842139-0.109844 0.91204-0.0998584 0.978612-0.0798867 1.04518-0.059915 1.10843-0.0332861 1.16834 0 1.22826 0.0466006 1.27819 0.0965298 1.31813 0.149788 1.35807 0.209703 1.38803 0.272946 1.408 0.339519 1.42798 0.406091 1.43796 0.475992 1.43796 0.549221 1.4313 0.622451 1.41799 0.692352 1.39802 0.758924 1.37139 0.825496 1.33477 0.885411 1.28817 0.938669 1.24157 0.991927 1.18832 1.03853 1.1284 1.07847 1.06849 1.11176 1.00524 1.13839 0.938669 1.15836 0.872097 1.17167 0.802196 1.175 0.728966 1.16834 0.662394 1.16834 0.595822 1.1517 0.52925 1.11841 0.462677 1.09179 0.429391 1.07847 0.429391 1.07847 0.429391 1.07847-0.0732295 0.738952-1.07847 0.059915-2.09037-0.612465-2.80935-1.11176-3.23541-1.43796-3.66148-1.77082-4.06424-2.08371-4.4437-2.37663-4.82316-2.66955-5.16601-2.94249-5.47224-3.19547-5.77847-3.44844-5.94823-3.758-5.98152-4.12415-6.0148-4.4903-6.06473-4.68336-6.13131-4.70333-6.20454-4.71665-6.27111-4.73995-6.33102-4.77323-6.39094-4.80652-6.44752-4.84646-6.50078-4.89306-6.55404-4.93966-6.59731-4.99292-6.6306-5.05284-6.67054-5.11275-6.70383-5.17599-6.73046-5.24257-6.75043-5.30914-6.76707-5.37571-6.78039-5.44228-6.78704-5.50886-6.78371-5.57876-6.7704-5.65199-6.76374-5.71856-6.7471-5.78513-6.72047-5.8517-6.69384-5.91828-6.66056-5.97819-6.62061-6.03145-6.58067-6.09136-6.53407-6.14462-6.48081-6.19122-6.42755-6.23116-6.37097-6.26778-6.31105-6.30107-6.24448-6.33435-6.17791-6.35765-6.11133-6.37097-6.04476-6.39094-5.97486-6.40092-5.90163-6.40092-5.83506-6.39427-5.72522-6.38428-5.5721-6.37097-5.42564-6.351-5.11275-6.29441-4.63343-6.20121-4.16077-6.10801-3.63152-6.06806-3.04568-6.08138-2.4665-6.09469-1.91062-6.15794-1.37805-6.27111-0.838811-6.37762-0.386119-6.47415-0.0199717-6.5607 0.332861-6.64724 0.522592-6.72047 0.549221-6.78039 0.57585-6.8403 0.609136-6.89689 0.64908-6.95015 0.689023-7.0034 0.735624-7.05333 0.788881-7.09993 0.835482-7.13988 0.88874-7.17316 0.948655-7.19979 1.00857-7.23308 1.07181-7.25638 1.13839-7.26969 1.20496-7.28301 1.27153-7.28633 1.3381-7.27968 1.40467-7.27968 1.46792-7.26969 1.52783-7.24972 1.59441-7.23641 1.65432-7.21311 1.70758-7.17982 1.76749-7.14653 1.82075-7.10659 1.86735-7.05999 1.91395-7.01339 1.95722-6.96346 1.99717-6.9102 2.03045-6.85029 2.05708-6.79037 2.07705-6.73046 2.09703-6.66388 2.11034-6.60064 2.117-6.54073 2.12366-6.47415 2.12366-6.40758 2.117-6.34101 2.10368-6.27444 2.03711-6.08138 1.91728-5.76183 1.79745-5.44228 1.71091-5.06948 1.65765-4.64342 1.61105-4.21735 1.53449-3.77465 1.42798-3.3153 1.32146-2.85595 1.2216-2.40326 1.1284-1.95722 1.02854-1.50453 0.948655-1.04518 0.88874-0.579179 0.822168-0.11983 0.782224 0.139802 0.76891 0.199717 0.748938 0.266289 0.725638 0.326204 0.699009 0.379462 0.665723 0.439377 0.625779 0.492635 0.579179 0.539235 0.539235 0.585836 0.492635 0.625779 0.439377 0.659066 0.379462 0.699009 0.319547 0.728966 0.259632 0.748938 0.199717 0.76891 0.136473 0.782224 0.0699009 0.788881 0.0166431 0.795539-0.043272 0.795539-0.109844 0.788881-0.169759 0.775567-0.229674 0.758924-0.289589 0.738952-0.356162 0.712323-0.412748 0.679037-0.459349 0.639094-0.512607 0.605808-0.562536 0.562536-0.609136 0.509278-0.64908 0.462677-0.682366 0.409419-0.708995 0.349504-0.742281 0.296247-0.765581 0.236332-0.778896 0.169759-0.79221 0.109844-0.798867 0.0499292-0.798867-0.00998584-0.79221-0.0765581-0.788881-0.109844-0.788881-0.109844Z" fill="#1971C2" transform="matrix(1 0 0 1.00091 1147.08 45.5004)"/><path d="M0.798867 0.0399434C0.798867 0.0399434 0.765581 0.296247 0.699009 0.808853 0.625779 1.3148 0.559207 1.82075 0.499292 2.3267 0.446034 2.83931 0.396105 3.37189 0.349504 3.92444 0.309561 4.48364 0.279604 5.05949 0.259632 5.65199 0.23966 6.24448 0.213031 6.72047 0.179745 7.07996 0.146459 7.43945 0.123159 7.92876 0.109844 8.54788 0.0898726 9.16034 0.0632437 9.79611 0.0299575 10.4552 0.00332861 11.1142-0.0199717 11.75-0.0399434 12.3625-0.059915 12.9749-0.0699009 13.5941-0.0699009 14.2198-0.0765581 14.8456-0.0798867 15.4548-0.0798867 16.0472-0.0798867 16.6464-0.103187 17.2422-0.149788 17.8347-0.189731 18.4205-0.236332 18.9964-0.289589 19.5623-0.33619 20.1281-0.402762 20.664-0.489306 21.17-0.57585 21.6759-0.669051 22.1786-0.76891 22.6778-0.868768 23.1771-0.948655 23.6498-1.00857 24.0958-1.06849 24.5352-1.10843 24.9346-1.1284 25.2941-1.14837 25.6603-1.22826 26.3293-1.36806 27.3013-1.50786 28.2732-1.55113 28.7859-1.49788 28.8391-1.45128 28.8857-1.41133 28.9423-1.37805 29.0089-1.34476 29.0688-1.32479 29.1354-1.31813 29.2086-1.30482 29.2752-1.30482 29.3451-1.31813 29.4183-1.33145 29.4849-1.35475 29.5481-1.38803 29.608-1.42798 29.6746-1.47125 29.7312-1.51785 29.7778-1.57111 29.8244-1.63102 29.861-1.69759 29.8876-1.76417 29.9143-1.83074 29.9309-1.89731 29.9376-1.97054 29.9442-2.04044 29.9409-2.10701 29.9276-2.18024 29.9076-2.24681 29.8776-2.30673 29.8377-2.36664 29.8044-2.41657 29.7578-2.45652 29.6979-2.50312 29.6446-2.53973 29.5847-2.56636 29.5181-2.58633 29.4516-2.59965 29.385-2.6063 29.3184-2.6063 29.2452-2.59632 29.1753-2.57635 29.1087-2.55638 29.0422-2.52642 28.9789-2.48647 28.919-2.43987 28.8591-2.38994 28.8092-2.33669 28.7692-2.27677 28.7293-2.21353 28.6993-2.14696 28.6793-2.08038 28.6594-2.01048 28.6494-1.93725 28.6494-1.87068 28.6494-1.80411 28.6627-1.73754 28.6893-1.67096 28.7093-1.60772 28.7426-1.54781 28.7892-1.49455 28.8358-1.44795 28.889-1.408 28.949-1.37472 29.0089-1.34809 29.0721-1.32812 29.1387-1.30815 29.2053-1.30149 29.2752-1.30815 29.3484-1.3148 29.415-1.33145 29.4815-1.35807 29.5481-1.3847 29.6147-1.42132 29.6746-1.46792 29.7278-1.52118 29.7811-1.57776 29.8244-1.63768 29.8577-1.69759 29.8909-1.76084 29.9143-1.82741 29.9276-1.90064 29.9409-1.97054 29.9442-2.03711 29.9376-2.11034 29.9242-2.17691 29.9043-2.23683 29.8776-2.3034 29.8444-2.33669 29.8277-2.33669 29.8277-2.33669 29.8277-2.36997 29.0588-2.43655 27.521-2.50977 25.9832-2.51643 24.9979-2.45652 24.5652-2.40326 24.1258-2.33669 23.6531-2.2568 23.1472-2.18357 22.6412-2.10036 22.1586-2.00715 21.6992-1.9073 21.2399-1.83407 20.7406-1.78747 20.2014-1.73421 19.6688-1.68428 19.1329-1.63768 18.5936-1.59108 18.0544-1.55113 17.5019-1.51785 16.936-1.49122 16.3768-1.4779 15.781-1.4779 15.1485-1.4779 14.5227-1.47125 13.8903-1.45793 13.2512-1.45128 12.6121-1.42465 11.9797-1.37805 11.3539-1.3381 10.7281-1.31147 10.0824-1.29816 9.41665-1.2915 8.74427-1.26487 8.09186-1.21827 7.45942-1.17167 6.82699-1.13839 6.19455-1.11841 5.56211-1.09844 4.92302-1.06516 4.33053-1.01856 3.78463-0.978612 3.23208-0.928683 2.71282-0.868768 2.22684-0.802196 1.73421-0.775567 1.23159-0.788881 0.718981-0.795539 0.213031-0.79221-0.0732295-0.778896-0.139802-0.772238-0.199717-0.755595-0.259632-0.728966-0.319547-0.702337-0.379462-0.669051-0.436048-0.629108-0.489306-0.589165-0.535907-0.542564-0.579179-0.489306-0.619122-0.436048-0.659066-0.379462-0.69568-0.319547-0.728966-0.266289-0.755595-0.206374-0.772238-0.139802-0.778896-0.0798867-0.79221-0.0199717-0.795539 0.0399434-0.788881 0.106516-0.788881 0.169759-0.778896 0.229674-0.758924 0.296247-0.738952 0.356162-0.712323 0.409419-0.679037 0.462677-0.645751 0.512607-0.605808 0.559207-0.559207 0.605808-0.512607 0.645751-0.462677 0.679037-0.409419 0.712323-0.356162 0.738952-0.296247 0.758924-0.229674 0.778896-0.169759 0.788881-0.106516 0.788881-0.0399434 0.795539 0.0133145 0.798867 0.0399434 0.798867 0.0399434Z" fill="#1E1E1E" transform="matrix(1 0 0 1.00091 1164.26 23.8257)"/><path d="M0.798867 0.0499292C0.798867 0.0499292 0.765581 0.272946 0.699009 0.718981 0.632437 1.17167 0.57585 1.70092 0.52925 2.30673 0.482649 2.91919 0.43272 3.56162 0.379462 4.234 0.332861 4.91303 0.299575 5.43895 0.279604 5.81176 0.266289 6.19122 0.23966 6.57401 0.199717 6.96013 0.166431 7.35291 0.139802 7.72904 0.11983 8.08853 0.106516 8.44136 0.0832153 8.82415 0.0499292 9.2369 0.0166431 9.64299-0.00665723 10.0324-0.0199717 10.4052-0.0332861 10.7714-0.059915 11.1608-0.0998584 11.5736-0.139802 11.9863-0.166431 12.3791-0.179745 12.7519-0.19306 13.1181-0.219689 13.4942-0.259632 13.8803-0.299575 14.2664-0.326204 14.6392-0.339519 14.9987-0.352833 15.3516-0.362819 15.7111-0.369476 16.0772-0.376133 16.4367-0.396105 16.8095-0.429391 17.1956-0.462677 17.5751-0.489306 18.101-0.509278 18.7734-0.52925 19.4458-0.539235 19.9783-0.539235 20.3711-0.539235 20.7572-0.555878 21.15-0.589165 21.5494-0.622451 21.9422-0.645751 22.3184-0.659066 22.6778-0.67238 23.0373-0.69568 23.4068-0.728966 23.7863-0.76891 24.1724-0.812182 24.5519-0.858782 24.9247-0.905383 25.2975-0.951984 25.6803-0.998584 26.073-1.04518 26.4725-1.07847 26.8553-1.09844 27.2214-1.11841 27.5809-1.13506 28.0735-1.14837 28.6993-1.16169 29.3317-1.19164 29.9242-1.23824 30.4768-1.27819 31.0293-1.30149 31.492-1.30815 31.8648-1.32146 32.2376-1.37139 32.9433-1.45793 33.9818-1.55113 35.0137-1.60106 35.5563-1.60772 35.6095-1.61438 35.6628-1.62769 35.716-1.64766 35.7693-1.66764 35.8159-1.69426 35.8592-1.72755 35.8991-1.75418 35.9457-1.78747 35.9856-1.82741 36.0189-1.86735 36.0522-1.91062 36.0822-1.95722 36.1088-2.00383 36.1288-2.05375 36.1454-2.10701 36.1587-2.16027 36.172-2.21353 36.1787-2.26679 36.1787-2.31339 36.1787-2.36332 36.172-2.41657 36.1587-2.46983 36.1454-2.51976 36.1254-2.56636 36.0988-2.61296 36.0722-2.65623 36.0422-2.69618 36.0089-2.72946 35.969-2.76275 35.9291-2.79604 35.8891-2.82266 35.8425-2.84596 35.7959-2.86594 35.7493-2.88591 35.6961-2.89589 35.6461-2.89589 35.5995-2.90255 35.5463-2.83931 35.4198-2.70616 35.2201-2.57302 35.0203-2.47316 34.9138-2.40659 34.9005-2.33336 34.8805-2.26346 34.8739-2.19689 34.8805-2.12366 34.8872-2.05708 34.9038-1.99717 34.9305-1.9306 34.9638-1.87068 35.0037-1.81742 35.0503-1.76417 35.0969-1.72089 35.1502-1.68761 35.2101-1.65432 35.27-1.63102 35.3366-1.61771 35.4098-1.60439 35.4764-1.60439 35.5463-1.61771 35.6195-1.62436 35.6861-1.64434 35.7526-1.67762 35.8192-1.71091 35.8791-1.75085 35.9357-1.79745 35.989-1.85071 36.0356-1.9073 36.0755-1.96721 36.1088-2.03378 36.1421-2.10036 36.1621-2.16693 36.1687-2.24016 36.1754-2.31006 36.172-2.37663 36.1587-2.44986 36.1454-2.51643 36.1221-2.57635 36.0888-2.63626 36.0489-2.68952 36.0023-2.73612 35.949-2.78272 35.8958-2.81934 35.8392-2.84596 35.7793-2.87925 35.7127-2.89589 35.6428-2.89589 35.5696-2.90255 35.503-2.89589 35.4331-2.87592 35.3599-2.86261 35.2933-2.83598 35.23-2.79604 35.1701-2.75609 35.1102-2.70949 35.0603-2.65623 35.0203-2.59632 34.9737-2.53307 34.9405-2.4665 34.9205-2.39993 34.8939-2.33336 34.8805-2.26679 34.8805-2.19356 34.8805-2.12366 34.8905-2.05708 34.9105-1.99051 34.9305-1.92727 34.9604-1.86735 35.0004-1.81409 35.047-1.76749 35.0969-1.72755 35.1502-1.68761 35.2101-1.65765 35.2733-1.63768 35.3399-1.61771 35.4065-1.60772 35.4764-1.60772 35.5496-1.60772 35.6228-1.62103 35.6894-1.64766 35.7493-1.67429 35.8159-1.71091 35.8791-1.75751 35.939-1.79745 35.9923-1.78081 35.939-1.70758 35.7793-1.63435 35.6128-1.60106 35.5563-1.60772 35.6095-1.61438 35.6628-1.62769 35.716-1.64766 35.7693-1.66764 35.8159-1.69426 35.8592-1.72755 35.8991-1.75418 35.9457-1.78747 35.9856-1.82741 36.0189-1.86735 36.0522-1.91062 36.0822-1.95722 36.1088-2.00383 36.1288-2.05375 36.1454-2.10701 36.1587-2.16027 36.172-2.21353 36.1787-2.26679 36.1787-2.31339 36.1787-2.36332 36.172-2.41657 36.1587-2.46983 36.1454-2.51976 36.1254-2.56636 36.0988-2.61296 36.0722-2.65623 36.0422-2.69618 36.0089-2.72946 35.969-2.76275 35.9291-2.79604 35.8891-2.82266 35.8425-2.84596 35.7959-2.86594 35.7493-2.88591 35.6961-2.89589 35.6461-2.89589 35.5995-2.90255 35.5463-2.87925 35.0004-2.82599 33.9618-2.76608 32.9233-2.73279 32.2077-2.72613 31.8149-2.71282 31.4288-2.68619 30.9661-2.64625 30.4269-2.59965 29.8943-2.56969 29.3051-2.55638 28.6594-2.54306 28.007-2.52309 27.4844-2.49646 27.0916-2.47649 26.6988-2.4432 26.3027-2.3966 25.9033-2.34334 25.5105-2.29341 25.131-2.24681 24.7649-2.20687 24.4054-2.17026 24.0492-2.13697 23.6964-2.09703 23.3436-2.0704 22.9741-2.05708 22.588-2.04377 22.2085-2.0238 21.839-1.99717 21.4795-1.96388 21.1201-1.94724 20.7439-1.94724 20.3511-1.94058 19.9584-1.93392 19.5822-1.92727 19.2227-1.92061 18.8633-1.89398 18.334-1.84738 17.635-1.80078 16.9426-1.77415 16.4101-1.76749 16.0373-1.76084 15.6578-1.75085 15.2783-1.73754 14.8989-1.71756 14.5194-1.69094 14.1499-1.65765 13.7904-1.62436 13.431-1.59773 13.0548-1.57776 12.662-1.56445 12.2693-1.53782 11.8765-1.49788 11.4837-1.46459 11.0909-1.43796 10.6982-1.41799 10.3054-1.40467 9.91927-1.37805 9.53315-1.3381 9.14703-1.30482 8.75425-1.28152 8.36813-1.2682 7.98867-1.24823 7.60255-1.2216 7.22975-1.18832 6.87026-1.14837 6.50411-1.12174 6.11799-1.10843 5.7119-1.09511 5.31247-1.06183 4.76657-1.00857 4.07422-0.955312 3.38853-0.902054 2.75609-0.848796 2.17691-0.802196 1.59108-0.782224 1.07181-0.788881 0.619122-0.795539 0.173088-0.79221-0.0798867-0.778896-0.139802-0.765581-0.206374-0.745609-0.269618-0.718981-0.329533-0.692352-0.389448-0.659066-0.442706-0.619122-0.489306-0.579179-0.542564-0.535907-0.589165-0.489306-0.629108-0.436048-0.669051-0.379462-0.702337-0.319547-0.728966-0.259632-0.755595-0.196388-0.772238-0.129816-0.778896-0.0699009-0.79221-0.00998584-0.795539 0.0499292-0.788881 0.116501-0.788881 0.179745-0.778896 0.23966-0.758924 0.299575-0.738952 0.356162-0.712323 0.409419-0.679037 0.469335-0.645751 0.522592-0.605808 0.569193-0.559207 0.609136-0.512607 0.645751-0.462677 0.679037-0.409419 0.712323-0.349504 0.738952-0.289589 0.758924-0.229674 0.778896-0.169759 0.788881-0.106516 0.788881-0.0399434 0.795539 0.0199717 0.798867 0.0499292 0.798867 0.0499292Z" fill="#1E1E1E" transform="matrix(1 0 0 1.00091 1161.28 58.5495)"/><text fill="#1E1E1E" font-family="Excalifont,Excalifont_MSFontService,sans-serif" font-weight="400" font-size="28" transform="matrix(0.998584 0 0 0.999495 1247.11 46)">Part </text><text fill="#1E1E1E" font-family="Excalifont,Excalifont_MSFontService,sans-serif" font-weight="400" font-size="28" transform="matrix(0.998584 0 0 0.999495 1320.61 46)">2</text><path d="M10.0458 0C30.327-0.00998584 51.5669 0.00998584 103.084 0M10.0458 0C38.5753-1.39802 67.8538-0.0798867 103.084 0M103.084 0C111.712 1.4779 111.552 4.10418 113.12 10.0458M103.084 0C108.007 1.78747 114.418 1.73754 113.12 10.0458M113.12 10.0458C114.757 18.0544 114.068 22.6579 113.12 30.1273M113.12 10.0458C113.799 18.6935 113.968 25.354 113.12 30.1273M113.12 30.1273C114.717 35.0004 111.172 38.4055 103.084 40.1631M113.12 30.1273C112.93 35.5796 110.174 40.912 103.084 40.1631M103.084 40.1631C66.8852 40.5725 30.4968 39.6338 10.0458 40.1631M103.084 40.1631C74.7141 38.9348 44.2672 40.3029 10.0458 40.1631M10.0458 40.1631C5.15269 40.0932-1.57776 35.5696 0 30.1273M10.0458 40.1631C4.15411 37.9162-2.19689 37.1573 0 30.1273M0 30.1273C0.419405 22.9574-1.52783 17.8547 0 10.0458M0 30.1273C-0.798867 26.073 0.279604 20.4909 0 10.0458M0 10.0458C0.349504 2.38662 3.42514-0.629108 10.0458 0M0 10.0458C-1.89731 4.33386 3.53499 0.539235 10.0458 0" stroke="#1E1E1E" stroke-width="1.99717" stroke-linecap="round" fill="none" transform="matrix(1 0 0 1.00091 1234.66 18.9682)"/></g></svg>