<svg width="470" height="248" xmlns="http://www.w3.org/2000/svg" xmlns:xlink="http://www.w3.org/1999/xlink" xml:space="preserve" overflow="hidden"><defs><clipPath id="clip0"><rect x="476" y="348" width="470" height="248"/></clipPath></defs><g clip-path="url(#clip0)" transform="translate(-476 -348)"><path d="M-1.73969-1.95965 599.023-1.20978 596.503 173.839-0.0199964 174.369" fill="#E9ECEF" transform="matrix(0.505109 -0.863056 0.864097 0.5045 348.722 704.01)"/><path d="M0 0C239.107 0.149973 479.264 0.719871 598.383 0M0 0C128.767-0.179968 258.214-0.419925 598.383 0M598.383 0C598.033 42.2224 600.203 84.0649 598.383 174.169M598.383 0C597.853 56.3599 597.533 112.89 598.383 174.169M598.383 174.169C466.127 174.959 334.66 174.609 0 174.169M598.383 174.169C448.61 172.279 299.636 172.519 0 174.169M0 174.169C0.83985 108.301-0.129977 46.3617 0 0M0 174.169C-1.30977 134.266-1.80968 95.6229 0 0" stroke="#1E1E1E" stroke-width="0.999821" stroke-linecap="round" fill="none" transform="matrix(0.505109 -0.863056 0.864097 0.5045 348.722 704.01)"/><path d="M43.2822 0.0599893C52.1007-1.91966 64.6084-0.16997 73.6468 2.39957 82.6852 4.97911 91.9735 9.99821 97.5225 15.5272 103.062 21.0462 106.411 28.4049 106.911 35.5536 107.411 42.7024 105.261 52.1407 100.512 58.4095 95.7528 64.6884 86.9744 69.9975 78.396 73.1969 69.8175 76.4063 58.6395 78.356 49.0412 77.6361 39.4529 76.9162 28.5549 73.2669 20.8363 68.8777 13.1276 64.4985 6.02892 57.9596 2.7795 51.3308-0.479914 44.702-0.939832 35.7236 1.30977 29.0948 3.55936 22.456 8.3885 16.4171 16.2771 11.5379 24.1757 6.64881 42.2224 1.45974 48.6713-0.209962 55.1201-1.87966 54.6802 0.819853 54.9702 1.51973M36.6834 1.91966C45.3919-0.819853 57.5797-1.45974 67.098 0.0899839 76.6263 1.63971 87.5443 6.1389 93.8332 11.218 100.122 16.2971 103.182 23.6458 104.811 30.5845 106.431 37.5233 107.271 46.1917 103.581 52.8505 99.8821 59.5093 90.7237 66.7181 82.6352 70.5274 74.5466 74.3367 64.7384 75.7464 55.0401 75.6864 45.3519 75.6365 32.7641 73.3269 24.4556 70.1874 16.1571 67.058 9.22835 62.6488 5.21907 56.8898 1.19979 51.1208-0.519907 42.9123 0.379932 35.6036 1.27977 28.2949 4.72915 18.4467 10.6281 13.0377 16.517 7.62863 31.5144 4.98911 35.7236 3.15943 39.9328 1.31976 35.1737 1.63971 35.8736 2.02964" fill="#FFFFFF" transform="matrix(0.505109 -0.863056 0.864097 0.5045 511.753 511.193)"/><path d="M61.7989-0.509909C71.1973 0.0299946 82.2953 4.76915 89.484 9.43831 96.6727 14.0975 102.292 20.6463 104.931 27.4751 107.571 34.3039 108.261 43.6522 105.331 50.421 102.402 57.1898 94.773 63.6886 87.3744 68.0978 79.9657 72.507 70.3074 76.0964 60.9191 76.8762 51.5208 77.6561 39.6929 75.6465 31.0144 72.797 22.326 69.9375 13.9375 65.4683 8.80842 59.7593 3.67934 54.0503 0.129977 45.7218 0.229959 38.5331 0.339939 31.3444 4.19925 22.466 9.41831 16.597 14.6374 10.7381 21.5361 5.67898 31.5344 3.3594 41.5326 1.03981 61.7789 2.38957 69.4176 2.69952 77.0462 2.99946 77.6461 4.82913 77.3261 5.16907M35.4936 2.42956C44.2521-0.339939 57.0298-1.35976 66.3581 0.149973 75.6864 1.6497 85.0348 6.48884 91.4936 11.4479 97.9525 16.3971 102.872 23.2358 105.111 29.8647 107.351 36.4935 108.031 44.692 104.941 51.2108 101.852 57.7297 94.5331 64.8384 86.6045 68.9976 78.6659 73.1569 67.248 75.6065 57.3497 76.1664 47.4415 76.7363 35.9136 75.8764 27.1951 72.397 18.4767 68.9177 9.45831 61.609 5.0391 55.3101 0.609891 49.0212-0.0999821 41.3326 0.649884 34.6138 1.38975 27.885 3.74933 20.3264 9.5083 14.9673 15.2673 9.61828 30.8245 4.26924 35.1737 2.47956 39.5229 0.689876 35.3837 3.39939 35.6036 4.20925" stroke="#1E1E1E" stroke-width="0.999821" stroke-linecap="round" fill="none" transform="matrix(0.505109 -0.863056 0.864097 0.5045 511.753 511.193)"/><text fill="#E03131" font-family="Excalifont,Excalifont_MSFontService,sans-serif" font-weight="400" font-size="28" transform="matrix(1.00072 0 0 0.999514 700.75 539)">Analyzing the</text><text fill="#E03131" font-family="Excalifont,Excalifont_MSFontService,sans-serif" font-weight="400" font-size="28" transform="matrix(1.00072 0 0 0.999514 649.683 574)">stress concentration</text><path d="M0 0C158.003 0.489762 316.196 1.12945 477.548 0M0 0C141.761-1.70917 283.032-1.2294 477.548 0M477.548 0C478.977 79.5713 478.377 157.553 477.548 254.236M477.548 0C475.939 92.2151 476.638 185.22 477.548 254.236M477.548 254.236C311.768 251.917 146.739 252.887 0 254.236M477.548 254.236C331.059 253.097 184.43 252.887 0 254.236M0 254.236C0.859582 153.475 0.579718 51.425 0 0M0 254.236C2.049 175.315 1.0295 97.2427 0 0" stroke="#E03131" stroke-width="0.499757" stroke-linecap="round" fill="none" transform="matrix(1.00121 0 0 1 473.383 344.102)"/><path d="M0.439786-0.669674C0.439786-0.669674 0.742972-0.463108 1.34934-0.0499757 1.95572 0.356493 2.5421 0.746304 3.10849 1.11946 3.66822 1.49261 4.22128 1.86243 4.76768 2.22892 5.31408 2.58874 5.89713 2.9419 6.51683 3.2884 7.13653 3.6349 7.73624 3.98806 8.31595 4.34789 8.90234 4.70771 9.4554 5.00423 9.97515 5.23745 10.4949 5.47734 10.9747 5.70056 11.4144 5.90713 11.8542 6.12036 12.3107 6.32026 12.7838 6.50683 13.2569 6.68675 13.7666 6.92663 14.313 7.22648 14.8528 7.52634 15.3325 7.78621 15.7523 8.00611 16.1655 8.226 16.6219 8.4892 17.1217 8.79572 17.6214 9.10224 18.0679 9.36544 18.461 9.58534 18.8608 9.81189 19.2873 10.0185 19.7404 10.205 20.1868 10.3983 20.64 10.6515 21.0997 10.9647 21.5528 11.2778 22.016 11.5977 22.4891 11.9242 22.9622 12.244 23.4519 12.5772 23.9583 12.9237 24.4581 13.2635 24.9112 13.5534 25.3177 13.7933 25.7242 14.0332 26.114 14.2531 26.4871 14.453 26.8603 14.6595 27.3067 14.8861 27.8265 15.1326 28.3529 15.3792 28.9093 15.6624 29.4957 15.9822 30.082 16.3021 30.6118 16.6486 31.0849 17.0217 31.558 17.3949 31.9711 17.6781 32.3243 17.8713 32.6774 18.0712 33.2838 18.5077 34.1434 19.1807 35.003 19.8537 35.4461 20.2235 35.4727 20.2901 35.4994 20.3568 35.5127 20.4234 35.5127 20.49 35.5194 20.5633 35.5127 20.6333 35.4927 20.6999 35.4727 20.7666 35.4428 20.8299 35.4028 20.8898 35.3628 20.9498 35.3162 20.9998 35.2628 21.0398 35.2029 21.0864 35.1396 21.1197 35.0729 21.1397 35.0063 21.1664 34.9397 21.1797 34.873 21.1797 34.7997 21.1797 34.7298 21.1664 34.6631 21.1397 34.5965 21.1197 34.5365 21.0864 34.4832 21.0398 34.4233 20.9998 34.3733 20.9498 34.3333 20.8898 34.2933 20.8299 34.2633 20.7666 34.2433 20.6999 34.2234 20.6333 34.2167 20.5633 34.2234 20.49 34.23 20.4234 34.2467 20.3568 34.2733 20.2901 34.3 20.2235 34.3333 20.1635 34.3733 20.1102 34.4199 20.0569 34.4732 20.0103 34.5332 19.9703 34.5998 19.937 34.6665 19.9103 34.7331 19.8903 34.7997 19.877 34.8697 19.8737 34.943 19.8803 35.0096 19.887 35.0763 19.907 35.1429 19.9403 35.2095 19.967 35.2662 20.0069 35.3128 20.0602 35.3661 20.1069 35.4094 20.1602 35.4428 20.2202 35.4761 20.2868 35.4994 20.3534 35.5127 20.4201 35.5194 20.4934 35.5194 20.5633 35.5127 20.63 35.4994 20.7033 35.4761 20.7699 35.4428 20.8299 35.4094 20.8965 35.3661 20.9531 35.3128 20.9998 35.2662 21.0464 35.2095 21.0864 35.1429 21.1197 35.0763 21.1464 35.0096 21.163 34.943 21.1697 34.8697 21.1764 34.7997 21.173 34.7331 21.1597 34.6598 21.1464 34.5932 21.1197 34.5332 21.0797 34.4732 21.0464 34.4199 21.0031 34.3733 20.9498 34.3266 20.8965 34.3033 20.8698 34.3033 20.8698 34.3033 20.8698 33.9168 20.6166 33.1439 20.1102 32.3709 19.6038 31.7979 19.244 31.4247 19.0307 31.0449 18.8109 30.6618 18.5476 30.2753 18.2411 29.8821 17.9279 29.4423 17.6348 28.9559 17.3616 28.4695 17.0884 27.9098 16.8085 27.2767 16.522 26.6437 16.2288 26.1306 15.9789 25.7375 15.7723 25.351 15.5658 24.9412 15.3325 24.5081 15.0727 24.075 14.8195 23.6052 14.5229 23.0988 14.1831 22.5857 13.8433 22.0893 13.5101 21.6095 13.1836 21.1297 12.8571 20.7099 12.5639 20.3501 12.304 19.9903 12.0441 19.5605 11.8109 19.0607 11.6044 18.5543 11.3978 18.0912 11.1779 17.6714 10.9447 17.2516 10.7115 16.8085 10.4516 16.3421 10.1651 15.8689 9.87853 15.4192 9.62199 14.9927 9.39543 14.5729 9.17554 14.1198 8.92899 13.6334 8.65579 13.1536 8.38925 12.6605 8.15603 12.1541 7.95613 11.6477 7.76289 11.1779 7.56299 10.7448 7.35642 10.3117 7.14986 9.80523 6.9133 9.22551 6.64677 8.65246 6.37357 8.08274 6.06372 7.51634 5.71722 6.94995 5.36406 6.34025 5.00423 5.68723 4.63774 5.03422 4.27126 4.43451 3.90477 3.88811 3.53828 3.34171 3.17845 2.78864 2.81197 2.22892 2.43881 1.66252 2.059 1.07614 1.66919 0.469771 1.26938-0.1366 0.869577-0.46644 0.646352-0.519747 0.599708-0.566391 0.559728-0.609703 0.513084-0.649684 0.459776-0.683001 0.406469-0.712986 0.34983-0.73964 0.289859-0.766294 0.229888-0.782952 0.166586-0.789616 0.0999514-0.796279 0.0399806-0.796279-0.0199903-0.789616-0.0799611-0.782952-0.146595-0.769626-0.209898-0.749635-0.269869-0.729645-0.32984-0.69966-0.386479-0.659679-0.439786-0.626362-0.493093-0.586381-0.543069-0.539737-0.589713-0.48643-0.629694-0.433123-0.666343-0.379815-0.69966-0.319844-0.726313-0.259874-0.749635-0.199903-0.769626-0.139932-0.782952-0.0766294-0.792948-0.00999514-0.799611 0.0499757-0.799611 0.109947-0.792948 0.169917-0.779621 0.236552-0.759631 0.299854-0.736309 0.359825-0.709655 0.413132-0.683001 0.439786-0.669674 0.439786-0.669674Z" fill="#E03131" transform="matrix(1.00121 0 0 1 502.83 443.919)"/><path d="M0.479767-0.639689C0.479767-0.639689 0.683001-0.48643 1.08947-0.179912 1.48928 0.113278 1.90907 0.363157 2.34886 0.569723 2.78198 0.769626 3.30173 1.02284 3.9081 1.32935 4.52113 1.62921 5.11751 1.94905 5.69723 2.28889 6.27695 2.62872 6.84334 2.97522 7.3964 3.32838 7.9428 3.67488 8.48587 4.02471 9.02561 4.37787 9.56535 4.72437 10.1018 5.0742 10.6348 5.42736 11.1679 5.78052 11.7543 6.19032 12.394 6.65676 13.0337 7.11654 13.68 7.53967 14.333 7.92614 14.986 8.31262 15.709 8.74241 16.502 9.21552 17.2949 9.68862 17.9746 10.1351 18.541 10.5549 19.1007 10.9747 19.7304 11.3611 20.4301 11.7143 21.1297 12.0675 21.7528 12.434 22.2992 12.8138 22.8456 13.1936 23.3786 13.5601 23.8984 13.9132 24.4248 14.2731 25.0012 14.6862 25.6275 15.1526 26.2606 15.6124 26.8469 15.9822 27.3867 16.2621 27.9264 16.5353 28.5195 16.8385 29.1658 17.1716 29.8122 17.4982 30.4319 17.8347 31.0249 18.1812 31.618 18.5343 32.1943 18.8875 32.7541 19.2406 33.3138 19.5938 33.8036 19.8937 34.2234 20.1402 34.6498 20.3934 35.0729 20.6833 35.4927 21.0098 35.9059 21.343 36.3257 21.6128 36.7521 21.8194 37.1786 22.0326 37.595 22.2392 38.0015 22.4391 38.4013 22.639 38.7878 22.8322 39.1609 23.0188 39.5408 23.2054 39.9106 23.3886 40.2704 23.5685 40.6369 23.7484 41.0367 23.9583 41.4698 24.1982 41.9096 24.4448 42.6059 24.9012 43.5588 25.5676 44.5117 26.2339 44.9981 26.6004 45.0181 26.667 45.0381 26.7337 45.0481 26.8036 45.0481 26.8769 45.0481 26.9436 45.0348 27.0102 45.0081 27.0768 44.9815 27.1435 44.9481 27.2068 44.9082 27.2667 44.8615 27.32 44.8082 27.3634 44.7482 27.3967 44.6883 27.4367 44.625 27.4666 44.5583 27.4866 44.485 27.5 44.4151 27.5033 44.3484 27.4966 44.2751 27.49 44.2052 27.4733 44.1385 27.4466 44.0786 27.42 44.0219 27.3833 43.9686 27.3367 43.9153 27.2901 43.872 27.2334 43.8387 27.1668 43.8054 27.1068 43.782 27.0435 43.7687 26.9769 43.7554 26.9036 43.7521 26.8336 43.7587 26.767 43.772 26.6937 43.792 26.627 43.8187 26.5671 43.852 26.5004 43.8953 26.4438 43.9486 26.3972 43.9953 26.3439 44.0519 26.3039 44.1185 26.2772 44.1785 26.2439 44.2451 26.2239 44.3184 26.2172 44.3851 26.2039 44.455 26.2039 44.5283 26.2172 44.595 26.2306 44.6583 26.2539 44.7183 26.2872 44.7849 26.3272 44.8415 26.3738 44.8882 26.4271 44.9348 26.4805 44.9715 26.5371 44.9981 26.5971 45.0248 26.6637 45.0414 26.7337 45.0481 26.807 45.0548 26.8736 45.0481 26.9436 45.0281 27.0169 45.0081 27.0835 44.9815 27.1468 44.9481 27.2068 44.9082 27.2667 44.8615 27.3167 44.8082 27.3567 44.7482 27.4033 44.6849 27.44 44.6183 27.4666 44.5517 27.4866 44.485 27.5 44.4184 27.5066 44.3451 27.5066 44.2751 27.4966 44.2085 27.4766 44.1419 27.45 44.0786 27.4167 44.0186 27.3767 43.9653 27.3367 43.9186 27.2867 43.8787 27.2268 43.832 27.1734 43.8087 27.1468 43.8087 27.1468 43.8087 27.1468 43.4489 26.9436 42.7292 26.5371 42.0096 26.124 41.4032 25.7841 40.9101 25.5176 40.417 25.2577 39.9905 25.0345 39.6307 24.8479 39.2709 24.668 38.9011 24.4848 38.5213 24.2982 38.1481 24.1116 37.7616 23.9184 37.3618 23.7185 36.962 23.5186 36.5056 23.2887 35.9925 23.0288 35.4794 22.7756 35.043 22.5057 34.6831 22.2192 34.3166 21.9327 33.9102 21.6628 33.4637 21.4096 33.0173 21.1564 32.5208 20.8599 31.9744 20.52 31.428 20.1735 30.8717 19.8337 30.3053 19.5005 29.7389 19.1607 29.1325 18.8275 28.4861 18.501 27.8331 18.1745 27.2034 17.8546 26.5971 17.5415 25.9907 17.2283 25.3777 16.8485 24.758 16.402 24.1316 15.9489 23.5519 15.5458 23.0188 15.1926 22.4924 14.8328 21.986 14.4796 21.4995 14.1331 21.0198 13.7933 20.3901 13.4235 19.6105 13.0237 18.8375 12.6305 18.1945 12.2374 17.6814 11.8442 17.1617 11.4578 16.5053 11.028 15.7124 10.5549 14.9127 10.0884 14.1664 9.65197 13.4734 9.2455 12.7738 8.83903 12.1141 8.41257 11.4944 7.96613 10.868 7.51968 10.2883 7.1232 9.75525 6.7767 9.22218 6.42354 8.68911 6.07371 8.15603 5.72721 7.62296 5.38072 7.08988 5.03755 6.55681 4.69771 6.01707 4.35788 5.474 4.02804 4.9276 3.7082 4.38787 3.38835 3.81148 3.0785 3.19844 2.77865 2.59207 2.47879 2.02901 2.19893 1.50927 1.93906 0.989519 1.68585 0.526411 1.40598 0.119942 1.09947-0.279864 0.792948-0.503089 0.616367-0.549733 0.569723-0.596377 0.529742-0.636357 0.479767-0.669674 0.419796-0.702991 0.366488-0.729645 0.309849-0.749635 0.249878-0.776289 0.189908-0.789616 0.126605-0.789616 0.0599708-0.796279-4.46817e-10-0.796279-0.0599708-0.789616-0.119942-0.776289-0.186576-0.756299-0.249878-0.729645-0.309849-0.702991-0.36982-0.673006-0.426459-0.639689-0.479767-0.599708-0.526411-0.553064-0.573055-0.499757-0.619699-0.453113-0.659679-0.399806-0.692996-0.339835-0.71965-0.279864-0.746304-0.219893-0.766294-0.159922-0.779621-0.093288-0.792948-0.0299854-0.799611 0.0299854-0.799611 0.0899562-0.792948 0.153259-0.779621 0.219893-0.759631 0.279864-0.746304 0.336503-0.722982 0.38981-0.689665 0.449781-0.656347 0.479767-0.639689 0.479767-0.639689Z" fill="#E03131" transform="matrix(1.00121 0 0 1 604.615 506.398)"/><path d="M-0.569723 0.569723C-0.569723 0.569723-0.629694 0.46644-0.749635 0.259874-0.869577 0.0599708-0.922884-0.279864-0.909558-0.759631-0.889567-1.2394-0.756299-1.74249-0.509752-2.2689-0.263205-2.78864 0.0599708-3.40501 0.459776-4.118 0.866245-4.83098 1.36267-5.64392 1.94905-6.55681 2.53543-7.47636 3.20844-8.48587 3.96807-9.58534 4.72104-10.6915 5.51398-11.8309 6.34691-13.0037 7.17984-14.1831 8.08274-15.3825 9.0556-16.6019 10.0218-17.8213 10.9547-19.1374 11.8542-20.55 12.7538-21.956 13.7033-23.4186 14.7028-24.9379 15.7024-26.4638 16.8251-28.063 18.0712-29.7355 19.3173-31.4081 20.5034-33.1439 21.6295-34.943 22.7556-36.7488 23.9717-38.5512 25.2777-40.3504 26.5837-42.1562 27.8631-43.9953 29.1158-45.8677 30.3686-47.7401 31.6113-49.6325 32.844-51.5449 34.0834-53.464 35.3728-55.4397 36.7121-57.472 38.0515-59.5044 39.3609-61.5101 40.6402-63.4891 41.9196-65.4682 43.1423-67.2839 44.3084-68.9365 45.4679-70.5957 46.6773-72.3748 47.9367-74.2739 49.1961-76.1663 49.8491-77.1391 49.8957-77.1925 49.9424-77.2458 49.9957-77.2891 50.0557-77.3224 50.1156-77.3624 50.1789-77.389 50.2456-77.4024 50.3189-77.4157 50.3888-77.419 50.4555-77.4123 50.5288-77.4057 50.5954-77.3857 50.6554-77.3524 50.722-77.3257 50.782-77.2857 50.8353-77.2324 50.8819-77.1858 50.9219-77.1325 50.9552-77.0725 50.9885-77.0059 51.0119-76.9392 51.0252-76.8726 51.0318-76.7993 51.0285-76.7293 51.0152-76.6627 51.0085-76.5894 50.9885-76.5228 50.9552-76.4628 50.9219-76.4028 50.8786-76.3462 50.8253-76.2929 50.772-76.2462 50.712-76.2096 50.6454-76.1829 50.5854-76.1496 50.5188-76.1296 50.4455-76.123 50.3788-76.1163 50.3089-76.1196 50.2356-76.133 50.1689-76.153 50.1056-76.1796 50.0457-76.2129 49.9857-76.2529 49.9324-76.2996 49.8857-76.3529 49.8391-76.4062 49.8024-76.4661 49.7758-76.5328 49.7491-76.5994 49.7358-76.6694 49.7358-76.7427 49.7291-76.8093 49.7358-76.8759 49.7558-76.9426 49.7758-77.0159 49.8058-77.0792 49.8458-77.1325 49.8857-77.1924 49.9357-77.2458 49.9957-77.2924 50.049-77.3324 50.109-77.3624 50.1756-77.3824 50.2489-77.409 50.3189-77.419 50.3855-77.4123 50.4588-77.4123 50.5288-77.4024 50.5954-77.3824 50.662-77.3557 50.722-77.3224 50.7753-77.2824 50.8353-77.2358 50.8852-77.1858 50.9252-77.1325 50.9585-77.0725 50.9852-77.0059 51.0052-76.9326 51.0252-76.8659 51.0318-76.7993 51.0252-76.7327 51.0252-76.6594 51.0119-76.5894 50.9852-76.5228 50.9585-76.4561 50.9452-76.4228 50.9452-76.4228 50.9452-76.4228 50.3388-75.4433 49.1261-73.4843 47.92-71.5252 46.7439-69.7228 45.5978-68.0769 44.4517-66.4244 43.239-64.6086 41.9596-62.6295 40.6802-60.6438 39.3675-58.6381 38.0215-56.6125 36.6822-54.5868 35.3828-52.6177 34.1234-50.7053 32.8707-48.7929 31.608-46.8939 30.3352-45.0081 29.0692-43.129 27.7931-41.2999 26.5071-39.5208 25.2277-37.7483 24.0183-35.9392 22.8789-34.0934 21.7328-32.2543 20.5467-30.5085 19.3206-28.856 18.0945-27.2101 16.9851-25.6275 15.9922-24.1083 14.9927-22.589 14.0265-21.1064 13.0936-19.6604 12.1608-18.2145 11.2212-16.8918 10.275-15.6924 9.32213-14.493 8.43256-13.3035 7.6063-12.1241 6.7867-10.9513 6.00375-9.82189 5.25744-8.73575 4.51114-7.64295 3.85479-6.6501 3.2884-5.7572 2.71535-4.85764 2.23225-4.06469 1.83911-3.37836 1.44596-2.69202 1.09613-2.05234 0.789616-1.45929 0.476435-0.859582 0.363157-0.559728 0.449781-0.559728 0.529742-0.566391 0.589713-0.543069 0.629694-0.489762 0.669674-0.436454 0.702991-0.379815 0.729645-0.319844 0.756299-0.266537 0.772957-0.206566 0.779621-0.139932 0.792948-0.0732977 0.796279-0.0133269 0.789616 0.0399806 0.789616 0.106615 0.779621 0.169917 0.759631 0.229888 0.73964 0.296522 0.712986 0.356493 0.679669 0.409801 0.646352 0.463108 0.606372 0.513084 0.559728 0.559728 0.513084 0.606372 0.463108 0.646352 0.409801 0.679669 0.356493 0.712986 0.296522 0.73964 0.229888 0.759631 0.169917 0.779621 0.106615 0.789616 0.0399806 0.789616-0.0133269 0.796279-0.0732977 0.792948-0.139932 0.779621-0.206566 0.772957-0.266537 0.756299-0.319844 0.729645-0.379815 0.702991-0.436454 0.669674-0.489762 0.629694-0.543069 0.589713-0.569723 0.569723-0.569723 0.569723Z" fill="#E03131" transform="matrix(1.00121 0 0 1 538.879 462.451)"/><path d="M-0.799611 0C-0.799611 0-0.792948-0.153259-0.779621-0.459776-0.772957-0.766294-0.716318-1.12279-0.609703-1.52926-0.503089-1.94239-0.266537-2.45214 0.0999514-3.05851 0.473103-3.67155 0.936211-4.40119 1.48928-5.24745 2.049-6.0937 2.70535-7.00659 3.45832-7.98611 4.21795-8.96564 5.00423-10.0618 5.81717-11.2745 6.63011-12.4806 7.51634-13.8 8.47588-15.2326 9.42875-16.6719 10.4582-18.2078 11.5644-19.8403 12.6772-21.4729 13.8199-23.1921 14.9927-24.9978 16.1721-26.8036 17.4182-28.7493 18.7309-30.835 20.0436-32.914 21.4862-35.1629 23.0588-37.5817 24.6314-39.9939 26.2572-42.476 27.9364-45.0281 29.6156-47.5802 31.3248-50.109 33.0639-52.6144 34.7964-55.1199 36.4389-57.512 37.9915-59.7909 39.5441-62.0631 41.0634-64.2421 42.5493-66.3277 44.0286-68.4067 45.3879-70.2958 46.6273-71.995 47.8667-73.6942 48.9495-75.2534 49.8757-76.6727 50.802-78.092 51.7682-79.4247 52.7743-80.6708 53.7872-81.9168 54.3169-82.5665 54.3636-82.6198 54.4169-82.6665 54.4768-82.7031 54.5435-82.7298 54.6101-82.7564 54.6767-82.7731 54.7434-82.7797 54.8167-82.7864 54.8866-82.7797 54.9533-82.7597 55.0266-82.7464 55.0932-82.7198 55.1532-82.6798 55.2131-82.6465 55.2631-82.5998 55.3031-82.5398 55.3497-82.4865 55.3864-82.4266 55.413-82.3599 55.433-82.2933 55.4464-82.2267 55.453-82.16 55.453-82.0867 55.443-82.0168 55.423-81.9501 55.403-81.8835 55.3731-81.8202 55.3331-81.7602 55.2931-81.7003 55.2431-81.6503 55.1832-81.6103 55.1232-81.5703 55.0599-81.5403 54.9933-81.5203 54.9266-81.4937 54.8567-81.4837 54.7834-81.4904 54.7167-81.4904 54.6501-81.5037 54.5835-81.5303 54.5168-81.5503 54.4568-81.5836 54.4035-81.6303 54.3436-81.6703 54.2936-81.7203 54.2536-81.7802 54.2203-81.8402 54.1936-81.9068 54.1736-81.9801 54.1603-82.0468 54.1537-82.1134 54.1537-82.18 54.1603-82.2533 54.177-82.3233 54.2036-82.3899 54.2303-82.4566 54.2703-82.5165 54.3236-82.5698 54.3702-82.6231 54.4235-82.6665 54.4835-82.6998 54.5435-82.7331 54.6068-82.7564 54.6734-82.7697 54.7467-82.7831 54.8167-82.7864 54.8833-82.7797 54.9566-82.7664 55.0232-82.7464 55.0832-82.7198 55.1498-82.6864 55.2098-82.6465 55.2631-82.5998 55.3098-82.5465 55.3497-82.4899 55.3831-82.4299 55.4164-82.3633 55.4364-82.2966 55.443-82.23 55.4564-82.1567 55.4564-82.0867 55.443-82.0201 55.4297-81.9468 55.403-81.8802 55.3631-81.8202 55.3298-81.7602 55.3131-81.7302 55.3131-81.7302 55.3131-81.7302 54.8633-81.0939 53.9638-79.8212 53.0642-78.5551 52.148-77.1991 51.2151-75.7532 50.2822-74.3072 49.1994-72.7346 47.9667-71.0354 46.7406-69.3363 45.4012-67.4439 43.9486-65.3582 42.4893-63.2659 40.9901-61.077 39.4508-58.7914 37.9049-56.4992 36.269-54.1037 34.5432-51.6049 32.8174-49.1128 31.1115-46.594 29.4257-44.0486 27.7398-41.5031 26.1106-39.031 24.5381-36.6322 22.9588-34.2267 21.5095-31.9778 20.1902-29.8855 18.8708-27.7998 17.6148-25.8508 16.422-24.0383 15.2226-22.2325 14.0598-20.5233 12.9337-18.9108 11.8143-17.2983 10.7714-15.7757 9.80523-14.343 8.8457-12.9104 7.94947-11.5744 7.11654-10.335 6.28361-9.10224 5.50399-8.00944 4.77768-7.05657 4.0447-6.1037 3.40168-5.20747 2.84861-4.36788 2.30221-3.52828 1.81912-2.742 1.39932-2.00902 0.979524-1.26938 0.772957-0.749635 0.779621-0.449781 0.792948-0.149927 0.796279 0.0299854 0.789616 0.0899562 0.782952 0.15659 0.766294 0.219893 0.73964 0.279864 0.71965 0.339835 0.689665 0.396474 0.649684 0.449781 0.616367 0.503089 0.576386 0.549733 0.529742 0.589713 0.476435 0.636357 0.423128 0.673006 0.36982 0.69966 0.309849 0.732977 0.249878 0.756299 0.189908 0.769626 0.123273 0.789616 0.0599708 0.799611 0 0.799611-0.0599708 0.799611-0.123273 0.789616-0.189908 0.769626-0.249878 0.756299-0.309849 0.732977-0.36982 0.69966-0.423128 0.673006-0.476435 0.636357-0.529742 0.589713-0.576386 0.549733-0.616367 0.503089-0.649684 0.449781-0.689665 0.396474-0.71965 0.339835-0.73964 0.279864-0.766294 0.219893-0.782952 0.15659-0.789616 0.0899562-0.796279 0.0299854-0.799611 0-0.799611 0Z" fill="#E03131" transform="matrix(1.00121 0 0 1 605.145 503.751)"/><path d="M0.569723-0.569723C0.569723-0.569723 0.826265-0.319844 1.33935 0.179912 1.85243 0.679669 2.35885 1.12612 2.85861 1.51926 3.3517 1.91907 3.85812 2.30555 4.37787 2.6787 4.89095 3.05185 5.35073 3.3617 5.7572 3.60824 6.17033 3.86145 6.61345 4.28791 7.08655 4.88762 7.55966 5.48733 7.61296 5.88047 7.24648 6.06705 6.87999 6.26029 6.44686 6.2403 5.94711 6.00708 5.44735 5.77386 5.08086 5.50066 4.84764 5.18748 4.62109 4.86763 4.2446 4.54446 3.71819 4.21795 3.19844 3.89144 2.78864 3.5616 2.48879 3.22843 2.18894 2.8886 1.7858 2.52544 1.27938 2.13896 0.772957 1.75248 0.306518 1.3027-0.119942 0.789616-0.559728 0.269869-0.639689-0.196571-0.359825-0.609703-0.0866245-1.0295 0.306518-1.366 0.819601-1.61921 1.33269-1.87242 1.81912-2.08565 2.27889-2.2589 2.73867-2.43215 3.25508-2.65204 3.82814-2.91858 4.40119-3.18512 4.95426-3.47164 5.48733-3.77816 6.0204-4.09134 6.51017-4.36454 6.95662-4.59776 7.40307-4.83765 7.80287-5.09752 8.15603-5.37738 8.51586-5.65725 8.72575-5.81051 8.78573-5.83716 8.85236-5.86381 8.91233-5.8938 8.96564-5.92712 9.01895-5.96043 9.07892-5.98709 9.14555-6.00708 9.20552-6.0204 9.26882-6.0304 9.33546-6.03706 9.40209-6.04373 9.46873-6.0404 9.53536-6.02707 9.59533-6.01374 9.6553-5.99375 9.71527-5.9671 9.77524-5.94044 9.83188-5.90713 9.88519-5.86715 9.9385-5.82717 9.98514-5.78052 10.0251-5.72721 10.0651-5.67391 10.0984-5.61727 10.1251-5.5573 10.1517-5.49733 10.1717-5.43736 10.185-5.37738 10.1917-5.31075 10.195-5.24412 10.195-5.17748 10.1884-5.11085 10.1751-5.04754 10.1551-4.98757 10.1351-4.92094 10.1084-4.86097 10.0751-4.80766 10.0418-4.75435 10.0018-4.70438 9.95516-4.65773 9.90851-4.61109 9.89519-4.31124 9.91518-3.75817 9.93517-3.20511 9.88519-2.6687 9.76525-2.14895 9.64531-1.62921 9.56202-1.13611 9.51537-0.669674 9.47539-0.209898 9.44207 0.269869 9.41542 0.769626 9.38877 1.27605 9.27549 2.09565 9.07559 3.22843 8.87568 4.36788 8.75907 4.97092 8.72575 5.03755 8.68577 5.09752 8.63913 5.15083 8.58582 5.19747 8.53252 5.24412 8.47254 5.28076 8.40591 5.30742 8.34594 5.33407 8.27931 5.3474 8.20601 5.3474 8.13271 5.35406 8.06275 5.3474 7.99611 5.32741 7.92948 5.30742 7.86617 5.28076 7.8062 5.24745 7.74623 5.20747 7.69626 5.15749 7.65628 5.09752 7.60963 5.04421 7.57631 4.98424 7.55632 4.91761 7.52967 4.85097 7.51634 4.78101 7.51634 4.70771 7.51634 4.63441 7.52634 4.56445 7.54633 4.49781 7.57298 4.43118 7.6063 4.37121 7.64628 4.3179 7.69292 4.25793 7.7429 4.20795 7.79621 4.16797 7.85618 4.12799 7.91948 4.09801 7.98611 4.07802 8.05275 4.05803 8.12272 4.05136 8.19601 4.05803 8.26931 4.05803 8.33928 4.07135 8.40591 4.09801 8.46588 4.12466 8.52585 4.16131 8.58582 4.20795 8.63913 4.2546 8.68244 4.3079 8.71576 4.36788 8.75574 4.42785 8.78239 4.49115 8.79572 4.55778 8.81571 4.63108 8.81904 4.70105 8.80572 4.76768 8.79905 4.84098 8.78239 4.90761 8.75574 4.96758 8.72909 5.03422 8.68911 5.09419 8.6358 5.1475 8.58916 5.2008 8.53585 5.24412 8.47588 5.27743 8.40924 5.31075 8.34261 5.33074 8.27597 5.3374 8.20268 5.35073 8.13271 5.35406 8.06608 5.3474 7.99278 5.33407 7.92614 5.31075 7.86617 5.27743 7.8062 5.24412 7.74956 5.2008 7.69626 5.1475 7.64961 5.10085 7.60963 5.04421 7.57631 4.97758 7.54966 4.91761 7.533 4.85097 7.52634 4.77768 7.51301 4.71104 7.51634 4.64108 7.53633 4.56778 7.54966 4.50114 7.55632 4.46783 7.55632 4.46783 7.55632 4.46783 7.57298 3.96474 7.6063 2.95856 7.63962 1.95238 7.66294 1.18276 7.67627 0.649684 7.68959 0.11661 7.72624-0.423128 7.78621-0.969528 7.84618-1.51593 7.93281-2.00902 8.04609-2.44881 8.15936-2.88193 8.29263-3.38502 8.44589-3.95807 8.59915-4.53779 8.7091-5.0009 8.77573-5.3474 8.84903-5.70056 8.91233-5.8938 8.96564-5.92712 9.01895-5.96043 9.07892-5.98709 9.14555-6.00708 9.20552-6.0204 9.26882-6.0304 9.33546-6.03706 9.40209-6.04373 9.46873-6.0404 9.53536-6.02707 9.59533-6.01374 9.6553-5.99375 9.71527-5.9671 9.77524-5.94044 9.83188-5.90713 9.88519-5.86715 9.9385-5.82717 9.98514-5.78052 10.0251-5.72721 10.0651-5.67391 10.0984-5.61727 10.1251-5.5573 10.1517-5.49733 10.1717-5.43736 10.185-5.37738 10.1917-5.31075 10.195-5.24412 10.195-5.17748 10.1884-5.11085 10.1751-5.04754 10.1551-4.98757 10.1351-4.92094 10.1084-4.86097 10.0751-4.80766 10.0418-4.75435 10.0018-4.70438 9.95516-4.65773 9.90851-4.61109 9.85187-4.57111 9.78524-4.53779 9.71861-4.51114 9.47539-4.33123 9.0556-3.99806 8.62914-3.67155 8.19934-3.39168 7.76622-3.15846 7.3331-2.91858 6.83001-2.63538 6.25696-2.30888 5.67724-1.97571 5.08419-1.66919 4.47782-1.38932 3.86479-1.10946 3.3517-0.892899 2.93857-0.73964 2.52544-0.579718 2.09565-0.443118 1.6492-0.32984 1.20275-0.223225 1.18276 0.00999514 1.58923 0.36982 1.9957 0.729645 2.4588 1.1561 2.97855 1.6492 3.50496 2.14895 3.93808 2.49878 4.27792 2.69869 4.61775 2.90525 5.0109 3.23509 5.45735 3.68821 5.90379 4.14798 6.32026 4.48115 6.70674 4.68772 7.08655 4.89429 6.97994 5.07087 6.38689 5.21746 5.78718 5.35739 5.26744 5.28743 4.82765 5.00756 4.3812 4.73436 3.89144 4.40119 3.35837 4.00805 2.81863 3.62157 2.27889 3.20844 1.73915 2.76865 1.19942 2.32887 0.679669 1.85243 0.179912 1.33935-0.319844 0.826265-0.589713 0.543069-0.629694 0.489762-0.669674 0.436454-0.702991 0.379815-0.729645 0.319844-0.756299 0.266537-0.772957 0.206566-0.779621 0.139932-0.792948 0.0732977-0.796279 0.0133269-0.789616-0.0399806-0.789616-0.106615-0.779621-0.169917-0.759631-0.229888-0.73964-0.296522-0.712986-0.356493-0.679669-0.409801-0.646352-0.463108-0.606372-0.513084-0.559728-0.559728-0.513084-0.606372-0.463108-0.646352-0.409801-0.679669-0.356493-0.712986-0.296522-0.73964-0.229888-0.759631-0.169917-0.779621-0.106615-0.789616-0.0399806-0.789616 0.0133269-0.796279 0.0732977-0.792948 0.139932-0.779621 0.206566-0.772957 0.266537-0.756299 0.319844-0.729645 0.379815-0.702991 0.436454-0.669674 0.489762-0.629694 0.543069-0.589713 0.569723-0.569723 0.569723-0.569723Z" fill="#E03131" transform="matrix(1.00121 0 0 1 582.88 386.734)"/><path d="M0.569723-0.569723C0.569723-0.569723 0.626362-0.526411 0.73964-0.439786 0.852918-0.353162 1.15277-0.186576 1.6392 0.0599708 2.12563 0.319844 2.53543 0.533074 2.8686 0.69966 3.19511 0.872909 3.53162 1.04283 3.87811 1.20941 4.21795 1.38266 4.56778 1.55924 4.9276 1.73915 5.28076 1.92573 5.65725 2.17561 6.05705 2.48879 6.45686 2.80863 6.67342 2.99854 6.70674 3.05851 6.74672 3.11848 6.78004 3.18179 6.80669 3.24842 6.82668 3.31505 6.84001 3.38169 6.84667 3.44832 6.85333 3.52162 6.85333 3.59159 6.84667 3.65822 6.83334 3.73152 6.81335 3.79815 6.7867 3.85812 6.76005 3.92476 6.72673 3.98806 6.68675 4.04803 6.64677 4.10134 6.60012 4.15131 6.54682 4.19796 6.49351 4.2446 6.43354 4.28458 6.3669 4.3179 6.30693 4.34455 6.2403 4.36788 6.167 4.38787 6.10037 4.40119 6.03373 4.40786 5.9671 4.40786 5.8938 4.40119 5.82383 4.3912 5.7572 4.37787 5.69057 4.35788 5.62393 4.33123 5.5573 4.29791 5.49733 4.25793 5.44402 4.21462 5.39737 4.16797 5.34407 4.12133 5.49733 4.13466 5.85715 4.20795 6.22364 4.27459 6.18033 4.34789 5.72721 4.42785 5.2741 4.51447 4.85097 4.47782 4.45783 4.3179 4.05803 4.16464 3.63157 3.91809 3.17845 3.57826 2.71868 3.24509 2.27889 2.92191 1.8591 2.60873 1.4393 2.29555 1.00285 1.94905 0.549733 1.56924 0.103283 1.18276-0.23322 0.822933-0.459776 0.489762-0.686333 0.163254-0.906226-0.223225-1.11946-0.669674-1.33935-1.12279-1.24273-1.59256-0.829596-2.07899-0.416464-2.57208 0.0666343-3.0152 0.619699-3.40834 1.18609-3.80815 1.68585-4.14465 2.11897-4.41785 2.55876-4.69771 3.01187-5.03755 3.47831-5.43736 3.94475-5.83716 4.39786-6.18366 4.83765-6.47685 5.2841-6.7767 5.70389-7.03991 6.09703-7.26647 6.49018-7.49302 6.9133-7.73957 7.36642-8.00611 7.81953-8.26598 8.07274-8.41257 8.12605-8.44589 8.18602-8.47921 8.24599-8.50253 8.30596-8.51586 8.36593-8.53585 8.42923-8.54584 8.49587-8.54584 8.5625-8.55251 8.6258-8.54917 8.68577-8.53585 8.74575-8.52252 8.80572-8.4992 8.86569-8.46588 8.92566-8.43923 8.97897-8.40591 9.02561-8.36593 9.07892-8.32595 9.12556-8.27931 9.16554-8.226 9.19886-8.17935 9.22884-8.12605 9.2555-8.06608 9.28215-8.00611 9.29881-7.9428 9.30547-7.87617 9.3188-7.8162 9.32213-7.7529 9.31547-7.68626 9.30881-7.61963 9.29548-7.55632 9.27549-7.49635 9.2555-7.43638 9.22884-7.37974 9.19553-7.32644 9.16221-7.27313 9.12223-7.22315 9.07559-7.17651 9.02894-7.12987 9.06559-6.93996 9.18553-6.60679 9.30547-6.27361 9.31547-5.80051 9.21552-5.18748 9.11557-4.56778 8.99896-3.92809 8.86569-3.26841 8.73242-2.60873 8.40591-1.5126 7.88616 0.0199903 7.36642 1.55924 7.09322 2.36218 7.06656 2.42882 7.03991 2.49545 6.99993 2.55209 6.94662 2.59874 6.89998 2.65204 6.84667 2.69536 6.7867 2.72867 6.72673 2.76199 6.66009 2.78531 6.5868 2.79864 6.52016 2.81197 6.4502 2.8153 6.3769 2.80863 6.31026 2.79531 6.24363 2.77198 6.177 2.73867 6.11702 2.71201 6.06039 2.67203 6.00708 2.61873 5.96043 2.56542 5.92045 2.50878 5.88714 2.44881 5.86048 2.38217 5.84049 2.31554 5.82717 2.24891 5.8205 2.17561 5.82383 2.10564 5.83716 2.03901 5.85049 1.96571 5.87381 1.89908 5.90713 1.83911 5.94711 1.77913 5.99375 1.72583 6.04706 1.67918 6.10037 1.63254 6.16034 1.59589 6.22697 1.56924 6.28694 1.54258 6.35358 1.52592 6.42687 1.51926 6.50017 1.5126 6.57014 1.51926 6.63677 1.53925 6.70341 1.55924 6.76671 1.5859 6.82668 1.61921 6.88665 1.65919 6.93663 1.70917 6.97661 1.76914 7.02325 1.82245 7.0599 1.88242 7.08655 1.94905 7.10654 2.01569 7.11654 2.08232 7.11654 2.14895 7.1232 2.22225 7.11321 2.29222 7.08655 2.35885 7.06656 2.42549 7.03658 2.48879 6.9966 2.54876 6.95662 2.60873 6.90664 2.65871 6.84667 2.69869 6.7867 2.73867 6.7234 2.76865 6.65676 2.78864 6.59013 2.80863 6.52016 2.8153 6.44686 2.80863 6.38023 2.80863 6.3136 2.79531 6.24696 2.76865 6.18033 2.742 6.11702 2.70868 6.05705 2.6687 6.00375 2.62206 5.96043 2.56875 5.92712 2.50878 5.88714 2.44881 5.86048 2.38551 5.84716 2.31887 5.82717 2.24557 5.8205 2.17561 5.82717 2.10897 5.83383 2.03568 5.83716 1.99903 5.83716 1.99903 5.83716 1.99903 5.99708 1.21941 6.31693-0.339835 6.63677-1.9124 6.87332-3.0152 7.02658-3.64823 7.1865-4.27459 7.31977-4.84764 7.42639-5.36739 7.533-5.88047 7.59964-6.33025 7.62629-6.71673 7.64628-7.10987 7.72291-7.48636 7.85618-7.84618 7.98278-8.21267 8.07274-8.41257 8.12605-8.44589 8.18602-8.47921 8.24599-8.50253 8.30596-8.51586 8.36593-8.53585 8.42923-8.54584 8.49587-8.54584 8.5625-8.55251 8.6258-8.54917 8.68577-8.53585 8.74575-8.52252 8.80572-8.4992 8.86569-8.46588 8.92566-8.43923 8.97897-8.40591 9.02561-8.36593 9.07892-8.32595 9.12556-8.27931 9.16554-8.226 9.19886-8.17935 9.22884-8.12605 9.2555-8.06608 9.28215-8.00611 9.29881-7.9428 9.30547-7.87617 9.3188-7.8162 9.32213-7.7529 9.31547-7.68626 9.30881-7.61963 9.29548-7.55632 9.27549-7.49635 9.2555-7.43638 9.22884-7.37974 9.19553-7.32644 9.16221-7.27313 9.12223-7.22315 9.07559-7.17651 9.02894-7.12987 8.89567-7.06656 8.67578-6.9866 8.46255-6.89998 8.21267-6.75005 7.92614-6.53682 7.64628-6.33025 7.32644-6.11702 6.96661-5.89713 6.60679-5.6839 6.23363-5.44402 5.84716-5.17748 5.46068-4.90428 5.00756-4.54112 4.48782-4.08801 3.96807-3.6349 3.33504-3.16846 2.58874-2.68869 1.83577-2.20893 1.27605-1.88242 0.909558-1.70917 0.536406-1.53592 0.456445-1.24273 0.669674-0.829596 0.87624-0.416464 1.16943-0.0566391 1.54925 0.249878 1.9224 0.569723 2.2689 0.832928 2.58874 1.03949 2.90859 1.24606 3.27507 1.53259 3.68821 1.89908 4.09468 2.26556 4.47782 2.5321 4.83765 2.69869 5.19747 2.86527 5.59061 2.9519 6.01707 2.95856 6.44353 2.96522 6.67342 2.99854 6.70674 3.05851 6.74672 3.11848 6.78004 3.18179 6.80669 3.24842 6.82668 3.31505 6.84001 3.38169 6.84667 3.44832 6.85333 3.52162 6.85333 3.59159 6.84667 3.65822 6.83334 3.73152 6.81335 3.79815 6.7867 3.85812 6.76005 3.92476 6.72673 3.98806 6.68675 4.04803 6.64677 4.10134 6.60012 4.15131 6.54682 4.19796 6.49351 4.2446 6.43354 4.28458 6.3669 4.3179 6.30693 4.34455 6.2403 4.36788 6.167 4.38787 6.10037 4.40119 6.03373 4.40786 5.9671 4.40786 5.8938 4.40119 5.82383 4.3912 5.7572 4.37787 5.69057 4.35788 5.62393 4.33123 5.5573 4.29791 5.49733 4.25793 5.44402 4.21462 5.39737 4.16797 5.34407 4.12133 5.2008 4.00805 4.96758 3.82814 4.74103 3.64156 4.45783 3.46498 4.118 3.2984 3.7715 3.12515 3.425 2.9519 3.0785 2.77865 2.732 2.59874 2.39217 2.42549 2.059 2.2589 1.71916 2.08565 1.38932 1.91573 1.06948 1.74915 0.749635 1.58256 0.439786 1.40265 0.139932 1.20941-0.153259 1.01617-0.343166 0.859582-0.429791 0.73964-0.523079 0.626362-0.589713 0.543069-0.629694 0.489762-0.669674 0.436454-0.702991 0.379815-0.729645 0.319844-0.756299 0.266537-0.772957 0.206566-0.779621 0.139932-0.792948 0.0732977-0.796279 0.0133269-0.789616-0.0399806-0.789616-0.106615-0.779621-0.169917-0.759631-0.229888-0.73964-0.296522-0.712986-0.356493-0.679669-0.409801-0.646352-0.463108-0.606372-0.513084-0.559728-0.559728-0.513084-0.606372-0.463108-0.646352-0.409801-0.679669-0.356493-0.712986-0.296522-0.73964-0.229888-0.759631-0.169917-0.779621-0.106615-0.789616-0.0399806-0.789616 0.0133269-0.796279 0.0732977-0.792948 0.139932-0.779621 0.206566-0.772957 0.266537-0.756299 0.319844-0.729645 0.379815-0.702991 0.436454-0.669674 0.489762-0.629694 0.543069-0.589713 0.569723-0.569723 0.569723-0.569723Z" fill="#E03131" transform="matrix(1.00121 0 0 1 654.447 423.268)"/><path d="M0.359825-0.71965C0.359825-0.71965 0.559728-0.613035 0.959533-0.399806 1.35934-0.186576 1.83911-0.0366488 2.39883 0.0499757 2.9519 0.143264 3.4883 0.199903 4.00805 0.219893 4.5278 0.23322 5.05088 0.243215 5.57729 0.249878 6.11036 0.256542 6.6501 0.209898 7.1965 0.109947 7.74956 0.023322 8.24599-0.093288 8.68577-0.239883 9.12556-0.386479 9.592-0.539737 10.0851-0.69966 10.5782-0.866245 11.0813-1.03283 11.5944-1.19942 12.1074-1.37267 12.6805-1.54591 13.3135-1.71916 13.9532-1.89908 14.5563-2.07566 15.1226-2.24891 15.6824-2.42882 16.2588-2.55876 16.8518-2.63872 17.4382-2.72534 17.9579-2.78864 18.411-2.82862 18.8642-2.86194 19.3139-2.93191 19.7604-3.03852 20.2068-3.1518 20.62-3.27841 20.9998-3.41834 21.3796-3.55827 21.836-3.66488 22.3691-3.73818 22.9089-3.81814 23.4153-3.92143 23.8884-4.04803 24.3681-4.16797 24.8046-4.30124 25.1977-4.44784 25.5842-4.59443 26.0207-4.75435 26.5071-4.9276 27.0002-5.09419 27.44-5.26077 27.8265-5.42736 28.2196-5.59395 28.5994-5.76386 28.9659-5.93711 29.3324-6.1037 29.6956-6.27361 30.0554-6.44686 30.4152-6.62011 30.7717-6.79669 31.1249-6.97661 31.4847-7.14986 31.9045-7.32977 32.3843-7.51634 32.864-7.70292 33.2938-7.88283 33.6736-8.05608 34.0601-8.22267 34.5365-8.44256 35.1029-8.71576 35.6693-8.99562 36.2157-9.28881 36.7421-9.59533 37.2752-9.90851 37.8049-10.2317 38.3314-10.5649 38.8644-10.898 39.3942-11.2379 39.9206-11.5844 40.4537-11.9309 41.0001-12.2374 41.5598-12.5039 42.1262-12.7705 42.6026-13.0437 42.9891-13.3235 43.3756-13.61 43.812-13.9232 44.2985-14.2631 44.7915-14.5962 45.2513-14.8894 45.6778-15.1426 46.1042-15.3958 46.574-15.6357 47.0871-15.8623 47.5935-16.0822 48.0466-16.2821 48.4464-16.462 48.8462-16.6486 49.2094-16.8685 49.5359-17.1217 49.8624-17.3749 50.2189-17.6181 50.6054-17.8513 50.9852-18.0912 51.3384-18.3477 51.6649-18.6209 51.9914-18.8941 52.3479-19.1507 52.7343-19.3906 53.1142-19.6371 53.5306-19.9103 53.9837-20.2102 54.4369-20.51 54.9133-20.8232 55.413-21.1497 55.9128-21.4762 56.4059-21.8527 56.8923-22.2792 57.3854-22.7056 57.9618-23.1254 58.6215-23.5385 59.2745-23.9517 59.8742-24.3848 60.4206-24.8379 60.9604-25.2844 61.57-25.7208 62.2497-26.1473 62.9227-26.5671 63.5358-27.0069 64.0888-27.4666 64.6419-27.9198 65.2483-28.4028 65.9079-28.9159 66.5676-29.4224 67.2406-29.9388 67.927-30.4652 68.6066-30.9849 69.2863-31.5513 69.966-32.1644 70.6456-32.7841 71.342-33.3804 72.0549-33.9535 72.7679-34.5332 73.5309-35.1196 74.3438-35.7126 75.1568-36.299 75.5799-36.6222 75.6132-36.6822 75.6532-36.7421 75.6998-36.7954 75.7532-36.8421 75.8065-36.8887 75.8664-36.9254 75.9331-36.952 75.9997-36.9787 76.0663-36.9953 76.133-37.002 76.2063-37.002 76.2762-36.992 76.3429-36.972 76.4095-36.952 76.4728-36.922 76.5328-36.8821 76.5927-36.8487 76.6427-36.8021 76.6827-36.7421 76.7293-36.6888 76.7627-36.6288 76.7827-36.5622 76.8093-36.4889 76.8226-36.419 76.8226-36.3523 76.8226-36.279 76.8093-36.2091 76.7827-36.1424 76.7627-36.0758 76.7293-36.0158 76.6827-35.9625 76.6427-35.9025 76.5927-35.8526 76.5328-35.8126 76.4728-35.7726 76.4095-35.7426 76.3429-35.7226 76.2762-35.7093 76.2063-35.7026 76.133-35.7026 76.0663-35.7093 75.9997-35.726 75.9331-35.7526 75.8664-35.7793 75.8065-35.8159 75.7532-35.8626 75.6998-35.9025 75.6532-35.9558 75.6132-36.0225 75.5799-36.0824 75.5532-36.1458 75.5333-36.2124 75.5199-36.279 75.5166-36.349 75.5233-36.4223 75.5299-36.4956 75.5499-36.5622 75.5832-36.6222 75.6099-36.6888 75.6499-36.7488 75.7032-36.8021 75.7498-36.8487 75.8031-36.8887 75.8631-36.922 75.9297-36.9554 75.9964-36.9787 76.063-36.992 76.1363-37.0053 76.2063-37.0053 76.2729-36.992 76.3462-36.9787 76.4128-36.9554 76.4728-36.922 76.5394-36.8887 76.5961-36.8454 76.6427-36.7921 76.6894-36.7455 76.7293-36.6888 76.7627-36.6222 76.7893-36.5556 76.806-36.4889 76.8126-36.4223 76.8193-36.349 76.816-36.279 76.8026-36.2124 76.7893-36.1458 76.7827-36.1124 76.7827-36.1124 76.7827-36.1124 76.3395-35.6926 75.4533-34.853 74.5671-34.0068 73.7808-33.3038 73.0944-32.7441 72.4015-32.1777 71.6985-31.5746 70.9855-30.935 70.2725-30.2953 69.5728-29.7189 68.8865-29.2058 68.2068-28.686 67.5438-28.1763 66.8975-27.6765 66.2511-27.1701 65.6247-26.6704 65.0184-26.1773 64.412-25.6775 63.799-25.2377 63.1793-24.8579 62.5596-24.4714 61.9499-24.0316 61.3502-23.5385 60.7504-23.0521 60.1541-22.6223 59.561-22.2492 58.9746-21.8827 58.4083-21.4662 57.8619-20.9998 57.3221-20.5333 56.8024-20.1335 56.3026-19.8004 55.8029-19.4739 55.3264-19.1573 54.8733-18.8508 54.4135-18.551 54.0204-18.2944 53.6939-18.0812 53.3674-17.8746 53.0109-17.6081 52.6244-17.2816 52.2379-16.9618 51.8748-16.6985 51.5349-16.492 51.1884-16.2854 50.8053-16.0255 50.3855-15.7124 49.959-15.3992 49.5392-15.146 49.1261-14.9527 48.713-14.7595 48.2832-14.5662 47.8367-14.373 47.3903-14.1864 46.9705-13.9765 46.5773-13.7433 46.1775-13.5101 45.7378-13.2269 45.258-12.8937 44.7782-12.5672 44.3018-12.234 43.8287-11.8942 43.3556-11.561 42.8725-11.2812 42.3794-11.0546 41.8796-10.8214 41.3599-10.5282 40.8201-10.1751 40.2871-9.82855 39.7473-9.48205 39.2009-9.13556 38.6545-8.79572 38.0981-8.45922 37.5317-8.12605 36.9654-7.79288 36.389-7.48636 35.8026-7.20649 35.2229-6.92663 34.7264-6.69341 34.3133-6.50683 33.9068-6.32692 33.487-6.15367 33.0539-5.98709 32.6208-5.8205 32.2243-5.65058 31.8645-5.47734 31.5047-5.29742 31.1415-5.11751 30.775-4.9376 30.4085-4.76435 30.0321-4.58777 29.6456-4.40786 29.2591-4.22794 28.8526-4.04803 28.4262-3.86812 28.0064-3.68821 27.5566-3.51496 27.0768-3.34837 26.5971-3.18179 26.134-3.0152 25.6875-2.84861 25.2411-2.68869 24.748-2.53876 24.2082-2.39883 23.6685-2.26556 23.1887-2.17561 22.7689-2.12896 22.3491-2.07566 21.916-1.96904 21.4696-1.80912 21.0298-1.6492 20.5433-1.50927 20.0103-1.38932 19.4772-1.26938 19.0008-1.19608 18.581-1.16943 18.1678-1.13611 17.7081-1.08947 17.2016-1.0295 16.6952-0.962865 16.1555-0.842923 15.5824-0.669674 15.0027-0.496425 14.4063-0.323176 13.7933-0.149927 13.1869 0.0166586 12.6239 0.183244 12.1041 0.34983 11.591 0.523079 11.0879 0.689665 10.5948 0.849587 10.1018 1.01617 9.62865 1.17276 9.17554 1.31936 8.72909 1.45929 8.2993 1.5859 7.88616 1.69917 7.47969 1.81245 7.00992 1.86243 6.47685 1.8491 5.93711 1.84244 5.39404 1.83577 4.84764 1.82911 4.30124 1.82245 3.71819 1.7858 3.09849 1.71916 2.47213 1.65919 1.94572 1.5759 1.51926 1.46929 1.08614 1.35601 0.663011 1.20275 0.249878 1.00951-0.15659 0.81627-0.386479 0.69966-0.439786 0.659679-0.493093 0.626362-0.539737 0.586381-0.579718 0.539737-0.626362 0.493093-0.666343 0.439786-0.69966 0.379815-0.726313 0.326508-0.749635 0.266537-0.769626 0.199903-0.782952 0.139932-0.792948 0.0766294-0.799611 0.00999514-0.799611-0.0499757-0.792948-0.109947-0.779621-0.169917-0.766294-0.236552-0.742972-0.296522-0.709655-0.34983-0.683001-0.409801-0.646352-0.463108-0.599708-0.509752-0.559728-0.563059-0.513084-0.609703-0.459776-0.649684-0.406469-0.683001-0.34983-0.712986-0.289859-0.73964-0.229888-0.759631-0.169917-0.776289-0.109947-0.789616-0.0433123-0.796279 0.0199903-0.796279 0.0799611-0.789616 0.139932-0.782952 0.199903-0.769626 0.259874-0.749635 0.326508-0.729645 0.359825-0.71965 0.359825-0.71965Z" fill="#E03131" transform="matrix(1.00121 0 0 1 515.023 420.091)"/><path d="M0.779621 0.189908C0.779621 0.189908 0.722982 0.393142 0.609703 0.799611 0.503089 1.19942 0.376484 1.64587 0.229888 2.13896 0.0832928 2.62539-0.0666343 3.12515-0.219893 3.63823-0.386479 4.15131-0.496425 4.69105-0.549733 5.25744-0.609703 5.8305-0.706323 6.51017-0.839592 7.29645-0.966197 8.08274-1.05615 8.83237-1.10946 9.54536-1.1561 10.2517-1.24273 10.978-1.36933 11.7243-1.48928 12.4706-1.62588 13.2502-1.77913 14.0632-1.93906 14.8828-2.049 15.7024-2.10897 16.522-2.16895 17.3482-2.26223 18.3044-2.38884 19.3906-2.52211 20.47-2.66537 21.5462-2.81863 22.619-2.97855 23.6918-3.0885 24.748-3.14847 25.7875-3.2151 26.827-3.26175 27.9231-3.2884 29.0759-3.31505 30.222-3.33504 31.3947-3.34837 32.5941-3.3617 33.7936-3.36836 34.903-3.36836 35.9225-3.37502 36.942-3.32838 37.9049-3.22843 38.8111-3.12848 39.724-3.05518 40.7435-3.00854 41.8696-2.96189 43.0024-2.93191 44.0619-2.91858 45.0481-2.89859 46.0276-2.88526 47.0338-2.8786 48.0666-2.87194 49.0928-2.8686 50.079-2.8686 51.0252-2.86194 51.9647-2.80863 52.8743-2.70868 53.7539-2.60873 54.6334-2.53543 55.5297-2.48879 56.4425-2.44881 57.3488-2.36885 58.1817-2.24891 58.9413-2.12896 59.701-2.04567 60.5139-1.99903 61.3801-1.94572 62.2464-1.86243 63.0993-1.74915 63.9389-1.62921 64.7851-1.54258 65.6547-1.48928 66.5476-1.4293 67.4472-1.33935 68.2735-1.21941 69.0264-1.09947 69.7727-0.962865 70.509-0.809606 71.2353-0.656347 71.955-0.449781 72.6547-0.189908 73.3343 0.0633025 74.014 0.303186 74.717 0.529742 75.4433 0.749635 76.1696 0.956201 76.8326 1.14944 77.4323 1.34268 78.032 1.56924 78.5318 1.82911 78.9316 2.08898 79.3314 2.73867 80.0744 3.77816 81.1605 4.81766 82.24 5.35739 82.8097 5.39737 82.8697 5.43736 82.923 5.47067 82.9863 5.49733 83.0596 5.51732 83.1262 5.52731 83.1929 5.52731 83.2595 5.52731 83.3328 5.51398 83.4028 5.48733 83.4694 5.46734 83.536 5.43402 83.596 5.38738 83.6493 5.3474 83.7093 5.29742 83.7593 5.23745 83.7992 5.17748 83.8326 5.11418 83.8592 5.04754 83.8792 4.97425 83.8992 4.90428 83.9058 4.83765 83.8992 4.76435 83.8925 4.69438 83.8759 4.62775 83.8492 4.56111 83.8226 4.50114 83.7859 4.44784 83.7393 4.39453 83.6926 4.35122 83.6393 4.3179 83.5793 4.28458 83.5194 4.26126 83.4561 4.24793 83.3894 4.22794 83.3161 4.22461 83.2462 4.23794 83.1795 4.2446 83.1062 4.26459 83.0396 4.29791 82.9796 4.32456 82.913 4.36454 82.853 4.41785 82.7997 4.4645 82.7531 4.5178 82.7131 4.57777 82.6798 4.64441 82.6465 4.71104 82.6231 4.77768 82.6098 4.85097 82.6031 4.92094 82.6065 4.98757 82.6198 5.06087 82.6331 5.12751 82.6565 5.18748 82.6898 5.24745 82.7231 5.30409 82.7664 5.35739 82.8197 5.40404 82.8664 5.44069 82.923 5.46734 82.9896 5.50066 83.0563 5.52065 83.1229 5.52731 83.1895 5.53398 83.2628 5.52731 83.3328 5.50732 83.3994 5.49399 83.4727 5.46734 83.5394 5.42736 83.5993 5.39404 83.6593 5.3474 83.7093 5.28743 83.7493 5.23412 83.7959 5.17415 83.8326 5.10752 83.8592 5.04088 83.8859 4.97425 83.8992 4.90761 83.8992 4.83431 83.9059 4.76435 83.8992 4.69771 83.8792 4.63108 83.8592 4.56778 83.8292 4.50781 83.7892 4.44784 83.7493 4.41785 83.7293 4.41785 83.7293 4.41785 83.7293 3.92809 83.3395 2.94857 82.5598 1.96904 81.7802 1.35601 81.2338 1.10946 80.9206 0.862914 80.6008 0.586381 80.1777 0.279864 79.6513-0.0266537 79.1315-0.276532 78.5651-0.469771 77.9521-0.663011 77.339-0.862914 76.6827-1.06948 75.983-1.27605 75.29-1.51926 74.5637-1.79912 73.8041-2.07233 73.0445-2.28889 72.2882-2.44881 71.5352-2.60207 70.7889-2.742 70.0126-2.8686 69.2063-2.99521 68.4001-3.08183 67.5705-3.12848 66.7175-3.18179 65.8646-3.27174 64.995-3.39835 64.1088-3.52495 63.2226-3.61491 62.3697-3.66822 61.5501-3.72152 60.7371-3.80815 59.9242-3.92809 59.1112-4.05469 58.2983-4.13799 57.4521-4.17797 56.5725-4.21795 55.6996-4.29125 54.7933-4.39786 53.8538-4.50448 52.9143-4.55778 51.9747-4.55778 51.0352-4.56445 50.089-4.57111 49.1061-4.57777 48.0866-4.5911 47.0671-4.60443 46.0676-4.61775 45.0881-4.63774 44.1152-4.66773 43.0824-4.70771 41.9896-4.74769 40.9034-4.81766 39.8739-4.91761 38.9011-5.0109 37.9282-5.05754 36.932-5.05754 35.9125-5.05088 34.893-5.04088 33.7769-5.02755 32.5642-5.01423 31.3581-4.99424 30.1687-4.96758 28.9959-4.93427 27.8231-4.88429 26.697-4.81766 25.6175-4.74436 24.5314-4.63108 23.4586-4.47782 22.3991-4.3179 21.3396-4.17464 20.2801-4.04803 19.2206-3.92143 18.1612-3.82147 17.1883-3.74818 16.3021-3.68154 15.4225-3.56826 14.5796-3.40834 13.7733-3.25508 12.9604-3.11515 12.2107-2.98855 11.5244-2.86194 10.8314-2.76865 10.1051-2.70868 9.34545-2.64205 8.58582-2.54543 7.82952-2.41882 7.07656-2.28555 6.31693-2.17894 5.60394-2.09898 4.9376-2.01902 4.26459-1.89574 3.67488-1.72916 3.16846-1.56924 2.6687-1.41598 2.1856-1.26938 1.71916-1.12945 1.25272-1.01284 0.81627-0.919553 0.409801-0.826265 0.00999514-0.766294-0.219893-0.73964-0.279864-0.71965-0.339835-0.689665-0.396474-0.649684-0.449781-0.616367-0.503089-0.573055-0.553064-0.519747-0.599708-0.473103-0.639689-0.419796-0.676338-0.359825-0.709655-0.306518-0.736309-0.246547-0.756299-0.179912-0.769626-0.119942-0.789616-0.0599708-0.799611 0-0.799611 0.0599708-0.799611 0.123273-0.789616 0.189908-0.769626 0.249878-0.756299 0.309849-0.732977 0.36982-0.69966 0.429791-0.673006 0.483098-0.636357 0.529742-0.589713 0.576386-0.549733 0.619699-0.503089 0.659679-0.449781 0.692996-0.396474 0.722982-0.339835 0.749635-0.279864 0.769626-0.219893 0.782952-0.15659 0.789616-0.0899562 0.796279-0.0299854 0.796279 0.0299854 0.789616 0.0899562 0.782952 0.15659 0.779621 0.189908 0.779621 0.189908Z" fill="#E03131" transform="matrix(1.00121 0 0 1 659.748 422.209)"/><path d="M-0.71965-0.359825C-0.71965-0.359825-0.613035-0.559728-0.399806-0.959533-0.193239-1.366-0.00333171-1.79579 0.169917-2.24891 0.34983-2.70202 0.639689-3.2984 1.03949-4.03804 1.43264-4.77768 1.81245-5.49733 2.17894-6.19699 2.54543-6.90331 2.90525-7.60963 3.25841-8.31595 3.61824-9.01561 3.9814-9.67529 4.34789-10.295 4.71437-10.9147 5.0742-11.5077 5.42736-12.0741 5.78718-12.6472 6.20698-13.2169 6.68675-13.7833 7.16651-14.3497 7.59297-14.9361 7.96613-15.5424 8.34594-16.1488 8.66245-16.7285 8.91566-17.2816 9.17554-17.828 9.46873-18.3844 9.79524-18.9508 10.1217-19.5238 10.4549-20.0836 10.7947-20.63 11.1412-21.1764 11.5411-21.7727 11.9942-22.4191 12.4473-23.0654 12.9304-23.6851 13.4435-24.2782 13.9499-24.8712 14.3997-25.4776 14.7928-26.0973 15.1859-26.717 15.5724-27.3167 15.9522-27.8964 16.3321-28.4828 16.7019-29.0525 17.0617-29.6056 17.4282-30.1587 17.9813-31.0216 18.7209-32.1943 19.4672-33.3671 19.8737-33.9568 19.9403-33.9635 20.0136-33.9768 20.0836-33.9768 20.1502-33.9635 20.2168-33.9502 20.2835-33.9268 20.3501-33.8935 20.4101-33.8602 20.4634-33.8169 20.51-33.7636 20.5567-33.7103 20.5966-33.6503 20.63-33.5837 20.6566-33.517 20.6733-33.4504 20.6799-33.3838 20.6866-33.3105 20.6799-33.2405 20.66-33.1739 20.6466-33.1072 20.62-33.0439 20.58-32.984 20.54-32.924 20.4934-32.8707 20.4401-32.824 20.3868-32.7774 20.3268-32.7441 20.2601-32.7241 20.1935-32.6974 20.1235-32.6841 20.0502-32.6841 19.9836-32.6774 19.9136-32.6841 19.8403-32.7041 19.7737-32.7241 19.7137-32.7541 19.6604-32.794 19.6005-32.8407 19.5505-32.8907 19.5105-32.944 19.4639-33.0039 19.4305-33.0672 19.4106-33.1339 19.3906-33.2005 19.3806-33.2705 19.3806-33.3438 19.3872-33.4104 19.4006-33.477 19.4206-33.5437 19.4472-33.6103 19.4805-33.6736 19.5205-33.7336 19.5672-33.7869 19.6205-33.8335 19.6804-33.8735 19.7404-33.9068 19.8037-33.9335 19.8703-33.9535 19.937-33.9735 20.0069-33.9801 20.0802-33.9735 20.1535-33.9668 20.2202-33.9502 20.2801-33.9235 20.3468-33.8968 20.4067-33.8602 20.46-33.8136 20.5134-33.7669 20.5567-33.7103 20.59-33.6436 20.63-33.5837 20.6566-33.5204 20.6699-33.4537 20.6833-33.3804 20.6833-33.3105 20.6699-33.2438 20.6633-33.1705 20.6433-33.1039 20.61-33.0439 20.5833-32.9773 20.5433-32.9207 20.49-32.874 20.4434-32.8207 20.3868-32.7774 20.3201-32.7441 20.2601-32.7174 20.2302-32.7041 20.2302-32.7041 20.2302-32.7041 20.0069-32.1843 19.5605-31.1448 19.114-30.112 18.7076-29.3191 18.3411-28.766 17.9746-28.2196 17.6048-27.6565 17.2316-27.0768 16.8518-26.4971 16.4453-25.8674 16.0122-25.1877 15.5791-24.5081 15.1226-23.8917 14.6429-23.3386 14.1631-22.7856 13.7-22.1959 13.2536-21.5695 12.8138-20.9498 12.4273-20.3734 12.0941-19.8403 11.7609-19.3139 11.4411-18.7842 11.1346-18.2511 10.8214-17.7247 10.5249-17.1617 10.245-16.5619 9.95849-15.9556 9.60866-15.3192 9.19553-14.6529 8.78239-13.9865 8.35927-13.3968 7.92614-12.8837 7.49302-12.364 7.10321-11.8276 6.75671-11.2745 6.40355-10.7148 6.05372-10.1417 5.70722-9.55535 5.36073-8.96231 5.00756-8.31262 4.64774-7.6063 4.28791-6.89331 3.92476-6.18033 3.55827-5.46734 3.19178-4.75435 2.82196-4.05803 2.44881-3.37836 2.08232-2.69869 1.79912-2.10897 1.59922-1.60922 1.40598-1.10946 1.20941-0.656347 1.00951-0.249878 0.81627 0.15659 0.69966 0.386479 0.659679 0.439786 0.626362 0.493093 0.586381 0.539737 0.539737 0.579718 0.493093 0.626362 0.439786 0.666343 0.379815 0.69966 0.326508 0.726313 0.266537 0.749635 0.199903 0.769626 0.139932 0.782952 0.0766294 0.792948 0.00999514 0.799611-0.0499757 0.799611-0.109947 0.792948-0.169917 0.779621-0.236552 0.766294-0.296522 0.742972-0.34983 0.709655-0.409801 0.683001-0.463108 0.646352-0.509752 0.599708-0.563059 0.559728-0.609703 0.513084-0.649684 0.459776-0.683001 0.406469-0.712986 0.34983-0.73964 0.289859-0.759631 0.229888-0.776289 0.169917-0.789616 0.109947-0.796279 0.0433123-0.796279-0.0199903-0.789616-0.0799611-0.782952-0.139932-0.769626-0.199903-0.749635-0.259874-0.729645-0.326508-0.71965-0.359825-0.71965-0.359825Z" fill="#E03131" transform="matrix(1.00121 0 0 1 524.286 453.283)"/><path d="M0.439786-0.669674C0.439786-0.669674 0.589713-0.563059 0.889567-0.34983 1.18942-0.143264 1.53925 0.0399806 1.93906 0.199903 2.3322 0.366488 2.74533 0.60304 3.17845 0.909558 3.61824 1.22274 4.01471 1.48261 4.36788 1.68918 4.72104 1.90241 5.04754 2.33886 5.3474 2.99854 5.64725 3.66488 5.49733 4.09468 4.89762 4.28791 4.29791 4.48782 3.7082 4.36454 3.12848 3.91809 2.54876 3.46498 1.98237 3.03852 1.4293 2.63872 0.882904 2.23891 0.449781 1.89241 0.129937 1.59922-0.176581 1.30603-0.509752 1.00618-0.869577 0.69966-1.2294 0.399806-1.49261 0.21323-1.65919 0.139932-1.82578 0.0599708-1.9224-0.00333171-1.94905-0.0499757-1.97571-0.103283-1.99236-0.159922-1.99903-0.219893-2.01235-0.279864-2.01902-0.343166-2.01902-0.409801-2.01902-0.469771-2.00902-0.529742-1.98903-0.589713-1.97571-0.643021-1.95238-0.696328-1.91907-0.749635-1.89241-0.802943-1.85576-0.852918-1.80912-0.899562-1.76914-0.946206-1.7225-0.986187-1.66919-1.0195-1.62254-1.05282-1.56924-1.07614-1.50927-1.08947-1.4493-1.10946-1.38932-1.12279-1.32935-1.12945-1.26938-1.13611-1.20941-1.13611-1.14944-1.12945-1.08947-1.11612-1.03283-1.09947-0.979524-1.07947-0.919553-1.05282-0.866245-1.02284-0.819601-0.989519-0.766294-0.949538-0.722982-0.906226-0.689665-0.859582-0.649684-0.812938-0.529742-0.989519-0.32984-1.38932-0.129937-1.78913 0.179912-2.11231 0.599708-2.35885 1.02617-2.6054 1.5026-2.84528 2.02901-3.0785 2.55542-3.30506 3.02186-3.51163 3.42833-3.6982 3.84146-3.88478 4.23461-4.06802 4.60776-4.24793 4.98757-4.42118 5.43736-4.57111 5.9571-4.69771 6.48351-4.81766 6.88998-4.62109 7.17651-4.108 7.4697-3.60158 7.57965-3.0885 7.50635-2.56875 7.42639-2.05567 7.24314-1.21274 6.95662-0.0399806 6.67009 1.12612 6.51683 1.74249 6.49684 1.80912 6.47685 1.87575 6.44686 1.93906 6.40688 1.99903 6.3669 2.059 6.32026 2.10897 6.26695 2.14895 6.20698 2.1956 6.14368 2.22892 6.07704 2.24891 6.01041 2.2689 5.94044 2.27889 5.86715 2.27889 5.80051 2.27889 5.73388 2.2689 5.66724 2.24891 5.60061 2.22225 5.53731 2.18894 5.47734 2.14895 5.42403 2.10231 5.37738 2.05234 5.3374 1.99903 5.29742 1.93906 5.26744 1.87242 5.24745 1.79912 5.22746 1.73249 5.22079 1.66586 5.22746 1.59922 5.23412 1.52592 5.25078 1.45596 5.27743 1.38932 5.30409 1.32269 5.3374 1.26272 5.37738 1.20941 5.42403 1.1561 5.48067 1.11279 5.5473 1.07947 5.60727 1.03949 5.67057 1.01284 5.73721 0.999514 5.80384 0.986187 5.87381 0.982855 5.94711 0.989519 6.0204 0.996182 6.08704 1.01617 6.14701 1.04949 6.21364 1.07614 6.27028 1.11612 6.31693 1.16943 6.37023 1.21608 6.41355 1.26938 6.44686 1.32935 6.48018 1.39599 6.5035 1.46262 6.51683 1.52926 6.52349 1.60255 6.52349 1.67252 6.51683 1.73915 6.5035 1.81245 6.48018 1.87909 6.44686 1.93906 6.41355 1.99903 6.37023 2.05567 6.31693 2.10897 6.26362 2.15562 6.20698 2.19227 6.14701 2.21892 6.08038 2.25224 6.01041 2.27223 5.93711 2.27889 5.87048 2.28555 5.80051 2.28222 5.72721 2.2689 5.66058 2.24891 5.59728 2.22225 5.53731 2.18894 5.47734 2.14895 5.42403 2.10231 5.37738 2.049 5.33074 1.9957 5.29409 1.93572 5.26744 1.86909 5.24078 1.80246 5.22746 1.73582 5.22746 1.66919 5.22079 1.59589 5.21746 1.55924 5.21746 1.55924 5.21746 1.55924 5.32074 0.779621 5.52731-0.779621 5.73388-2.35219 5.64725-3.04185 5.26744-2.84861 4.88762-2.66204 4.48782-2.4688 4.06802-2.2689 3.64823-2.06899 3.20511-1.86909 2.73867-1.66919 2.26556-1.46929 1.7858-1.2294 1.29937-0.949538 0.819601-0.663011 0.36982-0.399806-0.0499757-0.159922-0.483098 0.0666343-0.899562 0.153259-1.29937 0.0999514-1.70584 0.046644-1.9224-0.00333171-1.94905-0.0499757-1.97571-0.103283-1.99236-0.159922-1.99903-0.219893-2.01235-0.279864-2.01902-0.343166-2.01902-0.409801-2.01902-0.469771-2.00902-0.529742-1.98903-0.589713-1.97571-0.643021-1.95238-0.696328-1.91907-0.749635-1.89241-0.802943-1.85576-0.852918-1.80912-0.899562-1.76914-0.946206-1.7225-0.986187-1.66919-1.0195-1.62254-1.05282-1.56924-1.07614-1.50927-1.08947-1.4493-1.10946-1.38932-1.12279-1.32935-1.12945-1.26938-1.13611-1.20941-1.13611-1.14944-1.12945-1.08947-1.11612-1.03283-1.09947-0.979524-1.07947-0.919553-1.05282-0.866245-1.02284-0.819601-0.989519-0.766294-0.949538-0.722982-0.906226-0.689665-0.859582-0.649684-0.812938-0.566391-0.762962-0.439786-0.709655-0.319844-0.656347-0.113278-0.50642 0.179912-0.259874 0.479767-0.0199903 0.886236 0.323176 1.39932 0.769626 1.9124 1.22274 2.34886 1.56257 2.70868 1.78913 3.06851 2.01569 3.38169 2.3322 3.64823 2.73867 3.91476 3.14514 3.85812 3.23176 3.47831 2.99854 3.09849 2.77198 2.73867 2.52877 2.39883 2.2689 2.059 2.01569 1.65253 1.78247 1.17943 1.56924 0.712986 1.36267 0.323176 1.15944 0.00999514 0.959533-0.289859 0.766294-0.46644 0.646352-0.519747 0.599708-0.566391 0.559728-0.609703 0.513084-0.649684 0.459776-0.683001 0.406469-0.712986 0.34983-0.73964 0.289859-0.766294 0.229888-0.782952 0.166586-0.789616 0.0999514-0.796279 0.0399806-0.796279-0.0199903-0.789616-0.0799611-0.782952-0.146595-0.769626-0.209898-0.749635-0.269869-0.729645-0.32984-0.69966-0.386479-0.659679-0.439786-0.626362-0.493093-0.586381-0.543069-0.539737-0.589713-0.48643-0.629694-0.433123-0.666343-0.379815-0.69966-0.319844-0.726313-0.259874-0.749635-0.199903-0.769626-0.139932-0.782952-0.0766294-0.792948-0.00999514-0.799611 0.0499757-0.799611 0.109947-0.792948 0.169917-0.779621 0.236552-0.759631 0.299854-0.736309 0.359825-0.709655 0.413132-0.683001 0.439786-0.669674 0.439786-0.669674Z" fill="#E03131" transform="matrix(1.00121 0 0 1 543 417.814)"/><path d="M-0.71965-0.359825C-0.71965-0.359825-0.50642-0.759631-0.0799611-1.55924 0.346498-2.35885 0.796279-3.23509 1.26938-4.18796 1.74915-5.14083 2.1856-6.07038 2.57875-6.97661 2.97855-7.88283 3.41834-8.79239 3.8981-9.70528 4.38453-10.6182 4.88429-11.4778 5.39737-12.284 5.91712-13.0903 6.38023-13.8566 6.7867-14.5829 7.19317-15.3092 7.63962-16.0855 8.12605-16.9118 8.60581-17.738 9.10557-18.5376 9.62532-19.3106 10.1384-20.0836 10.6548-20.8798 11.1746-21.6994 11.6876-22.519 12.2074-23.3586 12.7338-24.2182 13.2536-25.0778 13.72-25.9307 14.1331-26.777 14.5529-27.6299 15.006-28.5028 15.4925-29.3957 15.9856-30.2819 16.5453-31.1782 17.1716-32.0844 17.798-32.984 18.3944-33.8702 18.9608-34.7431 19.5205-35.616 20.1235-36.5456 20.7699-37.5317 21.4229-38.5179 21.9826-39.4175 22.4491-40.2304 22.9222-41.0367 23.3586-41.8163 23.7584-42.5693 24.1582-43.3156 24.5847-44.1952 25.0378-45.208 25.4909-46.2142 25.7308-46.7506 25.7575-46.8172 25.7841-46.8839 25.8174-46.9438 25.8574-46.9971 25.9041-47.0571 25.9574-47.1038 26.0173-47.1371 26.0773-47.1771 26.1439-47.2037 26.2172-47.217 26.2839-47.237 26.3505-47.2437 26.4172-47.237 26.4904-47.2304 26.5604-47.2104 26.627-47.1771 26.687-47.1504 26.7437-47.1137 26.797-47.0671 26.8503-47.0205 26.8936-46.9638 26.9269-46.8972 26.9602-46.8372 26.9835-46.7706 26.9969-46.6973 27.0102-46.6307 27.0102-46.5607 26.9969-46.4874 26.9902-46.4208 26.9702-46.3575 26.9369-46.2975 26.9036-46.2308 26.8603-46.1742 26.807-46.1276 26.7603-46.0743 26.7037-46.0343 26.637-46.0076 26.5771-45.9743 26.5104-45.9543 26.4371-45.9477 26.3705-45.941 26.3005-45.9443 26.2272-45.9576 26.1606-45.971 26.0973-45.9943 26.0373-46.0276 25.9707-46.0676 25.9141-46.1142 25.8674-46.1675 25.8208-46.2208 25.7841-46.2775 25.7575-46.3375 25.7308-46.4041 25.7175-46.4741 25.7175-46.5474 25.7108-46.614 25.7175-46.684 25.7375-46.7573 25.7508-46.8239 25.7775-46.8872 25.8174-46.9472 25.8574-47.0071 25.9041-47.0571 25.9574-47.0971 26.0173-47.1437 26.0806-47.1771 26.1473-47.197 26.2139-47.2237 26.2806-47.237 26.3472-47.237 26.4205-47.237 26.4904-47.227 26.5571-47.207 26.6237-47.187 26.687-47.1537 26.747-47.1071 26.8003-47.0671 26.8469-47.0171 26.8869-46.9572 26.9336-46.8972 26.9636-46.8339 26.9769-46.7673 26.9969-46.7006 27.0069-46.6306 27.0069-46.5574 27.0069-46.4907 27.0069-46.4574 27.0069-46.4574 27.0069-46.4574 26.7903-45.8744 26.3572-44.7083 25.9307-43.5422 25.5143-42.576 25.1078-41.8097 24.6947-41.05 24.2449-40.2504 23.7584-39.4108 23.2787-38.5779 22.7156-37.6717 22.0693-36.6922 21.4296-35.706 20.8232-34.7664 20.2502-33.8735 19.6838-32.9873 19.1007-32.1144 18.501-31.2548 17.908-30.3952 17.3715-29.5323 16.8918-28.6661 16.412-27.7998 15.9522-26.9202 15.5125-26.0273 15.0727-25.1344 14.5896-24.2549 14.0632-23.3886 13.5301-22.529 13.0037-21.6828 12.4839-20.8499 11.9575-20.0103 11.4411-19.2206 10.9347-18.481 10.4349-17.7414 9.94516-16.9617 9.4654-16.1421 8.97897-15.3292 8.52252-14.5463 8.09606-13.7933 7.6696-13.0403 7.20649-12.2807 6.70674-11.5144 6.20698-10.7481 5.72388-9.92517 5.25744-9.0456 4.78434-8.16603 4.33789-7.26647 3.91809-6.34691 3.50496-5.42736 3.06184-4.49115 2.58874-3.53828 2.10897-2.57875 1.67585-1.68918 1.28937-0.869577 0.909558-0.0499757 0.69966 0.386479 0.659679 0.439786 0.626362 0.493093 0.586381 0.539737 0.539737 0.579718 0.493093 0.626362 0.439786 0.666343 0.379815 0.69966 0.326508 0.726313 0.266537 0.749635 0.199903 0.769626 0.139932 0.782952 0.0766294 0.792948 0.00999514 0.799611-0.0499757 0.799611-0.109947 0.792948-0.169917 0.779621-0.236552 0.766294-0.296522 0.742972-0.34983 0.709655-0.409801 0.683001-0.463108 0.646352-0.509752 0.599708-0.563059 0.559728-0.609703 0.513084-0.649684 0.459776-0.683001 0.406469-0.712986 0.34983-0.73964 0.289859-0.759631 0.229888-0.776289 0.169917-0.789616 0.109947-0.796279 0.0433123-0.796279-0.0199903-0.789616-0.0799611-0.782952-0.139932-0.769626-0.199903-0.749635-0.259874-0.729645-0.326508-0.71965-0.359825-0.71965-0.359825Z" fill="#E03131" transform="matrix(1.00121 0 0 1 624.76 516.988)"/><path d="M0.359825-0.71965C0.359825-0.71965 0.663011-0.566391 1.26938-0.259874 1.88242 0.0333171 2.43881 0.356493 2.93857 0.709655 3.43166 1.06948 3.87145 1.366 4.25793 1.59922 4.64441 1.83244 5.0009 2.12563 5.32741 2.47879 5.65392 2.82529 5.87048 3.2884 5.97709 3.86812 6.08371 4.4545 5.83383 4.72437 5.22746 4.67772 4.61442 4.63108 4.04137 4.43784 3.50829 4.09801 2.96856 3.76484 2.41549 3.35503 1.8491 2.8686 1.28271 2.38217 0.749635 1.94905 0.249878 1.56924-0.243215 1.18942-0.643021 0.726313-0.949538 0.179912-1.25606-0.366488-1.23273-0.776289-0.879572-1.04949-0.533074-1.32935 0.0499757-1.75248 0.869577-2.31887 1.70251-2.88526 2.36552-3.37503 2.85861-3.78816 3.35837-4.20129 3.86812-4.64774 4.38787-5.12751 4.90095-5.60727 5.4107-6.14368 5.91712-6.73672 6.42354-7.33643 6.95662-7.8795 7.51634-8.36593 8.06941-8.85902 8.55917-9.2555 8.98563-9.55535 9.41209-9.85521 9.65197-10.0218 9.70528-10.0551 9.76525-10.0951 9.82522-10.1251 9.88519-10.1451 9.94516-10.1717 10.0085-10.1884 10.0751-10.195 10.1351-10.2017 10.1984-10.2017 10.265-10.195 10.3316-10.1884 10.3949-10.1717 10.4549-10.1451 10.5149-10.1251 10.5715-10.0951 10.6248-10.0551 10.6781-10.0151 10.7281-9.97182 10.7748-9.92517 10.8147-9.87853 10.8514-9.82522 10.8847-9.76525 10.9114-9.70528 10.9347-9.64531 10.9547-9.58534 10.968-9.5187 10.9747-9.45207 10.9747-9.38544 10.9747-9.3188 10.9647-9.2555 10.9447-9.19553 10.9313-9.12889 10.908-9.06892 10.8747-9.01561 10.8481-8.95564 10.8114-8.90234 10.7648-8.85569 10.7248-8.80905 10.6981-8.55251 10.6848-8.08607 10.6715-7.61296 10.5882-7.10987 10.4349-6.5768 10.2817-6.03706 10.1184-5.49066 9.94516-4.9376 9.77191-4.3912 9.51204-3.57826 9.16554-2.49878 8.82571-1.42597 8.64579-0.85625 8.6258-0.789616 8.60581-0.716318 8.5725-0.653016 8.52585-0.599708 8.48587-0.539737 8.4359-0.489762 8.37593-0.449781 8.31595-0.409801 8.25265-0.379815 8.18602-0.359825 8.11938-0.339835 8.04942-0.333171 7.97612-0.339835 7.90949-0.339835 7.84285-0.353162 7.77622-0.379815 7.70958-0.406469 7.64961-0.443118 7.5963-0.489762 7.543-0.536406 7.49635-0.589713 7.45637-0.649684 7.41639-0.709655 7.38974-0.772957 7.37641-0.839592 7.36309-0.906226 7.35975-0.976192 7.36642-1.04949 7.37308-1.11612 7.38974-1.18276 7.41639-1.24939 7.44305-1.31603 7.48303-1.376 7.53633-1.4293 7.58298-1.47595 7.63629-1.51926 7.69626-1.55924 7.76289-1.59256 7.82952-1.61255 7.89616-1.61921 7.96279-1.63254 8.03276-1.63587 8.10606-1.62921 8.17269-1.61588 8.23932-1.59256 8.30596-1.55924 8.36593-1.52592 8.42257-1.48594 8.47588-1.4393 8.52252-1.38599 8.5625-1.32602 8.59582-1.25939 8.62247-1.19942 8.64246-1.13278 8.65579-1.05948 8.66245-0.99285 8.65912-0.922884 8.64579-0.849587 8.6258-0.782952 8.59915-0.71965 8.56583-0.659679 8.53252-0.599708 8.4892-0.546401 8.4359-0.499757 8.38259-0.453113 8.32262-0.416464 8.25598-0.38981 8.18935-0.363157 8.11938-0.346498 8.04609-0.339835 7.97945-0.333171 7.90949-0.339835 7.83619-0.359825 7.76955-0.379815 7.70625-0.409801 7.64628-0.449781 7.59297-0.483098 7.543-0.529742 7.49635-0.589713 7.44971-0.643021 7.41639-0.702991 7.3964-0.769626 7.36975-0.83626 7.35642-0.906226 7.35642-0.979524 7.35642-1.05282 7.35642-1.08947 7.35642-1.08947 7.35642-1.08947 7.4697-1.68251 7.69626-2.8686 7.91615-4.05469 8.11605-4.91761 8.29597-5.45735 8.46921-5.99708 8.73908-6.68008 9.10557-7.50635 9.47872-8.33261 9.65864-8.95564 9.64531-9.37544 9.63198-9.79524 9.65197-10.0218 9.70528-10.0551 9.76525-10.0951 9.82522-10.1251 9.88519-10.1451 9.94516-10.1717 10.0085-10.1884 10.0751-10.195 10.1351-10.2017 10.1984-10.2017 10.265-10.195 10.3316-10.1884 10.3949-10.1717 10.4549-10.1451 10.5149-10.1251 10.5715-10.0951 10.6248-10.0551 10.6781-10.0151 10.7281-9.97182 10.7748-9.92517 10.8147-9.87853 10.8514-9.82522 10.8847-9.76525 10.9114-9.70528 10.9347-9.64531 10.9547-9.58534 10.968-9.5187 10.9747-9.45207 10.9747-9.38544 10.9747-9.32546 10.9647-9.26216 10.9447-9.19553 10.9313-9.12889 10.908-9.06892 10.8747-9.01561 10.8481-8.95564 10.8114-8.90234 10.7648-8.85569 10.7248-8.80905 10.4882-8.6358 10.0551-8.33595 9.62865-8.03609 9.16221-7.6696 8.65579-7.23648 8.15603-6.79669 7.62962-6.26029 7.07656-5.62726 6.52349-4.99424 5.97376-4.42785 5.42736-3.92809 4.88762-3.42833 4.33456-2.94857 3.76817-2.48879 3.20178-2.02901 2.67203-1.65586 2.17894-1.36933 1.67918-1.08281 1.14611-0.859582 0.579718-0.69966 0.0266537-0.539737-0.0266537-0.313181 0.419796-0.0199903 0.872909 0.266537 1.35268 0.653016 1.8591 1.13945 2.36552 1.61921 2.87194 2.01902 3.37836 2.33886 3.88478 2.65204 4.31457 3.0252 4.66773 3.45832 5.02089 3.89144 4.99424 3.97807 4.58777 3.71819 4.1813 3.45165 3.76817 3.19511 3.34837 2.94857 2.93524 2.69536 2.51877 2.41216 2.09898 2.09898 1.67252 1.7858 1.1561 1.47928 0.549733 1.17943-0.0566391 0.872909-0.386479 0.69966-0.439786 0.659679-0.493093 0.626362-0.539737 0.586381-0.579718 0.539737-0.626362 0.493093-0.666343 0.439786-0.69966 0.379815-0.726313 0.326508-0.749635 0.266537-0.769626 0.199903-0.782952 0.139932-0.792948 0.0766294-0.799611 0.00999514-0.799611-0.0499757-0.792948-0.109947-0.779621-0.169917-0.766294-0.236552-0.742972-0.296522-0.709655-0.34983-0.683001-0.409801-0.646352-0.463108-0.599708-0.509752-0.559728-0.563059-0.513084-0.609703-0.459776-0.649684-0.406469-0.683001-0.34983-0.712986-0.289859-0.73964-0.229888-0.759631-0.169917-0.776289-0.109947-0.789616-0.0433123-0.796279 0.0199903-0.796279 0.0799611-0.789616 0.139932-0.782952 0.199903-0.769626 0.259874-0.749635 0.326508-0.729645 0.359825-0.71965 0.359825-0.71965Z" fill="#E03131" transform="matrix(1.00121 0 0 1 644.905 473.57)"/><path d="M0.669674 0.439786C0.669674 0.439786 0.559728 0.586381 0.339835 0.879572 0.113278 1.17276-0.176581 1.57923-0.529742 2.09898-0.889567 2.62539-1.14944 3.12848-1.30936 3.60824-1.46262 4.09468-1.68251 4.66773-1.96904 5.32741-2.25557 5.98042-2.55876 6.6501-2.8786 7.33643-3.19844 8.0161-3.58492 8.71909-4.03804 9.44541-4.48449 10.1651-4.89429 10.9147-5.26744 11.6943-5.64059 12.4739-6.06372 13.2935-6.53682 14.1531-7.00992 15.0194-7.44638 15.8323-7.84618 16.5919-8.23932 17.3582-8.62247 18.1045-8.99562 18.8308-9.36878 19.5638-9.73526 20.2868-10.0951 20.9998-10.4616 21.7128-10.8814 22.4358-11.3545 23.1687-11.8342 23.9017-12.274 24.5714-12.6738 25.1778-13.0736 25.7841-13.4601 26.3705-13.8333 26.9369-14.1998 27.5033-14.7761 28.2096-15.5624 29.0559-16.3421 29.9088-16.7618 30.3586-16.8218 30.4052-16.8751 30.4519-16.9351 30.4852-17.0017 30.5052-17.0684 30.5318-17.135 30.5485-17.2016 30.5551-17.2749 30.5551-17.3449 30.5451-17.4115 30.5252-17.4782 30.5052-17.5415 30.4752-17.6014 30.4352-17.6614 30.3952-17.7114 30.3452-17.7514 30.2853-17.7913 30.2253-17.8213 30.162-17.8413 30.0954-17.868 30.0287-17.878 29.9621-17.8713 29.8955-17.8713 29.8222-17.8613 29.7522-17.8413 29.6856-17.8147 29.6189-17.778 29.559-17.7314 29.5056-17.6914 29.4457-17.6414 29.3957-17.5814 29.3557-17.5215 29.3224-17.4582 29.2957-17.3915 29.2758-17.3249 29.2558-17.2549 29.2491-17.1816 29.2558-17.1083 29.2624-17.0417 29.2791-16.9817 29.3057-16.9151 29.3324-16.8551 29.369-16.8018 29.4157-16.7485 29.4623-16.7052 29.5156-16.6719 29.5756-16.6319 29.6422-16.6053 29.7089-16.5919 29.7755-16.5786 29.8421-16.5753 29.9121-16.5819 29.9854-16.5953 30.0587-16.6153 30.1253-16.6419 30.1853-16.6752 30.252-16.7152 30.3086-16.7618 30.3552-16.8152 30.4085-16.8718 30.4519-16.9318 30.4852-16.9984 30.5118-17.065 30.5318-17.1317 30.5451-17.205 30.5518-17.2749 30.5518-17.3416 30.5451-17.4149 30.5318-17.4815 30.5052-17.5415 30.4652-17.6014 30.4319-17.6547 30.3886-17.7014 30.3352-17.7547 30.2886-17.7947 30.232-17.8213 30.1653-17.848 30.0987-17.8646 30.0321-17.8713 29.9654-17.878 29.8921-17.8746 29.8222-17.8613 29.7555-17.8413 29.6822-17.8147 29.6156-17.7814 29.5556-17.7414 29.4957-17.7214 29.4657-17.7214 29.4657-17.7214 29.4657-17.3882 29.0392-16.7219 28.1863-16.0555 27.3267-15.5358 26.6171-15.1626 26.0573-14.7895 25.4976-14.4063 24.9145-14.0132 24.3082-13.62 23.7018-13.2036 23.0555-12.7638 22.3691-12.3173 21.6828-11.9142 20.9798-11.5544 20.2601-11.1946 19.5405-10.8281 18.8142-10.4549 18.0812-10.0751 17.3416-9.68196 16.5886-9.27549 15.8223-8.86236 15.0493-8.42257 14.2464-7.95613 13.4135-7.48969 12.5805-7.05324 11.751-6.64677 10.9247-6.23363 10.0984-5.81384 9.35545-5.38738 8.69577-4.95426 8.02943-4.57777 7.36309-4.25793 6.69674-3.93142 6.0304-3.63157 5.39404-3.35837 4.78767-3.08517 4.17464-2.84861 3.57826-2.64871 2.99854-2.44881 2.41882-2.16228 1.85576-1.78913 1.30936-1.40931 0.769626-1.12612 0.339835-0.939543 0.0199903-0.759631-0.286527-0.646352-0.46644-0.599708-0.519747-0.559728-0.566391-0.513084-0.609703-0.459776-0.649684-0.406469-0.683001-0.34983-0.712986-0.289859-0.73964-0.229888-0.766294-0.166586-0.782952-0.0999514-0.789616-0.0399806-0.796279 0.0199903-0.796279 0.0799611-0.789616 0.146595-0.782952 0.209898-0.769626 0.269869-0.749635 0.32984-0.729645 0.386479-0.69966 0.439786-0.659679 0.493093-0.626362 0.543069-0.586381 0.589713-0.539737 0.629694-0.48643 0.666343-0.433123 0.69966-0.379815 0.726313-0.319844 0.749635-0.259874 0.769626-0.199903 0.782952-0.139932 0.792948-0.0766294 0.799611-0.00999514 0.799611 0.0499757 0.792948 0.109947 0.779621 0.169917 0.759631 0.236552 0.736309 0.299854 0.709655 0.359825 0.683001 0.413132 0.669674 0.439786 0.669674 0.439786Z" fill="#E03131" transform="matrix(1.00121 0 0 1 657.098 496.338)"/><path d="M0.149927-0.789616C0.149927-0.789616 0.406469-0.736309 0.919553-0.629694 1.42597-0.529742 1.94905-0.406469 2.48879-0.259874 3.02853-0.113278 3.52162 0.0399806 3.96807 0.199903 4.42118 0.366488 4.84764 0.543069 5.24745 0.729645 5.64725 0.916221 5.96043 1.42264 6.18699 2.24891 6.41355 3.08183 6.3136 3.55494 5.88714 3.66822 5.46068 3.78816 5.05421 3.80148 4.66773 3.7082 4.28125 3.60824 3.85479 3.46498 3.38835 3.27841 2.92191 3.09849 2.48879 2.83529 2.08898 2.48879 1.68251 2.14229 1.23273 1.79912 0.73964 1.45929 0.246547 1.11946-0.149927 0.71965-0.449781 0.259874-0.749635-0.193239-0.689665-0.636357-0.269869-1.06948 0.143264-1.5026 0.536406-1.87909 0.909558-2.19893 1.27605-2.52544 1.61921-2.83862 1.93906-3.13847 2.2589-3.44499 2.63872-3.81481 3.0785-4.24793 3.51829-4.68106 3.9814-5.14416 4.46783-5.63726 4.96092-6.13035 5.40404-6.62011 5.79718-7.10654 6.19032-7.59964 6.60012-8.0261 7.02658-8.38592 7.4597-8.74575 7.9428-8.89567 8.47588-8.8357 9.00895-8.77573 9.30881-8.37259 9.37544-7.62629 9.44207-6.88665 9.46206-6.29694 9.43541-5.85715 9.41542-5.42403 9.34879-4.88762 9.23551-4.24793 9.11557-3.60824 8.97563-2.99854 8.81571-2.41882 8.64913-1.83911 8.40924-1.05282 8.09606-0.0599708 7.78288 0.926216 7.60963 1.45263 7.57631 1.51926 7.543 1.57923 7.49969 1.63254 7.44638 1.67918 7.39973 1.73249 7.34309 1.77247 7.27646 1.79912 7.20983 1.83244 7.14319 1.85243 7.07656 1.8591 7.00326 1.86576 6.93329 1.86243 6.86666 1.8491 6.79336 1.83577 6.72673 1.80912 6.66676 1.76914 6.60679 1.73582 6.55348 1.69251 6.50683 1.6392 6.46019 1.5859 6.42354 1.52592 6.39689 1.45929 6.37023 1.39266 6.35691 1.32602 6.35691 1.25939 6.35024 1.18609 6.35691 1.11612 6.3769 1.04949 6.39689 0.976192 6.42354 0.912889 6.45686 0.859582 6.49684 0.799611 6.54682 0.746304 6.60679 0.69966 6.66009 0.659679 6.72006 0.626362 6.7867 0.599708 6.85333 0.579718 6.9233 0.569723 6.9966 0.569723 7.06323 0.569723 7.1332 0.579718 7.20649 0.599708 7.27313 0.619699 7.3331 0.653016 7.38641 0.69966 7.44638 0.73964 7.49635 0.789616 7.53633 0.849587 7.57631 0.909558 7.6063 0.97286 7.62629 1.03949 7.64628 1.10613 7.65294 1.17609 7.64628 1.24939 7.64628 1.31603 7.63295 1.38266 7.6063 1.4493 7.57965 1.51593 7.543 1.5759 7.49635 1.62921 7.44971 1.68251 7.3964 1.72916 7.33643 1.76914 7.27646 1.80246 7.21316 1.82911 7.14652 1.8491 7.07323 1.86243 7.00326 1.86576 6.93663 1.8591 6.86333 1.85243 6.79336 1.83577 6.72673 1.80912 6.66676 1.7758 6.61012 1.73582 6.55681 1.68918 6.5035 1.64253 6.46019 1.5859 6.42687 1.51926 6.39356 1.45929 6.37023 1.39599 6.35691 1.32935 6.35024 1.25606 6.35024 1.18609 6.35691 1.11946 6.37023 1.04616 6.3769 1.00951 6.3769 1.00951 6.3769 1.00951 6.46685 0.509752 6.64677-0.489762 6.82002-1.48928 6.97661-2.26223 7.11654-2.80863 7.25647-3.34837 7.38308-3.90144 7.49635-4.46783 7.60297-5.04088 7.6796-5.57729 7.72624-6.07704 7.76622-6.5768 7.92948-6.96328 8.216-7.23648 8.49587-7.50968 8.47254-7.50635 8.14604-7.22648 7.81953-6.95328 7.44305-6.54682 7.01659-6.00708 6.58346-5.474 6.12036-4.96425 5.62726-4.47782 5.13417-3.98473 4.6644-3.51829 4.21795-3.0785 3.7715-2.63872 3.38169-2.2589 3.04852-1.93906 2.72201-1.61921 2.27223-1.30936 1.69917-1.00951 1.12612-0.709655 0.95287-0.416464 1.17943-0.129937 1.41265 0.143264 1.68918 0.379815 2.00902 0.579718 2.3222 0.779621 2.69869 1.06615 3.13847 1.4393 3.57826 1.80579 4.02471 2.06899 4.47782 2.22892 4.92427 2.38217 4.96425 2.38217 4.59776 2.22892 4.23794 2.06899 3.85812 1.9124 3.45832 1.75914 3.05851 1.59922 2.60873 1.4493 2.10897 1.30936 1.60922 1.16277 1.10613 1.03949 0.599708 0.939543 0.0999514 0.839592-0.183244 0.779621-0.249878 0.759631-0.309849 0.73964-0.366488 0.709655-0.419796 0.669674-0.473103 0.636357-0.523079 0.596377-0.569723 0.549733-0.616367 0.503089-0.656347 0.453113-0.689665 0.399806-0.722982 0.339835-0.746304 0.279864-0.759631 0.219893-0.779621 0.159922-0.792948 0.0966197-0.799611 0.0299854-0.799611-0.0299854-0.792948-0.0899562-0.779621-0.149927-0.766294-0.216561-0.746304-0.279864-0.71965-0.339835-0.692996-0.393142-0.659679-0.446449-0.619699-0.499757-0.579718-0.546401-0.533074-0.589713-0.479767-0.629694-0.426459-0.669674-0.36982-0.702991-0.309849-0.729645-0.249878-0.756299-0.189908-0.776289-0.129937-0.789616-0.0633025-0.796279 5.54842e-17-0.796279 0.0599708-0.789616 0.119942-0.789616 0.149927-0.789616 0.149927-0.789616Z" fill="#E03131" transform="matrix(1.00121 0 0 1 648.616 504.81)"/><path d="M-0.71965-0.359825C-0.71965-0.359825-0.559728-0.649684-0.239883-1.2294 0.0732977-1.81578 0.416464-2.41882 0.789616-3.03852 1.16277-3.66488 1.54925-4.29125 1.94905-4.91761 2.34219-5.53731 2.77198-6.19032 3.23842-6.87666 3.71153-7.56299 4.16131-8.25265 4.58777-8.94565 5.01423-9.63865 5.43736-10.3183 5.85715-10.9847 6.28361-11.6443 6.73339-12.324 7.20649-13.0237 7.68626-13.73 8.14604-14.4097 8.58582-15.0627 9.02561-15.709 9.42542-16.3187 9.78524-16.8918 10.1451-17.4582 10.4916-18.0112 10.8247-18.551 11.1579-19.084 11.4544-19.5805 11.7143-20.0403 11.9675-20.5 12.1707-20.9298 12.324-21.3296 12.4839-21.7361 12.8338-22.4358 13.3735-23.4286 13.9132-24.4148 14.2064-24.9379 14.2531-24.9978 14.2997-25.0511 14.353-25.0978 14.413-25.1378 14.473-25.1711 14.5363-25.1977 14.6029-25.2177 14.6695-25.2311 14.7395-25.2344 14.8128-25.2277 14.8794-25.2277 14.9461-25.2111 15.0127-25.1778 15.0793-25.1511 15.1393-25.1145 15.1926-25.0678 15.2459-25.0212 15.2892-24.9679 15.3225-24.9079 15.3559-24.8412 15.3792-24.7746 15.3925-24.708 15.4058-24.6347 15.4092-24.5647 15.4025-24.4981 15.3892-24.4248 15.3659-24.3582 15.3325-24.2982 15.3059-24.2315 15.2659-24.1749 15.2126-24.1283 15.166-24.075 15.1093-24.035 15.0427-24.0083 14.9827-23.975 14.9161-23.955 14.8428-23.9483 14.7695-23.935 14.6995-23.935 14.6329-23.9483 14.5662-23.9617 14.4996-23.9883 14.433-24.0283 14.373-24.0616 14.3197-24.1049 14.2731-24.1582 14.2264-24.2116 14.1898-24.2682 14.1631-24.3282 14.1365-24.3948 14.1198-24.4648 14.1131-24.5381 14.1065-24.6047 14.1131-24.6747 14.1331-24.748 14.1465-24.8146 14.1731-24.8779 14.2131-24.9379 14.2531-24.9978 14.2997-25.0478 14.353-25.0878 14.4063-25.1344 14.4663-25.1711 14.5329-25.1977 14.5996-25.2177 14.6695-25.2311 14.7428-25.2377 14.8095-25.2377 14.8794-25.2277 14.9527-25.2077 15.0194-25.1877 15.0793-25.1544 15.1326-25.1078 15.1926-25.0678 15.2426-25.0212 15.2826-24.9679 15.3225-24.9079 15.3525-24.8446 15.3725-24.7779 15.3925-24.7113 15.4025-24.6413 15.4025-24.568 15.4025-24.4948 15.3892-24.4248 15.3625-24.3582 15.3359-24.2915 15.3225-24.2582 15.3225-24.2582 15.3225-24.2582 15.096-23.7818 14.6429-22.8289 14.1898-21.876 13.8733-21.163 13.6933-20.6899 13.5068-20.2235 13.2802-19.7504 13.0137-19.2706 12.7471-18.7975 12.4473-18.2878 12.1141-17.7414 11.7809-17.195 11.4311-16.6319 11.0646-16.0522 10.6915-15.4725 10.285-14.8561 9.84521-14.2031 9.40543-13.5501 8.94565-12.8804 8.46588-12.1941 7.98612-11.5077 7.53633-10.8381 7.11654-10.185 6.69674-9.53869 6.26362-8.85902 5.81717-8.14604 5.37738-7.43305 4.9276-6.74005 4.46783-6.06705 4.00805-5.39404 3.58159-4.75435 3.18845-4.14798 2.80197-3.53495 2.42882-2.93191 2.06899-2.33886 1.71583-1.74582 1.40265-1.14611 1.12945-0.539737 0.85625 0.0599708 0.69966 0.386479 0.659679 0.439786 0.626362 0.493093 0.586381 0.539737 0.539737 0.579718 0.493093 0.626362 0.439786 0.666343 0.379815 0.69966 0.326508 0.726313 0.266537 0.749635 0.199903 0.769626 0.139932 0.782952 0.0766294 0.792948 0.00999514 0.799611-0.0499757 0.799611-0.109947 0.792948-0.169917 0.779621-0.236552 0.766294-0.296522 0.742972-0.34983 0.709655-0.409801 0.683001-0.463108 0.646352-0.509752 0.599708-0.563059 0.559728-0.609703 0.513084-0.649684 0.459776-0.683001 0.406469-0.712986 0.34983-0.73964 0.289859-0.759631 0.229888-0.776289 0.169917-0.789616 0.109947-0.796279 0.0433123-0.796279-0.0199903-0.789616-0.0799611-0.782952-0.139932-0.769626-0.199903-0.749635-0.259874-0.729645-0.326508-0.71965-0.359825-0.71965-0.359825Z" fill="#E03131" transform="matrix(1.00121 0 0 1 509.248 446.777)"/><path d="M0.439786-0.669674C0.439786-0.669674 0.616367-0.546401 0.969528-0.299854 1.31603-0.0599708 1.65586 0.169917 1.98903 0.38981 2.3222 0.609703 2.64871 0.826265 2.96856 1.03949 3.2884 1.25272 3.62157 1.49927 3.96807 1.77913 4.32123 2.059 4.52113 2.22225 4.56778 2.2689 4.61442 2.31554 4.65107 2.36552 4.67772 2.41882 4.71104 2.47213 4.7377 2.52877 4.75769 2.58874 4.77768 2.64871 4.791 2.70868 4.79767 2.76865 4.80433 2.83529 4.801 2.89859 4.78767 2.95856 4.77434 3.01853 4.75769 3.0785 4.7377 3.13847 4.71104 3.19178 4.67772 3.24509 4.63774 3.2984 4.59776 3.34504 4.55445 3.38835 4.50781 3.42833 4.4545 3.46831 4.40119 3.50163 4.34789 3.52828 4.28791 3.55494 4.22794 3.57493 4.16797 3.58825 4.108 3.60158 4.0447 3.60491 3.97807 3.59825 3.91809 3.59825 3.85812 3.58825 3.79815 3.56826 3.73818 3.54827 3.68154 3.52162 3.62824 3.4883 3.57493 3.46165 3.425 3.31172 3.17845 3.03852 2.92524 2.77198 2.63205 2.50878 2.29888 2.24891 1.95905 1.98237 1.5659 1.66252 1.11946 1.28937 0.666343 0.909558 0.249878 0.586381-0.129937 0.319844-0.516415 0.0599708-0.759631-0.296522-0.859582-0.749635-0.95287-1.20275-0.759631-1.54258-0.279864-1.76914 0.193239-1.9957 0.609703-2.15895 0.969528-2.2589 1.32269-2.35885 1.78913-2.56875 2.36885-2.8886 2.94857-3.20178 3.46498-3.50829 3.91809-3.80815 4.37121-4.10134 4.84764-4.36121 5.3474-4.58777 5.85382-4.82099 6.29694-4.93093 6.67675-4.91761 7.05657-4.91094 7.27646-4.59776 7.33643-3.97807 7.3964-3.35837 7.34643-2.88526 7.1865-2.55876 7.02658-2.22558 6.86666-1.86243 6.70674-1.46929 6.54682-1.06948 6.33692-0.619699 6.07704-0.119942 5.82383 0.366488 5.48067 1.07614 5.04754 2.00902 4.61442 2.94857 4.38453 3.44832 4.35788 3.50829 4.32456 3.57493 4.28125 3.63157 4.22794 3.67821 4.1813 3.73152 4.12799 3.77483 4.06802 3.80815 4.00139 3.84146 3.93475 3.86145 3.86812 3.86812 3.79482 3.88145 3.72485 3.88145 3.65822 3.86812 3.58492 3.85479 3.51829 3.83147 3.45832 3.79815 3.39835 3.76484 3.34171 3.72152 3.2884 3.66822 3.24176 3.61491 3.20511 3.55494 3.17845 3.4883 3.1518 3.42833 3.13514 3.3617 3.12848 3.2884 3.12181 3.2151 3.12515 3.14514 3.13847 3.0785 3.1518 3.01187 3.17845 2.94857 3.21843 2.8886 3.25841 2.82862 3.30506 2.77532 3.35837 2.72867 3.41167 2.68203 3.47164 2.64538 3.53828 2.61873 3.60491 2.59874 3.67488 2.58541 3.74818 2.57875 3.81481 2.57875 3.88145 2.58874 3.94808 2.60873 4.02138 2.62872 4.08468 2.65871 4.13799 2.69869 4.19796 2.73867 4.24793 2.78864 4.28791 2.84861 4.33456 2.90192 4.36788 2.96189 4.38787 3.02853 4.40786 3.09516 4.41785 3.16513 4.41785 3.23842 4.41785 3.31172 4.40452 3.38169 4.37787 3.44832 4.35788 3.51496 4.32456 3.57493 4.27792 3.62824 4.23794 3.68154 4.18796 3.72819 4.12799 3.76817 4.06802 3.80815 4.00472 3.83813 3.93808 3.85812 3.86479 3.87145 3.79482 3.87811 3.72819 3.87811 3.65489 3.87145 3.58492 3.85479 3.51829 3.82814 3.45165 3.80148 3.39168 3.76484 3.33838 3.71819 3.28507 3.67155 3.24176 3.61824 3.20844 3.55827 3.17512 3.49163 3.1518 3.425 3.13847 3.35837 3.12515 3.29173 3.12181 3.22177 3.12848 3.14847 3.13514 3.07517 3.13847 3.03852 3.13847 3.03852 3.13847 3.04519 3.30173 2.49878 3.62824 1.39932 3.94808 0.313181 4.23461-0.453113 4.48782-0.899562 4.74103-1.34601 4.96758-1.78247 5.16749-2.20893 5.36073-2.63538 5.64725-2.95523 6.02707-3.16846 6.40688-3.38169 6.42354-3.40834 6.07704-3.24842 5.73055-3.09516 5.30409-2.84861 4.79767-2.50878 4.29125-2.16895 3.87145-1.90241 3.53828-1.70917 3.21177-1.50927 2.70202-1.27605 2.00902-1.00951 1.31603-0.736309 0.752967-0.519747 0.319844-0.359825-0.106615-0.199903-0.236552-0.309849-0.069966-0.689665 0.0899562-1.06282 0.363157-1.11612 0.749635-0.849587 1.14278-0.58305 1.47928-0.343166 1.75914-0.129937 2.04567 0.0766294 2.36552 0.343166 2.71868 0.669674 3.07184 0.989519 3.45832 1.32602 3.87811 1.67918 4.29125 2.02568 4.52113 2.22225 4.56778 2.2689 4.61442 2.31554 4.65107 2.36552 4.67772 2.41882 4.71104 2.47213 4.7377 2.52877 4.75769 2.58874 4.77768 2.64871 4.791 2.70868 4.79767 2.76865 4.80433 2.82862 4.801 2.89193 4.78767 2.95856 4.77434 3.01853 4.75769 3.0785 4.7377 3.13847 4.71104 3.19178 4.67772 3.24509 4.63774 3.2984 4.59776 3.34504 4.55445 3.38835 4.50781 3.42833 4.4545 3.46831 4.40119 3.50163 4.34789 3.52828 4.28791 3.55494 4.22794 3.57493 4.16797 3.58825 4.108 3.60158 4.0447 3.60491 3.97807 3.59825 3.91809 3.59825 3.85812 3.58825 3.79815 3.56826 3.73818 3.54827 3.68154 3.52162 3.62824 3.4883 3.57493 3.46165 3.38502 3.31505 3.05851 3.04852 2.73867 2.78864 2.41882 2.55209 2.09898 2.33886 1.77913 2.12563 1.45596 1.90907 1.12945 1.68918 0.802943 1.46262 0.456445 1.23607 0.0899562 1.00951-0.263205 0.782952-0.46644 0.646352-0.519747 0.599708-0.566391 0.559728-0.609703 0.513084-0.649684 0.459776-0.683001 0.406469-0.712986 0.34983-0.73964 0.289859-0.766294 0.229888-0.782952 0.166586-0.789616 0.0999514-0.796279 0.0399806-0.796279-0.0199903-0.789616-0.0799611-0.782952-0.146595-0.769626-0.209898-0.749635-0.269869-0.729645-0.32984-0.69966-0.386479-0.659679-0.439786-0.626362-0.493093-0.586381-0.543069-0.539737-0.589713-0.48643-0.629694-0.433123-0.666343-0.379815-0.69966-0.319844-0.726313-0.259874-0.749635-0.199903-0.769626-0.139932-0.782952-0.0766294-0.792948-0.00999514-0.799611 0.0499757-0.799611 0.109947-0.792948 0.169917-0.779621 0.236552-0.759631 0.299854-0.736309 0.359825-0.709655 0.413132-0.683001 0.439786-0.669674 0.439786-0.669674Z" fill="#E03131" transform="matrix(1.00121 0 0 1 518.564 425.996)"/><text fill="#1E1E1E" font-family="Excalifont,Excalifont_MSFontService,sans-serif" font-weight="400" font-size="28" transform="matrix(1.00072 0 0 0.999514 788.247 439)">Part </text><text fill="#1E1E1E" font-family="Excalifont,Excalifont_MSFontService,sans-serif" font-weight="400" font-size="28" transform="matrix(1.00072 0 0 0.999514 861.912 439)">4</text><path d="M10.0551 0C40.7802-0.0999514 70.7756-2.34886 103.18 0M10.0551 0C41.06-0.509752 69.6661-0.749635 103.18 0M103.18 0C110.016-0.509752 113.485 2.47879 113.225 10.0551M103.18 0C109.937 0.539737 111.156 1.54925 113.225 10.0551M113.225 10.0551C114.204 13.3235 113.525 17.4915 113.225 30.1553M113.225 10.0551C112.455 15.6424 113.675 20.4401 113.225 30.1553M113.225 30.1553C113.215 37.9216 111.426 40.7302 103.18 40.2004M113.225 30.1553C113.075 37.8716 109.687 42.2794 103.18 40.2004M103.18 40.2004C73.8541 40.3004 42.3494 39.5907 10.0551 40.2004M103.18 40.2004C81.4004 39.9206 60.4106 39.8106 10.0551 40.2004M10.0551 40.2004C3.10849 41.06-1.92906 36.3523 0 30.1553M10.0551 40.2004C3.88811 38.2714-1.82911 36.0824 0 30.1553M0 30.1553C1.46929 24.708 0.399806 21.2197 0 10.0551M0 30.1553C-0.339835 26.5871 0.73964 21.6095 0 10.0551M0 10.0551C0.869577 3.42833 3.84813-0.539737 10.0551 0M0 10.0551C2.16895 3.63823 2.73867 0.489762 10.0551 0" stroke="#1E1E1E" stroke-width="1.99903" stroke-linecap="round" fill="none" transform="matrix(1.00121 0 0 1 776.386 412.664)"/></g></svg>