<svg xmlns="http://www.w3.org/2000/svg" width="498.44" height="246.421" viewBox="-72 -72 373.83 184.816"><g stroke-width=".4" stroke="currentColor" fill="currentColor" stroke-miterlimit="10"><path d="M27.86 41.941V-71.87h227.622V41.941ZM255.482-71.87" fill="#e6e6e6"></path><path d="M164.433-14.965c0-12.57-10.19-22.762-22.762-22.762-12.572 0-22.763 10.191-22.763 22.762 0 12.572 10.191 22.763 22.763 22.763 12.571 0 22.762-10.191 22.762-22.763Zm-22.762 0" fill="var(--background-primary)"></path><path d="M141.67 41.941V-71.87M27.86-14.965h227.622" fill="none" stroke-width=".8" stroke-dasharray="3.0,3.0"></path><g stroke="red" fill="red" stroke-width=".8"><path d="M255.482 27.715h27.742" fill="none"></path><path d="M281.664 25.635c.13.78 1.56 1.95 1.95 2.08-.39.13-1.82 1.3-1.95 2.08" fill="none" stroke-linejoin="round" stroke-linecap="round" stroke-width=".64"></path></g><g stroke="red" fill="red" stroke-width=".8"><path d="M255.482-.738h27.742" fill="none"></path><path d="M281.664-2.818c.13.78 1.56 1.95 1.95 2.08-.39.13-1.82 1.3-1.95 2.08" fill="none" stroke-linejoin="round" stroke-linecap="round" stroke-width=".64"></path></g><g stroke="red" fill="red" stroke-width=".8"><path d="M255.482-29.19h27.742" fill="none"></path><path d="M281.664-31.27c.13.78 1.56 1.95 1.95 2.08-.39.13-1.82 1.3-1.95 2.08" fill="none" stroke-linejoin="round" stroke-linecap="round" stroke-width=".64"></path></g><g stroke="red" fill="red" stroke-width=".8"><path d="M255.482-57.644h27.742" fill="none"></path><path d="M281.664-59.724c.13.78 1.56 1.95 1.95 2.08-.39.13-1.82 1.3-1.95 2.08" fill="none" stroke-linejoin="round" stroke-linecap="round" stroke-width=".64"></path></g><g stroke="red" fill="red"><g fill="red" stroke="none"><text y="41.941" x="27.86" font-family="cmmi10" font-size="10" transform="translate(259.608 -55.503)">u</text><text y="43.441" x="33.584" font-family="cmmi7" font-size="7" transform="translate(259.608 -55.503)">x</text></g></g><g stroke="red" fill="red" stroke-width=".8"><path d="M27.86 27.715H.117" fill="none"></path><path d="M1.677 29.795c-.13-.78-1.56-1.95-1.95-2.08.39-.13 1.82-1.3 1.95-2.08" fill="none" stroke-linejoin="round" stroke-linecap="round" stroke-width=".64"></path></g><g stroke="red" fill="red" stroke-width=".8"><path d="M27.86-.738H.117" fill="none"></path><path d="M1.677 1.342c-.13-.78-1.56-1.95-1.95-2.08.39-.13 1.82-1.3 1.95-2.08" fill="none" stroke-linejoin="round" stroke-linecap="round" stroke-width=".64"></path></g><g stroke="red" fill="red" stroke-width=".8"><path d="M27.86-29.19H.117" fill="none"></path><path d="M1.677-27.11c-.13-.78-1.56-1.95-1.95-2.08.39-.13 1.82-1.3 1.95-2.08" fill="none" stroke-linejoin="round" stroke-linecap="round" stroke-width=".64"></path></g><g stroke="red" fill="red" stroke-width=".8"><path d="M27.86-57.644H.117" fill="none"></path><path d="M1.677-55.564c-.13-.78-1.56-1.95-1.95-2.08.39-.13 1.82-1.3 1.95-2.08" fill="none" stroke-linejoin="round" stroke-linecap="round" stroke-width=".64"></path></g><g stroke="red" fill="red"><g fill="red" stroke="none"><text y="41.941" x="27.86" font-family="cmmi10" font-size="10" transform="translate(-42.745 -55.503)">u</text><text y="43.441" x="33.584" font-family="cmmi7" font-size="7" transform="translate(-42.745 -55.503)">x</text></g></g><path d="M28.32 59.013h226.702" fill="none"></path><path d="M29.52 60.613c-.1-.6-1.2-1.5-1.5-1.6.3-.1 1.4-1 1.5-1.6M253.822 57.413c.1.6 1.2 1.5 1.5 1.6-.3.1-1.4 1-1.5 1.6" fill="none" stroke-linejoin="round" stroke-linecap="round" stroke-width=".32"></path><text y="41.941" x="27.86" font-family="cmmi10" font-size="10" transform="translate(110.408 27.438)" stroke="none">L</text><path d="M-23.355 41.481V-71.41" fill="none"></path><path d="M-21.755 40.281c-.6.1-1.5 1.2-1.6 1.5-.1-.3-1-1.4-1.6-1.5M-24.955-70.21c.6-.1 1.5-1.2 1.6-1.5.1.3 1 1.4 1.6 1.5" fill="none" stroke-linejoin="round" stroke-linecap="round" stroke-width=".32"></path><text y="41.941" x="27.86" font-family="cmmi10" font-size="10" transform="translate(-63.873 -53.489)" stroke="none">H</text><path d="m122.356-3.813 38.63-22.303" fill="none"></path><path d="M124.195-3.028c-.386-.47-1.789-.699-2.098-.635.21-.237.712-1.566.499-2.136M159.146-26.901c.387.47 1.79.699 2.099.635-.21.237-.713 1.566-.5 2.136" fill="none" stroke-linejoin="round" stroke-linecap="round" stroke-width=".3199936"></path><text y="41.941" x="27.86" font-family="cmmi10" font-size="10" transform="translate(115.532 -46.54)" stroke="none">D</text><g stroke-width=".8"><path d="M-57.499 98.846h33.434" fill="none"></path><path d="M-25.625 96.766c.13.78 1.56 1.95 1.95 2.08-.39.13-1.82 1.3-1.95 2.08" fill="none" stroke-linejoin="round" stroke-linecap="round" stroke-width=".64"></path><text y="41.941" x="27.86" font-family="cmmi10" font-size="10" transform="translate(-47.482 59.058)" stroke="none">x</text></g><g stroke-width=".8"><path d="M-57.499 98.846V65.413" fill="none"></path><path d="M-59.578 66.973c.78-.13 1.95-1.56 2.08-1.95.13.39 1.3 1.82 2.08 1.95" fill="none" stroke-linejoin="round" stroke-linecap="round" stroke-width=".64"></path><text y="41.941" x="27.86" font-family="cmmi10" font-size="10" transform="translate(-87.989 17.085)" stroke="none">y</text></g><path d="M-55.499 98.846a2 2 0 1 0-4 0 2 2 0 0 0 4 0Zm-2 0" stroke="none"></path><text y="41.941" x="27.86" font-family="cmmi10" font-size="10" transform="translate(-96.797 67.272)" stroke="none">O</text></g></svg>
