<svg width="474" height="248" xmlns="http://www.w3.org/2000/svg" xmlns:xlink="http://www.w3.org/1999/xlink" xml:space="preserve" overflow="hidden"><defs><clipPath id="clip0"><rect x="431" y="28" width="474" height="248"/></clipPath></defs><g clip-path="url(#clip0)" transform="translate(-431 -28)"><path d="M-1.81906 0.119938 392.767 0.429778 393.127 112.712 0.679648 115.74" fill="#E9ECEF" transform="matrix(1.0008 -0.00130593 0.00130698 0.999999 472.846 95.6705)"/><path d="M0 0C137.329 0.639669 275.977 2.42874 392.027 0M0 0C133.161 0.639669 266.712 0.189902 392.027 0M392.027 0C392.067 32.1034 390.528 60.0189 392.027 114.101M392.027 0C391.657 29.7346 392.517 58.4497 392.027 114.101M392.027 114.101C308.8 112.422 227.013 113.721 0 114.101M392.027 114.101C281.045 113.681 169.432 114.461 0 114.101M0 114.101C-2.35878 79.1191-0.319834 39.7694 0 0M0 114.101C-0.409788 84.6762 0.619679 53.5323 0 0" stroke="#1E1E1E" stroke-width="0.999483" stroke-linecap="round" fill="none" transform="matrix(1.0008 -0.00130593 0.00130698 0.999999 472.846 95.6705)"/><path d="M40.3691 0.969498C47.3555 1.48923 56.9905 5.37722 61.9279 9.48509 66.8754 13.593 69.8938 20.4094 70.0238 25.5968 70.1537 30.7741 67.3551 36.4511 62.6975 40.589 58.04 44.7368 49.5544 49.3744 42.0982 50.4539 34.6321 51.5333 24.5673 49.8442 17.9507 47.0756 11.3441 44.3071 5.04739 38.8999 2.40875 33.8525-0.229881 28.8051-0.499741 21.8887 2.13889 16.7713 4.76753 11.654 11.2342 5.94692 18.2406 3.15837 25.2469 0.359814 39.6195 0.259865 44.1571 0.00999483 48.6948-0.239876 45.7563 1.22936 45.4765 1.64915M31.1839 1.60917C38.5001 0.529726 49.0946 1.61916 55.2214 4.16784 61.3582 6.70653 65.8159 11.7939 67.9548 16.8713 70.1037 21.9486 70.9733 29.2748 68.0848 34.6221 65.1963 39.9593 57.4503 46.2461 50.6238 48.9147 43.7873 51.5733 34.4622 51.9831 27.106 50.5838 19.7498 49.1845 10.7644 45.1166 6.50663 40.519 2.23884 35.9314 1.13941 28.3353 1.51921 23.0581 1.89902 17.7708 3.88799 12.4735 8.76546 8.81544 13.6529 5.15733 27.1759 2.60865 30.8041 1.10943 34.4422-0.389798 30.2743-0.659659 30.5542-0.169912" fill="#FFFFFF" transform="matrix(1.0008 -0.00130593 0.00130698 0.999999 635.958 123.816)"/><path d="M46.9557 1.3493C53.8221 2.95847 62.1978 8.3057 65.9159 12.9833 69.634 17.6609 70.7734 24.0476 69.2442 29.4148 67.715 34.782 62.3877 41.5385 56.7406 45.1566 51.1035 48.7848 42.8478 51.4034 35.4117 51.1735 27.9855 50.9436 18.0407 47.3555 12.1437 43.7673 6.24677 40.1792 1.25935 34.8919 0.059969 29.6247-1.13941 24.3574 0.959503 16.7813 4.93744 12.1737 8.90539 7.55609 16.3315 3.73807 23.8776 1.95899 31.4337 0.169912 45.5264 1.21937 50.244 1.44925 54.9616 1.67913 52.5828 2.93848 52.183 3.34827M41.0188 0.469757C48.235 0.86955 58.2499 3.43822 63.2673 7.68602 68.2747 11.9438 71.2931 20.2495 71.1032 25.9766 70.9133 31.7036 67.1952 38.2702 62.1179 42.0482 57.0505 45.8363 47.9252 47.8153 40.659 48.6648 33.3927 49.5244 25.137 49.7243 18.5204 47.1556 11.9038 44.5969 3.70808 38.3901 0.969498 33.2728-1.76908 28.1554-0.5797 21.349 2.07892 16.4815 4.73755 11.614 10.2447 6.92641 16.9112 4.03791 23.5778 1.1594 38.2702-0.30984 42.0682-0.819576 45.8763-1.32931 39.8894 0.319834 39.7394 0.989488" stroke="#1E1E1E" stroke-width="0.999483" stroke-linecap="round" fill="none" transform="matrix(1.0008 -0.00130593 0.00130698 0.999999 635.958 123.816)"/><path d="M0 0C170.352 2.21885 340.774 2.37877 477.533 0M0 0C110.283-1.96898 220.206-1.64915 477.533 0M477.533 0C478.512 89.1239 478.672 181.416 477.533 254.228M477.533 0C477.113 83.4268 477.273 167.433 477.533 254.228M477.533 254.228C347.82 252.579 218.567 252.06 0 254.228M477.533 254.228C344.991 256.067 212.65 255.638 0 254.228M0 254.228C0.909529 189.902 2.81854 125.925 0 0M0 254.228C1.24935 164.745-0.00999483 76.4804 0 0" stroke="#E03131" stroke-width="0.499741" stroke-linecap="round" fill="none" transform="matrix(1.0008 0 0 1 427.767 25.1758)"/><text fill="#1E1E1E" font-family="Excalifont,Excalifont_MSFontService,sans-serif" font-weight="400" font-size="28" transform="matrix(1.00028 0 0 0.999483 632.289 67)">Part </text><text fill="#1E1E1E" font-family="Excalifont,Excalifont_MSFontService,sans-serif" font-weight="400" font-size="28" transform="matrix(1.00028 0 0 0.999483 705.922 67)">1</text><path d="M10.0548 0C39.8894-1.18938 70.6434 0.779596 103.177 0M10.0548 0C42.1582 1.10943 75.0911-0.279855 103.177 0M103.177 0C110.853 1.12942 113.681 3.76805 113.221 10.0548M103.177 0C111.212 0.369809 114.281 5.55712 113.221 10.0548M113.221 10.0548C115 19.1301 114.211 25.6167 113.221 30.1544M113.221 10.0548C112.932 17.8807 113.651 24.6273 113.221 30.1544M113.221 30.1544C115.22 37.3407 108.204 39.6195 103.177 40.1992M113.221 30.1544C111.532 38.0603 110.743 39.1198 103.177 40.1992M103.177 40.1992C74.3315 38.8899 47.1156 38.5301 10.0548 40.1992M103.177 40.1992C69.4641 40.629 35.5816 40.8289 10.0548 40.1992M10.0548 40.1992C4.16784 42.0482-0.659659 37.4206 0 30.1544M10.0548 40.1992C5.61709 38.7999-0.449767 37.2907 0 30.1544M0 30.1544C1.31932 21.4189 0 15.0422 0 10.0548M0 30.1544C-0.639669 26.6662 0.0799586 20.8692 0 10.0548M0 10.0548C-1.29933 2.85852 2.46872 1.25935 10.0548 0M0 10.0548C1.86903 3.17835 1.30932-1.11942 10.0548 0" stroke="#1E1E1E" stroke-width="1.99897" stroke-linecap="round" fill="none" transform="matrix(1.0008 0 0 1 615.994 39.2365)"/><text fill="#E03131" font-family="Excalifont,Excalifont_MSFontService,sans-serif" font-weight="400" font-size="28" transform="matrix(1.00028 0 0 0.999483 517.222 251)">Setting a quick model</text></g></svg>