<svg width="469" height="248" xmlns="http://www.w3.org/2000/svg" xmlns:xlink="http://www.w3.org/1999/xlink" xml:space="preserve" overflow="hidden"><defs><clipPath id="clip0"><rect x="7" y="348" width="469" height="248"/></clipPath></defs><g clip-path="url(#clip0)" transform="translate(-7 -348)"><path d="M-1.78757-1.89742 602.919 0.299592 601.83 176.989-1.25829 175.191" fill="#E9ECEF" transform="matrix(0.241723 -0.971188 0.97029 0.241946 -47.7764 775.151)"/><path d="M0 0C127.566-1.22833 257.11-0.129823 602.07 0M0 0C180.025-0.579211 359.51-0.599184 602.07 0M602.07 0C604.117 60.8571 600.632 127.157 602.07 175.241M602.07 0C600.562 42.2624 600.652 84.405 602.07 175.241M602.07 175.241C478.069 175.9 353.339 176.809 0 175.241M602.07 175.241C421.286 175.371 239.953 175.84 0 175.241M0 175.241C0.928735 134.497-0.699048 92.514 0 0M0 175.241C0.289606 118.638 1.93736 62.6347 0 0" stroke="#1E1E1E" stroke-width="0.99864" stroke-linecap="round" fill="none" transform="matrix(0.241723 -0.971188 0.97029 0.241946 -47.7764 775.151)"/><path d="M67.7377 1.69769C76.8154 3.04585 87.2112 7.60963 93.7123 12.8525 100.223 18.0854 104.997 26.2043 106.755 33.1249 108.522 40.0554 107.993 48.0146 104.308 54.4059 100.633 60.7972 92.7337 67.558 84.6847 71.4726 76.6356 75.3873 65.8603 77.9039 56.0237 77.9039 46.1871 77.9039 34.2434 75.0378 25.6551 71.4726 17.0767 67.8975 8.87791 62.5748 4.52384 56.4731 0.159782 50.3814-1.85747 41.9029-0.49932 34.8925 0.868817 27.892 6.25149 19.9129 12.7127 14.4303 19.1639 8.94781 27.8021 3.80482 38.2379 2.01725 48.6737 0.239674 67.8376 2.92601 75.3174 3.72493 82.8072 4.53382 83.3165 6.35135 83.1567 6.84068M53.3673-0.99864C62.4449-1.51793 75.0578 1.2483 83.3864 4.95325 91.7051 8.65821 99.1849 14.5801 103.299 21.2211 107.424 27.872 109.321 37.8784 108.113 44.8489 106.904 51.8094 102.64 57.9511 96.0592 63.0042 89.4681 68.0573 78.3233 72.9906 68.5966 75.1676 58.8698 77.3447 46.8262 77.794 37.6987 76.0764 28.5711 74.3687 20.2025 70.2144 13.8112 64.9116 7.42988 59.6088 1.05856 51.1004-0.649116 44.2597-2.3468 37.429-0.838857 30.3187 3.5951 23.9074 8.03905 17.5062 17.7458 9.99638 25.9946 5.83206 34.2533 1.66773 48.2842-0.449388 53.1077-1.06854 57.9311-1.6877 54.7754 1.19837 54.9352 2.09714" fill="#FFFFFF" transform="matrix(0.241723 -0.971188 0.97029 0.241946 54.9722 542.653)"/><path d="M77.794 4.57377C86.5022 7.00046 95.3901 12.6128 100.443 18.5847 105.506 24.5566 108.502 33.4844 108.173 40.405 107.833 47.3255 103.859 54.6056 98.4659 60.1281 93.0732 65.6406 84.8844 70.5739 75.7968 73.5099 66.7091 76.4559 53.7468 78.9125 43.9302 77.784 34.1235 76.6456 24.0173 71.5825 16.917 66.7091 9.81663 61.8358 3.67499 55.2048 1.34816 48.5539-0.988653 41.9029-0.219701 33.5643 2.92601 26.7835 6.06174 20.0127 12.6927 12.2134 20.1925 7.88925 27.6923 3.56514 37.1893 1.21834 47.9247 0.848844 58.6601 0.479347 77.6642 4.04449 84.5948 5.68226 91.5253 7.32003 90.1472 9.91649 89.5281 10.6854M56.8725 1.32819C65.7704 1.30822 76.3061 3.77486 84.3851 7.84931 92.4641 11.9238 101.542 19.3437 105.347 25.7549 109.141 32.1662 109.291 39.5861 107.204 46.3069 105.107 53.0378 99.8041 61.1168 92.7936 66.1 85.7832 71.0932 74.8381 74.7282 65.1313 76.2661 55.4145 77.804 43.291 77.4845 34.503 75.3374 25.705 73.2003 18.3151 69.1458 12.3731 63.3937 6.43124 57.6315-0.199728 47.8748-1.12846 40.8144-2.06718 33.754 2.08716 26.7635 6.78076 21.0214 11.4744 15.2892 18.8743 9.88653 27.0332 6.39129 35.2021 2.88607 51.0605 1.13845 55.794 0.0199728 60.5276-1.10849 55.4145-1.17839 55.4345-0.35951" stroke="#1E1E1E" stroke-width="0.99864" stroke-linecap="round" fill="none" transform="matrix(0.241723 -0.971188 0.97029 0.241946 54.9722 542.653)"/><text fill="#E03131" font-family="Excalifont,Excalifont_MSFontService,sans-serif" font-weight="400" font-size="28" transform="matrix(0.998586 0 0 0.99951 248.04 537)">Getting a good </text><text fill="#E03131" font-family="Excalifont,Excalifont_MSFontService,sans-serif" font-weight="400" font-size="28" transform="matrix(0.998586 0 0 0.99951 325.966 572)">mesh</text><path d="M0 0C186.805 0.81884 373.541 0.16976 477.104 0M0 0C168.741 0.0998586 337.482-0.659067 477.104 0M477.104 0C475.117 94.3764 476.385 189.222 477.104 254M477.104 0C475.666 90.4519 474.438 180.155 477.104 254M477.104 254C324.351 255.608 171.138 255.039 0 254M477.104 254C293.984 255.029 110.214 254.679 0 254M0 254C-0.798869 171.857-0.519265 93.8671 0 0M0 254C2.1869 164.317 1.74753 75.0937 0 0" stroke="#E03131" stroke-width="0.499293" stroke-linecap="round" fill="none" transform="matrix(1 0 0 1.00093 2.59334 346.601)"/><text fill="#1E1E1E" font-family="Excalifont,Excalifont_MSFontService,sans-serif" font-weight="400" font-size="28" transform="matrix(0.998586 0 0 0.99951 338.485 389)">Part </text><text fill="#1E1E1E" font-family="Excalifont,Excalifont_MSFontService,sans-serif" font-weight="400" font-size="28" transform="matrix(0.998586 0 0 0.99951 411.993 389)">3</text><path d="M10.0458 0C31.4255 2.29675 53.9935-0.928685 103.084 0M10.0458 0C28.9989 0.738954 47.5527-0.16976 103.084 0M103.084 0C108.127-1.58775 112.421 4.70334 113.12 10.0458M103.084 0C111.862 0.309562 114.318 3.98436 113.12 10.0458M113.12 10.0458C113.419 14.819 112.89 20.451 113.12 30.1273M113.12 10.0458C113.779 18.8233 113.519 25.7336 113.12 30.1273M113.12 30.1273C112.111 34.9505 111.073 38.4456 103.084 40.1631M113.12 30.1273C114.548 37.8764 110.394 42.2602 103.084 40.1631M103.084 40.1631C72.9068 39.2344 45.1061 39.6139 10.0458 40.1631M103.084 40.1631C75.1236 38.6053 47.8822 38.5354 10.0458 40.1631M10.0458 40.1631C4.18407 38.4456 1.30815 37.7565 0 30.1273M10.0458 40.1631C5.48224 38.5254-0.978614 35.5796 0 30.1273M0 30.1273C0.748939 24.0759-0.319547 19.762 0 10.0458M0 30.1273C-0.509279 21.9689 0.708996 16.1072 0 10.0458M0 10.0458C0.649081 3.91446 2.06707 1.85737 10.0458 0M0 10.0458C2.0471 1.54781 5.46226-0.439378 10.0458 0" stroke="#1E1E1E" stroke-width="1.99717" stroke-linecap="round" fill="none" transform="matrix(1 0 0 1.00093 326.527 360.317)"/><path d="M-0.718982-1.43796C-0.718982-1.43796-0.439378-1.56445 0.11983-1.81743 0.679038-2.0704 1.54448-2.30673 2.71615-2.52642 3.88783-2.73945 4.97629-2.86927 5.98153-2.91587 6.98677-2.95581 7.87218-2.98244 8.63777-2.99576 9.40335-3.00241 10.2455-3.00574 11.1642-3.00574 12.0762-3.00574 12.975-3.1056 13.8604-3.30532 14.7524-3.49838 15.7444-3.71141 16.8362-3.94441 17.9346-4.17742 19.0963-4.38046 20.3212-4.55355 21.5395-4.72664 22.7078-4.92303 23.8263-5.14272 24.9447-5.36241 26.0631-5.53549 27.1815-5.66198 28.2933-5.78181 29.2419-5.99817 30.0275-6.31106 30.8197-6.62395 31.7916-6.9202 32.9433-7.1998 34.095-7.47941 35.2168-7.77566 36.3086-8.08855 37.3937-8.40144 38.4256-8.68437 39.4042-8.93734 40.3895-9.18366 41.2782-9.42332 42.0704-9.65633 42.8626-9.89599 43.6216-10.1323 44.3472-10.3653 45.0728-10.605 45.8784-10.8446 46.7638-11.0843 47.6425-11.3306 48.5779-11.6768 49.5698-12.1228 50.5617-12.5755 51.6369-13.0449 52.7952-13.5308 53.9469-14.0168 54.586-14.2931 54.7125-14.3597 54.8323-14.4262 54.9622-14.4728 55.102-14.4995 55.2418-14.5194 55.3816-14.5194 55.5214-14.4995 55.6612-14.4795 55.7943-14.4362 55.9208-14.3696 56.0473-14.3031 56.1605-14.2199 56.2603-14.12 56.3535-14.0135 56.4301-13.897 56.49-13.7705 56.5499-13.644 56.5899-13.5109 56.6098-13.3711 56.6231-13.2313 56.6165-13.0915 56.5899-12.9517 56.5566-12.8119 56.5033-12.682 56.4301-12.5622 56.3569-12.4424 56.267-12.3359 56.1605-12.2427 56.054-12.1495 55.9341-12.0762 55.801-12.023 55.6745-11.9697 55.538-11.9398 55.3916-11.9331 55.2518-11.9264 55.1153-11.9398 54.9821-11.973 54.8423-12.013 54.7158-12.0729 54.6027-12.1528 54.4828-12.226 54.3797-12.3192 54.2931-12.4324 54.2066-12.5456 54.14-12.6687 54.0934-12.8019 54.0468-12.935 54.0235-13.0748 54.0235-13.2213 54.0235-13.3611 54.0468-13.4976 54.0934-13.6307 54.14-13.7638 54.2032-13.887 54.2831-14.0002 54.3697-14.1133 54.4729-14.2099 54.5927-14.2898 54.7059-14.3696 54.8323-14.4296 54.9721-14.4695 55.1053-14.5095 55.2418-14.5261 55.3816-14.5194 55.528-14.5128 55.6645-14.4828 55.791-14.4296 55.9241-14.3763 56.044-14.3031 56.1505-14.2099 56.2637-14.1233 56.3569-14.0168 56.4301-13.8903 56.5033-13.7705 56.5532-13.644 56.5799-13.5109 56.6132-13.3711 56.6231-13.2313 56.6098-13.0915 56.5965-12.9517 56.5599-12.8152 56.5-12.682 56.4401-12.5556 56.3602-12.4391 56.2603-12.3325 56.1671-12.2327 56.1205-12.1827 56.1205-12.1827 56.1205-12.1827 55.3183-11.74 53.7139-10.8546 52.1162-9.96922 50.8713-9.31348 49.9792-8.88741 49.0872-8.46135 48.2284-8.13182 47.4029-7.89881 46.5707-7.66581 45.7852-7.42948 45.0462-7.18982 44.3006-6.95016 43.5051-6.70717 42.6596-6.46085 41.8141-6.21453 40.9121-5.96489 39.9534-5.71191 38.9948-5.46559 38.0228-5.1993 37.0375-4.91304 36.0523-4.62012 35.0437-4.35716 34.0118-4.12416 32.98-3.8845 31.8982-3.57161 30.7664-3.18549 29.6347-2.79271 28.6295-2.55971 27.7507-2.48648 26.8719-2.41325 25.8101-2.2568 24.5652-2.01714 23.3203-1.78414 22.0554-1.57444 20.7706-1.38803 19.4857-1.20829 18.3007-1.00191 17.2156-0.768911 16.1371-0.542565 15.092-0.329533 14.0801-0.129816 13.0748 0.0565865 12.1095 0.149788 11.1842 0.149788 10.2655 0.149788 9.42998 0.149788 8.67771 0.149788 7.92544 0.156445 7.08996 0.166431 6.17126 0.179745 5.2459 0.199717 4.37381 0.26629 3.55497 0.379463 2.72947 0.492636 2.05043 0.69901 1.51785 0.998586 0.985271 1.2915 0.655738 1.45794 0.52925 1.49788 0.40942 1.54448 0.286261 1.57444 0.159774 1.58775 0.0332862 1.60107-0.0932013 1.59774-0.219689 1.57777-0.346176 1.55779-0.469335 1.52451-0.589166 1.47791-0.708996 1.43131-0.822169 1.37139-0.928685 1.29816-1.0352 1.21827-1.13173 1.1284-1.21827 1.02854-1.29816 0.935342-1.36806 0.828826-1.42798 0.708996-1.48789 0.595823-1.53116 0.475993-1.55779 0.349505-1.58442 0.223017-1.59774 0.09653-1.59774-0.0299576-1.59108-0.156445-1.57111-0.282933-1.53782-0.40942-1.50454-0.535908-1.45794-0.655738-1.39802-0.768911-1.33145-0.882084-1.25489-0.985271-1.16835-1.07847-1.0818-1.17167-0.985271-1.25489-0.878756-1.32812-0.77224-1.40135-0.718982-1.43796-0.718982-1.43796Z" fill="#1E1E1E" transform="matrix(1 0 0 1.00093 144.977 510.465)"/><path d="M-1.52784 0.509279C-1.52784 0.509279-1.55779 0.246318-1.61771-0.279604-1.67762-0.812183-1.59441-1.43131-1.36806-2.13697-1.13506-2.83598-0.825498-3.50836-0.439378-4.15412-0.0665724-4.79321 0.376134-5.75518 0.888741-7.04003 1.40135-8.32488 1.85737-9.40668 2.2568-10.2854 2.65624-11.1575 2.99576-12.023 3.27536-12.8818 3.55497-13.7405 3.82458-14.626 4.08422-15.538 4.33719-16.4567 4.58684-17.3854 4.83316-18.3241 5.07947-19.2561 5.2459-20.1015 5.33245-20.8605 5.42565-21.6127 5.48889-22.3517 5.52218-23.0773 5.56212-23.7963 5.59208-24.5153 5.61205-25.2343 5.63202-25.9532 5.74187-27.0184 5.94159-28.4297 6.14796-29.8344 6.33769-30.9428 6.51078-31.755 6.68387-32.5739 6.80037-33.3861 6.86028-34.1916 6.92686-34.9971 7.12325-35.9158 7.44945-36.9477 7.77566-37.9729 8.06857-38.9448 8.32821-39.8635 8.58784-40.7822 8.84081-41.7109 9.08713-42.6496 9.33345-43.5883 9.66298-44.507 10.0757-45.4057 10.4818-46.3044 11.1509-47.4029 12.0829-48.701 13.0216-49.9992 13.7439-50.8979 14.2498-51.3972 14.7558-51.8965 15.2351-52.4324 15.6878-53.0049 16.1405-53.5841 16.6198-54.1533 17.1257-54.7125 17.625-55.2784 18.121-55.8209 18.6136-56.3402 19.0996-56.8528 19.7687-57.4486 20.6208-58.1277 21.4729-58.8067 22.355-59.5124 23.267-60.2447 24.1791-60.977 25.1111-61.6993 26.0631-62.4116 27.0084-63.1239 27.7873-63.6798 28.3998-64.0792 29.0122-64.4853 29.9043-65.0512 31.076-65.7768 32.2543-66.5091 33.2163-67.0451 33.9619-67.3846 34.7009-67.7241 35.5663-68.1934 36.5582-68.7926 37.5502-69.3851 38.5621-69.9842 39.5939-70.59 40.6325-71.1958 41.7242-71.7617 42.8693-72.2876 44.0143-72.8135 44.933-73.1997 45.6254-73.446 46.3111-73.6923 47.0068-73.9353 47.7124-74.175 48.4114-74.4146 49.3368-74.7142 50.4885-75.0737 51.6469-75.4265 52.7453-75.6362 53.7838-75.7028 54.829-75.7694 55.7111-75.9058 56.4301-76.1122 57.1491-76.3119 57.9679-76.5283 58.8866-76.7613 59.8053-76.9943 60.7706-77.1341 61.7825-77.1807 62.7877-77.234 63.763-77.2606 64.7084-77.2606 65.6603-77.2673 66.4892-77.3671 67.1948-77.5602 67.9005-77.7599 68.6694-77.8797 69.5016-77.9196 70.3404-77.9596 71.1293-77.9829 71.8682-77.9895 72.6072-77.9962 73.4127-77.9962 74.2848-77.9895 75.1569-77.9895 75.9891-77.893 76.7813-77.7 77.5735-77.5002 78.4689-77.3072 79.4675-77.1208 80.4594-76.9277 81.3481-76.7114 82.1337-76.4717 82.9126-76.2387 83.6349-75.9824 84.3006-75.7028 84.9597-75.4298 85.7752-75.0537 86.7472-74.5744 87.7191-74.0951 88.5113-73.6424 89.1238-73.2163 89.7363-72.7903 90.3887-72.3409 91.081-71.8682 91.78-71.4022 92.5356-70.9196 93.3478-70.4203 94.16-69.921 94.8557-69.4117 95.4348-68.8924 96.0074-68.3798 96.6964-67.6509 97.5019-66.7055 98.3074-65.7535 98.9865-64.9514 99.539-64.2989 100.092-63.6465 100.641-63.054 101.187-62.5215 101.733-61.9889 102.415-61.5894 103.234-61.3232 104.046-61.0635 105.001-60.927 106.1-60.9137 107.205-60.9004 108.153-60.8904 108.946-60.8838 109.745-60.8838 110.707-60.8505 111.832-60.7839 112.95-60.7173 113.579-60.6707 113.719-60.6441 113.859-60.6241 113.992-60.5809 114.118-60.5143 114.245-60.4477 114.355-60.3645 114.448-60.2647 114.548-60.1581 114.628-60.0416 114.688-59.9151 114.747-59.7887 114.784-59.6555 114.797-59.5157 114.817-59.3693 114.811-59.2295 114.777-59.0963 114.744-58.9565 114.691-58.8267 114.618-58.7069 114.544-58.587 114.455-58.4805 114.348-58.3873 114.242-58.2941 114.122-58.2209 113.989-58.1676 113.862-58.1144 113.726-58.0844 113.579-58.0778 113.439-58.0711 113.303-58.0877 113.17-58.1277 113.03-58.161 112.903-58.2176 112.79-58.2974 112.67-58.3773 112.567-58.4739 112.481-58.587 112.394-58.7002 112.331-58.8234 112.291-58.9565 112.244-59.0896 112.221-59.2295 112.221-59.3759 112.221-59.5157 112.244-59.6522 112.291-59.7853 112.331-59.9185 112.394-60.0416 112.481-60.1548 112.567-60.268 112.67-60.3645 112.79-60.4444 112.903-60.5243 113.03-60.5809 113.17-60.6142 113.303-60.6541 113.439-60.6707 113.579-60.6641 113.726-60.6574 113.862-60.6275 113.989-60.5742 114.122-60.521 114.242-60.4477 114.348-60.3545 114.455-60.268 114.544-60.1615 114.618-60.035 114.691-59.9151 114.744-59.7853 114.777-59.6455 114.811-59.5124 114.817-59.3759 114.797-59.2361 114.784-59.0896 114.747-58.9532 114.688-58.8267 114.628-58.7002 114.548-58.5837 114.448-58.4772 114.355-58.3773 114.245-58.2941 114.118-58.2275 113.992-58.161 113.859-58.1177 113.719-58.0977 113.579-58.0711 113.509-58.0578 113.509-58.0578 113.509-58.0578 112.947-58.0245 111.822-57.9579 110.697-57.898 109.735-57.868 108.936-57.868 108.137-57.868 107.305-57.8714 106.439-57.878 105.574-57.8913 104.742-57.938 103.943-58.0178 103.144-58.0911 102.288-58.3707 101.376-58.8566 100.464-59.3426 99.7354-59.8486 99.1895-60.3745 98.6436-60.9071 98.0145-61.5961 97.3022-62.4416 96.5832-63.287 95.9009-64.0892 95.2551-64.8482 94.6093-65.6071 93.9103-66.3061 93.1581-66.9452 92.4058-67.5843 91.5736-68.1668 90.6616-68.6927 89.7429-69.212 88.9374-69.7079 88.245-70.1806 87.5527-70.6466 86.8404-71.0893 86.1081-71.5087 85.3758-71.9281 84.5469-72.3475 83.6216-72.767 82.7029-73.1864 81.8807-73.5059 81.1551-73.7256 80.4361-73.9386 79.6572-74.1217 78.8184-74.2748 77.9862-74.4279 77.224-74.601 76.5316-74.7941 75.8459-74.9938 75.087-75.0903 74.2548-75.0837 73.416-75.077 72.6371-75.0704 71.9181-75.0637 71.2058-75.0637 70.4835-75.0471 69.7512-75.0138 69.0256-74.9805 68.2567-74.864 67.4445-74.6643 66.6323-74.4645 65.7502-74.3614 64.7982-74.3547 63.8396-74.3414 62.9176-74.3181 62.0322-74.2848 61.1401-74.2449 60.2347-74.1117 59.316-73.8854 58.3973-73.6524 57.5352-73.4293 56.7297-73.2163 55.9241-73.0099 55.0653-72.8768 54.1533-72.8169 53.2413-72.757 52.2726-72.5672 51.2474-72.2477 50.2289-71.9215 49.0439-71.522 47.6925-71.0494 46.3477-70.5767 45.1527-70.1107 44.1075-69.6514 43.0623-69.192 42.0804-68.6961 41.1617-68.1635 40.2497-67.6309 39.4941-67.1482 38.8949-66.7155 38.3024-66.2761 37.407-65.7768 36.2087-65.2176 35.0171-64.6584 33.8354-64.0293 32.6637-63.3303 31.4987-62.6246 30.61-62.0688 29.9975-61.6627 29.3784-61.2566 28.6062-60.6974 27.6808-59.9851 26.7488-59.2661 25.87-58.5737 25.0445-57.908 24.2124-57.2356 23.4035-56.5998 22.618-56.0007 21.8391-55.4015 20.9836-54.5993 20.0516-53.5941 19.1196-52.5889 18.394-51.75 17.8747-51.0777 17.3488-50.3986 16.8362-49.8061 16.3369-49.3002 15.8376-48.7942 15.2184-48.0353 14.4795-47.0234 13.7405-46.0048 13.1946-45.1294 12.8418-44.3971 12.489-43.6648 12.1861-42.8227 11.9331-41.8707 11.6801-40.9121 11.4172-39.9534 11.1442-38.9948 10.8713-38.0361 10.595-37.154 10.3154-36.3485 10.0358-35.543 9.77948-34.3347 9.54648-32.7237 9.32013-31.1126 9.10045-29.6247 8.88741-28.26 8.68104-26.9019 8.56787-25.8501 8.5479-25.1044 8.52127-24.3588 8.48465-23.5899 8.43805-22.7977 8.38479-22.0055 8.29825-21.1733 8.17842-20.3013 8.05193-19.4292 7.8622-18.5171 7.60922-17.5651 7.34959-16.6131 7.0833-15.6578 6.81036-14.6992 6.53741-13.7472 6.24116-12.7952 5.92161-11.8432 5.60207-10.8912 5.25589-10.0058 4.88308-9.18699 4.51028-8.37481 4.1874-7.60922 3.91446-6.89024 3.64817-6.17126 3.35192-5.45228 3.02572-4.7333 2.69951-4.00766 2.26346-3.2687 1.71757-2.51644 1.16502-1.75751 0.995257-1.23159 1.20829-0.938671 1.42132-0.652409 1.54115-0.442706 1.56778-0.309562 1.58775-0.183074 1.59774-0.0599151 1.59774 0.0599151 1.59108 0.186403 1.56778 0.31289 1.52784 0.439378 1.49455 0.565865 1.44462 0.685696 1.37805 0.798869 1.31148 0.912042 1.23492 1.01523 1.14837 1.10843 1.06183 1.20163 0.961971 1.28152 0.848798 1.34809 0.742282 1.41466 0.62578 1.47125 0.499293 1.51785 0.379463 1.55779 0.252975 1.58109 0.11983 1.58775-8.92805e-10 1.60107-0.123159 1.59774-0.249646 1.57777-0.376134 1.55779-0.499293 1.52118-0.619123 1.46792-0.738954 1.41466-0.852127 1.35142-0.958642 1.27819-1.0585 1.1983-1.1517 1.10843-1.23825 1.00857-1.31813 0.908713-1.38471 0.798869-1.43796 0.679038-1.49788 0.565865-1.52784 0.509279-1.52784 0.509279Z" fill="#1E1E1E" transform="matrix(1 0 0 1.00093 117.792 446.021)"/><path d="M0 0C2.65624 1.28818 11.4138 3.53499 15.9175 7.71907 20.4111 11.8932 24.6751 18.8533 27.0018 25.0745 29.3385 31.3057 29.6181 38.5454 29.8977 45.0961 30.1773 51.6469 28.8991 61.1634 28.6994 64.3788M0 0C2.65624 1.28818 11.4138 3.53499 15.9175 7.71907 20.4111 11.8932 24.6751 18.8533 27.0018 25.0745 29.3385 31.3057 29.6181 38.5454 29.8977 45.0961 30.1773 51.6469 28.8991 61.1634 28.6994 64.3788" stroke="#1E1E1E" stroke-width="0.499293" stroke-linecap="round" fill="none" transform="matrix(1 0 0 1.00093 118.856 443.693)"/><path d="M0 0C2.65624 1.48789 11.2541 4.58351 15.9175 8.91737 20.5809 13.2612 25.444 19.9717 27.9704 26.0431 30.5068 32.1145 30.7864 38.2558 31.1059 45.3358 31.4255 52.4058 30.0974 64.6185 29.8977 68.483M0 0C2.65624 1.48789 11.2541 4.58351 15.9175 8.91737 20.5809 13.2612 25.444 19.9717 27.9704 26.0431 30.5068 32.1145 30.7864 38.2558 31.1059 45.3358 31.4255 52.4058 30.0974 64.6185 29.8977 68.483" stroke="#1E1E1E" stroke-width="0.499293" stroke-linecap="round" fill="none" transform="matrix(1 0 0 1.00093 121.607 439.448)"/><path d="M0 0C3.13556 2.12699 13.4609 7.2697 18.8034 12.7819 24.1558 18.2841 29.4583 26.2828 32.0746 33.0332 34.6809 39.7837 34.2415 46.6539 34.4812 53.2945 34.7208 59.9251 33.6823 69.5615 33.5125 72.8169M0 0C3.13556 2.12699 13.4609 7.2697 18.8034 12.7819 24.1558 18.2841 29.4583 26.2828 32.0746 33.0332 34.6809 39.7837 34.2415 46.6539 34.4812 53.2945 34.7208 59.9251 33.6823 69.5615 33.5125 72.8169" stroke="#1E1E1E" stroke-width="0.499293" stroke-linecap="round" fill="none" transform="matrix(1 0 0 1.00093 122.913 434.72)"/><path d="M0 0C3.13556 2.0471 13.5808 7.51935 18.8034 12.3026 24.036 17.0758 28.2899 22.1486 31.3456 28.6994 34.4013 35.2501 36.3286 43.6482 37.1374 51.6069 37.9363 59.5557 36.3286 72.2976 36.1688 76.4417M0 0C3.13556 2.0471 13.5808 7.51935 18.8034 12.3026 24.036 17.0758 28.2899 22.1486 31.3456 28.6994 34.4013 35.2501 36.3286 43.6482 37.1374 51.6069 37.9363 59.5557 36.3286 72.2976 36.1688 76.4417" stroke="#1E1E1E" stroke-width="0.499293" stroke-linecap="round" fill="none" transform="matrix(1 0 0 1.00093 124.414 431.244)"/><path d="M0 0C2.84597 1.61771 12.722 6.13132 17.0958 9.72623 21.4596 13.3111 23.8063 17.0459 26.1929 21.5395 28.5795 26.0431 30.4169 30.8663 31.4155 36.728 32.4041 42.5897 32.0346 53.3744 32.1644 56.6997M0 0C2.84597 1.61771 12.722 6.13132 17.0958 9.72623 21.4596 13.3111 23.8063 17.0459 26.1929 21.5395 28.5795 26.0431 30.4169 30.8663 31.4155 36.728 32.4041 42.5897 32.0346 53.3744 32.1644 56.6997" stroke="#1E1E1E" stroke-width="0.499293" stroke-linecap="round" fill="none" transform="matrix(1 0 0 1.00093 132.969 431.79)"/><path d="M0 0C1.55779 1.04852 6.77041 3.93443 9.36674 6.29109 11.973 8.63777 13.8903 11.2241 15.6079 14.1 17.3355 16.9859 18.7834 19.093 19.6821 23.5666 20.5809 28.0403 20.7906 38.0661 21.0102 40.962M0 0C1.55779 1.04852 6.77041 3.93443 9.36674 6.29109 11.973 8.63777 13.8903 11.2241 15.6079 14.1 17.3355 16.9859 18.7834 19.093 19.6821 23.5666 20.5809 28.0403 20.7906 38.0661 21.0102 40.962" stroke="#1E1E1E" stroke-width="0.499293" stroke-linecap="round" fill="none" transform="matrix(1 0 0 1.00093 147.532 435.772)"/><path d="M0 0C1.09844 0.738954 4.6634 2.86594 6.60065 4.44371 8.53791 6.03146 10.4552 7.17983 11.6136 9.48657 12.7719 11.8033 13.2013 15.3982 13.5308 18.334 13.8704 21.2799 13.6107 25.6637 13.6307 27.1216M0 0C1.09844 0.738954 4.6634 2.86594 6.60065 4.44371 8.53791 6.03146 10.4552 7.17983 11.6136 9.48657 12.7719 11.8033 13.2013 15.3982 13.5308 18.334 13.8704 21.2799 13.6107 25.6637 13.6307 27.1216" stroke="#1E1E1E" stroke-width="0.499293" stroke-linecap="round" fill="none" transform="matrix(1 0 0 1.00093 158.133 437.764)"/><path d="M0 0C15.2684 3.41516 76.3619 17.0758 91.6302 20.501M0 0C15.2684 3.41516 76.3619 17.0758 91.6302 20.501" stroke="#1E1E1E" stroke-width="0.499293" stroke-linecap="round" fill="none" transform="matrix(1 0 0 1.00093 122.955 430.418)"/><path d="M0 0C2.77607-10.7348 13.8604-53.654 16.6364-64.3788M0 0C2.77607-10.7348 13.8604-53.654 16.6364-64.3788" stroke="#1E1E1E" stroke-width="0.499293" stroke-linecap="round" fill="none" transform="matrix(1 0 0 1.00093 160.812 507.169)"/><path d="M0 0C-1.85737 7.77898-9.26688 38.9049-11.1143 46.6839M0 0C-1.85737 7.77898-9.26688 38.9049-11.1143 46.6839" stroke="#1E1E1E" stroke-width="0.499293" stroke-linecap="round" fill="none" transform="matrix(1 0 0 1.00093 144.77 385.502)"/><path d="M0 0C-2.48648 10.0558-12.4424 50.2788-14.9289 60.3346M0 0C-2.48648 10.0558-12.4424 50.2788-14.9289 60.3346" stroke="#1E1E1E" stroke-width="0.499293" stroke-linecap="round" fill="none" transform="matrix(1 0 0 1.00093 162.834 375.998)"/><path d="M0 0C-2.85596 11.5836-14.2997 57.928-17.1657 69.5215M0 0C-2.85596 11.5836-14.2997 57.928-17.1657 69.5215" stroke="#1E1E1E" stroke-width="0.499293" stroke-linecap="round" fill="none" transform="matrix(1 0 0 1.00093 181.15 370.962)"/><path d="M0 0C3.05567-11.7334 15.2584-58.6469 18.3041-70.3803M0 0C3.05567-11.7334 15.2584-58.6469 18.3041-70.3803" stroke="#1E1E1E" stroke-width="0.499293" stroke-linecap="round" fill="none" transform="matrix(1 0 0 1.00093 177.145 443.121)"/><path d="M0 0C5.67197-21.0702 28.3698-105.371 34.0418-126.451M0 0C5.67197-21.0702 28.3698-105.371 34.0418-126.451" stroke="#1E1E1E" stroke-width="0.499293" stroke-linecap="round" fill="none" transform="matrix(1 0 0 1.00093 172.854 503.826)"/><path d="M0 0C5.00292-19.3127 25.0345-96.5533 30.0375-115.866M0 0C5.00292-19.3127 25.0345-96.5533 30.0375-115.866" stroke="#1E1E1E" stroke-width="0.499293" stroke-linecap="round" fill="none" transform="matrix(1 0 0 1.00093 188.302 501.535)"/><path d="M0 0C15.0687 3.28535 75.3333 16.4467 90.402 19.742M0 0C15.0687 3.28535 75.3333 16.4467 90.402 19.742" stroke="#1E1E1E" stroke-width="0.499293" stroke-linecap="round" fill="none" transform="matrix(1 0 0 1.00093 131.086 399.597)"/><path d="M0 0C14.829 3.38521 74.145 16.926 88.974 20.3112M0 0C14.829 3.38521 74.145 16.926 88.974 20.3112" stroke="#1E1E1E" stroke-width="0.499293" stroke-linecap="round" fill="none" transform="matrix(1 0 0 1.00093 128.511 415.632)"/><path d="M0 0C12.8718 2.76608 64.3688 13.8304 77.2406 16.5965M0 0C12.8718 2.76608 64.3688 13.8304 77.2406 16.5965" stroke="#1E1E1E" stroke-width="0.499293" stroke-linecap="round" fill="none" transform="matrix(1 0 0 1.00093 148.251 384.134)"/><path d="M0 0C6.10136 1.37805 30.5168 6.91021 36.6181 8.29825M0 0C6.10136 1.37805 30.5168 6.91021 36.6181 8.29825" stroke="#1E1E1E" stroke-width="0.499293" stroke-linecap="round" fill="none" transform="matrix(1 0 0 1.00093 172.854 459.156)"/><path d="M0 0C5.91163 1.18832 29.5581 5.96156 35.4698 7.14987M0 0C5.91163 1.18832 29.5581 5.96156 35.4698 7.14987" stroke="#1E1E1E" stroke-width="0.499293" stroke-linecap="round" fill="none" transform="matrix(1 0 0 1.00093 169.135 479.2)"/><path d="M0 0C5.89166-3.58492 29.4683-17.9446 35.3699-21.5295M0 0C5.89166-3.58492 29.4683-17.9446 35.3699-21.5295" stroke="#1E1E1E" stroke-width="0.499293" stroke-linecap="round" fill="none" transform="matrix(1 0 0 1.00093 140.888 464.992)"/><path d="M0 0C4.6634-2.97579 23.327-14.8689 27.9904-17.8347M0 0C4.6634-2.97579 23.327-14.8689 27.9904-17.8347" stroke="#1E1E1E" stroke-width="0.499293" stroke-linecap="round" fill="none" transform="matrix(1 0 0 1.00093 135.659 458.22)"/><path d="M0 0C3.12557-2.61629 15.6379-13.0715 18.7634-15.6878M0 0C3.12557-2.61629 15.6379-13.0715 18.7634-15.6878" stroke="#1E1E1E" stroke-width="0.499293" stroke-linecap="round" fill="none" transform="matrix(1 0 0 1.00093 128.893 452.371)"/><path d="M0 0C1.89731-2.51644 9.48657-12.5622 11.3839-15.0687M0 0C1.89731-2.51644 9.48657-12.5622 11.3839-15.0687" stroke="#1E1E1E" stroke-width="0.499293" stroke-linecap="round" fill="none" transform="matrix(1 0 0 1.00093 122.743 448.061)"/><path d="M0 0C4.76325-1.99717 23.8362-9.99584 28.5995-11.993M0 0C4.76325-1.99717 23.8362-9.99584 28.5995-11.993" stroke="#1E1E1E" stroke-width="0.499293" stroke-linecap="round" fill="none" transform="matrix(1 0 0 1.00093 142.733 472.38)"/><path d="M0 0C3.63485-0.86877 18.1942-4.35383 21.8391-5.23259M0 0C3.63485-0.86877 18.1942-4.35383 21.8391-5.23259" stroke="#1E1E1E" stroke-width="0.499293" stroke-linecap="round" fill="none" transform="matrix(1 0 0 1.00093 145.808 484.078)"/><path d="M0 0C3.12557-1.17833 15.6379-5.89166 18.7634-7.06999M0 0C3.12557-1.17833 15.6379-5.89166 18.7634-7.06999" stroke="#1E1E1E" stroke-width="0.499293" stroke-linecap="round" fill="none" transform="matrix(1 0 0 1.00093 145.501 499.777)"/><path d="M0 0C4.8731 0.86877 24.3455 4.35383 29.2186 5.23259M0 0C4.8731 0.86877 24.3455 4.35383 29.2186 5.23259" stroke="#1E1E1E" stroke-width="0.499293" stroke-linecap="round" fill="none" transform="matrix(1 0 0 1.00093 163.646 493.928)"/><path d="M0.239661 1.58775C0.239661 1.58775-0.522593 1.68761-2.0471 1.88733-3.57827 2.08039-4.8265 2.45652-5.7918 3.01573-6.7571 3.56828-7.54265 4.11417-8.14846 4.65341-8.74761 5.1993-9.26688 5.7918-9.70625 6.43089-10.1456 7.07664-10.8014 8.38812-11.6735 10.3653-12.5522 12.3425-13.3012 14.1167-13.9203 15.6878-14.5461 17.2589-15.1619 19.0663-15.7677 21.1101-16.3735 23.1539-16.7962 25.2209-17.0359 27.3113-17.2755 29.395-17.2189 31.3456-16.8661 33.163-16.5133 34.9805-15.8808 36.6315-14.9688 38.116-14.0568 39.6006-12.9883 40.8621-11.7633 41.9007-10.5451 42.9392-9.0372 43.7214-7.23975 44.2473-5.44229 44.7799-3.59158 45.1128-1.68761 45.2459 0.203046 45.3791 2.15695 45.2526 4.17409 44.8665 6.19789 44.4737 8.07523 43.8579 9.80611 43.0191 11.5437 42.1803 13.1647 41.1351 14.6692 39.8835 16.1804 38.632 17.5884 37.174 18.8932 35.5097 20.1981 33.8387 21.3531 32.0779 22.3583 30.2272 23.3636 28.3765 24.1857 26.5624 24.8248 24.7849 25.4639 23.0008 25.6703 20.9936 25.444 18.7634 25.2176 16.5399 24.8947 14.7325 24.4753 13.3411 24.0626 11.9497 23.56 10.7714 22.9675 9.80611 22.3816 8.84747 21.4363 7.92211 20.1315 7.03004 18.82 6.14463 17.3721 5.32246 15.7876 4.56354 14.2032 3.81127 12.4557 3.16219 10.5451 2.61629 8.62778 2.06374 6.91021 1.77415 5.39236 1.74753 3.87451 1.7209 2.52309 1.83407 1.33811 2.08704 0.166431 2.34002-0.918699 2.62961-1.91728 2.95581-2.91587 3.28202-3.48506 3.46176-3.62487 3.49505-3.76467 3.52168-3.90447 3.52501-4.04427 3.50504-4.18407 3.48506-4.31722 3.44512-4.44371 3.38521-4.57019 3.32529-4.68337 3.2454-4.78323 3.14555-4.88308 3.04569-4.9663 2.93251-5.03287 2.80603-5.09944 2.67954-5.14272 2.54639-5.16269 2.40659-5.18266 2.26679-5.17933 2.12699-5.1527 1.98719-5.12607 1.84738-5.07947 1.71424-5.0129 1.58775-4.93967 1.46792-4.8498 1.36141-4.74328 1.2682-4.64342 1.16835-4.52692 1.09179-4.39378 1.03853-4.26729 0.978614-4.13415 0.941999-3.99434 0.928685-3.84788 0.91537-3.70808 0.925356-3.57494 0.958642-3.43514 0.991929-3.30532 1.04852-3.18549 1.1284-3.06566 1.20163-2.96247 1.29483-2.87593 1.40801-2.78273 1.51452-2.71282 1.63435-2.66622 1.7675-2.61297 1.90064-2.58634 2.03712-2.58634 2.17692-2.57968 2.31672-2.59632 2.45652-2.63627 2.59632-2.67621 2.72947-2.73945 2.85263-2.826 2.9658-2.90588 3.08563-3.00241 3.18549-3.11559 3.26538-3.22876 3.35192-3.35192 3.41516-3.48506 3.45511-3.62487 3.49505-3.76467 3.51502-3.90447 3.51502-4.04427 3.51502-4.18075 3.48839-4.31389 3.43514-4.44704 3.38853-4.57019 3.32196-4.68337 3.23542-4.79654 3.14887-4.88974 3.04569-4.96297 2.92586-5.04286 2.80603-5.09944 2.67954-5.13273 2.54639-5.16602 2.40659-5.17933 2.26679-5.17267 2.12699-5.15936 1.98719-5.12607 1.85071-5.07282 1.71757-5.0129 1.58442-4.93634 1.46792-4.84314 1.36806-4.74994 1.26155-4.64342 1.17167-4.52359 1.09844-4.39711 1.02521-4.33386 0.9886-4.33386 0.9886-4.33386 0.9886-3.80794 0.768911-2.7561 0.329533-1.70425-0.109844-0.466007-0.552551 0.958642-0.998586 2.38995-1.44462 4.02763-1.67097 5.87168-1.67762 7.71574-1.68428 9.69627-1.38471 11.8133-0.778897 13.9303-0.173088 15.8775 0.559208 17.655 1.41799 19.4391 2.27678 21.1334 3.32529 22.7378 4.56354 24.3489 5.80844 25.5172 7.06333 26.2428 8.32821 26.9618 9.59974 27.5443 11.0543 27.9904 12.692 28.4364 14.3297 28.726 16.4867 28.8591 19.1629 28.9923 21.8391 28.6894 24.1624 27.9504 26.133 27.2115 28.1102 26.2761 30.094 25.1444 32.0846 24.0193 34.0817 22.7145 35.9857 21.2299 37.7965 19.7454 39.6072 18.1376 41.2083 16.4068 42.5997 14.6825 43.991 12.8218 45.1494 10.8247 46.0747 8.83416 47.0001 6.6872 47.6791 4.38379 48.1119 2.08704 48.5446-0.136473 48.6811-2.28676 48.5213-4.45036 48.3615-6.62728 47.9255-8.81751 47.2131-11.0077 46.4942-12.8518 45.4723-14.3497 44.1475-15.8542 42.8227-17.1291 41.2316-18.1743 39.3742-19.2194 37.5102-19.9251 35.4931-20.2913 33.3228-20.6574 31.1525-20.6974 28.9224-20.4111 26.6323-20.1182 24.3422-19.6488 22.1287-19.0031 19.9917-18.3573 17.8481-17.7149 15.9674-17.0758 14.3497-16.4301 12.732-15.6046 10.8347-14.5993 8.65774-13.6007 6.48082-12.7819 4.98627-12.1428 4.17409-11.4971 3.36191-10.7648 2.62961-9.94592 1.9772-9.12042 1.32479-8.06524 0.702339-6.7804 0.109844-5.49555-0.469335-4.08422-0.898727-2.54639-1.17833-1.00857-1.45128-0.176417-1.59108-0.0499293-1.59774 0.0765582-1.59774 0.203046-1.58442 0.329533-1.55779 0.456021-1.53116 0.575851-1.49122 0.689024-1.43796 0.808855-1.37805 0.918699-1.30815 1.01856-1.22826 1.11842-1.14172 1.20496-1.04852 1.27819-0.948656 1.35808-0.842141 1.42132-0.728968 1.46792-0.609137 1.52118-0.489307 1.55779-0.366148 1.57777-0.239661 1.59774-0.113173 1.60107 0.0133145 1.58775 0.139802 1.57444 0.26629 1.54781 0.392777 1.50786 0.519265 1.46792 0.639095 1.41133 0.752268 1.33811 0.858784 1.27153 0.971957 1.19165 1.07182 1.09844 1.15836 0.998586 1.2449 0.89207 1.32146 0.778897 1.38803 0.665724 1.45461 0.549222 1.50454 0.429392 1.53782 0.302904 1.57111 0.239661 1.58775 0.239661 1.58775Z" fill="#1E1E1E" transform="matrix(1 0 0 1.00093 268.658 403.822)"/><path d="M0.828826 1.37805C0.828826 1.37805 0.532579 1.54781-0.0599151 1.88733-0.659067 2.2335-1.39802 2.85928-2.27678 3.76467-3.14887 4.67671-3.8845 5.53549-4.48365 6.34102-5.07614 7.14655-5.67862 7.95873-6.29109 8.77757-6.90356 9.60307-7.52601 10.4019-8.15845 11.1742-8.79088 11.9464-9.41001 12.742-10.0158 13.5608-10.6216 14.3796-11.1342 15.1785-11.5536 15.9574-11.9664 16.7363-12.2793 17.4686-12.4923 18.1543-12.7053 18.8333-12.915 19.7587-13.1214 20.9304-13.3344 22.102-13.5408 23.1905-13.7405 24.1957-13.9336 25.1943-14.0601 26.1496-14.12 27.0617-14.1799 27.9671-14.3031 28.949-14.4895 30.0075-14.6692 31.0593-14.7757 31.9914-14.809 32.8035-14.8423 33.6157-14.8623 34.5977-14.8689 35.7494-14.8689 36.9077-14.8689 38.0361-14.8689 39.1346-14.8689 40.233-14.7857 41.2016-14.6193 42.0405-14.4529 42.8793-14.1633 43.7148-13.7505 44.5469-13.3311 45.3857-12.9051 46.2046-12.4723 47.0034-12.033 47.809-11.5803 48.5679-11.1143 49.2802-10.6416 49.9925-10.0391 50.7348-9.30682 51.5071-8.57452 52.2793-7.81893 52.975-7.04003 53.5941-6.26113 54.2132-5.44895 54.7658-4.60348 55.2518-3.76467 55.7444-2.99576 56.1705-2.29675 56.5299-1.59774 56.8961-0.845469 57.2023-0.0399434 57.4486 0.758925 57.6883 1.53782 57.8181 2.29675 57.8381 3.05567 57.8581 3.92444 57.8747 4.90306 57.888 5.88167 57.9013 6.79704 57.9113 7.64917 57.918 8.49464 57.918 9.50321 58.0012 10.6749 58.1676 11.8399 58.3274 12.7985 58.3773 13.5508 58.3174 14.2964 58.2575 15.2251 58.0944 16.3369 57.8281 17.442 57.5618 18.4006 57.2855 19.2128 56.9993 20.0183 56.713 20.8405 56.3901 21.6793 56.0307 22.5115 55.6712 23.2837 55.2617 23.996 54.8024 24.715 54.343 25.4806 53.8204 26.2928 53.2346 27.0983 52.6421 27.8239 52.1761 28.4697 51.8366 29.1088 51.5037 29.861 51.1143 30.7265 50.6682 31.5919 50.2289 32.4973 49.5698 33.4426 48.691 34.3813 47.8189 35.1902 47.0534 35.8692 46.3943 36.5482 45.7352 37.0875 44.9963 37.4869 44.1774 37.8863 43.3586 38.2991 42.5165 38.7252 41.651 39.1579 40.7789 39.6638 39.8835 40.243 38.9648 40.8222 38.0395 41.4213 37.2073 42.0405 36.4684 42.6529 35.7294 43.1689 34.9205 43.5883 34.0418 44.001 33.1564 44.4471 32.231 44.9264 31.2657 45.399 30.2938 45.7186 29.2852 45.885 28.24 46.0515 27.1948 46.158 26.1696 46.2046 25.1644 46.2445 24.1525 46.2678 23.1372 46.2745 22.1187 46.2811 21.0935 46.2046 20.2114 46.0448 19.4724 45.8784 18.7335 45.6986 17.9612 45.5056 17.1557 45.3058 16.3502 45.0662 15.6079 44.7866 14.9289 44.507 14.2498 44.1708 13.3977 43.778 12.3725 43.3852 11.3406 42.8959 10.4252 42.3101 9.62637 41.7242 8.83416 41.1517 8.18175 40.5925 7.66914 40.0333 7.15653 39.4308 6.55405 38.7851 5.8617 38.146 5.176 37.4736 4.54689 36.7679 3.97437 36.0623 3.40185 35.4398 2.83265 34.9006 2.26679 34.3613 1.70092 33.6523 1.09179 32.7736 0.439378 31.8948-0.206374 31.1326-0.702339 30.4868-1.04852 29.8477-1.40135 29.0256-1.78414 28.0203-2.19689 27.0151-2.61629 26.0431-3.04569 25.1044-3.48506 24.1658-3.91779 23.337-4.24399 22.618-4.46368 21.899-4.68337 21.1933-4.8964 20.501-5.10277 19.8153-5.30915 19.0497-5.41566 18.2042-5.42232 17.3654-5.42232 16.4634-5.34243 15.4981-5.18266 14.5261-5.02289 13.6074-4.84647 12.742-4.65341 11.8765-4.46035 11.0876-4.34385 10.3753-4.30391 9.66298-4.26396 8.90073-4.14413 8.08855-3.94441 7.27636-3.75135 6.52077-3.44512 5.82176-3.02572 5.11609-2.60631 4.40709-2.23018 3.69477-1.89731 2.97579-1.57111 2.0937-1.14172 1.04852-0.609137 0.00998584-0.0898727-1.25489 0.555879-2.74611 1.32812-4.24399 2.0937-5.04952 2.51976-5.16269 2.60631-5.2692 2.69285-5.39236 2.75943-5.53217 2.80603-5.66531 2.85263-5.80178 2.87593-5.94159 2.87593-6.08139 2.87593-6.21786 2.85263-6.35101 2.80603-6.48415 2.76608-6.60731 2.70284-6.72048 2.61629-6.83366 2.52975-6.93019 2.42656-7.01007 2.30673-7.08996 2.19356-7.14987 2.06707-7.18982 1.92727-7.22976 1.79413-7.2464 1.65765-7.23975 1.51785-7.23309 1.37139-7.20313 1.23492-7.14987 1.10843-7.09662 0.975286-7.02339 0.855455-6.93019 0.748939-6.83698 0.635766-6.73047 0.542565-6.61064 0.469335-6.49081 0.396106-6.36099 0.346176-6.22119 0.319547-6.08805 0.286261-5.95157 0.276275-5.81177 0.28959-5.66531 0.309562-5.52884 0.349505-5.40235 0.40942-5.27586 0.462678-5.15936 0.539236-5.05284 0.639095-4.95299 0.738954-4.86977 0.848798-4.8032 0.968628-4.73663 1.09512-4.69002 1.22826-4.6634 1.36806-4.64342 1.50786-4.64342 1.64767-4.6634 1.78747-4.69002 1.92727-4.73663 2.06042-4.8032 2.1869-4.86311 2.31339-4.94633 2.42323-5.05284 2.51644-5.1527 2.61629-5.2692 2.69618-5.40235 2.7561-5.52884 2.81601-5.66198 2.85263-5.80178 2.86594-5.94159 2.88591-6.08139 2.87926-6.22119 2.84597-6.36099 2.81268-6.49081 2.76275-6.61064 2.69618-6.73047 2.62295-6.83698 2.52975-6.93019 2.41658-7.02339 2.31006-7.09329 2.19356-7.13989 2.06707-7.19315 1.93393-7.22643 1.79745-7.23975 1.65765-7.2464 1.51119-7.22976 1.37139-7.18982 1.23825-7.15653 1.09844-7.09995 0.971957-7.02006 0.858784-6.94017 0.738954-6.90023 0.679038-6.90023 0.679038-6.90023 0.679038-6.41092 0.16976-5.43231-0.848798-4.46035-1.87401-3.65815-2.58967-3.02572-2.99576-2.38662-3.39519-1.65765-3.78131-0.838812-4.15412-0.0332862-4.52692 0.79554-4.89973 1.64767-5.27253 2.49979-5.64534 3.26538-6.03146 3.94441-6.43089 4.62345-6.82367 5.38903-7.12325 6.24116-7.32962 7.09995-7.53599 8.14513-7.7457 9.37672-7.95873 10.6083-8.1651 11.6136-8.36149 12.3925-8.5479 13.1647-8.72764 13.9669-8.90739 14.799-9.08713 15.6312-9.26688 16.4267-9.34343 17.1857-9.31681 17.9379-9.29683 18.7268-9.26022 19.5523-9.20696 20.3712-9.16036 21.2632-8.97063 22.2285-8.63777 23.1872-8.29825 24.0293-7.9787 24.7549-7.67912 25.4872-7.37955 26.2195-7.07997 26.9518-6.7804 27.6775-6.48082 28.3798-6.19789 29.0588-5.9316 29.7379-5.66531 30.4868-5.3158 31.3057-4.88308 32.1178-4.45036 32.8335-4.01764 33.4526-3.58492 34.0717-3.1522 34.7108-2.69951 35.3699-2.22685 36.029-1.74753 36.6514-1.20496 37.2373-0.599151 37.8164-0.00665725 38.4289 0.549222 39.0747 1.06849 39.7271 1.58109 40.3362 2.18357 40.9021 2.87593 41.4679 3.56162 42.0804 4.19073 42.7395 4.76325 43.4052 5.34243 44.0443 6.05809 44.6568 6.91021 45.2759 7.769 45.7951 8.55122 46.2146 9.25689 46.6406 9.96256 46.9735 10.6849 47.2131 11.4238 47.4595 12.1628 47.7657 13.0149 48.1318 13.9802 48.4913 14.9455 48.7709 15.8442 48.9706 16.6764 49.1704 17.5085 49.3568 18.3607 49.5299 19.2328 49.7029 20.1115 49.7862 21.0801 49.7795 22.1386 49.7728 23.1971 49.7495 24.1624 49.7096 25.0345 49.663 25.9 49.5465 26.812 49.3601 27.7707 49.1737 28.7293 48.944 29.6647 48.6711 30.5767 48.4048 31.4887 48.1152 32.3309 47.8023 33.1031 47.4828 33.882 47.1333 34.6409 46.7538 35.3799 46.3743 36.1189 45.8551 36.9477 45.196 37.8664 44.5369 38.7851 43.9711 39.6472 43.4984 40.4527 43.0324 41.2649 42.5897 42.0305 42.1703 42.7495 41.7509 43.4618 41.3215 44.3239 40.8821 45.3358 40.4427 46.341 39.8935 47.1699 39.2344 47.8223 38.5754 48.4747 37.8331 49.1837 37.0076 49.9493 36.1821 50.7148 35.3932 51.4471 34.6409 52.1462 33.882 52.8452 33.0931 53.4177 32.2743 53.8637 31.4488 54.3164 30.59 54.8357 29.6979 55.4215 28.8059 56.0007 27.9205 56.5932 27.0417 57.199 26.1696 57.8048 25.2942 58.3174 24.4154 58.7368 23.5367 59.1562 22.598 59.5656 21.5994 59.9651 20.6008 60.3645 19.7587 60.6541 19.073 60.8338 18.3873 61.0203 17.6816 61.22 16.956 61.433 16.2303 61.6527 15.305 61.8125 14.1799 61.9123 13.0615 62.0188 12.0529 61.9889 11.1542 61.8224 10.2555 61.6494 9.44995 61.5661 8.73763 61.5728 8.01864 61.5728 7.21312 61.5728 6.32105 61.5728 5.42232 61.5728 4.49696 61.5728 3.54498 61.5728 2.59299 61.5728 1.66098 61.5362 0.748939 61.463-0.149788 61.3897-0.985271 61.1767-1.75751 60.8239-2.52975 60.4777-3.30199 60.0982-4.07423 59.6855-4.84647 59.2661-5.58542 58.8866-6.29109 58.5471-6.99676 58.2076-7.67912 57.7382-8.33819 57.1391-9.00391 56.5399-9.77948 55.8476-10.6649 55.062-11.5503 54.2765-12.3858 53.4077-13.1713 52.4557-13.9502 51.5104-14.5394 50.6516-14.9388 49.8794-15.3383 49.1071-15.7444 48.3748-16.1571 47.6825-16.5765 46.9835-16.966 46.1613-17.3255 45.216-17.685 44.2773-17.9512 43.3053-18.1243 42.3001-18.2974 41.2949-18.3806 40.2397-18.374 39.1346-18.374 38.0295-18.3707 36.8878-18.364 35.7094-18.3507 34.5378-18.3274 33.4992-18.2941 32.5938-18.2608 31.6885-18.1543 30.7365-17.9745 29.7379-17.7881 28.7393-17.6384 27.6741-17.5252 26.5424-17.4187 25.404-17.2656 24.3389-17.0658 23.3469-16.8661 22.3484-16.6897 21.4163-16.5366 20.5509-16.3835 19.6921-16.1871 18.8367-15.9474 17.9845-15.7078 17.1257-15.4082 16.2903-15.0487 15.4781-14.6959 14.6659-14.2298 13.8071-13.6507 12.9017-13.0715 11.9963-12.4557 11.1276-11.8033 10.2954-11.1442 9.46992-10.4752 8.68104-9.79613 7.92877-9.12375 7.18316-8.47134 6.40426-7.8389 5.59208-7.20646 4.7799-6.56404 3.96771-5.91163 3.15553-5.25922 2.34335-4.54024 1.56778-3.75468 0.828826-2.96913 0.0898727-2.28343-0.462678-1.6976-0.828826-1.11842-1.19497-0.768911-1.40468-0.649081-1.45794-0.52925-1.51119-0.406092-1.54781-0.279604-1.56778-0.153116-1.59441-0.026629-1.60107 0.0998586-1.58775 0.226346-1.58109 0.352834-1.55779 0.479321-1.51785 0.599151-1.47791 0.715653-1.42465 0.828826-1.35808 0.935342-1.2915 1.0352-1.21162 1.1284-1.11842 1.2216-1.03187 1.30149-0.932013 1.36806-0.81884 1.43464-0.705667 1.48789-0.589166 1.52784-0.469335 1.56112-0.342848 1.58109-0.21636 1.58775-0.0898727 1.60107 0.0366148 1.59441 0.163102 1.56778 0.28959 1.54115 0.416077 1.50121 0.539236 1.44795 0.659067 1.39469 0.77224 1.32812 0.882084 1.24823 0.9886 1.16835 1.08846 1.07847 1.17833 0.978614 1.25822 0.878756 1.33811 0.828826 1.37805 0.828826 1.37805Z" fill="#1E1E1E" transform="matrix(1 0 0 1.00093 258.187 400.123)"/><path d="M1.22826-1.02854C1.22826-1.02854 1.53449-0.685696 2.14696 0 2.75943 0.692353 3.35192 1.36141 3.92444 2.00716 4.49031 2.65957 5.07282 3.30199 5.67197 3.93443 6.26446 4.56021 7.15986 5.54881 8.35816 6.90023 9.56312 8.24499 10.2055 8.97396 10.2854 9.08713 10.3653 9.20696 10.4252 9.33345 10.4652 9.46659 10.5118 9.59974 10.5318 9.73954 10.5251 9.886 10.5184 10.0258 10.4918 10.1623 10.4452 10.2954 10.3986 10.4286 10.3287 10.5484 10.2355 10.6549 10.149 10.7681 10.0458 10.8613 9.92594 10.9345 9.80611 11.0144 9.6763 11.071 9.5365 11.1043 9.40335 11.1376 9.26688 11.1475 9.12708 11.1342 8.98062 11.1209 8.84414 11.0876 8.71765 11.0344 8.58451 10.9745 8.46801 10.8979 8.36815 10.8047 8.26163 10.7115 8.17176 10.6017 8.09853 10.4752 8.03196 10.3553 7.98536 10.2255 7.95873 10.0857 7.9321 9.94592 7.92877 9.80611 7.94874 9.66631 7.96871 9.52651 8.01199 9.39336 8.07856 9.26688 8.13847 9.14039 8.21836 9.02722 8.31822 8.92736 8.41808 8.8275 8.53125 8.74761 8.65774 8.6877 8.78423 8.62112 8.91737 8.57785 9.05717 8.55788 9.19698 8.54457 9.33678 8.55122 9.47658 8.57785 9.61638 8.60448 9.74953 8.65108 9.87601 8.71765 9.99584 8.79088 10.1024 8.88076 10.1956 8.98727 10.2888 9.08713 10.3653 9.20363 10.4252 9.33678 10.4785 9.46326 10.5118 9.59974 10.5251 9.7462 10.5318 9.886 10.5184 10.0225 10.4852 10.1556 10.4519 10.2954 10.3953 10.4252 10.3154 10.5451 10.2422 10.6649 10.149 10.7681 10.0358 10.8546 9.92927 10.9412 9.80944 11.0111 9.6763 11.0643 9.54315 11.1109 9.40668 11.1342 9.26688 11.1342 9.12042 11.1409 8.98061 11.1242 8.84747 11.0843 8.71432 11.0377 8.59117 10.9745 8.47799 10.8946 8.35816 10.808 8.29825 10.7648 8.29825 10.7648 8.29825 10.7648 7.62587 10.1523 6.2811 8.92736 4.943 7.70243 3.95773 6.77374 3.32529 6.1413 2.69951 5.50887 2.06707 4.85978 1.42798 4.19406 0.782226 3.53499 0.179745 2.84264-0.379463 2.117-0.945328 1.39136-1.26488 0.971957-1.33811 0.858784-1.41133 0.752268-1.46792 0.639095-1.50786 0.519265-1.54781 0.392777-1.57444 0.26629-1.58775 0.139802-1.60107 0.0199717-1.59774-0.106516-1.57777-0.239661-1.55779-0.366148-1.52451-0.489307-1.47791-0.609137-1.42465-0.728968-1.36141-0.838812-1.28818-0.938671-1.20829-1.04519-1.11842-1.14172-1.01856-1.22826-0.918699-1.30815-0.812183-1.37805-0.69901-1.43796-0.57918-1.49122-0.456021-1.53116-0.329533-1.55779-0.203046-1.58442-0.0798869-1.59774 0.0399434-1.59774 0.173088-1.59108 0.302904-1.57111 0.429392-1.53782 0.549222-1.50454 0.665724-1.45461 0.778897-1.38803 0.89207-1.32146 0.995257-1.2449 1.08846-1.15836 1.18832-1.07182 1.23825-1.02854 1.23825-1.02854Z" fill="#1E1E1E" transform="matrix(1 0 0 1.00093 290.833 453.762)"/><path d="M1.30815-0.928685C1.30815-0.928685 1.62437-0.535908 2.2568 0.249646 2.88924 1.04852 3.55497 1.83074 4.25398 2.59632 4.95299 3.36191 5.68195 4.15079 6.44088 4.96297 7.19315 5.77515 7.84888 6.47416 8.40809 7.06 8.96064 7.64584 9.63635 8.35483 10.4352 9.18699 11.2341 10.0258 11.6801 10.4985 11.7733 10.605 11.8599 10.7115 11.9298 10.8313 11.983 10.9645 12.0363 11.0976 12.0662 11.2341 12.0729 11.3739 12.0796 11.5137 12.0629 11.6535 12.023 11.7933 11.9897 11.9264 11.9331 12.0529 11.8532 12.1728 11.7733 12.2859 11.6768 12.3858 11.5636 12.4723 11.4504 12.5589 11.3273 12.6255 11.1941 12.6721 11.0543 12.712 10.9145 12.732 10.7747 12.732 10.6349 12.732 10.4985 12.7087 10.3653 12.6621 10.2322 12.6221 10.109 12.5589 9.99584 12.4723 9.88267 12.3858 9.78614 12.2826 9.70625 12.1628 9.62637 12.0429 9.56978 11.9165 9.5365 11.7833 9.49655 11.6435 9.47991 11.5037 9.48657 11.3639 9.49322 11.2241 9.52318 11.0876 9.57644 10.9545 9.6297 10.828 9.70292 10.7082 9.79613 10.595 9.88933 10.4885 9.99584 10.3986 10.1157 10.3254 10.2355 10.2588 10.3653 10.2089 10.5051 10.1756 10.6449 10.1423 10.7847 10.1356 10.9245 10.1556 11.0643 10.1689 11.1975 10.2055 11.324 10.2655 11.4571 10.3254 11.5736 10.4053 11.6735 10.5051 11.7733 10.5983 11.8565 10.7082 11.9231 10.8347 11.9897 10.9611 12.033 11.0943 12.0529 11.2341 12.0796 11.3739 12.0796 11.5137 12.0529 11.6535 12.033 11.7933 11.9897 11.9264 11.9231 12.0529 11.8565 12.1728 11.77 12.2826 11.6635 12.3825 11.5636 12.4823 11.4504 12.5589 11.324 12.6121 11.1908 12.6721 11.0543 12.712 10.9145 12.732 10.7747 12.7453 10.6349 12.7353 10.4951 12.702 10.362 12.6754 10.2322 12.6255 10.1057 12.5522 9.98586 12.4723 9.92594 12.4357 9.92594 12.4424 9.92594 12.4424 9.39004 12.0995 8.31822 11.4138 7.2464 10.7348 6.42091 10.1024 5.84173 9.51652 5.2692 8.93069 4.58018 8.22169 3.77465 7.38953 2.96913 6.56404 2.19356 5.70858 1.44795 4.82317 0.702339 3.94441 0.0565865 3.07564-0.489307 2.21686-1.0352 1.35808-1.33811 0.872098-1.39802 0.758925-1.45794 0.645752-1.50454 0.525922-1.53782 0.399434-1.57111 0.279604-1.59108 0.153116-1.59774 0.0199717-1.59774-0.0998586-1.58442-0.223017-1.55779-0.349505-1.52451-0.475993-1.48124-0.599151-1.42798-0.718982-1.36806-0.832155-1.29483-0.938671-1.20829-1.03853-1.12174-1.13839-1.02854-1.22493-0.928685-1.29816-0.822169-1.37139-0.708996-1.43131-0.589166-1.47791-0.469335-1.53116-0.342848-1.56445-0.209703-1.57777-0.0832155-1.59774 0.0399434-1.60107 0.159774-1.58775 0.292919-1.57444 0.419406-1.54448 0.539236-1.49788 0.659067-1.45794 0.77224-1.40135 0.878756-1.32812 0.991929-1.25489 1.09179-1.17167 1.17833-1.07847 1.26488-0.978614 1.30815-0.928685 1.30815-0.928685Z" fill="#1E1E1E" transform="matrix(1 0 0 1.00093 298.841 445.747)"/><path d="M-1.09844-1.16835C-1.09844-1.16835-0.472664-1.7442 0.778897-2.8959 2.03712-4.04094 3.18216-5.11276 4.21403-6.11135 5.25256-7.10327 6.22452-7.99534 7.1299-8.78756 8.03529-9.57977 9.05052-10.4286 10.1756-11.3339 11.3073-12.2327 11.9331-12.722 12.0529-12.8019 12.1728-12.8751 12.2992-12.9284 12.4324-12.9616 12.5722-12.9949 12.712-13.0049 12.8518-12.9916 12.9916-12.9849 13.1281-12.9517 13.2612-12.8917 13.3877-12.8385 13.5042-12.7619 13.6107-12.6621 13.7172-12.5689 13.8038-12.4624 13.8704-12.3425 13.9436-12.216 13.9935-12.0829 14.0201-11.9431 14.0468-11.8033 14.0501-11.6635 14.0301-11.5237 14.0102-11.3839 13.9669-11.2507 13.9003-11.1242 13.8404-10.9978 13.7605-10.8846 13.6607-10.7847 13.5608-10.6849 13.4443-10.605 13.3111-10.5451 13.1847-10.4852 13.0515-10.4452 12.9117-10.4252 12.7719-10.4053 12.6321-10.4086 12.4923-10.4352 12.3592-10.4619 12.2293-10.5118 12.1029-10.585 11.983-10.6516 11.8765-10.7381 11.7833-10.8446 11.6835-10.9512 11.6069-11.0677 11.5536-11.1941 11.5004-11.3273 11.4671-11.4638 11.4538-11.6036 11.4405-11.7434 11.4538-11.8832 11.4937-12.023 11.527-12.1628 11.5803-12.2893 11.6535-12.4024 11.7334-12.5223 11.8266-12.6288 11.9331-12.722 12.0463-12.8085 12.1694-12.8751 12.3026-12.9217 12.4357-12.9683 12.5722-12.9949 12.712-13.0016 12.8518-13.0016 12.9916-12.9816 13.1314-12.9417 13.2645-12.9017 13.3877-12.8385 13.5009-12.7519 13.6141-12.6721 13.7139-12.5755 13.8005-12.4624 13.8803-12.3425 13.9403-12.216 13.9802-12.0829 14.0201-11.9497 14.0401-11.8099 14.0401-11.6635 14.0335-11.5237 14.0068-11.3872 13.9602-11.2541 13.907-11.1209 13.8371-11.0011 13.7505-10.8946 13.664-10.7814 13.6207-10.7248 13.6207-10.7248 13.6207-10.7248 13.0915-10.2388 12.033-9.26688 10.9745-8.29492 10.0158-7.41284 9.15703-6.62062 8.3049-5.82841 7.35958-4.92303 6.32105-3.90447 5.28252-2.88591 4.15412-1.78414 2.93584-0.599151 1.71091 0.57918 1.04519 1.20829 0.938671 1.28818 0.838812 1.36141 0.728968 1.42465 0.609137 1.47791 0.489307 1.52451 0.366148 1.55779 0.239661 1.57777 0.106516 1.59774-0.0199717 1.60107-0.139802 1.58775-0.26629 1.57444-0.392777 1.54781-0.519265 1.50786-0.639095 1.46792-0.755597 1.41133-0.86877 1.33811-0.975286 1.26488-1.07182 1.18166-1.15836 1.08846-1.25156 0.995257-1.32812 0.89207-1.38803 0.778897-1.45461 0.665724-1.50454 0.549222-1.53782 0.429392-1.57111 0.302904-1.59108 0.173088-1.59774 0.0399434-1.59774-0.0798869-1.58442-0.203046-1.55779-0.329533-1.53116-0.456021-1.49122-0.57918-1.43796-0.69901-1.37805-0.812183-1.30815-0.918699-1.22826-1.01856-1.14172-1.11842-1.09844-1.16835-1.09844-1.16835Z" fill="#1E1E1E" transform="matrix(1 0 0 1.00093 298.345 468.193)"/><path d="M1.1983-1.06849C1.1983-1.06849 1.49455-0.742282 2.08704-0.0898727 2.67954 0.549222 3.46842 1.34809 4.45369 2.30673 5.43896 3.26538 6.48082 4.2107 7.57927 5.14272 8.67771 6.07473 9.62304 6.9668 10.4153 7.81893 11.2075 8.67105 11.983 9.45994 12.742 10.1856 13.5075 10.9112 14.1932 11.5303 14.799 12.0429 15.4049 12.5489 16.0073 13.1114 16.6065 13.7306 17.2056 14.3563 17.7682 14.9355 18.2941 15.4681 18.8134 15.994 19.306 16.5333 19.772 17.0858 20.2447 17.6384 20.9537 18.4106 21.899 19.4025 22.851 20.3945 23.5766 21.1467 24.0759 21.6593 24.5685 22.1653 25.0778 22.7212 25.6037 23.327 26.1297 23.9394 26.6389 24.5086 27.1316 25.0345 27.6242 25.5538 28.0969 26.0864 28.5496 26.6323 29.0089 27.1782 29.6214 27.8605 30.387 28.6794 31.1525 29.4982 31.8349 30.2072 32.4341 30.8064 33.0399 31.4055 33.6157 31.9814 34.1616 32.5339 34.7142 33.0798 35.4232 33.7822 36.2886 34.6409 37.154 35.4997 37.9729 36.252 38.7451 36.8977 39.5174 37.5435 40.4094 38.4655 41.4213 39.6638 42.4332 40.8621 42.9592 41.5312 42.9991 41.671 43.0391 41.8041 43.0557 41.9439 43.049 42.0904 43.0424 42.2302 43.0124 42.3667 42.9592 42.4998 42.9059 42.6263 42.8327 42.7461 42.7395 42.8593 42.6529 42.9658 42.5464 43.0557 42.4199 43.1289 42.3001 43.2021 42.1703 43.2521 42.0305 43.2787 41.8973 43.312 41.7609 43.322 41.6211 43.3087 41.4746 43.2887 41.3381 43.2521 41.2116 43.1988 41.0851 43.1389 40.9687 43.059 40.8621 42.9592 40.7623 42.8593 40.6791 42.7495 40.6125 42.6296 40.5459 42.5031 40.5026 42.37 40.4827 42.2302 40.456 42.0904 40.4527 41.9506 40.4727 41.8108 40.4993 41.671 40.5459 41.5378 40.6125 41.4114 40.6791 41.2915 40.7623 41.1817 40.8621 41.0818 40.962 40.982 41.0785 40.9021 41.2116 40.8422 41.3381 40.7822 41.4713 40.7456 41.6111 40.7323 41.7509 40.719 41.8907 40.7257 42.0305 40.7523 42.1703 40.7856 42.3001 40.8388 42.4199 40.9121 42.5398 40.9853 42.6463 41.0752 42.7395 41.1817 42.8327 41.2882 42.9059 41.408 42.9592 41.5412 43.0124 41.6677 43.0424 41.8041 43.049 41.9506 43.0557 42.0904 43.039 42.2269 42.9991 42.36 42.9658 42.4998 42.9092 42.6263 42.8293 42.7395 42.7495 42.8593 42.6529 42.9625 42.5398 43.049 42.4266 43.1356 42.3034 43.2021 42.1703 43.2488 42.0371 43.2887 41.9007 43.3087 41.7609 43.3087 41.6144 43.3087 41.4746 43.2887 41.3415 43.2488 41.2083 43.2021 41.0851 43.1356 40.972 43.049 40.8588 42.9625 40.7623 42.8626 40.6824 42.7495 40.6025 42.6296 40.5626 42.5697 40.5626 42.5697 40.5626 42.5697 40.0566 42.2202 39.0447 41.5212 38.0328 40.8155 37.1341 40.1099 36.3485 39.4042 35.563 38.6985 34.7408 37.9096 33.882 37.0375 33.0232 36.1721 32.3209 35.4598 31.775 34.9006 31.2225 34.348 30.4436 33.5558 29.4383 32.5239 28.4331 31.4921 27.5144 30.4968 26.6822 29.5382 25.8501 28.5862 25.1743 27.8339 24.6551 27.2814 24.1292 26.7222 23.6232 26.1663 23.1372 25.6137 22.6579 25.0678 22.1619 24.5386 21.6493 24.026 21.1434 23.5134 20.6374 23.0008 20.1315 22.4882 19.6322 21.9689 18.9265 21.1966 18.0145 20.1714 17.0958 19.1462 16.3735 18.3607 15.8476 17.8148 15.315 17.2689 14.799 16.7263 14.2997 16.1871 13.8005 15.6412 13.0216 14.9189 11.9631 14.0201 10.9046 13.1214 10.0058 12.2493 9.26688 11.4039 8.53458 10.5517 7.75568 9.70292 6.93019 8.85746 6.10469 8.01199 5.36573 7.35625 4.71333 6.89024 4.06757 6.42424 3.20546 5.66864 2.12699 4.62345 1.04852 3.57827 0.226346 2.72614-0.339519 2.06707-0.912042 1.40135-1.23492 1.01523-1.30815 0.908713-1.38138 0.802197-1.44129 0.689024-1.48789 0.569194-1.53449 0.442706-1.56778 0.316219-1.58775 0.189731-1.60107 0.0632438-1.60107-0.0632438-1.58775-0.189731-1.56778-0.316219-1.53449-0.439378-1.48789-0.559208-1.44795-0.679038-1.39136-0.792211-1.31813-0.898727-1.23825-1.00524-1.1517-1.10177-1.0585-1.18832-0.958642-1.27486-0.852127-1.34809-0.738954-1.40801-0.62578-1.46792-0.50595-1.51452-0.379463-1.54781-0.252975-1.58109-0.126488-1.59774 0-1.59774 0.126488-1.59774 0.252975-1.58109 0.379463-1.54781 0.499293-1.52118 0.619123-1.47458 0.738954-1.40801 0.852127-1.34809 0.958642-1.27819 1.0585-1.1983 1.1517-1.11176 1.1983-1.06849 1.1983-1.06849Z" fill="#1E1E1E" transform="matrix(1 0 0 1.00093 311.665 455.623)"/><path d="M1.35808-0.848798C1.35808-0.848798 1.55114-0.565865 1.93726 0 2.31672 0.572523 2.84264 1.30482 3.51502 2.19689 4.1874 3.0823 4.84314 3.87784 5.48224 4.58351 6.12133 5.28252 6.7571 5.95157 7.38953 6.59067 8.02197 7.23642 8.69435 7.91546 9.40668 8.62778 10.119 9.34011 10.9179 10.1157 11.8033 10.9545 12.682 11.8 13.5109 12.6488 14.2898 13.5009 15.0687 14.353 15.7843 15.0853 16.4367 15.6978 17.0891 16.3169 17.8081 16.9993 18.5937 17.7449 19.3792 18.4971 20.1315 19.1961 20.8505 19.8419 21.5695 20.4877 22.2385 21.0935 22.8576 21.6593 23.4768 22.2318 24.1025 22.831 24.735 23.4568 25.3674 24.0826 26.0198 24.7716 26.6922 25.5239 27.3646 26.2828 28.027 26.9552 28.6794 27.541 29.3385 28.1335 30.0408 28.7426 30.7864 29.3684 31.5254 30.0008 32.1944 30.6033 32.7936 31.1758 33.3927 31.755 34.0185 32.3342 34.6709 32.9134 35.3233 33.4992 35.9657 34.0518 36.5982 34.571 37.2306 35.0903 37.9329 35.6229 38.7052 36.1688 39.4708 36.7147 40.1398 37.2173 40.7123 37.6766 41.2849 38.1427 42.0271 38.4189 42.9392 38.5055 43.8512 38.592 44.3738 38.6087 44.507 38.5554 44.6335 38.4955 44.7699 38.4622 44.9164 38.4555 45.0562 38.4489 45.1927 38.4622 45.3258 38.4955 45.4656 38.5288 45.5954 38.5854 45.7153 38.6652 45.8284 38.7451 45.9316 38.8417 46.0248 38.9548 46.1114 39.0613 46.1779 39.1812 46.2245 39.3143 46.2711 39.4475 46.2944 39.5873 46.2944 39.7337 46.2944 39.8735 46.2745 40.01 46.2345 40.1432 46.1879 40.2763 46.1214 40.3995 46.0348 40.5126 45.9549 40.6258 45.8551 40.7257 45.7352 40.8122 45.6221 40.8921 45.4989 40.952 45.3658 40.9919 45.226 41.0319 45.0862 41.0485 44.9463 41.0419 44.8065 41.0352 44.6701 41.0053 44.5369 40.952 44.4038 40.9054 44.284 40.8355 44.1774 40.7423 44.0643 40.6558 43.9711 40.5492 43.8978 40.4228 43.8246 40.3029 43.7713 40.1764 43.7381 40.0433 43.7048 39.9035 43.6948 39.7637 43.7081 39.6239 43.7214 39.4841 43.758 39.3476 43.8179 39.2145 43.8779 39.088 43.9544 38.9715 44.0476 38.865 44.1475 38.7651 44.2573 38.6819 44.3772 38.6153 44.5036 38.5421 44.6368 38.4955 44.7766 38.4755 44.9164 38.4489 45.0562 38.4456 45.196 38.4655 45.3358 38.4855 45.4689 38.5288 45.5954 38.5953 45.7219 38.6619 45.8318 38.7451 45.925 38.845 46.0248 38.9448 46.1047 39.058 46.1646 39.1845 46.2245 39.3177 46.2645 39.4541 46.2845 39.5939 46.3044 39.7337 46.2978 39.8735 46.2645 40.0133 46.2379 40.1465 46.1879 40.2763 46.1147 40.4028 46.0415 40.5226 45.9516 40.6291 45.8451 40.7223 45.7386 40.8155 45.6853 40.8621 45.6853 40.8621 45.6853 40.8621 45.0262 41.0585 43.7081 41.4513 42.3833 41.8441 41.3082 41.8607 40.4827 41.5012 39.6638 41.1417 38.9215 40.709 38.2558 40.2031 37.5901 39.6971 36.9643 39.2178 36.3785 38.7651 35.7926 38.3058 35.1702 37.8065 34.5111 37.2672 33.8521 36.7346 33.1497 36.1388 32.4041 35.4798 31.6652 34.8207 31.0127 34.2182 30.4469 33.6723 29.8744 33.1198 29.2086 32.5239 28.4497 31.8848 27.6908 31.2391 26.9319 30.5634 26.1729 29.8577 25.414 29.152 24.7383 28.473 24.1458 27.8206 23.5533 27.1682 22.9475 26.5391 22.3284 25.9333 21.7159 25.3208 21.1334 24.7616 20.5809 24.2556 20.035 23.7497 19.3626 23.1372 18.5637 22.4183 17.7582 21.7059 16.9959 21.0036 16.2769 20.3112 15.5513 19.6255 14.7891 18.8966 13.9902 18.1243 13.1913 17.3454 12.4424 16.5799 11.7434 15.8276 11.051 15.0687 10.2888 14.2864 9.45661 13.4809 8.63111 12.6754 7.86553 11.9165 7.15986 11.2041 6.45419 10.4918 5.77515 9.80278 5.12275 9.13706 4.47034 8.46468 3.78131 7.72573 3.05567 6.9202 2.33669 6.10802 1.59108 5.19265 0.81884 4.17409 0.0599151 3.14887-0.492636 2.33669-0.838812 1.73754-1.18499 1.14505-1.38803 0.788883-1.44795 0.669053-1.50121 0.555879-1.54115 0.436049-1.56778 0.309562-1.58775 0.183074-1.59774 0.0565865-1.59774-0.069901-1.59108-0.196389-1.56778-0.322876-1.52784-0.449364-1.49455-0.575851-1.44462-0.692353-1.37805-0.798869-1.31148-0.912042-1.23159-1.01523-1.13839-1.10843-1.05184-1.20163-0.951985-1.28152-0.838812-1.34809-0.732296-1.42132-0.615795-1.47791-0.489307-1.51785-0.369477-1.55779-0.246318-1.58109-0.11983-1.58775 0.00665724-1.60107 0.133145-1.59774 0.259632-1.57777 0.38612-1.55114 0.509279-1.51452 0.629109-1.46792 0.748939-1.41466 0.858784-1.34809 0.958642-1.2682 1.06516-1.18832 1.15836-1.09844 1.23825-0.998586 1.31813-0.898727 1.35808-0.848798 1.35808-0.848798Z" fill="#1E1E1E" transform="matrix(1 0 0 1.00093 297.531 466.944)"/><path d="M0.199717-1.59774C0.199717-1.59774 0.492636-1.59441 1.07847-1.58775 1.67097-1.58775 2.39661-1.61771 3.25539-1.67762 4.10752-1.73088 4.95964-1.89398 5.81177-2.16693 6.6639-2.43988 7.41616-2.82933 8.06857-3.33528 8.72764-3.84788 9.31015-4.35051 9.8161-4.84314 10.322-5.34243 10.818-5.885 11.304-6.47084 11.7833-7.05002 11.7866-8.05859 11.314-9.49655 10.8347-10.9279 10.575-11.6934 10.5351-11.7933 10.4951-11.8932 10.4685-11.9963 10.4552-12.1029 10.4419-12.2027 10.4385-12.3059 10.4452-12.4124 10.4585-12.5189 10.4818-12.6221 10.5151-12.722 10.5551-12.8218 10.605-12.915 10.6649-13.0016 10.7182-13.0881 10.7847-13.168 10.8646-13.2412 10.9445-13.3078 11.031-13.3677 11.1242-13.421 11.2174-13.4676 11.314-13.5042 11.4138-13.5308 11.5137-13.5575 11.6169-13.5741 11.7234-13.5808 11.8299-13.5808 11.9331-13.5675 12.033-13.5408 12.1395-13.5209 12.2393-13.4876 12.3325-13.441 12.4257-13.3944 12.5123-13.3344 12.5922-13.2612 12.6721-13.1946 12.742-13.1181 12.8019-13.0315 12.8618-12.945 12.9184-12.8218 12.9716-12.6621 13.0249-12.5023 13.0482-12.3525 13.0415-12.2127 13.0282-12.0662 12.9983-11.9298 12.9517-11.8033 12.8984-11.6701 12.8252-11.5503 12.732-11.4438 12.6388-11.3306 12.5323-11.2374 12.4124-11.1642 12.2926-11.091 12.1628-11.041 12.023-11.0144 11.8898-10.9811 11.75-10.9711 11.6036-10.9844 11.4638-11.0044 11.3306-11.0444 11.2041-11.1043 11.0776-11.1575 10.9611-11.2341 10.8546-11.3339 10.7548-11.4338 10.6716-11.5437 10.605-11.6635 10.5384-11.79 10.4918-11.9231 10.4652-12.0629 10.4452-12.2027 10.4452-12.3425 10.4652-12.4823 10.4918-12.6221 10.5351-12.7553 10.595-12.8818 10.6616-13.0082 10.7481-13.1181 10.8546-13.2113 10.9545-13.3111 11.0677-13.391 11.1941-13.451 11.3273-13.5109 11.4638-13.5475 11.6036-13.5608 11.7434-13.5741 11.8832-13.5675 12.023-13.5408 12.1561-13.5075 12.2859-13.4576 12.4124-13.391 12.5323-13.3178 12.6388-13.2246 12.732-13.1114 12.8185-13.0049 12.8884-12.8884 12.9417-12.7619 12.9949-12.6288 13.0249-12.4923 13.0315-12.3525 13.0449-12.206 13.0315-12.0662 12.9916-11.9331 12.9517-11.7933 12.8951-11.6668 12.8218-11.5536 12.742-11.4338 12.6454-11.3306 12.5323-11.2441 12.4191-11.1575 12.2959-11.0943 12.1628-11.0543 12.0296-11.0077 11.8898-10.9844 11.7434-10.9844 11.6036-10.9844 11.4671-11.0044 11.3339-11.0444 11.2008-11.091 11.0776-11.1575 10.9645-11.2441 10.8513-11.3306 10.7548-11.4305 10.6749-11.5437 10.595-11.6635 10.5617-11.7101 10.575-11.6835 10.5883-11.6568 10.575-11.6934 10.5351-11.7933 10.4951-11.8932 10.4685-11.9963 10.4552-12.1029 10.4419-12.2027 10.4385-12.3059 10.4452-12.4124 10.4585-12.5189 10.4818-12.6221 10.5151-12.722 10.5551-12.8218 10.605-12.915 10.6649-13.0016 10.7182-13.0881 10.7847-13.168 10.8646-13.2412 10.9445-13.3078 11.031-13.3677 11.1242-13.421 11.2174-13.4676 11.314-13.5042 11.4138-13.5308 11.5137-13.5575 11.6169-13.5741 11.7234-13.5808 11.8299-13.5808 11.9331-13.5675 12.033-13.5408 12.1395-13.5209 12.2393-13.4876 12.3325-13.441 12.4257-13.3944 12.5123-13.3344 12.5922-13.2612 12.6721-13.1946 12.742-13.1181 12.8019-13.0315 12.8618-12.945 13.2246-12.5655 13.8903-11.8932 14.5627-11.2208 15.0121-10.5018 15.2384-9.73621 15.4648-8.96397 15.5413-8.21836 15.4681-7.49938 15.3949-6.77374 15.1552-6.06142 14.7491-5.36241 14.3364-4.65674 13.8504-3.95107 13.2912-3.2454 12.732-2.54639 12.1927-1.93726 11.6735-1.41799 11.1475-0.898727 10.575-0.426063 9.9559 0 9.33012 0.426063 8.58784 0.778897 7.72905 1.0585 6.86361 1.34476 6.06142 1.55779 5.32246 1.6976 4.57685 1.84406 3.75801 1.93726 2.86594 1.9772 1.96721 2.01049 1.23159 1.9539 0.659067 1.80744 0.0865441 1.66764-0.259632 1.58109-0.379463 1.54781-0.50595 1.51452-0.62578 1.46792-0.738954 1.40801-0.858784 1.34809-0.9653 1.27486-1.0585 1.18832-1.15836 1.10177-1.2449 1.00524-1.31813 0.898727-1.39136 0.792211-1.45128 0.679038-1.49788 0.559208-1.53782 0.439378-1.56778 0.31289-1.58775 0.179745-1.60107 0.0599152-1.59774-0.0632438-1.57777-0.189731-1.56445-0.322876-1.53449-0.449364-1.48789-0.569194-1.44129-0.689024-1.38138-0.802197-1.30815-0.908713-1.23492-1.01523-1.14837-1.11176-1.04852-1.1983-0.955314-1.28485-0.848798-1.35808-0.728968-1.41799-0.615795-1.47791-0.495964-1.52118-0.369477-1.54781-0.242989-1.58109-0.11983-1.59774 0-1.59774 0.133145-1.59774 0.199717-1.59774 0.199717-1.59774Z" fill="#1E1E1E" transform="matrix(1 0 0 1.00093 338.63 506.939)"/><path d="M0 0C1.80744-7.22976 9.0372-36.1588 10.8446-43.3886M0 0C1.80744-7.22976 9.0372-36.1588 10.8446-43.3886" stroke="#1E1E1E" stroke-width="0.998586" stroke-linecap="round" fill="none" transform="matrix(1 0 0 1.00093 268.153 449.187)"/><path d="M0 0C3.18549 0.718982 15.9075 3.61488 19.093 4.34385M0 0C3.18549 0.718982 15.9075 3.61488 19.093 4.34385" stroke="#1E1E1E" stroke-width="0.499293" stroke-linecap="round" fill="none" transform="matrix(1 0 0 1.00093 256.437 412.27)"/><path d="M0 0C3.25539 0.649081 16.267 3.25539 19.5224 3.90447M0 0C3.25539 0.649081 16.267 3.25539 19.5224 3.90447" stroke="#1E1E1E" stroke-width="0.499293" stroke-linecap="round" fill="none" transform="matrix(1 0 0 1.00093 253.4 423.563)"/><path d="M0 0C3.1056 0.649081 15.548 3.25539 18.6536 3.90447M0 0C3.1056 0.649081 15.548 3.25539 18.6536 3.90447" stroke="#1E1E1E" stroke-width="0.499293" stroke-linecap="round" fill="none" transform="matrix(1 0 0 1.00093 251.23 434.855)"/><path d="M0 0C1.58775-6.29109 7.95873-31.4555 9.54648-37.7465M0 0C1.58775-6.29109 7.95873-31.4555 9.54648-37.7465" stroke="#1E1E1E" stroke-width="0.499293" stroke-linecap="round" fill="none" transform="matrix(1 0 0 1.00093 256.003 444.844)"/></g></svg>