<?xml version="1.0" encoding="UTF-8" standalone="no"?>
<svg
   width="470"
   height="248"
   xml:space="preserve"
   overflow="hidden"
   version="1.1"
   id="svg20"
   sodipodi:docname="tut5.svg"
   inkscape:version="1.4.2 (f4327f4, 2025-05-13)"
   xmlns:inkscape="http://www.inkscape.org/namespaces/inkscape"
   xmlns:sodipodi="http://sodipodi.sourceforge.net/DTD/sodipodi-0.dtd"
   xmlns="http://www.w3.org/2000/svg"
   xmlns:svg="http://www.w3.org/2000/svg"><sodipodi:namedview
     id="namedview20"
     pagecolor="#ffffff"
     bordercolor="#000000"
     borderopacity="0.25"
     inkscape:showpageshadow="2"
     inkscape:pageopacity="0.0"
     inkscape:pagecheckerboard="0"
     inkscape:deskcolor="#d1d1d1"
     inkscape:zoom="1.7923387"
     inkscape:cx="100.98538"
     inkscape:cy="116.32846"
     inkscape:window-width="1920"
     inkscape:window-height="1133"
     inkscape:window-x="-8"
     inkscape:window-y="523"
     inkscape:window-maximized="1"
     inkscape:current-layer="g20" /><defs
     id="defs1"><clipPath
       id="clip0"><rect
         x="950"
         y="340"
         width="470"
         height="248"
         id="rect1" /></clipPath></defs><g
     clip-path="url(#clip0)"
     transform="translate(-950 -340)"
     id="g20"><path
       d="M0.649753 0.779703 341.85 1.40946 341.61 99.0723 0.269897 99.2822"
       fill="#E9ECEF"
       transform="matrix(0.323901 -0.946091 0.947257 0.323503 1012.98 618.193)"
       id="path1" /><path
       d="M0 0C74.0618-0.749715 147.224-2.33911 343.499 0M0 0C135.968-1.06959 271.197-1.07959 343.499 0M343.499 0C343.689 28.869 343.789 55.099 343.499 99.9819M343.499 0C343.379 33.3773 342.76 65.1852 343.499 99.9819M343.499 99.9819C226.294 102.771 109.558 100.942 0 99.9819M343.499 99.9819C211.04 99.6521 79.8796 100.332 0 99.9819M0 99.9819C-1.39947 71.1429-0.149943 44.613 0 0M0 99.9819C1.19954 74.1018 1.36948 47.9617 0 0"
       stroke="#1E1E1E"
       stroke-width="0.999619"
       stroke-linecap="round"
       fill="none"
       transform="matrix(0.323901 -0.946091 0.947257 0.323503 1012.98 618.193)"
       id="path2" /><path
       d="M45.8126 1.81931C55.9087 0.669745 70.4632 0.749715 82.7485 0.859673 95.0338 0.959635 108.779 1.17955 119.534 2.42908 130.3 3.6786 140.467 6.16765 147.304 8.33683 154.131 10.516 159.429 13.235 160.509 15.4741 161.588 17.7133 158.56 19.6325 153.781 21.7617 149.003 23.8909 141.376 26.35 131.83 28.2592 122.273 30.1685 108.649 32.5676 96.4733 33.2174 84.2979 33.8671 70.7631 33.0874 58.7476 32.1578 46.7422 31.2281 33.3373 29.4988 24.4107 27.6595 15.4841 25.8102 9.1965 23.3511 5.19802 21.092 1.19954 18.8228-1.23953 16.6137 0.41984 14.0746 2.07921 11.5356 7.13728 7.82702 15.1542 5.84777 23.1612 3.86853 42.4838 2.8989 48.5115 2.19916 54.5392 1.50943 50.7907 1.72934 51.3405 1.68936M65.4651-0.91965C76.6108-1.96925 90.8554-1.5794 102.671-0.62976 114.496 0.319878 127.322 2.93888 136.398 4.77818 145.485 6.61748 153.362 8.18688 157.15 10.396 160.929 12.6052 161.329 15.3342 159.099 18.0131 156.86 20.6921 150.833 24.3007 143.735 26.4699 136.648 28.6491 127.711 30.1685 116.546 31.0382 105.39 31.9178 89.6359 31.9878 76.7608 31.7379 63.8857 31.498 50.1909 30.6083 39.285 29.5887 28.3892 28.5691 18.0631 27.7594 11.3357 25.6402 4.60825 23.521-0.0199924 19.5126-1.06959 16.8736-2.12919 14.2346 0.119954 11.9255 5.02809 9.81626 9.93622 7.69707 18.6629 5.74781 28.3992 4.18841 38.1455 2.619 57.2182 0.899657 63.4658 0.429836 69.7235-0.0399848 65.565 1.0496 65.8949 1.36948"
       fill="#FFFFFF"
       transform="matrix(0.323901 -0.946091 0.947257 0.323503 1072.41 543.718)"
       id="path3" /><path
       d="M52.0202 1.63938C62.3862 0.539795 77.0507-0.0199924 89.266 0.139947 101.471 0.28989 114.856 1.10958 125.282 2.55903 135.708 4.00847 145.854 6.38757 151.792 8.83664 157.73 11.2857 160.909 14.6544 160.909 17.2734 160.919 19.8824 157.55 22.4515 151.832 24.5207 146.114 26.5899 136.748 28.3792 126.612 29.6987 116.466 31.0182 103.361 32.2277 91.0054 32.4277 78.6401 32.6276 64.3755 31.6879 52.45 30.8782 40.5346 30.0785 27.7294 29.2189 19.5026 27.5795 11.2757 25.9401 5.96773 23.4211 3.09882 21.032 0.219916 18.6429-0.639756 15.9139 2.23915 13.235 5.10806 10.546 11.1058 7.02732 20.3523 4.91813 29.5887 2.80893 50.6607 1.36948 57.698 0.549791 64.7354-0.259901 62.4862-0.349867 62.5762 0.0299886M81.1491-0.369859C92.8646-0.719726 106.36 1.34949 117.215 2.50904 128.061 3.6686 139.257 4.42831 146.254 6.5775 153.242 8.72668 157.54 12.7451 159.159 15.4041 160.779 18.0531 160.149 20.2723 155.961 22.5014 151.782 24.7306 143.475 27.0497 134.059 28.769 124.643 30.4784 111.947 32.0478 99.4721 32.7875 87.0069 33.5172 71.6327 34.017 59.2474 33.1874 46.8522 32.3477 34.147 29.7087 25.1404 27.7594 16.1239 25.8002 9.13652 23.8909 5.17803 21.4418 1.20954 19.0028-0.119954 15.654 1.36948 13.105 2.86891 10.556 6.93736 8.15689 14.1446 6.15766 21.3519 4.14842 33.6572 2.0992 44.603 1.08959 55.5588 0.0899658 73.8319 0.109958 79.8496 0.139947 85.8573 0.169935 80.6893 0.859673 80.6493 1.27951"
       stroke="#1E1E1E"
       stroke-width="0.999619"
       stroke-linecap="round"
       fill="none"
       transform="matrix(0.323901 -0.946091 0.947257 0.323503 1072.41 543.718)"
       id="path4" /><text
       fill="#e03131"
       font-family="Excalifont, Excalifont_MSFontService, sans-serif"
       font-weight="400"
       font-size="28.0029px"
       transform="scale(1.0006151,0.99938525)"
       id="text4"
       x="1282.1351"
       y="531.93671"
       style="stroke-width:1.0001">Different</text><text
       fill="#e03131"
       font-family="Excalifont, Excalifont_MSFontService, sans-serif"
       font-weight="400"
       font-size="28.0029px"
       transform="scale(1.0006151,0.99938525)"
       id="text5"
       x="1146.5685"
       y="566.95819"
       style="stroke-width:1.0001">material behaviours</text><path
       d="M0 0C108.655 0.199898 216.23-0.279857 477.537 0M0 0C108.565-0.379806 217.449-0.359817 477.537 0M477.537 0C479.246 92.7327 478.746 184.606 477.537 254.23M477.537 0C479.006 54.5922 479.016 109.474 477.537 254.23M477.537 254.23C363.335 253.251 247.994 254.35 0 254.23M477.537 254.23C333.38 255.999 188.884 256.279 0 254.23M0 254.23C1.77909 192.692 1.08944 130.843 0 0M0 254.23C-1.33932 176.28-1.42927 96.8206 0 0"
       stroke="#E03131"
       stroke-width="0.499745"
       stroke-linecap="round"
       fill="none"
       transform="matrix(1.00123 0 0 1 946.117 339.595)"
       id="path5" /><text
       fill="#1E1E1E"
       font-family="Excalifont,Excalifont_MSFontService,sans-serif"
       font-weight="400"
       font-size="28"
       transform="matrix(1.00072 0 0 0.99949 979.43 390)"
       id="text6">Part </text><text
       fill="#1E1E1E"
       font-family="Excalifont,Excalifont_MSFontService,sans-serif"
       font-weight="400"
       font-size="28"
       transform="matrix(1.00072 0 0 0.99949 1053.1 390)"
       id="text7">5</text><path
       d="M10.0549 0C34.8222-1.68914 61.3387-1.08944 103.177 0M10.0549 0C34.6823-0.389801 59.1199-0.469761 103.177 0M103.177 0C110.524 0.779603 111.573 4.75757 113.222 10.0549M103.177 0C107.705-1.03947 113.542 2.5487 113.222 10.0549M113.222 10.0549C112.043 18.1807 112.133 22.1687 113.222 30.1546M113.222 10.0549C112.173 16.9713 113.162 21.7389 113.222 30.1546M113.222 30.1546C111.423 36.7013 110.234 40.9691 103.177 40.1995M113.222 30.1546C113.662 36.0516 111.823 38.7602 103.177 40.1995M103.177 40.1995C72.2532 42.1685 39.8397 39.31 10.0549 40.1995M103.177 40.1995C75.9013 39.6998 46.8761 38.8502 10.0549 40.1995M10.0549 40.1995C2.31882 41.9386-1.02948 35.7918 0 30.1546M10.0549 40.1995C3.93799 38.7502-1.7691 36.7613 0 30.1546M0 30.1546C0.329832 20.5595-0.619684 16.2317 0 10.0549M0 30.1546C-0.169913 22.3586 0.0599694 16.4216 0 10.0549M0 10.0549C0.579704 2.38878 2.28883-1.18939 10.0549 0M0 10.0549C-1.74911 3.93799 5.57716-0.0099949 10.0549 0"
       stroke="#1E1E1E"
       stroke-width="1.99898"
       stroke-linecap="round"
       fill="none"
       transform="matrix(1.00123 0 0 1 969.302 361.91)"
       id="path7" /><path
       d="M0.799592 0C0.799592 0 0.789597 0.289852 0.769608 0.869557 0.749618 1.45592 0.746286 2.23886 0.759613 3.21836 0.766276 4.20452 0.846235 5.40391 0.99949 6.81652 1.15941 8.22914 1.35264 10.0482 1.57919 12.2737 1.81241 14.4926 2.04896 16.7315 2.28883 18.9903 2.52871 21.2492 2.77525 23.8145 3.02846 26.6864 3.28832 29.5516 3.47156 32.2602 3.57818 34.8123 3.69145 37.3576 3.84471 39.9696 4.03794 42.6483 4.22451 45.3269 4.35778 47.9022 4.43774 50.3743 4.52436 52.8464 4.58433 55.2652 4.61765 57.6306 4.65096 60.0027 4.74758 62.2649 4.9075 64.4172 5.06742 66.5761 5.18069 68.4884 5.24732 70.1542 5.31396 71.8201 5.3606 73.3026 5.38725 74.602 5.41391 75.8946 5.31729 77.3139 5.0974 78.8598 4.87751 80.4057 4.75424 81.2086 4.72759 81.2686 4.70094 81.3352 4.66429 81.3952 4.61765 81.4485 4.57767 81.5018 4.52436 81.5484 4.45773 81.5884 4.39776 81.6284 4.33446 81.655 4.26782 81.6684 4.20119 81.6817 4.13123 81.685 4.05793 81.6784 3.98464 81.6717 3.918 81.6517 3.85803 81.6184 3.7914 81.5917 3.73143 81.5551 3.67812 81.5084 3.63148 81.4551 3.5915 81.3985 3.55819 81.3385 3.52487 81.2786 3.50155 81.2119 3.48822 81.1386 3.4749 81.072 3.4749 81.002 3.48822 80.9287 3.50155 80.8621 3.52487 80.7955 3.55819 80.7288 3.58484 80.6689 3.62482 80.6156 3.67812 80.5689 3.73143 80.5156 3.78807 80.4756 3.84804 80.449 3.91467 80.4157 3.98464 80.3957 4.05793 80.389 4.12456 80.3824 4.19453 80.3857 4.26782 80.399 4.33446 80.419 4.39776 80.4456 4.45773 80.479 4.5177 80.5123 4.571 80.5556 4.61765 80.6089 4.66429 80.6689 4.70094 80.7288 4.72759 80.7888 4.75424 80.8554 4.7709 80.9254 4.77756 80.9987 4.77756 81.0653 4.76757 81.1353 4.74758 81.2086 4.73425 81.2752 4.7076 81.3385 4.66762 81.3985 4.62764 81.4585 4.57767 81.5084 4.5177 81.5484 4.46439 81.5951 4.40442 81.6284 4.33779 81.6484 4.27116 81.6684 4.20119 81.6784 4.1279 81.6784 4.0546 81.6784 3.98464 81.6684 3.918 81.6484 3.85137 81.6284 3.7914 81.5951 3.73809 81.5484 3.67812 81.5084 3.62815 81.4585 3.58817 81.3985 3.54819 81.3385 3.51821 81.2752 3.49822 81.2086 3.48489 81.142 3.47823 81.072 3.47823 80.9987 3.48489 80.9321 3.48822 80.8988 3.48822 80.8988 3.48822 80.8988 3.50488 80.1791 3.5382 78.7399 3.57818 77.3006 3.58151 75.9413 3.54819 74.6619 3.51487 73.3759 3.4649 71.91 3.39827 70.2642 3.32497 68.6184 3.20836 66.6993 3.04845 64.5071 2.88853 62.3082 2.79191 60.0327 2.75859 57.6806 2.72528 55.3218 2.66531 52.9197 2.57869 50.4743 2.49873 48.0222 2.36546 45.4468 2.17889 42.7482 1.98565 40.0562 1.83906 37.4476 1.73911 34.9222 1.63916 32.4035 1.47258 29.7148 1.23937 26.8563 0.99949 23.9978 0.766276 21.4357 0.539725 19.1702 0.313174 16.9047 0.106612 14.6592-0.0799592 12.4337-0.266531 10.2081-0.426449 8.3624-0.559715 6.89648-0.699643 5.43056-0.766276 4.20452-0.759613 3.21836-0.746286 2.23886-0.749618 1.45592-0.769608 0.869557-0.789597 0.289852-0.796261-0.0299847-0.789597-0.0899541-0.782934-0.156587-0.766276-0.219888-0.739623-0.279857-0.719633-0.339827-0.689648-0.396465-0.649669-0.449771-0.616352-0.503077-0.576373-0.54972-0.52973-0.589699-0.476424-0.636342-0.423118-0.67299-0.369811-0.699643-0.309842-0.73296-0.249873-0.756281-0.189903-0.769608-0.12327-0.789597-0.0599694-0.799592 0-0.799592 0.0599694-0.799592 0.12327-0.789597 0.189903-0.769608 0.249873-0.756281 0.309842-0.73296 0.369811-0.699643 0.423118-0.67299 0.476424-0.636342 0.52973-0.589699 0.576373-0.54972 0.616352-0.503077 0.649669-0.449771 0.689648-0.396465 0.719633-0.339827 0.739623-0.279857 0.766276-0.219888 0.782934-0.156587 0.789597-0.0899541 0.796261-0.0299847 0.799592 0 0.799592 0Z"
       fill="#1E1E1E"
       transform="matrix(1.00123 0 0 1 1243.03 365.445)"
       id="path8" /><path
       d="M-0.249873-0.759613C-0.249873-0.759613 0.189903-0.892878 1.06945-1.15941 1.96233-1.42594 3.05844-1.62917 4.35778-1.7691 5.66378-1.90236 7.23964-2.07228 9.08537-2.27884 10.9311-2.47874 12.98-2.69196 15.2322-2.91851 17.4844-3.15173 19.8932-3.3916 22.4585-3.63815 25.0239-3.87802 27.6592-4.12456 30.3645-4.37777 33.0631-4.62431 36.015-4.87418 39.22-5.12739 42.4184-5.38059 45.7966-5.63379 49.3548-5.887 52.9064-6.14687 56.6111-6.40673 60.4692-6.6666 64.3205-6.91981 68.2352-7.17301 72.2132-7.42621 76.1978-7.67942 80.2058-7.93262 84.2371-8.18583 88.2683-8.44569 92.2396-8.70223 96.151-8.95543 100.062-9.20864 103.87-9.46517 107.575-9.72504 111.287-9.98491 114.808-10.2414 118.14-10.4946 121.471-10.7479 124.51-10.9278 127.255-11.0344 130-11.141 132.469-11.211 134.661-11.2443 136.854-11.2776 138.486-11.2942 139.559-11.2942 140.638-11.3009 141.211-11.2976 141.278-11.2842 141.351-11.2776 141.418-11.2576 141.478-11.2243 141.545-11.191 141.601-11.1477 141.648-11.0943 141.701-11.0477 141.741-10.9911 141.768-10.9244 141.801-10.8645 141.821-10.7978 141.828-10.7245 141.841-10.6579 141.838-10.5879 141.818-10.5146 141.804-10.448 141.781-10.3847 141.748-10.3247 141.714-10.2581 141.671-10.2015 141.618-10.1548 141.564-10.1082 141.505-10.0715 141.438-10.0449 141.371-10.0182 141.305-10.0016 141.238-9.9949 141.165-9.9949 141.095-10.0016 141.028-10.0149 140.955-10.0349 140.892-10.0649 140.838-10.1048 140.778-10.1382 140.725-10.1848 140.678-10.2448 140.638-10.2981 140.605-10.3581 140.578-10.4247 140.552-10.4913 140.538-10.5613 140.538-10.6346 140.538-10.7012 140.548-10.7678 140.568-10.8345 140.588-10.9078 140.622-10.9711 140.668-11.0244 140.708-11.0843 140.758-11.1343 140.818-11.1743 140.872-11.2143 140.931-11.2443 140.998-11.2643 141.071-11.2842 141.141-11.2942 141.208-11.2942 141.281-11.2876 141.351-11.2743 141.418-11.2543 141.485-11.2276 141.545-11.191 141.598-11.1443 141.651-11.0977 141.698-11.0444 141.738-10.9844 141.778-10.9244 141.804-10.8611 141.818-10.7945 141.831-10.7279 141.834-10.6579 141.828-10.5846 141.828-10.5113 141.811-10.4447 141.778-10.3847 141.751-10.3181 141.714-10.2581 141.668-10.2048 141.621-10.1515 141.564-10.1082 141.498-10.0749 141.438-10.0415 141.375-10.0182 141.308-10.0049 141.235-9.99157 141.198-9.98491 141.198-9.98491 141.198-9.98491 140.662-9.96825 139.589-9.93493 138.516-9.89495 136.887-9.84498 134.701-9.78501 132.522-9.72504 130.07-9.64175 127.345-9.53514 124.62-9.42186 121.588-9.23862 118.25-8.98542 114.918-8.73221 111.393-8.47901 107.675-8.22581 103.964-7.9726 100.156-7.7194 96.2509-7.46619 92.3396-7.21299 88.365-6.95978 84.327-6.70658 80.2957-6.45338 76.2911-6.20017 72.3131-5.94697 68.3352-5.6871 64.4205-5.4339 60.5691-5.18736 56.7178-4.93415 53.0163-4.68095 49.4648-4.42774 45.9066-4.1812 42.5317-3.93133 39.3399-3.67812 36.1482-3.42492 33.2031-3.17172 30.5044-2.91851 27.7992-2.66531 25.1638-2.41544 22.5985-2.16889 20.0398-1.92902 17.6343-1.69247 15.3822-1.45926 13.1366-1.22604 11.0877-1.01282 9.23529-0.819582 7.3829-0.619684 5.85701-0.463097 4.65763-0.349822 3.45824-0.243209 2.4221-0.0333164 1.54921 0.279857 0.682985 0.599694 0.216556 0.766276 0.149924 0.779603 0.0899541 0.792929 0.0299847 0.799592-0.0299847 0.799592-0.0899541 0.792929-0.153255 0.779603-0.219888 0.759613-0.279857 0.746286-0.339827 0.722965-0.399796 0.689648-0.453102 0.656332-0.503077 0.616352-0.54972 0.56971-0.596363 0.52973-0.636342 0.479755-0.669659 0.419786-0.702975 0.36648-0.73296 0.309842-0.759613 0.249873-0.779603 0.189903-0.789597 0.126602-0.789597 0.0599694-0.796261-4.46807e-10-0.796261-0.0599694-0.789597-0.119939-0.776271-0.186572-0.756281-0.249873-0.729628-0.309842-0.702975-0.369811-0.67299-0.426449-0.639674-0.479755-0.599694-0.526398-0.553051-0.573041-0.499745-0.619684-0.453102-0.659664-0.399796-0.69298-0.339827-0.719633-0.279857-0.746286-0.249873-0.759613-0.249873-0.759613Z"
       fill="#1E1E1E"
       transform="matrix(1.00123 0 0 1 1246.85 449.453)"
       id="path9" /><path
       d="M0.759613 0.249873C0.759613 0.249873 0.682985 0.466429 0.52973 0.899541 0.376475 1.33932 0.279857 1.77576 0.239878 2.20887 0.199898 2.64199 0.0966174 3.19837-0.0699643 3.87802-0.249873 4.55768-0.369811 5.1607-0.429781 5.6871-0.496414 6.22016-0.546388 6.67326-0.579704 7.04641-0.613021 7.41955-0.633011 7.76271-0.639674 8.07588-0.653 8.38239-0.666327 8.56896-0.679654 8.6356-0.69298 8.70223-0.71297 8.76553-0.739623 8.8255-0.772939 8.88547-0.809587 8.94211-0.849567 8.99541-0.889546 9.04872-0.936189 9.09536-0.989496 9.13534-1.04946 9.17532-1.10943 9.20864-1.1694 9.23529-1.22937 9.26194-1.29267 9.2786-1.35931 9.28527-1.42594 9.29859-1.49257 9.30192-1.55921 9.29526-1.62584 9.2886-1.69247 9.27527-1.7591 9.25528-1.81907 9.23529-1.87904 9.20864-1.93901 9.17532-1.99232 9.13534-2.04229 9.09203-2.08893 9.04539-2.13558 8.99874-2.17556 8.94544-2.20887 8.88547-2.24219 8.8255-2.26884 8.76553-2.28883 8.70556-2.30882 8.63893-2.31882 8.5723-2.31882 8.50566-2.32548 8.43903-2.32881 8.15251-2.32881 7.6461-2.32215 7.14636-2.23886 6.56998-2.07894 5.91698-1.91902 5.26398-1.80575 4.68095-1.73911 4.16788-1.67914 3.66147-1.63583 3.15506-1.60918 2.64865-1.57586 2.13558-1.55254 1.69913-1.53922 1.33932-1.53255 0.979501-1.58919 0.616352-1.70913 0.249873-1.83573-0.116607-2.0956-0.573041-2.48873-1.11943-2.88186-1.65915-3.20836-1.98899-3.46823-2.10892-3.73476-2.22886-3.88469-2.31549-3.918-2.36879-3.95132-2.4221-3.97797-2.47874-3.99796-2.53871-4.01795-2.59868-4.03128-2.65864-4.03794-2.71861-4.03794-2.77858-4.03461-2.84188-4.02795-2.90852-4.01462-2.96849-3.99463-3.02512-3.96798-3.07843-3.94799-3.1384-3.918-3.19171-3.87802-3.23835-3.84471-3.29166-3.8014-3.3383-3.74809-3.37828-3.70145-3.41159-3.65147-3.44158-3.59817-3.46823-3.5382-3.49488-3.47823-3.51487-3.41826-3.5282-3.35829-3.54153-3.29832-3.54819-3.23835-3.54819-3.17172-3.54153-3.10842-3.5282-3.04845-3.50821-2.98848-3.49488-2.93184-3.47156-2.87853-3.43825-2.82523-3.40493-2.77858-3.36828-2.7386-3.3283-2.69196-3.28166-2.41877-3.15839-1.91902-2.95849-1.42594-2.75859-0.959511-2.54537-0.519735-2.31882-0.0866225-2.09227 0.453102-1.77576 1.09944-1.3693 1.75244-0.969506 2.37212-0.52973 2.95849-0.0499745 3.54486 0.423118 4.06459 0.966174 4.5177 1.57919 4.9708 2.19888 5.13738 2.84855 5.01744 3.5282 4.90417 4.21452 4.56101 4.80089 3.98797 5.2873 3.40826 5.77372 2.20887 6.24682 0.389801 6.70658-1.42261 7.16635-2.36213 7.39623-2.42876 7.39623-2.50206 7.39623-2.57202 7.38623-2.63865 7.36624-2.70529 7.34625-2.76859 7.31627-2.82856 7.27629-2.88853 7.23631-2.9385 7.18634-2.97848 7.12637-3.01846 7.07306-3.04845 7.01309-3.06844 6.94646-3.09509 6.87983-3.10508 6.80986-3.09842 6.73657-3.09842 6.66327-3.08843 6.59331-3.06844 6.52667-3.04178 6.46004-3.00847 6.40007-2.96849 6.34676-2.92184 6.29346-2.86854 6.24682-2.80857 6.20684-2.7486 6.16686-2.6853 6.13687-2.61866 6.11688-2.55203 6.10355-2.48207 6.10022-2.40877 6.10689-2.33548 6.10689-2.26884 6.12021-2.20887 6.14687-2.14224 6.18018-2.08227 6.22016-2.02897 6.26681-1.97566 6.31345-1.93235 6.36675-1.89903 6.42672-1.85905 6.48669-1.8324 6.54999-1.81907 6.61663-1.80575 6.68992-1.80241 6.75989-1.80908 6.82652-1.8224 6.89982-1.84239 6.96645-1.86905 7.02642-1.90236 7.09305-1.94234 7.15302-1.98899 7.20633-2.04229 7.25297-2.09893 7.29295-2.1589 7.32626-2.22553 7.35958-2.29216 7.37957-2.3588 7.38623-2.43209 7.39956-2.50206 7.39956-2.56869 7.38623-2.64199 7.37291-2.70862 7.34959-2.76859 7.31627-2.82856 7.28295-2.8852 7.23964-2.9385 7.18634-2.98514 7.13303-3.02179 7.07306-3.04845 7.00643-3.0751 6.94646-3.09176 6.87983-3.09842 6.80653-3.10508 6.73323-3.10175 6.66327-3.08843 6.59664-3.06844 6.53-3.04178 6.4667-3.00847 6.40673-2.96849 6.34676-2.92184 6.29346-2.86854 6.24682-2.80857 6.20017-2.7486 6.16686-2.68863 6.14687-2.622 6.12021-2.58868 6.10689-2.58868 6.10689-2.58868 6.10689-1.80241 5.85701-0.229883 5.35727 1.33599 4.85752 2.39545 4.33113 2.9485 3.77807 3.50821 3.23169 3.62815 2.77858 3.30831 2.41877 2.98848 2.05895 2.56203 1.65915 2.02897 1.21938 1.50257 0.786266 0.932858 0.379806 0.319837 0-0.286521-0.379806-0.816251-0.686317-1.26935-0.919531-1.72246-1.15275-2.26884-1.43927-2.90852-1.77909-3.54819-2.11892-3.88469-2.31549-3.918-2.36879-3.95132-2.4221-3.97797-2.47874-3.99796-2.53871-4.01795-2.59868-4.03128-2.65864-4.03794-2.71861-4.03794-2.77858-4.03461-2.84188-4.02795-2.90852-4.01462-2.96849-3.99463-3.02512-3.96798-3.07843-3.94799-3.1384-3.918-3.19171-3.87802-3.23835-3.84471-3.29166-3.8014-3.3383-3.74809-3.37828-3.70145-3.41159-3.65147-3.44158-3.59817-3.46823-3.5382-3.49488-3.47823-3.51487-3.41826-3.5282-3.35829-3.54153-3.29832-3.54819-3.23835-3.54819-3.17172-3.54153-3.10842-3.5282-3.04845-3.50821-2.98848-3.49488-2.93184-3.47156-2.87853-3.43825-2.82523-3.40493-2.77858-3.36828-2.7386-3.3283-2.69196-3.28166-2.55536-3.19504-2.32881-3.06844-2.10226-2.94183-1.85905-2.71861-1.59918-2.39878-1.33932-2.07894-1.09278-1.72246-0.859562-1.32932-0.633011-0.942853-0.439776-0.48975-0.279857 0.0299847-0.119939 0.556383-0.0466429 1.00949-0.0599694 1.38929-0.0666327 1.7691-0.0832909 2.22886-0.109944 2.76859-0.129934 3.30831-0.173245 3.86803-0.239878 4.44773-0.299847 5.02077-0.393133 5.57383-0.519735 6.10689-0.653 6.63329-0.709638 7.16968-0.689648 7.71607-0.669659 8.26245-0.666327 8.56896-0.679654 8.6356-0.69298 8.70223-0.71297 8.76553-0.739623 8.8255-0.772939 8.88547-0.809587 8.94211-0.849567 8.99541-0.889546 9.04872-0.936189 9.09536-0.989496 9.13534-1.04946 9.17532-1.10943 9.20864-1.1694 9.23529-1.22937 9.26194-1.29267 9.2786-1.35931 9.28527-1.42594 9.29859-1.49257 9.30192-1.55921 9.29526-1.62584 9.2886-1.69247 9.27527-1.7591 9.25528-1.81907 9.23529-1.87904 9.20864-1.93901 9.17532-1.99232 9.13534-2.04229 9.09203-2.08893 9.04539-2.13558 8.99874-2.17556 8.94544-2.20887 8.88547-2.24219 8.8255-2.26884 8.76553-2.28883 8.70556-2.30882 8.63893-2.31882 8.5723-2.31882 8.50566-2.32548 8.43903-2.32215 8.24913-2.30882 7.93595-2.28883 7.62278-2.26551 7.2663-2.23886 6.8665-2.20554 6.4667-2.1489 5.96696-2.06895 5.36726-1.98232 4.76757-1.85572 4.16454-1.68914 3.55819-1.51589 2.95183-1.38929 2.38545-1.30933 1.85905-1.22271 1.33265-1.10943 0.846235-0.969506 0.399796-0.829577-0.0333163-0.746286-0.279857-0.719633-0.339827-0.69298-0.399796-0.659664-0.453102-0.619684-0.499745-0.573041-0.553051-0.526398-0.599694-0.479755-0.639674-0.426449-0.67299-0.369811-0.702975-0.309842-0.729628-0.249873-0.756281-0.186572-0.776271-0.119939-0.789597-0.0599694-0.796261 -3.8838e-16-0.796261 0.0599694-0.789597 0.126602-0.789597 0.189903-0.779603 0.249873-0.759613 0.309842-0.73296 0.36648-0.702975 0.419786-0.669659 0.479755-0.636342 0.52973-0.596363 0.56971-0.54972 0.616352-0.503077 0.656332-0.453102 0.689648-0.399796 0.722965-0.339827 0.746286-0.279857 0.759613-0.219888 0.779603-0.153255 0.792929-0.0899541 0.799592-0.0299847 0.799592 0.0299847 0.792929 0.0899541 0.779603 0.149924 0.766276 0.216556 0.759613 0.249873 0.759613 0.249873Z"
       fill="#1E1E1E"
       transform="matrix(1.00123 0 0 1 1390.61 436.47)"
       id="path10" /><path
       d="M0-0.799592C0-0.799592 0.14326-0.802924 0.429781-0.809587 0.722965-0.816251 1.19606-0.889546 1.84906-1.02948 2.50872-1.17607 3.19837-1.34931 3.918-1.54921 4.6443-1.75577 5.40391-1.9057 6.19684-1.99898 6.98977-2.09893 7.62278-2.16556 8.09587-2.19888 8.5623-2.23886 8.82883-2.25885 8.89546-2.25885 8.95543-2.25885 9.01874-2.24885 9.08537-2.22886 9.152-2.21554 9.2153-2.19222 9.27527-2.1589 9.32858-2.13225 9.38188-2.0956 9.43519-2.04896 9.48183-2.00231 9.52514-1.95234 9.56512-1.89903 9.59844-1.84573 9.62842-1.78909 9.65508-1.72912 9.67507-1.66249 9.68839-1.59585 9.69506-1.52922 9.70838-1.46925 9.70838-1.40595 9.69506-1.33932 9.68839-1.27268 9.67507-1.20938 9.65508-1.14941 9.62842-1.08278 9.59511-1.02281 9.55513-0.969506 9.52181-0.9162 9.4785-0.869557 9.42519-0.829577 9.37855-0.782934 9.32525-0.742955 9.26528-0.709638 9.20531-0.682985 9.14534-0.662995 9.08537-0.649669 9.01874-0.629679 8.73555-0.459766 8.2358-0.139929 7.74272 0.166582 7.16635 0.439776 6.50668 0.679654 5.85368 0.919531 5.25066 1.15608 4.6976 1.38929 4.14455 1.62917 3.57151 1.80575 2.97848 1.91902 2.39211 2.03896 1.80908 2.11892 1.22937 2.1589 0.656332 2.19888 0.196566 2.13891-0.149924 1.97899-0.503077 1.81907-0.826245 1.61251-1.11943 1.35931-1.40595 1.1061-1.63583 0.729628-1.80908 0.229883-1.98899-0.269862-2.02563-0.802924-1.91902-1.3693-1.81907-1.93568-1.66582-2.54204-1.45926-3.18837-1.25936-3.84137-0.966174-4.60765-0.579704-5.4872-0.193235-6.36675 0.149924-7.26963 0.449771-8.19582 0.749618-9.12202 1.12276-9.95826 1.5692-10.7045 2.01564-11.4575 2.55536-12.1005 3.18837-12.6336 3.82139-13.1666 4.41442-13.3732 4.96747-13.2532 5.52052-13.1266 6.0136-12.6269 6.44671-11.754 6.87983-10.8811 7.17301-9.8783 7.32626-8.74554 7.48618-7.61279 7.66276-6.46337 7.856-5.2973 8.04257-4.12456 8.21581-2.91185 8.37573-1.65915 8.52899-0.406459 8.61228 0.253204 8.6256 0.319837 8.63893 0.393133 8.64226 0.463097 8.6356 0.52973 8.62227 0.603026 8.60228 0.669659 8.57563 0.729628 8.54231 0.796261 8.50233 0.852899 8.45569 0.899541 8.40238 0.952848 8.34575 0.996159 8.28578 1.02948 8.21914 1.05613 8.15251 1.07612 8.08588 1.08944 8.01258 1.09611 7.94262 1.09611 7.87598 1.08944 7.80269 1.07612 7.73606 1.04946 7.67609 1.00949 7.61612 0.976169 7.56281 0.932858 7.51617 0.879552 7.46286 0.832909 7.42288 0.776271 7.39623 0.709638 7.36958 0.643005 7.35292 0.576373 7.34625 0.50974 7.33959 0.436444 7.34625 0.36648 7.36624 0.299847 7.37957 0.226551 7.40622 0.159918 7.4462 0.099949 7.47952 0.0399796 7.52616-0.00666327 7.58613-0.0399796 7.63944-0.0866225 7.69941-0.12327 7.76604-0.149924 7.83267-0.176577 7.89931-0.189903 7.96594-0.189903 8.03923-0.189903 8.1092-0.179908 8.17583-0.159918 8.24247-0.139929 8.30577-0.109944 8.36574-0.0699643 8.4257-0.0299847 8.47568 0.0166582 8.51566 0.0699643 8.55564 0.12327 8.58562 0.18324 8.60561 0.249873 8.63227 0.316505 8.64226 0.38647 8.6356 0.459766 8.6356 0.533062 8.6256 0.603026 8.60561 0.669659 8.57896 0.736291 8.54231 0.796261 8.49567 0.849567 8.45569 0.902873 8.40571 0.949516 8.34575 0.989496 8.28578 1.02948 8.22247 1.05946 8.15584 1.07945 8.08255 1.09278 8.01258 1.09611 7.94595 1.08944 7.87265 1.08944 7.80269 1.07612 7.73606 1.04946 7.67609 1.01615 7.61945 0.976169 7.56614 0.929526 7.51284 0.882883 7.46619 0.829577 7.42621 0.769608 7.3929 0.709638 7.37624 0.679654 7.37624 0.679654 7.37624 0.679654 7.18634 0.0299847 6.80653-1.26935 6.42672-2.56869 6.13354-3.81805 5.92698-5.01744 5.72042-6.21683 5.57049-7.31294 5.47721-8.30577 5.38392-9.29859 5.19069-10.1781 4.8975-10.9444 4.59766-11.7107 4.29115-11.9173 3.97797-11.5641 3.6648-11.2176 3.31165-10.7212 2.91851-10.0749 2.51872-9.43519 2.16556-8.62893 1.85905-7.6561 1.54588-6.68326 1.20938-5.78372 0.849567-4.95747 0.496414-4.13123 0.229883-3.40826 0.0499745-2.78858-0.12327-2.17556-0.246541-1.57253-0.319837-0.979501-0.393133-0.38647-0.289852 0.0266531-0.0099949 0.259868 0.263199 0.506409 0.629679 0.606358 1.08944 0.559715 1.55587 0.513072 2.02563 0.443107 2.49873 0.349822 2.97848 0.256536 3.50488 0.0866225 4.07792-0.159918 4.65763-0.413123 5.26398-0.653 5.89699-0.879552 6.52334-1.1061 7.16301-1.39262 7.81602-1.73911 8.46902-2.0856 8.82883-2.25885 8.89546-2.25885 8.95543-2.25885 9.01874-2.24885 9.08537-2.22886 9.152-2.21554 9.21197-2.19222 9.26528-2.1589 9.32525-2.13225 9.38188-2.0956 9.43519-2.04896 9.48183-2.00231 9.52514-1.95234 9.56512-1.89903 9.59844-1.84573 9.62842-1.78909 9.65508-1.72912 9.67507-1.66249 9.68839-1.59918 9.69506-1.53922 9.70838-1.47258 9.70838-1.40595 9.69506-1.33932 9.68839-1.27268 9.67507-1.20938 9.65508-1.14941 9.62842-1.08278 9.59511-1.02281 9.55513-0.969506 9.52181-0.9162 9.4785-0.869557 9.42519-0.829577 9.37855-0.782934 9.32525-0.742955 9.26528-0.709638 9.20531-0.682985 9.14534-0.662995 9.08537-0.649669 9.01874-0.629679 8.7522-0.599694 8.28578-0.559715 7.81935-0.519735 7.22965-0.459766 6.51668-0.379806 5.80371-0.30651 5.06742-0.16325 4.3078 0.0499745 3.54819 0.263199 2.78525 0.443107 2.01897 0.589699 1.25936 0.742955 0.73296 0.816251 0.439776 0.809587 0.146592 0.802924-0.0299847 0.796261-0.0899541 0.789597-0.156587 0.782934-0.219888 0.766276-0.279857 0.739623-0.339827 0.719633-0.396465 0.689648-0.449771 0.649669-0.503077 0.616352-0.54972 0.576373-0.589699 0.52973-0.636342 0.476424-0.67299 0.423118-0.699643 0.369811-0.73296 0.309842-0.756281 0.249873-0.769608 0.189903-0.789597 0.12327-0.799592 0.0599694-0.799592 0-0.799592-0.0599694-0.789597-0.12327-0.769608-0.189903-0.756281-0.249873-0.73296-0.309842-0.699643-0.369811-0.67299-0.423118-0.636342-0.476424-0.589699-0.52973-0.54972-0.576373-0.503077-0.616352-0.449771-0.649669-0.396465-0.689648-0.339827-0.719633-0.279857-0.739623-0.219888-0.766276-0.156587-0.782934-0.0899541-0.789597-0.0299847-0.796261 0-0.799592 0-0.799592Z"
       fill="#1E1E1E"
       transform="matrix(1.00123 0 0 1 1236.91 373.846)"
       id="path11" /><path
       d="M-0.249873 0.759613C-0.249873 0.759613-0.463097 0.689648-0.889546 0.54972-1.316 0.409791-1.70247 0.38647-2.04896 0.479755-2.40211 0.579704-2.77192 0.772939-3.15839 1.05946-3.54486 1.35264-3.87136 1.74911-4.13789 2.24885-4.41108 2.7486-4.69094 3.25168-4.97746 3.75808-5.25732 4.26449-5.3706 4.7076-5.31729 5.08741-5.27065 5.46721-4.99079 5.87367-4.47772 6.30678-3.96465 6.73323-3.42825 7.01975-2.86854 7.16635-2.30882 7.31294-1.84573 7.32626-1.47925 7.20633-1.11943 7.09305-0.902873 7.04308-0.829577 7.0564-0.762944 7.06973-0.696312 7.09305-0.629679 7.12637-0.563046 7.15302-0.503077 7.18967-0.449771 7.23631-0.389801 7.28295-0.339827 7.33626-0.299847 7.39623-0.253204 7.4562-0.216556 7.5195-0.189903 7.58613-0.16325 7.65277-0.14326 7.72273-0.129934 7.79603-0.116607 7.86932-0.113276 7.94262-0.119939 8.01591-0.126602 8.08255-0.139929 8.15251-0.159918 8.22581-0.186572 8.29244-0.219888 8.35574-0.259868 8.41571-0.299847 8.48234-0.34649 8.53898-0.399796 8.58562-0.453102 8.63893-0.50974 8.68224-0.56971 8.71556-0.636342 8.74887-0.702975 8.77553-0.769608 8.79552-0.842904 8.81551-0.912868 8.82883-0.979501 8.8355-1.0528 8.8355-1.40595 8.79218-2.03896 8.70556-2.67197 8.61894-3.20836 8.56896-3.64814 8.55564-4.08125 8.54231-4.55768 8.66891-5.07741 8.93544-5.59715 9.20198-6.19351 9.53847-6.8665 9.94493-7.53949 10.3514-8.13585 10.8411-8.65559 11.4142-9.18198 11.9806-9.6151 12.5869-9.95492 13.2333-10.2948 13.8796-10.5446 14.386-10.7045 14.7525-10.8645 15.1123-10.7845 15.3988-10.4647 15.612-10.1382 15.8186-9.66174 16.0418-9.03539 16.2817-8.41571 16.5149-7.70274 16.7015-6.89648 16.8414-6.09023 16.9747-4.85752 16.928-3.19837 16.7015-1.53922 16.4816-0.676322 16.3717-0.609689 16.3717-0.536393 16.3717-0.466429 16.3816-0.399796 16.4016-0.333163 16.4283-0.269862 16.4616-0.209893 16.5016-0.156587 16.5482-0.109944 16.6015-0.0699643 16.6615-0.0299847 16.7148-0.00333163 16.7781 0.0099949 16.8514 0.0299847 16.918 0.036648 16.9847 0.0299847 17.0513 0.0233214 17.1246 0.0099949 17.1946-0.0099949 17.2612-0.0299847 17.3278-0.0633011 17.3878-0.109944 17.4411-0.156587 17.4944-0.209893 17.5377-0.269862 17.571-0.336495 17.611-0.403128 17.6377-0.469761 17.651-0.536393 17.6643-0.606358 17.6677-0.679654 17.661-0.746286 17.6543-0.812919 17.6377-0.879552 17.611-0.946184 17.5777-1.00282 17.5377-1.04946 17.4911-1.10277 17.4378-1.14608 17.3811-1.1794 17.3212-1.21272 17.2612-1.23604 17.1946-1.24936 17.1213-1.25603 17.0546-1.25603 16.9847-1.24936 16.9114-1.23604 16.8447-1.21272 16.7781-1.1794 16.7115-1.14608 16.6515-1.10277 16.5982-1.04946 16.5516-0.996159 16.4983-0.939521 16.4583-0.879552 16.4316-0.812919 16.3983-0.746286 16.3783-0.679654 16.3717-0.606358 16.365-0.536393 16.3717-0.469761 16.3916-0.396465 16.405-0.329832 16.4283-0.269862 16.4616-0.209893 16.5016-0.156587 16.5482-0.109944 16.6015-0.0633011 16.6548-0.0266531 16.7148 -1.80319e-16 16.7814 0.0199898 16.8481 0.0299847 16.9147 0.0299847 16.9813 0.036648 17.0546 0.0299847 17.1246 0.0099949 17.1912-0.00333163 17.2579-0.0299847 17.3212-0.0699643 17.3811-0.109944 17.4411-0.159918 17.4911-0.219888 17.5311-0.273194 17.5777-0.333163 17.611-0.399796 17.631-0.466429 17.6577-0.499745 17.671-0.499745 17.671-0.499745 17.671-1.40595 17.8942-3.21836 18.3407-5.03077 18.7871-6.43339 18.9437-7.42621 18.8104-8.4257 18.6771-9.35523 18.4173-10.2148 18.0308-11.0744 17.6377-11.7074 17.1479-12.1138 16.5616-12.5203 15.9752-12.6369 15.2722-12.4636 14.4526-12.2837 13.6397-11.9639 12.8534-11.5041 12.0938-11.051 11.3342-10.4913 10.6246-9.82499 9.96492-9.15866 9.30526-8.45236 8.7622-7.70607 8.33575-6.96645 7.91596-6.22016 7.54948-5.46721 7.23631-4.71426 6.9298-4.09458 6.77988-3.60816 6.78654-3.12174 6.7932-2.55536 6.83651-1.90903 6.91647-1.26269 6.99643-0.902873 7.04308-0.829577 7.0564-0.762944 7.06973-0.696312 7.09305-0.629679 7.12637-0.563046 7.15302-0.503077 7.18967-0.449771 7.23631-0.389801 7.28295-0.339827 7.33626-0.299847 7.39623-0.253204 7.4562-0.216556 7.5195-0.189903 7.58613-0.16325 7.65277-0.14326 7.72273-0.129934 7.79603-0.116607 7.86932-0.113276 7.93929-0.119939 8.00592-0.126602 8.07921-0.139929 8.15251-0.159918 8.22581-0.186572 8.29244-0.219888 8.35574-0.259868 8.41571-0.299847 8.48234-0.34649 8.53898-0.399796 8.58562-0.453102 8.63893-0.50974 8.68224-0.56971 8.71556-0.636342 8.74887-0.702975 8.77553-0.769608 8.79552-0.842904 8.81551-0.912868 8.82883-0.979501 8.8355-1.0528 8.8355-1.09611 8.88214-1.10943 8.97542-1.1161 9.06871-1.49924 9.0887-2.25885 9.03539-3.0118 8.98209-3.59483 8.87881-4.00796 8.72555-4.42108 8.5723-4.93082 8.28911-5.53718 7.87598-6.14353 7.4562-6.54666 6.99976-6.74656 6.50668-6.95312 6.0136-7.04974 5.4339-7.03641 4.76757-7.02309 4.10791-6.85984 3.49155-6.54666 2.91851-6.23349 2.34547-5.85368 1.73245-5.40724 1.07945-4.96747 0.419786-4.4444-0.0899541-3.83804-0.449771-3.22502-0.816251-2.61533-1.03614-2.00898-1.10943-1.40262-1.18273-0.872888-1.14275-0.419786-0.989496 0.0266531-0.83624 0.279857-0.746286 0.339827-0.719633 0.399796-0.69298 0.453102-0.659664 0.499745-0.619684 0.553051-0.573041 0.599694-0.526398 0.639674-0.479755 0.67299-0.426449 0.702975-0.369811 0.729628-0.309842 0.756281-0.249873 0.776271-0.186572 0.789597-0.119939 0.796261-0.0599694 0.796261 -7.21277e-16 0.789597 0.0599694 0.789597 0.126602 0.779603 0.189903 0.759613 0.249873 0.73296 0.309842 0.702975 0.36648 0.669659 0.419786 0.636342 0.479755 0.596363 0.52973 0.54972 0.56971 0.503077 0.616352 0.453102 0.656332 0.399796 0.689648 0.339827 0.722965 0.279857 0.746286 0.219888 0.759613 0.153255 0.779603 0.0899541 0.792929 0.0299847 0.799592-0.0299847 0.799592-0.0899541 0.792929-0.149924 0.779603-0.216556 0.766276-0.249873 0.759613-0.249873 0.759613Z"
       fill="#1E1E1E"
       transform="matrix(1.00123 0 0 1 1385.26 454.035)"
       id="path12" /><path
       d="M0.799592 0C0.799592 0 0.809587 0.289852 0.829577 0.869557 0.842904 1.45592 0.852899 2.0223 0.859562 2.56869 0.866225 3.12174 0.716301 3.8547 0.409791 4.76757 0.116607 5.68044-0.256536 6.49002-0.709638 7.19633-1.15608 7.90264-1.73578 8.509-2.44875 9.0154-3.16172 9.52848-3.87469 9.81833-4.58766 9.88496-5.30063 9.95826-5.99361 9.83832-6.6666 9.52514-7.33293 9.21197-7.96594 8.73888-8.56563 8.10587-9.15866 7.47286-9.59511 6.76988-9.87497 5.99694-10.1548 5.21734-10.3447 4.51103-10.4447 3.87802-10.5513 3.24501-10.548 2.59868-10.4347 1.93901-10.3214 1.27935-10.0582 0.69298-9.64508 0.179908-9.23196-0.3265-8.7522-0.699643-8.20582-0.939521-7.66609-1.1794-7.04641-1.34598-6.34676-1.43927-5.65378-1.53922-4.8975-1.67914-4.07792-1.85905-3.25834-2.03896-2.43209-2.17223-1.59918-2.25885-0.759613-2.34547-0.0199898-2.39211 0.619684-2.39878 1.27268-2.40544 2.24552-2.53537 3.5382-2.78858 4.83753-3.04845 5.52052-3.18837 5.58715-3.20836 5.65378-3.22169 5.72375-3.22502 5.79704-3.21836 5.87034-3.2117 5.93697-3.19504 5.99694-3.16838 6.06358-3.14173 6.12354-3.10175 6.17685-3.04845 6.23016-3.0018 6.27347-2.9485 6.30678-2.88853 6.3401-2.82856 6.36342-2.76193 6.37675-2.68863 6.39008-2.622 6.39008-2.55203 6.37675-2.47874 6.37009-2.4121 6.3501-2.34547 6.31678-2.27884 6.28346-2.21887 6.24348-2.16223 6.19684-2.10892 6.14353-2.06228 6.08357-2.0223 6.01693-1.98899 5.95696-1.96233 5.89033-1.94234 5.81703-1.92902 5.7504-1.92235 5.68044-1.92568 5.60714-1.93901 5.54051-1.95234 5.47721-1.97566 5.41724-2.00898 5.35727-2.04896 5.30396-2.0956 5.25732-2.1489 5.21068-2.20221 5.1707-2.25885 5.13738-2.31882 5.11073-2.38545 5.0974-2.45541 5.0974-2.52871 5.09074-2.59534 5.09407-2.66531 5.1074-2.7386 5.12739-2.80524 5.15737-2.86854 5.19735-2.92851 5.23733-2.98848 5.28397-3.03845 5.33728-3.07843 5.39059-3.12507 5.45055-3.16172 5.51719-3.18837 5.58382-3.20836 5.65378-3.21836 5.72708-3.21836 5.80038-3.22502 5.87034-3.21503 5.93697-3.18837 6.00361-3.16838 6.06358-3.1384 6.11688-3.09842 6.17685-3.05844 6.22683-3.00847 6.26681-2.9485 6.30678-2.88853 6.33677-2.82523 6.35676-2.75859 6.37675-2.69196 6.38674-2.622 6.38674-2.5487 6.38674-2.48207 6.37342-2.41544 6.34676-2.3488 6.32011-2.28217 6.28346-2.2222 6.23682-2.16889 6.19684-2.10892 6.14687-2.06228 6.0869-2.02897 6.02693-1.98899 5.99694-1.969 5.99694-1.969 5.99694-1.969 5.28064-1.72246 3.84804-1.22937 2.41544-0.742955 1.38929-0.469761 0.769608-0.409791 0.156587-0.356485-0.533062-0.296515-1.29934-0.229883-2.05895-0.169913-2.88186-0.0599694-3.76808 0.099949-4.64763 0.273194-5.53051 0.419786-6.41673 0.539725-7.29628 0.659664-7.86932 0.83624-8.13585 1.06945-8.40238 1.30933-8.58562 1.63916-8.68557 2.05895-8.77886 2.47874-8.78552 2.95183-8.70556 3.47823-8.61894 4.00462-8.49567 4.55768-8.33575 5.13738-8.17583 5.71042-7.87598 6.24015-7.43621 6.72657-6.99643 7.20633-6.58331 7.56947-6.19684 7.81602-5.81037 8.06256-5.42057 8.18916-5.02744 8.19582-4.62764 8.20249-4.16788 8.04257-3.64814 7.71607-3.12841 7.38957-2.6753 6.9398-2.28883 6.36675-1.90903 5.80038-1.57586 5.15737-1.28934 4.43774-1.00949 3.7181-0.866225 3.09176-0.859562 2.5587-0.852899 2.01897-0.842904 1.45592-0.829577 0.869557-0.809587 0.289852-0.796261-0.0299847-0.789597-0.0899541-0.782934-0.156587-0.766276-0.219888-0.739623-0.279857-0.719633-0.339827-0.689648-0.396465-0.649669-0.449771-0.616352-0.503077-0.576373-0.54972-0.52973-0.589699-0.476424-0.636342-0.423118-0.67299-0.369811-0.699643-0.309842-0.73296-0.249873-0.756281-0.189903-0.769608-0.12327-0.789597-0.0599694-0.799592 -8.87726e-16-0.799592 0.0599694-0.799592 0.12327-0.789597 0.189903-0.769608 0.249873-0.756281 0.309842-0.73296 0.369811-0.699643 0.423118-0.67299 0.476424-0.636342 0.52973-0.589699 0.576373-0.54972 0.616352-0.503077 0.649669-0.449771 0.689648-0.396465 0.719633-0.339827 0.739623-0.279857 0.766276-0.219888 0.782934-0.156587 0.789597-0.0899541 0.796261-0.0299847 0.799592 0 0.799592 0Z"
       fill="#1E1E1E"
       transform="matrix(1.00123 0 0 1 1218.56 374.609)"
       id="path13" /><path
       d="M-0.719633-0.359817C-0.719633-0.359817-0.56971-0.649669-0.269862-1.22937 0.0166582-1.81574 0.376475-2.46208 0.809587-3.16838 1.23604-3.86803 1.60585-4.571 1.91902-5.27731 2.22553-5.97695 2.59534-6.77988 3.02846-7.68608 3.46157-8.58562 3.91467-9.52181 4.38776-10.4946 4.86086-11.4675 5.26398-12.437 5.59715-13.4032 5.93697-14.3693 6.33011-15.3655 6.77655-16.3916 7.22298-17.4178 7.60945-18.4273 7.93595-19.4201 8.26245-20.4129 8.64892-21.4257 9.09536-22.4585 9.53514-23.498 9.9949-24.5308 10.4747-25.557 10.9544-26.5831 11.3642-27.526 11.704-28.3855 12.0439-29.2451 12.3604-30.0747 12.6535-30.8743 12.9467-31.6805 13.3099-32.4901 13.743-33.303 14.1761-34.1226 14.5492-34.9089 14.8624-35.6618 15.1756-36.4081 15.4721-37.1611 15.752-37.9207 16.0318-38.6736 16.3883-39.4499 16.8214-40.2495 17.2479-41.0491 17.621-41.7554 17.9409-42.3684 18.2607-42.9814 18.5639-43.5645 18.8504-44.1175 19.1302-44.6772 19.5067-45.4568 19.9798-46.4563 20.4529-47.4558 20.6994-47.9889 20.7194-48.0555 20.7461-48.1221 20.7794-48.1854 20.8194-48.2454 20.866-48.2987 20.9193-48.3454 20.9793-48.3853 21.0326-48.4253 21.0959-48.4553 21.1692-48.4753 21.2358-48.4953 21.3058-48.5019 21.3791-48.4953 21.4457-48.4886 21.5124-48.472 21.579-48.4453 21.6456-48.4186 21.7056-48.382 21.7589-48.3354 21.8122-48.2887 21.8555-48.2354 21.8888-48.1754 21.9288-48.1155 21.9555-48.0488 21.9688-47.9755 21.9821-47.9089 21.9855-47.8423 21.9788-47.7756 21.9721-47.7023 21.9521-47.6324 21.9188-47.5658 21.8855-47.5058 21.8455-47.4491 21.7989-47.3958 21.7522-47.3492 21.6956-47.3092 21.629-47.2759 21.569-47.2426 21.5024-47.2193 21.4291-47.2059 21.3624-47.1926 21.2925-47.1926 21.2192-47.2059 21.1525-47.2193 21.0892-47.2426 21.0293-47.2759 20.9626-47.3092 20.906-47.3525 20.8594-47.4058 20.8127-47.4591 20.7727-47.5191 20.7394-47.5857 20.7128-47.6457 20.6961-47.7123 20.6895-47.7856 20.6828-47.8523 20.6861-47.9222 20.6994-47.9955 20.7194-48.0622 20.7461-48.1255 20.7794-48.1854 20.8194-48.2454 20.866-48.2987 20.9193-48.3454 20.9726-48.392 21.0326-48.4286 21.0992-48.4553 21.1659-48.4753 21.2358-48.4886 21.3091-48.4953 21.3758-48.4953 21.4424-48.4853 21.509-48.4653 21.5823-48.4453 21.6456-48.4153 21.6989-48.3753 21.7589-48.3354 21.8089-48.2887 21.8489-48.2354 21.8955-48.1754 21.9288-48.1121 21.9488-48.0455 21.9688-47.9789 21.9788-47.9122 21.9788-47.8456 21.9788-47.7723 21.9788-47.7357 21.9788-47.7357 21.9788-47.7357 21.7656-47.1493 21.3391-45.9766 20.9127-44.8038 20.5595-43.9409 20.2797-43.3879 19.9931-42.8282 19.6866-42.2385 19.3601-41.6188 19.0403-40.9924 18.6805-40.3161 18.2807-39.5898 17.8809-38.8569 17.5377-38.1006 17.2512-37.321 16.9647-36.5414 16.6548-35.7551 16.3217-34.9622 15.9885-34.1692 15.6187-33.3996 15.2122-32.6534 14.8124-31.9004 14.4626-31.1175 14.1628-30.3046 13.8629-29.485 13.5364-28.6321 13.1833-27.7459 12.8235-26.8596 12.407-25.9135 11.9339-24.9073 11.4542-23.9011 11.0044-22.8983 10.5846-21.8988 10.1582-20.906 9.77168-19.8899 9.42519-18.8504 9.08537-17.8109 8.6989-16.7981 8.26579-15.8119 7.83267-14.8191 7.43288-13.8096 7.0664-12.7835 6.70658-11.7573 6.28679-10.7645 5.80704-9.805 5.33395-8.83883 4.88085-7.91263 4.44773-7.02642 4.02128-6.1402 3.64148-5.31396 3.30831-4.54768 2.96849-3.78807 2.59534-3.07177 2.18888-2.39878 1.78242-1.73245 1.43593-1.1061 1.14941-0.519735 0.862893 0.0666327 0.699643 0.38647 0.659664 0.439776 0.626347 0.493082 0.586368 0.539725 0.539725 0.579704 0.493082 0.626347 0.439776 0.666327 0.379806 0.699643 0.3265 0.726296 0.266531 0.749618 0.199898 0.769608 0.139929 0.782934 0.0766276 0.792929 0.0099949 0.799592-0.0499745 0.799592-0.109944 0.792929-0.169913 0.779603-0.236546 0.766276-0.296515 0.742955-0.349822 0.709638-0.409791 0.682985-0.463097 0.646337-0.50974 0.599694-0.563046 0.559715-0.609689 0.513072-0.649669 0.459766-0.682985 0.406459-0.71297 0.349822-0.739623 0.289852-0.759613 0.229883-0.776271 0.169913-0.789597 0.109944-0.796261 0.0433113-0.796261-0.0199898-0.789597-0.0799592-0.782934-0.139929-0.769608-0.199898-0.749618-0.259868-0.729628-0.3265-0.719633-0.359817-0.719633-0.359817Z"
       fill="#1971C2"
       transform="matrix(1.00123 0 0 1 1245.32 447.162)"
       id="path14" /><path
       d="M-0.149924-0.789597C-0.149924-0.789597 0.213225-0.852899 0.939521-0.979501 1.67914-1.1061 2.65864-1.20272 3.87802-1.26935 5.10406-1.33599 6.54999-1.45592 8.21581-1.62917 9.88163-1.80241 11.6641-1.92568 13.5631-1.99898 15.4621-2.07894 17.5377-2.20887 19.7899-2.38878 22.0421-2.56869 24.5208-2.84188 27.2261-3.20836 29.9314-3.57484 32.67-3.91134 35.4419-4.21785 38.2139-4.5177 41.0691-4.81088 44.0076-5.0974 46.9394-5.37726 49.9079-5.65378 52.913-5.92698 55.9182-6.19351 58.7134-6.45671 61.2988-6.71658 63.8908-6.97644 66.1829-7.15635 68.1752-7.2563 70.1676-7.35625 72.0799-7.41955 73.9123-7.4462 75.7447-7.46619 76.6976-7.47286 76.7709-7.46619 76.8375-7.45953 76.9041-7.43954 76.9708-7.40622 77.0307-7.37291 77.0874-7.33293 77.1407-7.28629 77.194-7.23964 77.234-7.183 77.2606-7.11637 77.2939-7.0564 77.3172-6.98977 77.3306-6.91647 77.3372-6.84984 77.3339-6.77988 77.3206-6.70658 77.3073-6.63995 77.2839-6.57332 77.2506-6.50668 77.2173-6.44671 77.174-6.39341 77.1207-6.34676 77.0674-6.30012 77.0107-6.26347 76.9508-6.23682 76.8841-6.2035 76.8142-6.18351 76.7409-6.17685 76.6742-6.17019 76.6076-6.17685 76.541-6.19684 76.4677-6.21017 76.4011-6.23682 76.3411-6.2768 76.2811-6.31678 76.2278-6.36342 76.1812-6.41673 76.1412-6.47003 76.1079-6.53 76.0812-6.59664 76.0546-6.66327 76.0412-6.7299 76.0412-6.79654 76.0346-6.86983 76.0412-6.9398 76.0612-7.00643 76.0812-7.07306 76.1145-7.13636 76.1612-7.19633 76.2011-7.2563 76.2478-7.30627 76.3011-7.34625 76.3611-7.38623 76.4244-7.41955 76.491-7.4462 76.5576-7.46619 76.6276-7.47619 76.7009-7.47619 76.7675-7.46953 76.8342-7.4562 76.9008-7.43621 76.9674-7.40956 77.0307-7.37624 77.0907-7.33626 77.144-7.28962 77.1907-7.23631 77.2306-7.17634 77.2706-7.11637 77.2973-7.05307 77.3106-6.98644 77.3306-6.91981 77.3372-6.84984 77.3306-6.77655 77.3239-6.70991 77.3073-6.64328 77.2806-6.57665 77.254-6.51001 77.2173-6.45005 77.1707-6.39674 77.124-6.34343 77.0707-6.30012 77.0107-6.26681 76.9508-6.22683 76.8841-6.20017 76.8108-6.18685 76.7442-6.17352 76.7109-6.16686 76.7109-6.16686 76.7109-6.16686 75.8014-6.11355 73.9823-6.00694 72.1632-5.89366 70.2708-5.77705 68.3052-5.65712 66.3328-5.53718 64.0507-5.35061 61.4587-5.0974 58.86-4.8442 56.0581-4.58766 53.053-4.32779 50.0545-4.06793 47.0893-3.80473 44.1575-3.5382 41.2323-3.27167 38.3904-2.98848 35.6318-2.68863 32.8732-2.38878 30.128-2.05229 27.396-1.67914 24.6574-1.31266 22.152-1.0428 19.8799-0.869557 17.6077-0.689648 15.5354-0.566378 13.663-0.499745 11.7973-0.426449 10.0216-0.303179 8.33575-0.129934 6.64328 0.036648 5.22067 0.146592 4.06793 0.199898 2.91518 0.259868 1.97566 0.373143 1.24936 0.539725 0.516403 0.706307 0.119939 0.789597 0.0599694 0.789597-4.46807e-10 0.796261-0.0633011 0.796261-0.129934 0.789597-0.189903 0.776271-0.249873 0.756281-0.309842 0.729628-0.369811 0.702975-0.426449 0.669659-0.479755 0.629679-0.533062 0.589699-0.579704 0.546388-0.619684 0.499745-0.659664 0.446439-0.69298 0.393133-0.719633 0.339827-0.746286 0.279857-0.766276 0.216556-0.779603 0.149924-0.792929 0.0899541-0.799592 0.0299847-0.799592-0.0299847-0.792929-0.0966174-0.779603-0.159918-0.759613-0.219888-0.746286-0.279857-0.722965-0.339827-0.689648-0.399796-0.656332-0.453102-0.616352-0.503077-0.56971-0.54972-0.523067-0.596363-0.473092-0.636342-0.419786-0.669659-0.36648-0.709638-0.309842-0.739623-0.249873-0.759613-0.18324-0.779603-0.149924-0.789597-0.149924-0.789597Z"
       fill="#1971C2"
       transform="matrix(1.00123 0 0 1 1265.21 399.812)"
       id="path15" /><path
       d="M-0.799592 0C-0.799592 0-0.806256-0.22322-0.819582-0.669659-0.826245-1.1161-0.749618-1.55921-0.589699-1.99898-0.429781-2.43876-0.226551-2.95849 0.0199898-3.55819 0.273194-4.15788 0.599694-4.67762 0.99949-5.11739 1.39262-5.55717 1.81907-6.0136 2.27884-6.48669 2.73194-6.95978 3.18171-7.56281 3.62815-8.29577 4.07459-9.03539 4.63097-9.80833 5.2973-10.6146 5.97029-11.4208 6.59331-12.1371 7.16635-12.7635 7.73939-13.3965 8.37906-14.0095 9.08537-14.6026 9.79168-15.1889 10.5846-15.8253 11.4642-16.5116 12.337-17.1979 13.2666-17.8409 14.2527-18.4406 15.2389-19.047 16.2184-19.69 17.1912-20.3696 18.1641-21.0493 19.4701-21.7689 21.1092-22.5285 22.7484-23.2881 24.5641-24.121 26.5565-25.0272 28.5488-25.9334 30.8543-26.8796 33.4729-27.8658 36.0916-28.852 38.9901-29.7848 42.1685-30.6644 45.3535-31.5373 48.4286-32.3069 51.3938-32.9732 54.359-33.6329 57.1275-34.2425 59.6996-34.8023 62.2716-35.3686 64.6271-35.8384 66.766-36.2115 68.8982-36.5847 70.9305-36.9145 72.8629-37.201 74.8019-37.4942 76.7542-37.6908 78.7199-37.7907 80.6922-37.8973 81.7117-37.9473 81.7783-37.9407 81.8516-37.934 81.9216-37.9173 81.9882-37.8907 82.0482-37.8574 82.1048-37.8174 82.1581-37.7707 82.2114-37.7241 82.2581-37.6708 82.298-37.6108 82.3314-37.5509 82.3547-37.4842 82.368-37.4109 82.3813-37.3443 82.3813-37.2743 82.368-37.201 82.3613-37.1344 82.3414-37.0678 82.308-37.0011 82.2814-36.9412 82.2414-36.8845 82.1881-36.8312 82.1415-36.7846 82.0848-36.7446 82.0182-36.7113 81.9582-36.678 81.8916-36.658 81.8183-36.6513 81.745-36.638 81.675-36.638 81.6084-36.6513 81.5418-36.6646 81.4751-36.6913 81.4085-36.7313 81.3485-36.7646 81.2952-36.8079 81.2486-36.8612 81.2019-36.9145 81.1653-36.9712 81.1386-37.0311 81.1053-37.0978 81.0887-37.1677 81.0887-37.241 81.082-37.3076 81.0853-37.3776 81.0987-37.4509 81.1186-37.5175 81.1486-37.5808 81.1886-37.6408 81.2219-37.7008 81.2686-37.7541 81.3285-37.8007 81.3818-37.8407 81.4418-37.874 81.5084-37.9007 81.5751-37.9273 81.6417-37.9407 81.7083-37.9407 81.7816-37.9407 81.8516-37.9307 81.9182-37.9107 81.9849-37.8907 82.0482-37.8607 82.1081-37.8207 82.1681-37.7807 82.2181-37.7308 82.2581-37.6708 82.298-37.6108 82.328-37.5475 82.348-37.4809 82.368-37.4143 82.378-37.3443 82.378-37.271 82.378-37.2044 82.3647-37.1377 82.338-37.0711 82.3114-37.0045 82.2781-36.9445 82.2381-36.8912 82.1914-36.8312 82.1381-36.7846 82.0782-36.7513 82.0182-36.7113 81.9549-36.6813 81.8883-36.6613 81.8216-36.648 81.7883-36.6413 81.7883-36.6413 81.7883-36.6413 80.8321-36.5047 78.9198-36.2315 77.0141-35.9517 75.105-35.6452 73.1927-35.312 71.2803-34.9788 69.2713-34.609 67.1658-34.2026 65.0668-33.8028 62.7313-33.313 60.1593-32.7333 57.594-32.1536 54.842-31.5406 51.9035-30.8942 48.965-30.2479 45.9299-29.5116 42.7982-28.6854 39.6664-27.8658 36.8079-26.9829 34.2226-26.0367 31.6305-25.0905 29.3384-24.1743 27.3461-23.2881 25.3471-22.4019 23.5746-21.609 22.0288-20.9093 20.4762-20.2097 19.1969-19.5134 18.1907-18.8204 17.1779-18.1274 16.2084-17.5011 15.2822-16.9414 14.3494-16.3883 13.4465-15.7786 12.5736-15.1123 11.7007-14.446 10.9378-13.8496 10.2848-13.3232 9.63176-12.8035 9.0254-12.2371 8.46568-11.6241 7.90597-11.0177 7.31627-10.3447 6.69659-9.6051 6.0769-8.86548 5.50719-8.07921 4.98746-7.24631 4.46772-6.42006 3.98797-5.77705 3.54819-5.31729 3.10175-4.85752 2.64199-4.35112 2.16889-3.79806 1.6958-3.25168 1.35598-2.69529 1.14941-2.12891 0.936189-1.56254 0.826245-1.06612 0.819582-0.639674 0.806256-0.213225 0.796261 0.0299847 0.789597 0.0899541 0.782934 0.156587 0.766276 0.219888 0.739623 0.279857 0.719633 0.339827 0.689648 0.396465 0.649669 0.449771 0.616352 0.503077 0.576373 0.54972 0.52973 0.589699 0.476424 0.636342 0.423118 0.67299 0.369811 0.699643 0.309842 0.73296 0.249873 0.756281 0.189903 0.769608 0.12327 0.789597 0.0599694 0.799592 0 0.799592-0.0599694 0.799592-0.12327 0.789597-0.189903 0.769608-0.249873 0.756281-0.309842 0.73296-0.369811 0.699643-0.423118 0.67299-0.476424 0.636342-0.52973 0.589699-0.576373 0.54972-0.616352 0.503077-0.649669 0.449771-0.689648 0.396465-0.719633 0.339827-0.739623 0.279857-0.766276 0.219888-0.782934 0.156587-0.789597 0.0899541-0.796261 0.0299847-0.799592 0-0.799592 0Z"
       fill="#099268"
       transform="matrix(1.00123 0 0 1 1265.97 399.812)"
       id="path16" /><path
       d="M-0.799592 0C-0.799592 0-0.789597-0.216556-0.769608-0.649669-0.749618-1.08944-0.749618-1.6958-0.769608-2.46874-0.789597-3.24168-0.719633-3.90134-0.559715-4.44773-0.399796-5.00078-0.293184-5.50386-0.239878-5.95696-0.186572-6.41007-0.149924-6.87983-0.129934-7.36624-0.109944-7.85266-0.0199898-8.37906 0.139929-8.94544 0.30651-9.51848 0.419786-10.0382 0.479755-10.5046 0.533062-10.9644 0.656332-11.4741 0.849567-12.0339 1.03614-12.5936 1.15941-13.1033 1.21938-13.5631 1.28601-14.0295 1.41261-14.6059 1.59918-15.2922 1.78576-15.9852 2.07894-16.6515 2.47874-17.2912 2.87853-17.9375 3.22502-18.5206 3.51821-19.0403 3.81805-19.5667 4.11124-20.0298 4.39776-20.4296 4.69094-20.8294 4.96414-21.2425 5.21734-21.669 5.46388-22.0954 5.72708-22.4919 6.00694-22.8583 6.28679-23.2248 6.54666-23.6146 6.78654-24.0278 7.02642-24.4409 7.37624-24.8473 7.83601-25.2471 8.29577-25.6403 8.77219-25.9934 9.26528-26.3066 9.75836-26.6131 10.2548-26.903 10.7545-27.1761 11.2543-27.4493 11.7373-27.7758 12.2038-28.1556 12.6702-28.5421 13.2532-28.9086 13.9529-29.2551 14.6525-29.6082 15.2889-29.9247 15.8619-30.2046 16.4283-30.4845 17.008-30.6944 17.601-30.8343 18.1941-30.9742 18.7338-31.1408 19.2202-31.334 19.7066-31.5206 20.2297-31.6605 20.7894-31.7538 21.3558-31.8471 21.8722-31.9804 22.3386-32.1536 22.805-32.3202 23.3947-32.4501 24.1077-32.5434 24.8207-32.63 25.4404-32.7566 25.9668-32.9232 26.4932-33.0965 27.0429-33.2264 27.6159-33.313 28.1956-33.3996 28.8286-33.4596 29.515-33.4929 30.2079-33.5262 30.9176-33.5529 31.6439-33.5729 32.3768-33.5862 33.0132-33.6628 33.5529-33.8028 34.0926-33.9494 34.6557-34.0593 35.242-34.1326 35.8217-34.1992 36.4281-34.3158 37.0611-34.4824 37.7008-34.649 38.3271-34.7723 38.9401-34.8522 39.5465-34.9322 40.1295-34.9888 40.6893-35.0221 41.2423-35.0555 41.832-35.1488 42.4584-35.302 43.078-35.4553 43.7677-35.5685 44.5273-35.6418 45.2869-35.7218 46.0465-35.7751 46.8061-35.8017 47.5658-35.8351 48.302-35.9283 49.015-36.0816 49.728-36.2349 50.4043-36.3481 51.044-36.4214 51.6837-36.4881 52.3633-36.538 53.0829-36.5714 53.7959-36.598 54.4223-36.688 54.962-36.8412 55.495-36.9878 56.1281-37.0978 56.861-37.171 57.594-37.251 58.3336-37.3043 59.0799-37.331 59.8262-37.3643 60.5791-37.3843 61.3387-37.3909 62.0917-37.4043 62.8246-37.4842 63.5376-37.6308 64.2506-37.7774 65.0002-37.8873 65.7865-37.9606 66.5794-38.0273 67.289-38.0739 67.9154-38.1006 68.5417-38.1272 69.1814-38.2172 69.8344-38.3704 70.4941-38.5237 71.1337-38.6336 71.7534-38.7003 72.3664-38.7736 73.0294-38.8235 73.7424-38.8502 74.4487-38.8835 75.0651-38.9735 75.5915-39.1201 76.1245-39.2733 76.6809-39.3866 77.2606-39.4599 77.8337-39.5332 78.3934-39.5832 78.9398-39.6098 79.4795-39.6431 80.0092-39.6664 80.5289-39.6798 81.0487-39.6931 81.5318-39.7697 81.9782-39.9097 82.4246-40.0496 82.9244-40.1562 83.4774-40.2295 84.0305-40.2961 84.5702-40.3461 85.0966-40.3794 85.6163-40.4061 86.1028-40.4927 86.5559-40.6393 87.0023-40.7859 87.4221-40.8958 87.8152-40.9691 88.2084-41.0491 88.6048-41.169 89.0046-41.3289 89.4044-41.4888 89.9508-41.6154 90.6438-41.7087 91.3368-41.7954 91.9398-41.922 92.4529-42.0885 92.9659-42.2618 93.6189-42.525 94.4119-42.8781 95.2115-43.238 96.011-43.5711 96.8106-43.8776 97.6102-44.1908 98.3199-44.4807 98.9396-44.7472 99.5526-45.0204 100.199-45.3569 100.879-45.7567 101.558-46.1498 102.281-46.513 103.047-46.8461 103.814-47.1793 104.563-47.5558 105.296-47.9755 106.023-48.3953 106.676-48.8318 107.255-49.2849 107.842-49.7446 108.505-50.1611 109.244-50.5342 109.984-50.9074 110.714-51.3105 111.433-51.7436 112.153-52.1767 112.802-52.6232 113.382-53.0829 113.955-53.5427 114.585-54.0891 115.271-54.7221 115.951-55.3484 116.584-55.9448 117.17-56.5112 117.75-57.0709 118.3-57.6773 118.819-58.3303 119.339-58.9899 119.856-59.6796 120.369-60.3992 120.882-61.1188 121.471-61.9251 122.138-62.818 122.797-63.7175 123.494-64.5871 124.227-65.4266 124.96-66.2662 125.776-67.1558 126.675-68.0953 127.568-69.0415 128.338-69.991 128.984-70.9438 129.624-71.89 130.234-72.7896 130.813-73.6425 131.393-74.502 132.119-75.6414 132.992-77.0607 133.865-78.4866 134.325-79.2263 134.371-79.2796 134.411-79.3395 134.461-79.3862 134.521-79.4195 134.581-79.4595 134.645-79.4895 134.711-79.5095 134.778-79.5295 134.848-79.5361 134.921-79.5295 134.995-79.5228 135.061-79.5061 135.121-79.4795 135.188-79.4528 135.248-79.4162 135.301-79.3695 135.354-79.3229 135.401-79.2696 135.441-79.2096 135.474-79.1497 135.498-79.083 135.511-79.0097 135.524-78.9431 135.528-78.8731 135.521-78.7998 135.514-78.7332 135.494-78.6666 135.461-78.5999 135.428-78.54 135.388-78.4833 135.341-78.43 135.294-78.3767 135.238-78.3367 135.171-78.3101 135.111-78.2768 135.044-78.2534 134.971-78.2401 134.905-78.2334 134.835-78.2334 134.761-78.2401 134.695-78.2534 134.628-78.2768 134.561-78.3101 134.501-78.3434 134.448-78.3867 134.401-78.44 134.355-78.4933 134.315-78.5533 134.282-78.6199 134.255-78.6866 134.238-78.7532 134.232-78.8198 134.225-78.8931 134.228-78.9631 134.242-79.0297 134.262-79.0963 134.292-79.1596 134.332-79.2196 134.365-79.2796 134.408-79.3329 134.461-79.3795 134.515-79.4262 134.575-79.4628 134.641-79.4895 134.708-79.5161 134.778-79.5295 134.851-79.5295 134.925-79.5295 134.995-79.5195 135.061-79.4995 135.128-79.4795 135.191-79.4495 135.251-79.4095 135.304-79.3695 135.354-79.3229 135.401-79.2696 135.441-79.2096 135.471-79.1463 135.491-79.0797 135.518-79.0131 135.528-78.9431 135.521-78.8698 135.521-78.8032 135.511-78.7365 135.491-78.6699 135.464-78.6033 135.451-78.5699 135.451-78.5699 135.451-78.5699 135.051-77.8103 134.252-76.2911 133.445-74.7652 132.756-73.5725 132.183-72.7129 131.603-71.86 130.963-70.9238 130.264-69.9044 129.557-68.8915 128.761-67.922 127.875-66.9958 126.989-66.0763 126.192-65.2134 125.486-64.4072 124.78-63.6076 124.097-62.7647 123.437-61.8785 122.777-60.9856 122.181-60.1693 121.648-59.4297 121.115-58.6901 120.562-57.9704 119.989-57.2708 119.422-56.5645 118.843-55.9282 118.25-55.3618 117.657-54.7887 117.004-54.1757 116.291-53.5227 115.584-52.863 114.915-52.2833 114.282-51.7836 113.642-51.2839 112.946-50.8074 112.193-50.3543 111.44-49.9079 110.734-49.5247 110.074-49.2049 109.421-48.8851 108.771-48.4786 108.125-47.9855 107.485-47.4858 106.776-47.016 105.996-46.5763 105.216-46.1365 104.47-45.7633 103.757-45.4568 103.044-45.1503 102.321-44.7872 101.588-44.3674 100.855-43.9409 100.169-43.5878 99.5293-43.3079 98.8896-43.0347 98.1799-42.7482 97.4003-42.4484 96.6274-42.1485 95.8145-41.8087 94.9616-41.4289 94.1154-41.0557 93.3857-40.7725 92.7727-40.5793 92.1663-40.3927 91.58-40.2695 91.0136-40.2095 90.4472-40.1495 89.7509-39.9963 88.9247-39.7497 88.0984-39.5032 87.3988-39.2966 86.8257-39.1301 86.2594-38.9568 85.7296-38.8602 85.2365-38.8402 84.7435-38.8135 84.2604-38.7702 83.7873-38.7103 83.3209-38.657 82.8011-38.547 82.2281-38.3804 81.6484-38.2205 81.1053-38.1339 80.5989-38.1206 80.0858-38.1072 79.5761-38.0872 79.0697-38.0606 78.5699-38.0339 78.0669-37.9906 77.5605-37.9307 77.054-37.8707 76.4777-37.7574 75.8313-37.5908 75.1917-37.4243 74.5353-37.3243 73.8623-37.291 73.1894-37.2643 72.573-37.221 72.0133-37.1611 71.4469-37.0944 70.7906-36.9811 70.0443-36.8212 69.298-36.6546 68.6217-36.558 68.0153-36.5314 67.409-36.5047 66.7393-36.4614 66.0063-36.4014 65.2734-36.3415 64.5071-36.2315 63.7075-36.0716 62.9013-35.9184 62.125-35.8351 61.3787-35.8217 60.6324-35.8084 59.9028-35.7884 59.1898-35.7618 58.4702-35.7351 57.7872-35.6918 57.1409-35.6318 56.4945-35.5719 55.8482-35.4586 55.2019-35.292 54.5555-35.1254 53.8892-35.0255 53.2029-34.9922 52.5232-34.9655 51.8869-34.9222 51.2938-34.8622 50.7075-34.7956 50.0145-34.6823 49.2149-34.5224 48.4153-34.3558 47.649-34.2592 46.9161-34.2325 46.1831-34.2059 45.4735-34.1626 44.7872-34.1026 44.1008-34.0426 43.4012-33.9294 42.6882-33.7628 41.9753-33.5962 41.3589-33.4963 40.8392-33.4629 40.3128-33.4363 39.7764-33.3863 39.23-33.313 38.6836-33.2464 38.0573-33.1231 37.351-32.9432 36.6447-32.7633 36.035-32.6434 35.5219-32.5834 35.0088-32.5301 34.4225-32.4235 33.7628-32.2635 33.1098-32.1036 32.4235-32.017 31.7038-32.0037 30.9909-31.9837 30.3112-31.9604 29.6649-31.9337 29.0252-31.9071 28.4555-31.8604 27.9557-31.7938 27.4627-31.7272 26.9063-31.5972 26.2866-31.404 25.6736-31.2174 25.0639-31.0908 24.4575-31.0242 23.8578-30.9642 23.2815-30.8343 22.7284-30.6344 22.1754-30.4411 21.6656-30.3079 21.1992-30.2346 20.7328-30.1613 20.223-30.0214 19.67-29.8148 19.1169-29.6082 18.6005-29.455 18.1208-29.355 17.641-29.2551 17.1179-29.0652 16.5516-28.7853 15.9852-28.5055 15.3988-28.2189 14.7925-27.9258 14.1928-27.6392 13.6231-27.2794 13.0833-26.8463 12.5436-26.4132 12.0372-26.0667 11.5641-25.8068 11.0843-25.5403 10.6279-25.2738 10.1948-25.0073 9.76169-24.7407 9.37189-24.4742 9.0254-24.2077 8.67891-23.9478 8.36907-23.588 8.09587-23.1282 7.82934-22.6684 7.57614-22.282 7.33626-21.9688 7.09638-21.6556 6.83985-21.2592 6.56665-20.7794 6.28679-20.3063 6.01693-19.8965 5.75707-19.55 5.50386-19.2035 5.22067-18.7538 4.9075-18.2007 4.59432-17.6543 4.27116-17.1313 3.93799-16.6315 3.59817-16.1318 3.34496-15.5721 3.17838-14.9524 3.0118-14.3327 2.8852-13.743 2.79857-13.1833 2.71195-12.6302 2.58868-12.1238 2.42876-11.6641 2.26218-11.2043 2.14224-10.6979 2.06895-10.1448 1.99565-9.59844 1.88571-9.10203 1.73911-8.65559 1.58586-8.21581 1.49257-7.73606 1.45926-7.21632 1.42594-6.69659 1.37263-6.16686 1.29934-5.62713 1.2327-5.08741 1.13276-4.61431 0.99949-4.20785 0.866225-3.80806 0.789597-3.22502 0.769608-2.45875 0.749618-1.69247 0.749618-1.08944 0.769608-0.649669 0.789597-0.216556 0.796261 0.0299847 0.789597 0.0899541 0.782934 0.156587 0.766276 0.219888 0.739623 0.279857 0.719633 0.339827 0.689648 0.396465 0.649669 0.449771 0.616352 0.503077 0.576373 0.54972 0.52973 0.589699 0.476424 0.636342 0.423118 0.67299 0.369811 0.699643 0.309842 0.73296 0.249873 0.756281 0.189903 0.769608 0.12327 0.789597 0.0599694 0.799592 0 0.799592-0.0599694 0.799592-0.12327 0.789597-0.189903 0.769608-0.249873 0.756281-0.309842 0.73296-0.369811 0.699643-0.423118 0.67299-0.476424 0.636342-0.52973 0.589699-0.576373 0.54972-0.616352 0.503077-0.649669 0.449771-0.689648 0.396465-0.719633 0.339827-0.739623 0.279857-0.766276 0.219888-0.782934 0.156587-0.789597 0.0899541-0.796261 0.0299847-0.799592 0-0.799592 0Z"
       fill="#F08C00"
       transform="matrix(1.00123 0 0 1 1247.62 448.689)"
       id="path17" /><path
       d="M-0.719633 0.359817C-0.719633 0.359817-0.796261 0.159918-0.949516-0.239878-1.10943-0.646337-1.42594-0.912868-1.89903-1.03947-2.37212-1.16607-2.86187-1.04613-3.36828-0.679654-3.87469-0.30651-4.19786 0.0832909-4.33779 0.48975-4.47772 0.902873-4.24783 1.13609-3.64814 1.18939-3.05511 1.2427-2.46874 1.29934-1.88904 1.35931-1.316 1.41928-0.996159 1.13942-0.929526 0.519735-0.869557-0.0932858-0.906205-0.659664-1.03947-1.1794-1.17274-1.69913-1.46592-2.00898-1.91902-2.10892-2.37212-2.21554-2.85188-2.19555-3.35829-2.04896-3.87136-1.90903-4.28115-1.71579-4.58766-1.46925-4.88751-1.21605-5.10406-0.849567-5.23733-0.369811-5.36393 0.103281-5.14738 0.573041-4.58766 1.03947-4.03461 1.5059-3.54486 1.92235-3.11841 2.28883-2.69862 2.64865-2.21554 2.99181-1.66915 3.31831-1.12276 3.63814-0.443107 3.96465 0.369811 4.29781 1.18273 4.62431 2.06895 4.9608 3.02846 5.30729 3.98797 5.66045 5.05076 5.90366 6.21683 6.03692 7.3829 6.17019 8.73888 6.37342 10.2848 6.64661 11.8306 6.91314 13.2432 7.20633 14.5226 7.52616 15.8019 7.846 17.0946 8.06922 18.4006 8.19582 19.7133 8.32242 20.976 8.51899 22.1887 8.78552 23.4014 9.04539 24.6641 9.33524 25.9768 9.65508 27.2961 9.96825 28.6221 10.1881 29.9547 10.3147 31.2874 10.4413 32.7433 10.5313 34.3225 10.5846 35.9017 10.6446 37.4309 10.6879 38.9102 10.7145 40.3961 10.7345 41.942 10.6512 43.5478 10.4647 45.1603 10.2714 46.8161 10.0349 48.5153 9.75503 50.2211 9.46851 52.0301 9.06538 53.9425 8.54564 55.8615 8.02591 57.8272 7.35292 59.8395 6.52667 61.8451 5.70709 63.8841 4.81421 65.9564 3.84804 68.0286 2.88186 70.1109 1.88904 72.2032 0.869557 74.3021-0.14326 76.2978-1.1694 78.1901-2.20887 80.0825-3.24168 81.6384-4.07792 82.8578-4.71759 84.0838-5.36393 85.07-6.02693 85.8162-6.70658 86.5625-7.37957 86.949-7.74938 86.9757-7.81602 87.0023-7.88265 87.0423-7.94262 87.0956-7.99592 87.1422-8.04923 87.1955-8.09254 87.2555-8.12586 87.3155-8.15917 87.3821-8.1825 87.4554-8.19582 87.522-8.20915 87.592-8.20915 87.6653-8.19582 87.7319-8.18916 87.7986-8.16917 87.8652-8.13585 87.9252-8.10254 87.9818-8.06256 88.0351-8.01591 88.0818-7.96261 88.1217-7.90597 88.1551-7.846 88.1817-7.77937 88.2017-7.71273 88.215-7.6461 88.2217-7.57281 88.2184-7.50284 88.205-7.43621 88.1917-7.36291 88.1684-7.29628 88.1351-7.23631 88.1018-7.17634 88.0584-7.12303 88.0051-7.07639 87.9518-7.02975 87.8919-6.9931 87.8252-6.96645 87.7586-6.93313 87.692-6.91647 87.6253-6.91647 87.552-6.90981 87.4821-6.91314 87.4154-6.92647 87.3421-6.94646 87.2755-6.97644 87.2155-7.01642 87.1556-7.0564 87.1056-7.10305 87.0656-7.15635 87.019-7.20966 86.9856-7.26963 86.9657-7.33626 86.939-7.40289 86.9257-7.47286 86.9257-7.54615 86.9257-7.61945 86.9357-7.68941 86.9557-7.75605 86.9757-7.82268 87.0056-7.88265 87.0456-7.93595 87.0856-7.99592 87.1356-8.0459 87.1955-8.08588 87.2555-8.12586 87.3188-8.15584 87.3855-8.17583 87.4521-8.19582 87.522-8.20582 87.5953-8.20582 87.662-8.20582 87.7286-8.19249 87.7952-8.16584 87.8619-8.13918 87.9218-8.10587 87.9751-8.06589 88.0351-8.01925 88.0818-7.96594 88.1151-7.90597 88.1551-7.846 88.185-7.7827 88.205-7.71607 88.2184-7.64277 88.2217-7.57281 88.215-7.50617 88.2084-7.43288 88.205-7.39623 88.205-7.39623 88.205-7.39623 87.7553-6.85317 86.8557-5.76706 85.9628-4.68095 84.91-3.81472 83.6973-3.16838 82.4846-2.52205 80.9187-1.67581 78.9997-0.629679 77.0807 0.409791 75.0651 1.43593 72.9528 2.44875 70.8405 3.46157 68.735 4.44773 66.636 5.40724 64.5371 6.36675 62.4482 7.2663 60.3692 8.10587 58.2969 8.94544 56.2746 9.63176 54.3023 10.1648 52.33 10.6979 50.4809 11.1077 48.7551 11.3942 47.0227 11.6807 45.3169 11.9206 43.6378 12.1138 41.9519 12.3071 40.3628 12.3937 38.8702 12.3737 37.3776 12.3537 35.8251 12.3137 34.2126 12.2538 32.6 12.2004 31.0875 12.1038 29.6749 11.9639 28.2689 11.824 26.9129 11.5974 25.6069 11.2842 24.3009 10.9711 23.0716 10.6879 21.9188 10.4347 20.7727 10.1748 19.5067 9.97491 18.1208 9.83499 16.7348 9.69506 15.4221 9.46851 14.1828 9.15533 12.9434 8.84216 11.5608 8.55564 10.0349 8.29577 8.51566 8.02924 7.11637 7.81268 5.83702 7.6461 4.55101 7.48618 3.41493 7.22632 2.42876 6.8665 1.44926 6.50668 0.516403 6.1402-0.369811 5.76706-1.25603 5.39392-2.00564 5.01744-2.61866 4.63764-3.23169 4.25117-3.73476 3.88802-4.1279 3.54819-4.51437 3.21503-4.98413 2.82856-5.53718 2.38878-6.09023 1.95567-6.47003 1.49257-6.6766 0.99949-6.87649 0.506409-6.93646 0.0433113-6.8565-0.389801-6.78321-0.822914-6.63662-1.24603-6.41673-1.65915-6.19684-2.06561-5.89033-2.42876-5.4972-2.7486-5.0974-3.06844-4.66096-3.3383-4.18786-3.55819-3.71477-3.77141-3.28166-3.8647-2.88853-3.83804-2.49539-3.81139-2.10226-3.75475-1.70913-3.66813-1.32266-3.58151-0.939521-3.42159-0.559715-3.18837-0.186572-2.95516 0.12327-2.59534 0.369811-2.10892 0.616352-1.62917 0.736291-1.20272 0.729628-0.829577 0.722965-0.456434 0.702975-0.0932858 0.669659 0.259868 0.636342 0.619684 0.56971 0.989496 0.469761 1.3693 0.363148 1.74911 0.176577 2.07561-0.0899541 2.3488-0.363148 2.622-0.899541 2.77192-1.69913 2.79857-2.49206 2.82523-3.06844 2.82523-3.42825 2.79857-3.78141 2.76526-4.14789 2.69529-4.52769 2.58868-4.90083 2.48207-5.20735 2.29216-5.44722 2.01897-5.69376 1.74578-5.80704 1.35598-5.78705 0.849567-5.77372 0.336495-5.68377-0.116607-5.51719-0.50974-5.35727-0.9162-5.14738-1.25603-4.88751-1.52922-4.6343-1.79575-4.37444-2.04896-4.10791-2.28883-3.84138-2.53537-3.47156-2.65864-2.99847-2.65864-2.52538-2.66531-2.09227-2.612-1.69913-2.49873-1.31266-2.38545-0.936189-2.20221-0.56971-1.94901-0.20323-1.6958 0.099949-1.36597 0.339827-0.959511 0.593031-0.559715 0.729628-0.3265 0.749618-0.259868 0.769608-0.199898 0.782934-0.139929 0.789597-0.0799592 0.796261-0.0199898 0.796261 0.0433113 0.789597 0.109944 0.776271 0.169913 0.759613 0.229883 0.739623 0.289852 0.71297 0.349822 0.682985 0.406459 0.649669 0.459766 0.609689 0.513072 0.563046 0.563046 0.50974 0.609689 0.463097 0.649669 0.409791 0.682985 0.349822 0.709638 0.296515 0.742955 0.236546 0.766276 0.169913 0.779603 0.109944 0.792929 0.0499745 0.799592-0.0099949 0.799592-0.0766276 0.792929-0.139929 0.782934-0.199898 0.769608-0.266531 0.749618-0.3265 0.726296-0.379806 0.699643-0.439776 0.666327-0.493082 0.626347-0.539725 0.579704-0.586368 0.539725-0.626347 0.493082-0.659664 0.439776-0.699643 0.38647-0.719633 0.359817-0.719633 0.359817Z"
       fill="#1E1E1E"
       transform="matrix(1.00123 0 0 1 1134.54 473.658)"
       id="path18" /><path
       d="M0.649669-0.459766C0.649669-0.459766 0.866225-0.18324 1.29934 0.369811 1.72579 0.929526 2.11559 1.50257 2.46874 2.08893 2.82856 2.68197 3.16505 3.26833 3.47823 3.84804 3.79806 4.42774 4.06793 4.97413 4.28781 5.4872 4.5077 5.99361 4.69094 6.42672 4.83753 6.78654 4.97746 7.14636 5.05409 7.36291 5.06742 7.43621 5.08074 7.5095 5.08741 7.5828 5.08741 7.6561 5.08074 7.72939 5.06742 7.79936 5.04743 7.86599 5.02744 7.93929 4.99745 8.00592 4.95747 8.06589 4.91749 8.12586 4.87418 8.1825 4.82754 8.2358 4.77423 8.28911 4.71426 8.33575 4.64763 8.37573 4.58766 8.40905 4.52436 8.43903 4.45773 8.46568 4.38443 8.48567 4.31114 8.49567 4.23784 8.49567 4.16454 8.50233 4.09458 8.499 4.02795 8.48567 3.95465 8.47235 3.88469 8.45236 3.81805 8.4257 3.75142 8.39239 3.68812 8.35241 3.62815 8.30577 3.57484 8.26579 3.52487 8.21581 3.47823 8.15584 3.43158 8.09587 3.39494 8.03257 3.36828 7.96594 3.33497 7.90597 3.29166 7.68941 3.23835 7.31627 3.18504 6.94979 3.10175 6.44671 2.98848 5.80704 2.88186 5.16737 2.77192 4.65429 2.65864 4.26782 2.54537 3.87469 2.3588 3.37495 2.09893 2.76859 1.84573 2.16223 1.53922 1.6425 1.1794 1.20938 0.826245 0.776271 0.486419 0.539725 0.159918 0.499745-0.153255 0.459766-0.343158 0.426449-0.409791 0.399796-0.476424 0.379806-0.536393 0.349822-0.589699 0.309842-0.649669 0.269862-0.702975 0.22322-0.749618 0.169913-0.789597 0.116607-0.826245 0.0599694-0.859562 0-0.892878-0.0533062-0.9162-0.116607-0.929526-0.189903-0.949516-0.256536-0.959511-0.323169-0.959511-0.389801-0.959511-0.463097-0.949516-0.533062-0.929526-0.599694-0.9162-0.666327-0.892878-0.729628-0.859562-0.789597-0.826245-0.849567-0.786266-0.906205-0.739623-0.959511-0.69298-1.01282-0.643005-1.05946-0.589699-1.09944-0.52973-1.13276-0.466429-1.16274-0.399796-1.18939-0.333163-1.21605-0.266531-1.2327-0.199898-1.23937-0.133265-1.24603-0.0666327-1.24603 1.66449e-16-1.23937 0.0666327-1.2327 0.336495-1.33265 0.809587-1.53922 1.28268-1.75244 1.76577-1.92902 2.25885-2.06895 2.74527-2.20887 3.30165-2.3488 3.928-2.48873 4.54768-2.62866 5.15071-2.76859 5.73707-2.90852 6.31678-3.04178 6.84984-3.17505 7.33626-3.30831 7.82268-3.43492 8.29244-3.56485 8.74554-3.69811 9.19864-3.83138 9.6151-3.87802 9.9949-3.83804 10.3747-3.79806 10.6379-3.84804 10.7845-3.98797 10.9311-4.13456 11.0377-4.20785 11.1043-4.20785 11.171-4.20785 11.2343-4.20119 11.2942-4.18786 11.3609-4.16788 11.4242-4.14455 11.4841-4.1179 11.5375-4.08458 11.5908-4.04794 11.6441-4.00796 11.6907-3.96131 11.734-3.91134 11.774-3.85803 11.814-3.80473 11.844-3.74809 11.864-3.68812 11.8906-3.62815 11.9073-3.56485 11.9139-3.49822 11.9206-3.43158 11.9206-3.36495 11.9139-3.29832 11.9073-3.23169 11.8939-3.16838 11.8739-3.10842 11.8473-3.04845 11.8173-2.99181 11.784-2.9385 11.744-2.87853 11.7007-2.82856 11.6541-2.78858 11.6008-2.74194 11.5474-2.70196 11.4941-2.66864 11.4342-2.64199 11.3709-2.61866 11.3042-2.59868 11.2443-2.58535 11.2076-2.39878 11.1943-2.03896 11.181-1.68581 11.0544-1.28601 10.8145-0.839572 10.5746-0.393133 10.3247 0.129934 10.0649 0.729628 9.79834 1.34265 9.54847 1.86572 9.31525 2.29883 9.07537 2.7386 8.77886 3.22169 8.4257 3.74809 8.07921 4.26782 7.52616 5.12739 6.76655 6.32677 6.0136 7.52616 5.60714 8.14252 5.54717 8.17583 5.48054 8.21581 5.41391 8.24247 5.34727 8.25579 5.28064 8.26912 5.21068 8.27245 5.13738 8.26579 5.07075 8.25912 5.00412 8.23913 4.93748 8.20582 4.87085 8.17916 4.81421 8.13918 4.76757 8.08588 4.71426 8.03923 4.67095 7.9826 4.63764 7.91596 4.60432 7.856 4.581 7.79269 4.56767 7.72606 4.56101 7.65277 4.56434 7.5828 4.57767 7.51617 4.58433 7.44287 4.60432 7.37624 4.63764 7.31627 4.67095 7.24964 4.71426 7.193 4.76757 7.14636 4.82088 7.09971 4.88085 7.05973 4.94748 7.02642 5.00745 6.99976 5.07408 6.98311 5.14738 6.97644 5.21401 6.96978 5.28397 6.97311 5.35727 6.98644 5.4239 7.00643 5.4872 7.03308 5.54717 7.0664 5.60714 7.10638 5.66045 7.15302 5.70709 7.20633 5.75373 7.25963 5.79038 7.3196 5.81703 7.38623 5.84369 7.45287 5.85701 7.5195 5.85701 7.58613 5.86368 7.65943 5.85701 7.72939 5.83702 7.79603 5.81703 7.86266 5.78705 7.92596 5.74707 7.98593 5.70709 8.0459 5.65712 8.09587 5.59715 8.13585 5.54384 8.1825 5.48387 8.21581 5.41724 8.2358 5.35061 8.25579 5.28064 8.26579 5.20735 8.26579 5.13405 8.26579 5.06409 8.25579 4.99745 8.2358 4.93082 8.20915 4.87085 8.17583 4.81754 8.13585 4.76424 8.08921 4.71759 8.0359 4.67762 7.97593 4.63764 7.92263 4.60765 7.85933 4.58766 7.78603 4.56767 7.7194 4.56101 7.65277 4.56767 7.58613 4.56767 7.51284 4.581 7.44287 4.60765 7.37624 4.6343 7.30961 4.67095 7.24964 4.71759 7.19633 4.76424 7.14302 4.78756 7.11637 4.78756 7.11637 4.78756 7.11637 5.06075 6.51668 5.60714 5.31729 6.15353 4.1179 6.59331 3.28166 6.92647 2.80857 7.25297 2.33548 7.52283 1.91902 7.73606 1.55921 7.94928 1.19273 8.13252 0.816251 8.28578 0.429781 8.44569 0.0499745 8.66891-0.413123 8.95543-0.959511 9.24862-1.5059 9.54513-1.97566 9.84498-2.36879 10.1448-2.76193 10.4114-3.16505 10.6446-3.57818 10.8845-3.99796 11.0377-4.20785 11.1043-4.20785 11.171-4.20785 11.2343-4.20119 11.2942-4.18786 11.3609-4.16788 11.4242-4.14455 11.4841-4.1179 11.5375-4.08458 11.5908-4.04794 11.6441-4.00796 11.6907-3.96131 11.734-3.91134 11.774-3.85803 11.814-3.80473 11.844-3.74809 11.864-3.68812 11.8906-3.62815 11.9073-3.56485 11.9139-3.49822 11.9206-3.43158 11.9206-3.36495 11.9139-3.29832 11.9073-3.23169 11.8939-3.16838 11.8739-3.10842 11.8473-3.04845 11.8173-2.99181 11.784-2.9385 11.744-2.87853 11.7007-2.82856 11.6541-2.78858 11.6008-2.74194 11.5474-2.70196 11.4941-2.66864 11.4342-2.64199 11.3709-2.61866 11.3042-2.59868 11.2443-2.58535 11.2842-2.63865 11.4242-2.75859 11.5641-2.87853 11.3475-2.83189 10.7745-2.61866 10.2081-2.40544 9.69506-2.22553 9.23529-2.07894 8.77553-1.92568 8.29244-1.77243 7.78603-1.61917 7.27962-1.46592 6.7299-1.316 6.13687-1.1694 5.5505-1.02281 4.9608-0.882883 4.36777-0.749618 3.76808-0.616352 3.08176-0.433113 2.30882-0.199898 1.53588 0.0333163 0.906205 0.196566 0.419786 0.289852-0.0666327 0.389801-0.343158 0.426449-0.409791 0.399796-0.476424 0.379806-0.536393 0.349822-0.589699 0.309842-0.649669 0.269862-0.702975 0.22322-0.749618 0.169913-0.789597 0.116607-0.826245 0.0599694-0.859562 0-0.892878-0.0533062-0.9162-0.116607-0.929526-0.189903-0.949516-0.256536-0.959511-0.323169-0.959511-0.389801-0.959511-0.463097-0.949516-0.533062-0.929526-0.599694-0.9162-0.666327-0.892878-0.729628-0.859562-0.789597-0.826245-0.849567-0.786266-0.906205-0.739623-0.959511-0.69298-1.01282-0.643005-1.05946-0.589699-1.09944-0.52973-1.13276-0.466429-1.16274-0.399796-1.18939-0.333163-1.21605-0.266531-1.2327-0.199898-1.23937-0.133265-1.24603-0.0666327-1.24603 1.66449e-16-1.23937 0.0666327-1.2327 0.276526-1.1794 0.629679-1.07945 0.982832-0.979501 1.36597-0.746286 1.77909-0.379806 2.19888-0.0199898 2.60867 0.48975 3.00847 1.14941 3.40826 1.80908 3.67812 2.31549 3.81805 2.66864 3.96465 3.02179 4.10124 3.4016 4.22784 3.80806 4.36111 4.21452 4.50104 4.71426 4.64763 5.30729 4.79422 5.90699 4.8975 6.39341 4.95747 6.76655 5.01744 7.13969 5.05409 7.36291 5.06742 7.43621 5.08074 7.5095 5.08741 7.5828 5.08741 7.6561 5.08074 7.72939 5.06742 7.79936 5.04743 7.86599 5.02744 7.93929 4.99745 8.00592 4.95747 8.06589 4.91749 8.12586 4.87418 8.1825 4.82754 8.2358 4.77423 8.28911 4.71426 8.33575 4.64763 8.37573 4.58766 8.40905 4.52436 8.43903 4.45773 8.46568 4.38443 8.48567 4.31114 8.49567 4.23784 8.49567 4.16454 8.50233 4.09458 8.499 4.02795 8.48567 3.95465 8.47235 3.88469 8.45236 3.81805 8.4257 3.75142 8.39239 3.68812 8.35241 3.62815 8.30577 3.57484 8.26579 3.52487 8.21581 3.47823 8.15584 3.43158 8.09587 3.39494 8.0359 3.36828 7.97593 3.33497 7.9093 3.26167 7.72273 3.1484 7.41622 3.03512 7.11637 2.8752 6.73323 2.66864 6.26681 2.46208 5.80704 2.21221 5.29397 1.91902 4.72759 1.61917 4.16788 1.30933 3.61149 0.989496 3.05844 0.669659 2.50539 0.316505 1.93568-0.0699643 1.34931-0.456434 0.756281-0.666327 0.433113-0.699643 0.379806-0.726296 0.319837-0.749618 0.259868-0.769608 0.199898-0.782934 0.139929-0.792929 0.0766276-0.799592 0.0099949-0.799592-0.0499745-0.792929-0.109944-0.779603-0.169913-0.759613-0.236546-0.736291-0.299847-0.709638-0.359817-0.682985-0.413123-0.646337-0.466429-0.599694-0.519735-0.559715-0.566378-0.513072-0.609689-0.459766-0.649669-0.406459-0.682985-0.349822-0.71297-0.289852-0.739623-0.229883-0.766276-0.166582-0.782934-0.099949-0.789597-0.0399796-0.796261 0.0199898-0.796261 0.0799592-0.789597 0.146592-0.782934 0.209893-0.769608 0.269862-0.749618 0.329832-0.729628 0.38647-0.699643 0.439776-0.659664 0.493082-0.626347 0.543056-0.586368 0.589699-0.539725 0.629679-0.486419 0.649669-0.459766 0.649669-0.459766Z"
       fill="#1E1E1E"
       transform="matrix(1.00123 0 0 1 1213.67 465.741)"
       id="path19" /><path
       d="M0.739623-0.289852C0.739623-0.289852 0.812919-0.0866225 0.959511 0.319837 1.1061 0.73296 1.29267 0.742955 1.51923 0.349822 1.74578-0.036648 1.81241-0.299847 1.71912-0.439776 1.62584-0.573041 1.58253-0.669659 1.58919-0.729628 1.60252-0.789597 1.61917-0.846235 1.63916-0.899541 1.65915-0.952848 1.68581-1.00282 1.71912-1.04946 1.7591-1.09611 1.79908-1.13942 1.83906-1.1794 1.88571-1.21938 1.93568-1.25269 1.98899-1.27935 2.04229-1.29934 2.0956-1.316 2.1489-1.32932 2.20887-1.34265 2.26884-1.34931 2.32881-1.34931 2.38878-1.34931 2.44542-1.34265 2.49873-1.32932 2.5587-1.30933 2.612-1.28601 2.65864-1.25936 2.71195-1.2327 2.75859-1.19939 2.79857-1.15941 2.84522-1.11943 2.8852-1.07279 2.91851-1.01948 2.95183-0.972837 2.97515-0.922863 2.98848-0.869557 3.00847-0.809587 3.02179-0.752949 3.02846-0.699643 3.03512-0.639674 2.96182-0.363148 2.80857 0.129934 2.65531 0.623016 2.56869 1.11943 2.5487 1.61917 2.52205 2.11892 2.59868 2.46541 2.77858 2.65864 2.95183 2.84522 3.04511 2.96849 3.05844 3.02846 3.07843 3.09509 3.08843 3.15839 3.08843 3.21836 3.08843 3.28499 3.08176 3.34829 3.06844 3.40826 3.04845 3.46823 3.02512 3.52487 2.99847 3.57818 2.97182 3.63814 2.9385 3.69145 2.89852 3.73809 2.85188 3.78474 2.80524 3.82805 2.75859 3.86803 2.70529 3.90134 2.64865 3.93133 2.58868 3.95798 2.52871 3.97797 2.46874 3.9913 2.40877 3.99796 2.34214 4.01129 2.27884 4.01129 2.21887 3.99796 2.1589 3.9913 2.09893 3.97797 2.03896 3.95798 1.97899 3.93799 1.92235 3.91134 1.86905 3.87802 1.81574 3.83804 1.7691 3.79473 1.72912 3.74809 1.68248 3.70145 1.64583 3.65147 1.61917 3.59817 1.58586 3.5382 1.65249 3.23502 1.81907 2.68863 1.98565 2.14224 2.09227 1.65582 2.13891 1.22937 2.18555 0.796261 2.15557 0.769608 2.04896 1.14941 1.93568 1.52922 1.91236 1.90236 1.97899 2.26884 2.04562 2.63532 2.09227 2.51872 2.11892 1.91902 2.14557 1.31933 2.12225 1.20605 2.04896 1.57919 1.98232 1.95234 2.09227 2.25552 2.37879 2.48873 2.66531 2.72195 2.94183 2.64532 3.20836 2.25885 3.4749 1.87238 3.71144 1.41594 3.918 0.889546 4.1179 0.356485 4.1912 0.30651 4.13789 0.739623 4.09125 1.17274 3.99796 1.56587 3.85803 1.91902 3.72477 2.27217 3.58817 2.63199 3.44824 2.99847 3.30831 3.36495 3.36828 3.67812 3.62815 3.93799 3.88802 4.20452 4.15455 4.10124 4.42774 3.62815 4.70094 3.16172 4.9608 2.69529 5.20735 2.22886 5.45389 1.7691 5.66378 1.28934 5.83702 0.789597 6.01693 0.296516 5.877 0.303179 5.41724 0.809587 4.96414 1.316 4.6443 1.77243 4.45773 2.17889 4.27116 2.58535 4.14789 3.00847 4.08792 3.44824 4.02128 3.89468 3.90801 4.28781 3.74809 4.62764 3.58151 4.96747 3.64814 5.00078 3.94799 4.72759 4.24117 4.4544 4.51437 4.14789 4.76757 3.80806 5.02077 3.4749 5.22733 3.06177 5.38725 2.56869 5.55384 2.07561 5.71708 1.55254 5.877 0.99949 6.04359 0.446439 6.15686-0.0099949 6.21683-0.369811 6.28346-0.736291 6.19018-0.639674 5.93697-0.0799592 5.67711 0.479755 5.46055 0.959511 5.2873 1.35931 5.11406 1.75244 4.95081 2.1589 4.79755 2.57869 4.6443 2.99181 4.66762 3.04845 4.86752 2.7486 5.07408 2.44875 5.30729 2.11559 5.56716 1.74911 5.83369 1.38263 6.10022 0.969506 6.36675 0.50974 6.63329 0.0499745 6.83985-0.343158 6.98644-0.669659 7.13969-0.996159 7.04308-1.09278 6.69659-0.959511 6.3501-0.832909 5.98028-0.702975 5.58715-0.56971 5.19402-0.436444 4.76757-0.199898 4.3078 0.139929 3.8547 0.486419 3.91134 0.589699 4.47772 0.449771 5.0441 0.309842 5.50719 0.149924 5.86701-0.0299847 6.22016-0.209893 6.54999-0.199898 6.8565 0 7.15635 0.193235 7.07306 0.309842 6.60663 0.349822 6.13354 0.396465 5.63379 0.453102 5.1074 0.519735 4.581 0.593031 4.29448 0.659664 4.24783 0.719633 4.20119 0.772939 4.14122 0.806256 4.06793 0.819582 3.99463 0.832909 3.92133 0.832909 3.84804 0.819582 3.77474 0.812919 3.70478 0.799592 3.63815 0.779603 3.57151 0.752949 3.50488 0.719633 3.43825 0.679654 3.37828 0.639674 3.32497 0.593031 3.27833 0.539725 3.22502 0.486419 3.18171 0.426449 3.1484 0.359817 3.11508 0.293184 3.08843 0.226551 3.06844 0.159918 3.04845 0.0866225 3.03845 0.0166582 3.03845-0.0499745 3.03179-0.12327 3.03845-0.196566 3.05844-0.269862 3.07177-0.343158 3.09509-0.413123 3.12841-0.479755 3.16172-0.539725 3.2017-0.599694 3.24834-0.659664 3.29499-0.71297 3.34829-0.762944 3.40826-0.809587 3.46823-0.849567 3.53153-0.882883 3.59817-0.909536 3.67146-0.942853 3.90801-0.969506 4.3078-0.989496 4.71426-1.00949 5.14071-1.02281 5.58715-1.02948 6.03359-1.02948 6.67326-1.10277 7.50617-1.24936 8.33908-1.38929 8.77886-1.48924 8.8255-1.54921 8.86548-1.60252 8.91545-1.65249 8.97542-1.69913 9.03539-1.73911 9.09869-1.7691 9.16533-1.78909 9.23196-1.80241 9.30192-1.80908 9.37522-1.80908 9.44185-1.80908 9.50849-1.79575 9.57512-1.7691 9.64175-1.74244 9.70172-1.7058 9.75503-1.65915 9.80833-1.61251 9.85498-1.55921 9.89495-1.49924 9.92827-1.43927 9.95492-1.37597 9.97491-1.30933 9.98824-1.2427 9.99157-1.17274 9.98491-1.09944 9.97825-1.02614 9.96159-0.959511 9.93493-0.899541 9.90162-0.832909 9.86164-0.772939 9.815-0.719633 9.76835-0.666327 9.71505-0.623016 9.65508-0.589699 9.58844-0.556383 9.52181-0.533062 9.45518-0.519735 9.38188-0.513072 9.31192-0.513072 9.24529-0.519735 9.17199-0.533062 9.10536-0.556383 9.04539-0.589699 8.98542-0.623016 8.92878-0.662995 8.87547-0.709638 8.82883-0.762944 8.78885-0.819582 8.75554-0.879552 8.72888-0.946184 8.70889-1.01615 8.69557-1.08944 8.6889-1.15608 8.69223-1.22604 8.70556-1.29934 8.71889-1.36597 8.74554-1.42927 8.78552-1.48924 8.81884-1.54921 8.86215-1.60252 8.91545-1.64916 8.96876-1.6958 9.02873-1.73245 9.09536-1.7591 9.162-1.78576 9.23196-1.80241 9.30526-1.80908 9.37189-1.81574 9.43852-1.80908 9.50515-1.78909 9.57845-1.7691 9.64508-1.73911 9.70505-1.69913 9.75836-1.65915 9.80833-1.61251 9.85498-1.55921 9.89495-1.5059 9.92827-1.44593 9.95492-1.3793 9.97491-1.31266 9.98824-1.2427 9.9949-1.1694 9.9949-1.09611 9.98158-1.02614 9.95492-0.959511 9.93493-0.892878 9.92494-0.859562 9.92494-0.859562 9.92494-0.859562 9.30859-0.54972 8.07588 0.0699643 6.84984 0.689648 5.89366 0.966174 5.20735 0.899541 4.52103 0.832909 4.14122 0.806256 4.06793 0.819582 3.99463 0.832909 3.92133 0.832909 3.84804 0.819582 3.77474 0.812919 3.70478 0.799592 3.63815 0.779603 3.57151 0.752949 3.50488 0.719633 3.43825 0.679654 3.37828 0.639674 3.32497 0.593031 3.27833 0.539725 3.22502 0.486419 3.18171 0.426449 3.1484 0.359817 3.11508 0.293184 3.08843 0.226551 3.06844 0.159918 3.04845 0.0866225 3.03845 0.0166582 3.03845-0.0499745 3.03179-0.12327 3.03845-0.196566 3.05844-0.269862 3.07177-0.343158 3.09509-0.413123 3.12841-0.479755 3.16172-0.539725 3.2017-0.599694 3.24834-0.659664 3.29499-0.71297 3.34829-0.762944 3.40826-0.809587 3.46823-0.849567 3.53153-0.882883 3.59817-0.909536 3.67146-0.942853 3.7281-0.962842 3.76808-0.969506 3.80806-0.982832 4.1812-1.02948 4.88751-1.10943 5.58715-1.18939 6.12354-1.22604 6.49669-1.21938 6.86983-1.20605 7.30627-1.06945 7.80602-0.809587 8.2991-0.543056 8.31909-0.139929 7.86599 0.399796 7.40622 0.946184 6.94313 1.33599 6.4767 1.5692 6.01693 1.80241 5.58049 1.97233 5.16737 2.07894 4.74758 2.19222 4.31114 2.26551 3.85803 2.29883 3.39827 2.32548 3.01513 2.23886 2.70862 2.03896 2.40877 1.83906 2.20887 1.53588 2.10892 1.12942 2.00898 0.722965 2.17556 0.236546 2.60867-0.329832 3.04178-0.89621 3.45824-1.30267 3.85803-1.54921 4.25783-1.80241 4.65763-1.99232 5.05742-2.11892 5.45722-2.25219 5.90699-2.37879 6.40673-2.49873 6.89982-2.612 7.33959-2.56536 7.72606-2.3588 8.11253-2.15224 8.3624-1.81574 8.47568-1.34931 8.58895-0.889546 8.57563-0.443107 8.4357-0.0099949 8.29577 0.423118 8.07588 0.899541 7.77604 1.41928 7.47619 1.93235 7.183 2.38878 6.89648 2.78858 6.6033 3.18171 6.30012 3.56152 5.98695 3.928 5.66711 4.29448 5.19069 4.57767 4.55768 4.77756 3.92467 4.97746 3.4649 4.87085 3.17838 4.45773 2.89186 4.03794 2.79191 3.62149 2.87853 3.20836 2.95849 2.8019 3.08843 2.37546 3.26833 1.92902 3.44158 1.48924 3.63815 1.0428 3.85803 0.589699 4.07126 0.136597 4.33113-0.3265 4.63764-0.799592 4.95081-1.27935 5.47054-1.62251 6.19684-1.82907 6.92314-2.04229 7.38623-1.9057 7.58613-1.41928 7.79269-0.932858 7.85933-0.469761 7.78603-0.0299847 7.71273 0.403128 7.58946 0.912868 7.41622 1.49924 7.24964 2.07894 7.04974 2.6853 6.81652 3.31831 6.58331 3.95132 6.32344 4.46106 6.03692 4.84753 5.74374 5.234 5.2873 5.6238 4.66762 6.01693 4.04794 6.4034 3.53153 6.37009 3.11841 5.91698 2.71195 5.46388 2.4854 5.00745 2.43876 4.54768 2.39211 4.08792 2.42543 3.56818 2.53871 2.98848 2.64532 2.40211 2.8119 1.87571 3.03845 1.40928 3.265 0.936189 3.54153 0.456434 3.86803-0.0299847 4.19453-0.523067 4.55435-0.939521 4.94748-1.27935 5.33395-1.61917 5.73374-1.8224 6.14687-1.88904 6.55999-1.95567 6.9398-1.80908 7.28629-1.44926 7.63278-1.08944 7.76937-0.659664 7.69608-0.159918 7.62944 0.333163 7.49618 0.862893 7.29628 1.42927 7.09638 1.99565 6.87316 2.52205 6.62662 3.00847 6.38008 3.49488 6.13021 3.94466 5.877 4.35778 5.63046 4.7709 5.30063 5.12405 4.88751 5.41724 4.47439 5.71042 4.0446 5.83036 3.59817 5.77705 3.15839 5.71709 2.78191 5.51386 2.46874 5.16737 2.1489 4.82088 1.93901 4.40442 1.83906 3.918 1.73245 3.43158 1.7591 2.96515 1.91902 2.51872 2.07228 2.06561 2.23553 1.63583 2.40877 1.22937 2.58202 0.829577 2.78525 0.436444 3.01846 0.0499745 3.25834-0.336495 3.66147-0.606358 4.22784-0.759613 4.80089-0.912868 5.19735-0.766276 5.41724-0.319837 5.63713 0.126602 5.63046 0.689648 5.39725 1.3693 5.1707 2.04229 4.95414 2.57869 4.74758 2.97848 4.54768 3.37828 4.28448 3.71477 3.95798 3.98797 3.63815 4.2545 3.24501 4.37111 2.77858 4.33779 2.31882 4.30447 1.91902 4.18453 1.57919 3.97797 1.23937 3.77141 0.952848 3.46823 0.719633 3.06844 0.486419 2.66864 0.343158 2.26551 0.289852 1.85905 0.229883 1.45259 0.253204 1.02948 0.359817 0.589699 0.473092 0.16325 0.782934-0.259868 1.28934-0.679654 1.79575-1.09944 2.26218-1.22271 2.68863-1.04946 3.10842-0.87622 3.38494-0.619684 3.51821-0.279857 3.65147 0.0533062 3.70145 0.539725 3.66813 1.1794 3.63481 1.81907 3.55819 2.3488 3.43825 2.76859 3.32497 3.19504 2.9485 3.52487 2.30882 3.75808 1.67581 3.9913 1.16607 3.7914 0.779603 3.15839 0.399796 2.51872 0.249873 2.01897 0.329832 1.65915 0.403128 1.29267 0.646337 0.796261 1.05946 0.169913 1.47258-0.449771 1.96233-0.682985 2.52871-0.52973 3.09509-0.376475 3.42159 0.00666327 3.50821 0.619684 3.58817 1.23937 3.53153 1.77909 3.3383 2.23886 3.1384 2.70529 3.04511 2.96849 3.05844 3.02846 3.07843 3.09509 3.08843 3.15839 3.08843 3.21836 3.08843 3.28499 3.08176 3.34829 3.06844 3.40826 3.04845 3.46823 3.02512 3.52487 2.99847 3.57818 2.97182 3.63814 2.9385 3.69145 2.89852 3.73809 2.85188 3.78474 2.80524 3.82805 2.75859 3.86803 2.70529 3.90134 2.64865 3.93133 2.58868 3.95798 2.52871 3.97797 2.46874 3.9913 2.40877 3.99796 2.34214 4.01129 2.27884 4.01129 2.21887 3.99796 2.1589 3.9913 2.09893 3.97797 2.03896 3.95798 1.97899 3.93799 1.92235 3.91134 1.86905 3.87802 1.81574 3.83804 1.7691 3.79473 1.72912 3.74809 1.68248 3.70145 1.64583 3.65147 1.61917 3.59817 1.58586 3.5382 1.46592 3.31831 1.25936 2.9385 1.04613 2.5587 0.959511 2.06895 0.99949 1.46925 1.03281 0.869557 1.13942 0.369811 1.31933-0.0299847 1.49257-0.436444 1.58253-0.669659 1.58919-0.729628 1.60252-0.789597 1.61917-0.846235 1.63916-0.899541 1.65915-0.952848 1.68581-1.00282 1.71912-1.04946 1.7591-1.09611 1.79908-1.13942 1.83906-1.1794 1.88571-1.21938 1.93568-1.25269 1.98899-1.27935 2.04229-1.29934 2.0956-1.316 2.1489-1.32932 2.20887-1.34265 2.26884-1.34931 2.32881-1.34931 2.38878-1.34931 2.44542-1.34265 2.49873-1.32932 2.5587-1.30933 2.612-1.28601 2.65864-1.25936 2.71195-1.2327 2.75859-1.19939 2.79857-1.15941 2.84522-1.11943 2.8852-1.07279 2.91851-1.01948 2.94517-0.972837 2.96849-0.922863 2.98848-0.869557 3.00847-0.809587 3.02179-0.752949 3.02846-0.699643 3.03512-0.639674 3.07177-0.433113 3.1384-0.0799592 3.2117 0.266531 3.2117 0.686317 3.1384 1.1794 3.0651 1.67248 2.79857 2.09227 2.33881 2.43876 1.88571 2.78525 1.4426 2.86854 1.00949 2.68863 0.56971 2.50872 0.256536 2.26884 0.0699643 1.969-0.109944 1.66249-0.289852 1.306-0.469761 0.899541-0.649669 0.493082-0.749618 0.259868-0.769608 0.199898-0.782934 0.139929-0.792929 0.0766276-0.799592 0.0099949-0.799592-0.0499745-0.792929-0.109944-0.779603-0.169913-0.759613-0.236546-0.736291-0.296515-0.709638-0.349822-0.682985-0.409791-0.646337-0.466429-0.599694-0.519735-0.559715-0.566378-0.513072-0.609689-0.459766-0.649669-0.406459-0.682985-0.349822-0.71297-0.289852-0.739623-0.229883-0.759613-0.169913-0.776271-0.109944-0.789597-0.0433113-0.796261 0.0199898-0.796261 0.0799592-0.789597 0.139929-0.782934 0.20323-0.769608 0.269862-0.749618 0.329832-0.729628 0.38647-0.699643 0.439776-0.659664 0.493082-0.626347 0.543056-0.586368 0.589699-0.539725 0.629679-0.493082 0.666327-0.439776 0.699643-0.379806 0.726296-0.319837 0.739623-0.289852 0.739623-0.289852Z"
       fill="#1E1E1E"
       transform="matrix(1.00123 0 0 1 1214.96 465.741)"
       id="path20" /></g></svg>
